<svg class="rich-terminal" viewBox="0 0 1238 830.8" xmlns="http://www.w3.org/2000/svg">
    <!-- Generated with Rich https://www.textualize.io -->
    <style>

    @font-face {
        font-family: "Fira Code";
        src: local("FiraCode-Regular"),
                url("https://cdnjs.cloudflare.com/ajax/libs/firacode/6.2.0/woff2/FiraCode-Regular.woff2") format("woff2"),
                url("https://cdnjs.cloudflare.com/ajax/libs/firacode/6.2.0/woff/FiraCode-Regular.woff") format("woff");
        font-style: normal;
        font-weight: 400;
    }
    @font-face {
        font-family: "Fira Code";
        src: local("FiraCode-Bold"),
                url("https://cdnjs.cloudflare.com/ajax/libs/firacode/6.2.0/woff2/FiraCode-Bold.woff2") format("woff2"),
                url("https://cdnjs.cloudflare.com/ajax/libs/firacode/6.2.0/woff/FiraCode-Bold.woff") format("woff");
        font-style: bold;
        font-weight: 700;
    }

    .terminal-2605373493-matrix {
        font-family: Fira Code, monospace;
        font-size: 20px;
        line-height: 24.4px;
        font-variant-east-asian: full-width;
    }

    .terminal-2605373493-title {
        font-size: 18px;
        font-weight: bold;
        font-family: arial;
    }

    .terminal-2605373493-r1 { fill: #c5c8c6 }
.terminal-2605373493-r2 { fill: #ffaa00;font-weight: bold }
.terminal-2605373493-r3 { fill: #0a0a0a }
.terminal-2605373493-r4 { fill: #33ff33 }
.terminal-2605373493-r5 { fill: #121212 }
.terminal-2605373493-r6 { fill: #797979 }
.terminal-2605373493-r7 { fill: #e0e0e0 }
.terminal-2605373493-r8 { fill: #7ae998 }
.terminal-2605373493-r9 { fill: #81692f }
.terminal-2605373493-r10 { fill: #0a180e;font-weight: bold }
.terminal-2605373493-r11 { fill: #3e2a0d;font-weight: bold }
.terminal-2605373493-r12 { fill: #008139 }
.terminal-2605373493-r13 { fill: #5e3805 }
.terminal-2605373493-r14 { fill: #333333 }
.terminal-2605373493-r15 { fill: #979797 }
.terminal-2605373493-r16 { fill: #ffa62b;font-weight: bold }
.terminal-2605373493-r17 { fill: #495259 }
    </style>

    <defs>
    <clipPath id="terminal-2605373493-clip-terminal">
      <rect x="0" y="0" width="1219.0" height="779.8" />
    </clipPath>
    <clipPath id="terminal-2605373493-line-0">
    <rect x="0" y="1.5" width="1220" height="24.65"/>
            </clipPath>
<clipPath id="terminal-2605373493-line-1">
    <rect x="0" y="25.9" width="1220" height="24.65"/>
            </clipPath>
<clipPath id="terminal-2605373493-line-2">
    <rect x="0" y="50.3" width="1220" height="24.65"/>
            </clipPath>
<clipPath id="terminal-2605373493-line-3">
    <rect x="0" y="74.7" width="1220" height="24.65"/>
            </clipPath>
<clipPath id="terminal-2605373493-line-4">
    <rect x="0" y="99.1" width="1220" height="24.65"/>
            </clipPath>
<clipPath id="terminal-2605373493-line-5">
    <rect x="0" y="123.5" width="1220" height="24.65"/>
            </clipPath>
<clipPath id="terminal-2605373493-line-6">
    <rect x="0" y="147.9" width="1220" height="24.65"/>
            </clipPath>
<clipPath id="terminal-2605373493-line-7">
    <rect x="0" y="172.3" width="1220" height="24.65"/>
            </clipPath>
<clipPath id="terminal-2605373493-line-8">
    <rect x="0" y="196.7" width="1220" height="24.65"/>
            </clipPath>
<clipPath id="terminal-2605373493-line-9">
    <rect x="0" y="221.1" width="1220" height="24.65"/>
            </clipPath>
<clipPath id="terminal-2605373493-line-10">
    <rect x="0" y="245.5" width="1220" height="24.65"/>
            </clipPath>
<clipPath id="terminal-2605373493-line-11">
    <rect x="0" y="269.9" width="1220" height="24.65"/>
            </clipPath>
<clipPath id="terminal-2605373493-line-12">
    <rect x="0" y="294.3" width="1220" height="24.65"/>
            </clipPath>
<clipPath id="terminal-2605373493-line-13">
    <rect x="0" y="318.7" width="1220" height="24.65"/>
            </clipPath>
<clipPath id="terminal-2605373493-line-14">
    <rect x="0" y="343.1" width="1220" height="24.65"/>
            </clipPath>
<clipPath id="terminal-2605373493-line-15">
    <rect x="0" y="367.5" width="1220" height="24.65"/>
            </clipPath>
<clipPath id="terminal-2605373493-line-16">
    <rect x="0" y="391.9" width="1220" height="24.65"/>
            </clipPath>
<clipPath id="terminal-2605373493-line-17">
    <rect x="0" y="416.3" width="1220" height="24.65"/>
            </clipPath>
<clipPath id="terminal-2605373493-line-18">
    <rect x="0" y="440.7" width="1220" height="24.65"/>
            </clipPath>
<clipPath id="terminal-2605373493-line-19">
    <rect x="0" y="465.1" width="1220" height="24.65"/>
            </clipPath>
<clipPath id="terminal-2605373493-line-20">
    <rect x="0" y="489.5" width="1220" height="24.65"/>
            </clipPath>
<clipPath id="terminal-2605373493-line-21">
    <rect x="0" y="513.9" width="1220" height="24.65"/>
            </clipPath>
<clipPath id="terminal-2605373493-line-22">
    <rect x="0" y="538.3" width="1220" height="24.65"/>
            </clipPath>
<clipPath id="terminal-2605373493-line-23">
    <rect x="0" y="562.7" width="1220" height="24.65"/>
            </clipPath>
<clipPath id="terminal-2605373493-line-24">
    <rect x="0" y="587.1" width="1220" height="24.65"/>
            </clipPath>
<clipPath id="terminal-2605373493-line-25">
    <rect x="0" y="611.5" width="1220" height="24.65"/>
            </clipPath>
<clipPath id="terminal-2605373493-line-26">
    <rect x="0" y="635.9" width="1220" height="24.65"/>
            </clipPath>
<clipPath id="terminal-2605373493-line-27">
    <rect x="0" y="660.3" width="1220" height="24.65"/>
            </clipPath>
<clipPath id="terminal-2605373493-line-28">
    <rect x="0" y="684.7" width="1220" height="24.65"/>
            </clipPath>
<clipPath id="terminal-2605373493-line-29">
    <rect x="0" y="709.1" width="1220" height="24.65"/>
            </clipPath>
<clipPath id="terminal-2605373493-line-30">
    <rect x="0" y="733.5" width="1220" height="24.65"/>
            </clipPath>
    </defs>

    <rect fill="#292929" stroke="rgba(255,255,255,0.35)" stroke-width="1" x="1" y="1" width="1236" height="828.8" rx="8"/><text class="terminal-2605373493-title" fill="#c5c8c6" text-anchor="middle" x="618" y="27">mavica-tools</text>
            <g transform="translate(26,22)">
            <circle cx="0" cy="0" r="7" fill="#ff5f57"/>
            <circle cx="22" cy="0" r="7" fill="#febc2e"/>
            <circle cx="44" cy="0" r="7" fill="#28c840"/>
            </g>
        
    <g transform="translate(9, 41)" clip-path="url(#terminal-2605373493-clip-terminal)">
    <rect fill="#1a1a1a" x="0" y="1.5" width="12.2" height="24.65" shape-rendering="crispEdges"/><rect fill="#1a1a1a" x="12.2" y="1.5" width="85.4" height="24.65" shape-rendering="crispEdges"/><rect fill="#1a1a1a" x="97.6" y="1.5" width="48.8" height="24.65" shape-rendering="crispEdges"/><rect fill="#1a1a1a" x="146.4" y="1.5" width="951.6" height="24.65" shape-rendering="crispEdges"/><rect fill="#1a1a1a" x="1098" y="1.5" width="109.8" height="24.65" shape-rendering="crispEdges"/><rect fill="#1a1a1a" x="1207.8" y="1.5" width="12.2" height="24.65" shape-rendering="crispEdges"/><rect fill="#33ff33" x="0" y="25.9" width="12.2" height="24.65" shape-rendering="crispEdges"/><rect fill="#272727" x="12.2" y="25.9" width="1183.4" height="24.65" shape-rendering="crispEdges"/><rect fill="#0a0a0a" x="1195.6" y="25.9" width="12.2" height="24.65" shape-rendering="crispEdges"/><rect fill="#0a0a0a" x="1207.8" y="25.9" width="12.2" height="24.65" shape-rendering="crispEdges"/><rect fill="#33ff33" x="0" y="50.3" width="12.2" height="24.65" shape-rendering="crispEdges"/><rect fill="#272727" x="12.2" y="50.3" width="24.4" height="24.65" shape-rendering="crispEdges"/><rect fill="#e0e0e0" x="36.6" y="50.3" width="12.2" height="24.65" shape-rendering="crispEdges"/><rect fill="#272727" x="48.8" y="50.3" width="329.4" height="24.65" shape-rendering="crispEdges"/><rect fill="#272727" x="378.2" y="50.3" width="793" height="24.65" shape-rendering="crispEdges"/><rect fill="#272727" x="1171.2" y="50.3" width="24.4" height="24.65" shape-rendering="crispEdges"/><rect fill="#0a0a0a" x="1195.6" y="50.3" width="12.2" height="24.65" shape-rendering="crispEdges"/><rect fill="#0a0a0a" x="1207.8" y="50.3" width="12.2" height="24.65" shape-rendering="crispEdges"/><rect fill="#33ff33" x="0" y="74.7" width="12.2" height="24.65" shape-rendering="crispEdges"/><rect fill="#272727" x="12.2" y="74.7" width="1183.4" height="24.65" shape-rendering="crispEdges"/><rect fill="#0a0a0a" x="1195.6" y="74.7" width="12.2" height="24.65" shape-rendering="crispEdges"/><rect fill="#0a0a0a" x="1207.8" y="74.7" width="12.2" height="24.65" shape-rendering="crispEdges"/><rect fill="#0a0a0a" x="0" y="99.1" width="1220" height="24.65" shape-rendering="crispEdges"/><rect fill="#0a0a0a" x="0" y="123.5" width="1220" height="24.65" shape-rendering="crispEdges"/><rect fill="#0a0a0a" x="0" y="147.9" width="1220" height="24.65" shape-rendering="crispEdges"/><rect fill="#0a0a0a" x="0" y="172.3" width="1220" height="24.65" shape-rendering="crispEdges"/><rect fill="#0a0a0a" x="0" y="196.7" width="1220" height="24.65" shape-rendering="crispEdges"/><rect fill="#0a0a0a" x="0" y="221.1" width="1220" height="24.65" shape-rendering="crispEdges"/><rect fill="#0a0a0a" x="0" y="245.5" width="12.2" height="24.65" shape-rendering="crispEdges"/><rect fill="#4ebf71" x="12.2" y="245.5" width="195.2" height="24.65" shape-rendering="crispEdges"/><rect fill="#0a0a0a" x="207.4" y="245.5" width="12.2" height="24.65" shape-rendering="crispEdges"/><rect fill="#81561a" x="219.6" y="245.5" width="207.4" height="24.65" shape-rendering="crispEdges"/><rect fill="#0a0a0a" x="427" y="245.5" width="793" height="24.65" shape-rendering="crispEdges"/><rect fill="#0a0a0a" x="0" y="269.9" width="12.2" height="24.65" shape-rendering="crispEdges"/><rect fill="#4ebf71" x="12.2" y="269.9" width="48.8" height="24.65" shape-rendering="crispEdges"/><rect fill="#4ebf71" x="61" y="269.9" width="85.4" height="24.65" shape-rendering="crispEdges"/><rect fill="#4ebf71" x="146.4" y="269.9" width="61" height="24.65" shape-rendering="crispEdges"/><rect fill="#0a0a0a" x="207.4" y="269.9" width="12.2" height="24.65" shape-rendering="crispEdges"/><rect fill="#81561a" x="219.6" y="269.9" width="207.4" height="24.65" shape-rendering="crispEdges"/><rect fill="#0a0a0a" x="427" y="269.9" width="793" height="24.65" shape-rendering="crispEdges"/><rect fill="#0a0a0a" x="0" y="294.3" width="12.2" height="24.65" shape-rendering="crispEdges"/><rect fill="#4ebf71" x="12.2" y="294.3" width="195.2" height="24.65" shape-rendering="crispEdges"/><rect fill="#0a0a0a" x="207.4" y="294.3" width="12.2" height="24.65" shape-rendering="crispEdges"/><rect fill="#81561a" x="219.6" y="294.3" width="207.4" height="24.65" shape-rendering="crispEdges"/><rect fill="#0a0a0a" x="427" y="294.3" width="793" height="24.65" shape-rendering="crispEdges"/><rect fill="#0a0a0a" x="0" y="318.7" width="1220" height="24.65" shape-rendering="crispEdges"/><rect fill="#0a0a0a" x="0" y="343.1" width="1220" height="24.65" shape-rendering="crispEdges"/><rect fill="#0a0a0a" x="0" y="367.5" width="1220" height="24.65" shape-rendering="crispEdges"/><rect fill="#0a0a0a" x="0" y="391.9" width="1220" height="24.65" shape-rendering="crispEdges"/><rect fill="#0a0a0a" x="0" y="416.3" width="1220" height="24.65" shape-rendering="crispEdges"/><rect fill="#0a0a0a" x="0" y="440.7" width="1220" height="24.65" shape-rendering="crispEdges"/><rect fill="#0a0a0a" x="0" y="465.1" width="1220" height="24.65" shape-rendering="crispEdges"/><rect fill="#1a1a1a" x="0" y="489.5" width="36.6" height="24.65" shape-rendering="crispEdges"/><rect fill="#1a1a1a" x="36.6" y="489.5" width="122" height="24.65" shape-rendering="crispEdges"/><rect fill="#1a1a1a" x="158.6" y="489.5" width="73.2" height="24.65" shape-rendering="crispEdges"/><rect fill="#1a1a1a" x="231.8" y="489.5" width="97.6" height="24.65" shape-rendering="crispEdges"/><rect fill="#1a1a1a" x="329.4" y="489.5" width="97.6" height="24.65" shape-rendering="crispEdges"/><rect fill="#1a1a1a" x="427" y="489.5" width="793" height="24.65" shape-rendering="crispEdges"/><rect fill="#0a0a0a" x="0" y="513.9" width="1220" height="24.65" shape-rendering="crispEdges"/><rect fill="#333333" x="0" y="538.3" width="12.2" height="24.65" shape-rendering="crispEdges"/><rect fill="#0a0a0a" x="12.2" y="538.3" width="1195.6" height="24.65" shape-rendering="crispEdges"/><rect fill="#0a0a0a" x="1207.8" y="538.3" width="12.2" height="24.65" shape-rendering="crispEdges"/><rect fill="#333333" x="0" y="562.7" width="12.2" height="24.65" shape-rendering="crispEdges"/><rect fill="#0a0a0a" x="12.2" y="562.7" width="12.2" height="24.65" shape-rendering="crispEdges"/><rect fill="#0a0a0a" x="24.4" y="562.7" width="207.4" height="24.65" shape-rendering="crispEdges"/><rect fill="#0a0a0a" x="231.8" y="562.7" width="963.8" height="24.65" shape-rendering="crispEdges"/><rect fill="#0a0a0a" x="1195.6" y="562.7" width="12.2" height="24.65" shape-rendering="crispEdges"/><rect fill="#0a0a0a" x="1207.8" y="562.7" width="12.2" height="24.65" shape-rendering="crispEdges"/><rect fill="#333333" x="0" y="587.1" width="12.2" height="24.65" shape-rendering="crispEdges"/><rect fill="#0a0a0a" x="12.2" y="587.1" width="12.2" height="24.65" shape-rendering="crispEdges"/><rect fill="#0a0a0a" x="24.4" y="587.1" width="1171.2" height="24.65" shape-rendering="crispEdges"/><rect fill="#0a0a0a" x="1195.6" y="587.1" width="12.2" height="24.65" shape-rendering="crispEdges"/><rect fill="#0a0a0a" x="1207.8" y="587.1" width="12.2" height="24.65" shape-rendering="crispEdges"/><rect fill="#333333" x="0" y="611.5" width="12.2" height="24.65" shape-rendering="crispEdges"/><rect fill="#0a0a0a" x="12.2" y="611.5" width="12.2" height="24.65" shape-rendering="crispEdges"/><rect fill="#0a0a0a" x="24.4" y="611.5" width="1171.2" height="24.65" shape-rendering="crispEdges"/><rect fill="#0a0a0a" x="1195.6" y="611.5" width="12.2" height="24.65" shape-rendering="crispEdges"/><rect fill="#0a0a0a" x="1207.8" y="611.5" width="12.2" height="24.65" shape-rendering="crispEdges"/><rect fill="#333333" x="0" y="635.9" width="12.2" height="24.65" shape-rendering="crispEdges"/><rect fill="#0a0a0a" x="12.2" y="635.9" width="1195.6" height="24.65" shape-rendering="crispEdges"/><rect fill="#0a0a0a" x="1207.8" y="635.9" width="12.2" height="24.65" shape-rendering="crispEdges"/><rect fill="#0a0a0a" x="0" y="660.3" width="1220" height="24.65" shape-rendering="crispEdges"/><rect fill="#333333" x="0" y="684.7" width="12.2" height="24.65" shape-rendering="crispEdges"/><rect fill="#0a0a0a" x="12.2" y="684.7" width="1195.6" height="24.65" shape-rendering="crispEdges"/><rect fill="#0a0a0a" x="1207.8" y="684.7" width="12.2" height="24.65" shape-rendering="crispEdges"/><rect fill="#333333" x="0" y="709.1" width="12.2" height="24.65" shape-rendering="crispEdges"/><rect fill="#0a0a0a" x="12.2" y="709.1" width="1195.6" height="24.65" shape-rendering="crispEdges"/><rect fill="#0a0a0a" x="1207.8" y="709.1" width="12.2" height="24.65" shape-rendering="crispEdges"/><rect fill="#0a0a0a" x="0" y="733.5" width="1220" height="24.65" shape-rendering="crispEdges"/><rect fill="#242f38" x="0" y="757.9" width="61" height="24.65" shape-rendering="crispEdges"/><rect fill="#242f38" x="61" y="757.9" width="61" height="24.65" shape-rendering="crispEdges"/><rect fill="#242f38" x="122" y="757.9" width="951.6" height="24.65" shape-rendering="crispEdges"/><rect fill="#242f38" x="1073.6" y="757.9" width="12.2" height="24.65" shape-rendering="crispEdges"/><rect fill="#242f38" x="1085.8" y="757.9" width="24.4" height="24.65" shape-rendering="crispEdges"/><rect fill="#242f38" x="1110.2" y="757.9" width="97.6" height="24.65" shape-rendering="crispEdges"/><rect fill="#242f38" x="1207.8" y="757.9" width="12.2" height="24.65" shape-rendering="crispEdges"/>
    <g class="terminal-2605373493-matrix">
    <text class="terminal-2605373493-r2" x="12.2" y="20" textLength="85.4" clip-path="url(#terminal-2605373493-line-0)">JPEG&#160;Ca</text><text class="terminal-2605373493-r2" x="97.6" y="20" textLength="48.8" clip-path="url(#terminal-2605373493-line-0)">rver</text><text class="terminal-2605373493-r1" x="1220" y="20" textLength="12.2" clip-path="url(#terminal-2605373493-line-0)">
</text><text class="terminal-2605373493-r3" x="0" y="44.4" textLength="12.2" clip-path="url(#terminal-2605373493-line-1)">▊</text><text class="terminal-2605373493-r4" x="12.2" y="44.4" textLength="1183.4" clip-path="url(#terminal-2605373493-line-1)">▔▔▔▔▔▔▔▔▔▔▔▔▔▔▔▔▔▔▔▔▔▔▔▔▔▔▔▔▔▔▔▔▔▔▔▔▔▔▔▔▔▔▔▔▔▔▔▔▔▔▔▔▔▔▔▔▔▔▔▔▔▔▔▔▔▔▔▔▔▔▔▔▔▔▔▔▔▔▔▔▔▔▔▔▔▔▔▔▔▔▔▔▔▔▔▔▔</text><text class="terminal-2605373493-r4" x="1195.6" y="44.4" textLength="12.2" clip-path="url(#terminal-2605373493-line-1)">▎</text><text class="terminal-2605373493-r1" x="1220" y="44.4" textLength="12.2" clip-path="url(#terminal-2605373493-line-1)">
</text><text class="terminal-2605373493-r3" x="0" y="68.8" textLength="12.2" clip-path="url(#terminal-2605373493-line-2)">▊</text><text class="terminal-2605373493-r5" x="36.6" y="68.8" textLength="12.2" clip-path="url(#terminal-2605373493-line-2)">P</text><text class="terminal-2605373493-r6" x="48.8" y="68.8" textLength="329.4" clip-path="url(#terminal-2605373493-line-2)">ath&#160;to&#160;disk&#160;image&#160;(.img)...</text><text class="terminal-2605373493-r4" x="1195.6" y="68.8" textLength="12.2" clip-path="url(#terminal-2605373493-line-2)">▎</text><text class="terminal-2605373493-r1" x="1220" y="68.8" textLength="12.2" clip-path="url(#terminal-2605373493-line-2)">
</text><text class="terminal-2605373493-r3" x="0" y="93.2" textLength="12.2" clip-path="url(#terminal-2605373493-line-3)">▊</text><text class="terminal-2605373493-r4" x="12.2" y="93.2" textLength="1183.4" clip-path="url(#terminal-2605373493-line-3)">▁▁▁▁▁▁▁▁▁▁▁▁▁▁▁▁▁▁▁▁▁▁▁▁▁▁▁▁▁▁▁▁▁▁▁▁▁▁▁▁▁▁▁▁▁▁▁▁▁▁▁▁▁▁▁▁▁▁▁▁▁▁▁▁▁▁▁▁▁▁▁▁▁▁▁▁▁▁▁▁▁▁▁▁▁▁▁▁▁▁▁▁▁▁▁▁▁</text><text class="terminal-2605373493-r4" x="1195.6" y="93.2" textLength="12.2" clip-path="url(#terminal-2605373493-line-3)">▎</text><text class="terminal-2605373493-r1" x="1220" y="93.2" textLength="12.2" clip-path="url(#terminal-2605373493-line-3)">
</text><text class="terminal-2605373493-r1" x="1220" y="117.6" textLength="12.2" clip-path="url(#terminal-2605373493-line-4)">
</text><text class="terminal-2605373493-r1" x="1220" y="142" textLength="12.2" clip-path="url(#terminal-2605373493-line-5)">
</text><text class="terminal-2605373493-r1" x="1220" y="166.4" textLength="12.2" clip-path="url(#terminal-2605373493-line-6)">
</text><text class="terminal-2605373493-r1" x="1220" y="190.8" textLength="12.2" clip-path="url(#terminal-2605373493-line-7)">
</text><text class="terminal-2605373493-r1" x="1220" y="215.2" textLength="12.2" clip-path="url(#terminal-2605373493-line-8)">
</text><text class="terminal-2605373493-r1" x="1220" y="239.6" textLength="12.2" clip-path="url(#terminal-2605373493-line-9)">
</text><text class="terminal-2605373493-r8" x="12.2" y="264" textLength="195.2" clip-path="url(#terminal-2605373493-line-10)">▔▔▔▔▔▔▔▔▔▔▔▔▔▔▔▔</text><text class="terminal-2605373493-r9" x="219.6" y="264" textLength="207.4" clip-path="url(#terminal-2605373493-line-10)">▔▔▔▔▔▔▔▔▔▔▔▔▔▔▔▔▔</text><text class="terminal-2605373493-r1" x="1220" y="264" textLength="12.2" clip-path="url(#terminal-2605373493-line-10)">
</text><text class="terminal-2605373493-r10" x="61" y="288.4" textLength="85.4" clip-path="url(#terminal-2605373493-line-11)">&#160;Carve&#160;</text><text class="terminal-2605373493-r11" x="219.6" y="288.4" textLength="207.4" clip-path="url(#terminal-2605373493-line-11)">&#160;Check&#160;Carved&#160;-&gt;&#160;</text><text class="terminal-2605373493-r1" x="1220" y="288.4" textLength="12.2" clip-path="url(#terminal-2605373493-line-11)">
</text><text class="terminal-2605373493-r12" x="12.2" y="312.8" textLength="195.2" clip-path="url(#terminal-2605373493-line-12)">▁▁▁▁▁▁▁▁▁▁▁▁▁▁▁▁</text><text class="terminal-2605373493-r13" x="219.6" y="312.8" textLength="207.4" clip-path="url(#terminal-2605373493-line-12)">▁▁▁▁▁▁▁▁▁▁▁▁▁▁▁▁▁</text><text class="terminal-2605373493-r1" x="1220" y="312.8" textLength="12.2" clip-path="url(#terminal-2605373493-line-12)">
</text><text class="terminal-2605373493-r1" x="1220" y="337.2" textLength="12.2" clip-path="url(#terminal-2605373493-line-13)">
</text><text class="terminal-2605373493-r1" x="1220" y="361.6" textLength="12.2" clip-path="url(#terminal-2605373493-line-14)">
</text><text class="terminal-2605373493-r1" x="1220" y="386" textLength="12.2" clip-path="url(#terminal-2605373493-line-15)">
</text><text class="terminal-2605373493-r1" x="1220" y="410.4" textLength="12.2" clip-path="url(#terminal-2605373493-line-16)">
</text><text class="terminal-2605373493-r1" x="1220" y="434.8" textLength="12.2" clip-path="url(#terminal-2605373493-line-17)">
</text><text class="terminal-2605373493-r1" x="1220" y="459.2" textLength="12.2" clip-path="url(#terminal-2605373493-line-18)">
</text><text class="terminal-2605373493-r1" x="1220" y="483.6" textLength="12.2" clip-path="url(#terminal-2605373493-line-19)">
</text><text class="terminal-2605373493-r2" x="0" y="508" textLength="36.6" clip-path="url(#terminal-2605373493-line-20)">&#160;#&#160;</text><text class="terminal-2605373493-r2" x="36.6" y="508" textLength="122" clip-path="url(#terminal-2605373493-line-20)">&#160;Filename&#160;</text><text class="terminal-2605373493-r2" x="158.6" y="508" textLength="73.2" clip-path="url(#terminal-2605373493-line-20)">&#160;Size&#160;</text><text class="terminal-2605373493-r2" x="231.8" y="508" textLength="97.6" clip-path="url(#terminal-2605373493-line-20)">&#160;Offset&#160;</text><text class="terminal-2605373493-r2" x="329.4" y="508" textLength="97.6" clip-path="url(#terminal-2605373493-line-20)">&#160;Status&#160;</text><text class="terminal-2605373493-r1" x="1220" y="508" textLength="12.2" clip-path="url(#terminal-2605373493-line-20)">
</text><text class="terminal-2605373493-r1" x="1220" y="532.4" textLength="12.2" clip-path="url(#terminal-2605373493-line-21)">
</text><text class="terminal-2605373493-r3" x="0" y="556.8" textLength="12.2" clip-path="url(#terminal-2605373493-line-22)">▊</text><text class="terminal-2605373493-r14" x="12.2" y="556.8" textLength="1195.6" clip-path="url(#terminal-2605373493-line-22)">▔▔▔▔▔▔▔▔▔▔▔▔▔▔▔▔▔▔▔▔▔▔▔▔▔▔▔▔▔▔▔▔▔▔▔▔▔▔▔▔▔▔▔▔▔▔▔▔▔▔▔▔▔▔▔▔▔▔▔▔▔▔▔▔▔▔▔▔▔▔▔▔▔▔▔▔▔▔▔▔▔▔▔▔▔▔▔▔▔▔▔▔▔▔▔▔▔▔</text><text class="terminal-2605373493-r14" x="1207.8" y="556.8" textLength="12.2" clip-path="url(#terminal-2605373493-line-22)">▎</text><text class="terminal-2605373493-r1" x="1220" y="556.8" textLength="12.2" clip-path="url(#terminal-2605373493-line-22)">
</text><text class="terminal-2605373493-r3" x="0" y="581.2" textLength="12.2" clip-path="url(#terminal-2605373493-line-23)">▊</text><text class="terminal-2605373493-r15" x="24.4" y="581.2" textLength="207.4" clip-path="url(#terminal-2605373493-line-23)">No&#160;image&#160;selected</text><text class="terminal-2605373493-r14" x="1207.8" y="581.2" textLength="12.2" clip-path="url(#terminal-2605373493-line-23)">▎</text><text class="terminal-2605373493-r1" x="1220" y="581.2" textLength="12.2" clip-path="url(#terminal-2605373493-line-23)">
</text><text class="terminal-2605373493-r3" x="0" y="605.6" textLength="12.2" clip-path="url(#terminal-2605373493-line-24)">▊</text><text class="terminal-2605373493-r14" x="1207.8" y="605.6" textLength="12.2" clip-path="url(#terminal-2605373493-line-24)">▎</text><text class="terminal-2605373493-r1" x="1220" y="605.6" textLength="12.2" clip-path="url(#terminal-2605373493-line-24)">
</text><text class="terminal-2605373493-r3" x="0" y="630" textLength="12.2" clip-path="url(#terminal-2605373493-line-25)">▊</text><text class="terminal-2605373493-r14" x="1207.8" y="630" textLength="12.2" clip-path="url(#terminal-2605373493-line-25)">▎</text><text class="terminal-2605373493-r1" x="1220" y="630" textLength="12.2" clip-path="url(#terminal-2605373493-line-25)">
</text><text class="terminal-2605373493-r3" x="0" y="654.4" textLength="12.2" clip-path="url(#terminal-2605373493-line-26)">▊</text><text class="terminal-2605373493-r14" x="12.2" y="654.4" textLength="1195.6" clip-path="url(#terminal-2605373493-line-26)">▁▁▁▁▁▁▁▁▁▁▁▁▁▁▁▁▁▁▁▁▁▁▁▁▁▁▁▁▁▁▁▁▁▁▁▁▁▁▁▁▁▁▁▁▁▁▁▁▁▁▁▁▁▁▁▁▁▁▁▁▁▁▁▁▁▁▁▁▁▁▁▁▁▁▁▁▁▁▁▁▁▁▁▁▁▁▁▁▁▁▁▁▁▁▁▁▁▁</text><text class="terminal-2605373493-r14" x="1207.8" y="654.4" textLength="12.2" clip-path="url(#terminal-2605373493-line-26)">▎</text><text class="terminal-2605373493-r1" x="1220" y="654.4" textLength="12.2" clip-path="url(#terminal-2605373493-line-26)">
</text><text class="terminal-2605373493-r1" x="1220" y="678.8" textLength="12.2" clip-path="url(#terminal-2605373493-line-27)">
</text><text class="terminal-2605373493-r3" x="0" y="703.2" textLength="12.2" clip-path="url(#terminal-2605373493-line-28)">▊</text><text class="terminal-2605373493-r14" x="12.2" y="703.2" textLength="1195.6" clip-path="url(#terminal-2605373493-line-28)">▔▔▔▔▔▔▔▔▔▔▔▔▔▔▔▔▔▔▔▔▔▔▔▔▔▔▔▔▔▔▔▔▔▔▔▔▔▔▔▔▔▔▔▔▔▔▔▔▔▔▔▔▔▔▔▔▔▔▔▔▔▔▔▔▔▔▔▔▔▔▔▔▔▔▔▔▔▔▔▔▔▔▔▔▔▔▔▔▔▔▔▔▔▔▔▔▔▔</text><text class="terminal-2605373493-r14" x="1207.8" y="703.2" textLength="12.2" clip-path="url(#terminal-2605373493-line-28)">▎</text><text class="terminal-2605373493-r1" x="1220" y="703.2" textLength="12.2" clip-path="url(#terminal-2605373493-line-28)">
</text><text class="terminal-2605373493-r3" x="0" y="727.6" textLength="12.2" clip-path="url(#terminal-2605373493-line-29)">▊</text><text class="terminal-2605373493-r14" x="12.2" y="727.6" textLength="1195.6" clip-path="url(#terminal-2605373493-line-29)">▁▁▁▁▁▁▁▁▁▁▁▁▁▁▁▁▁▁▁▁▁▁▁▁▁▁▁▁▁▁▁▁▁▁▁▁▁▁▁▁▁▁▁▁▁▁▁▁▁▁▁▁▁▁▁▁▁▁▁▁▁▁▁▁▁▁▁▁▁▁▁▁▁▁▁▁▁▁▁▁▁▁▁▁▁▁▁▁▁▁▁▁▁▁▁▁▁▁</text><text class="terminal-2605373493-r14" x="1207.8" y="727.6" textLength="12.2" clip-path="url(#terminal-2605373493-line-29)">▎</text><text class="terminal-2605373493-r1" x="1220" y="727.6" textLength="12.2" clip-path="url(#terminal-2605373493-line-29)">
</text><text class="terminal-2605373493-r1" x="1220" y="752" textLength="12.2" clip-path="url(#terminal-2605373493-line-30)">
</text><text class="terminal-2605373493-r16" x="0" y="776.4" textLength="61" clip-path="url(#terminal-2605373493-line-31)">&#160;esc&#160;</text><text class="terminal-2605373493-r7" x="61" y="776.4" textLength="61" clip-path="url(#terminal-2605373493-line-31)">Back&#160;</text><text class="terminal-2605373493-r17" x="1073.6" y="776.4" textLength="12.2" clip-path="url(#terminal-2605373493-line-31)">▏</text><text class="terminal-2605373493-r16" x="1085.8" y="776.4" textLength="24.4" clip-path="url(#terminal-2605373493-line-31)">^p</text><text class="terminal-2605373493-r7" x="1110.2" y="776.4" textLength="97.6" clip-path="url(#terminal-2605373493-line-31)">&#160;palette</text>
    </g>
    </g>
</svg>
