<svg class="rich-terminal" viewBox="0 0 1238 904.0" xmlns="http://www.w3.org/2000/svg">
    <!-- Generated with Rich https://www.textualize.io -->
    <style>

    @font-face {
        font-family: "Fira Code";
        src: local("FiraCode-Regular"),
                url("https://cdnjs.cloudflare.com/ajax/libs/firacode/6.2.0/woff2/FiraCode-Regular.woff2") format("woff2"),
                url("https://cdnjs.cloudflare.com/ajax/libs/firacode/6.2.0/woff/FiraCode-Regular.woff") format("woff");
        font-style: normal;
        font-weight: 400;
    }
    @font-face {
        font-family: "Fira Code";
        src: local("FiraCode-Bold"),
                url("https://cdnjs.cloudflare.com/ajax/libs/firacode/6.2.0/woff2/FiraCode-Bold.woff2") format("woff2"),
                url("https://cdnjs.cloudflare.com/ajax/libs/firacode/6.2.0/woff/FiraCode-Bold.woff") format("woff");
        font-style: bold;
        font-weight: 700;
    }

    .terminal-2395338637-matrix {
        font-family: Fira Code, monospace;
        font-size: 20px;
        line-height: 24.4px;
        font-variant-east-asian: full-width;
    }

    .terminal-2395338637-title {
        font-size: 18px;
        font-weight: bold;
        font-family: arial;
    }

    .terminal-2395338637-r1 { fill: #c5c8c6 }
.terminal-2395338637-r2 { fill: #ffaa00;font-weight: bold }
.terminal-2395338637-r3 { fill: #33ff33;font-weight: bold }
.terminal-2395338637-r4 { fill: #2ab12a;font-weight: bold }
.terminal-2395338637-r5 { fill: #0a0a0a }
.terminal-2395338637-r6 { fill: #33ff33 }
.terminal-2395338637-r7 { fill: #121212 }
.terminal-2395338637-r8 { fill: #797979 }
.terminal-2395338637-r9 { fill: #e0e0e0 }
.terminal-2395338637-r10 { fill: #333333 }
.terminal-2395338637-r11 { fill: #1e1e1e }
.terminal-2395338637-r12 { fill: #312916 }
.terminal-2395338637-r13 { fill: #1a130a;font-weight: bold }
.terminal-2395338637-r14 { fill: #251908 }
.terminal-2395338637-r15 { fill: #979797 }
.terminal-2395338637-r16 { fill: #ffa62b;font-weight: bold }
.terminal-2395338637-r17 { fill: #495259 }
    </style>

    <defs>
    <clipPath id="terminal-2395338637-clip-terminal">
      <rect x="0" y="0" width="1219.0" height="853.0" />
    </clipPath>
    <clipPath id="terminal-2395338637-line-0">
    <rect x="0" y="1.5" width="1220" height="24.65"/>
            </clipPath>
<clipPath id="terminal-2395338637-line-1">
    <rect x="0" y="25.9" width="1220" height="24.65"/>
            </clipPath>
<clipPath id="terminal-2395338637-line-2">
    <rect x="0" y="50.3" width="1220" height="24.65"/>
            </clipPath>
<clipPath id="terminal-2395338637-line-3">
    <rect x="0" y="74.7" width="1220" height="24.65"/>
            </clipPath>
<clipPath id="terminal-2395338637-line-4">
    <rect x="0" y="99.1" width="1220" height="24.65"/>
            </clipPath>
<clipPath id="terminal-2395338637-line-5">
    <rect x="0" y="123.5" width="1220" height="24.65"/>
            </clipPath>
<clipPath id="terminal-2395338637-line-6">
    <rect x="0" y="147.9" width="1220" height="24.65"/>
            </clipPath>
<clipPath id="terminal-2395338637-line-7">
    <rect x="0" y="172.3" width="1220" height="24.65"/>
            </clipPath>
<clipPath id="terminal-2395338637-line-8">
    <rect x="0" y="196.7" width="1220" height="24.65"/>
            </clipPath>
<clipPath id="terminal-2395338637-line-9">
    <rect x="0" y="221.1" width="1220" height="24.65"/>
            </clipPath>
<clipPath id="terminal-2395338637-line-10">
    <rect x="0" y="245.5" width="1220" height="24.65"/>
            </clipPath>
<clipPath id="terminal-2395338637-line-11">
    <rect x="0" y="269.9" width="1220" height="24.65"/>
            </clipPath>
<clipPath id="terminal-2395338637-line-12">
    <rect x="0" y="294.3" width="1220" height="24.65"/>
            </clipPath>
<clipPath id="terminal-2395338637-line-13">
    <rect x="0" y="318.7" width="1220" height="24.65"/>
            </clipPath>
<clipPath id="terminal-2395338637-line-14">
    <rect x="0" y="343.1" width="1220" height="24.65"/>
            </clipPath>
<clipPath id="terminal-2395338637-line-15">
    <rect x="0" y="367.5" width="1220" height="24.65"/>
            </clipPath>
<clipPath id="terminal-2395338637-line-16">
    <rect x="0" y="391.9" width="1220" height="24.65"/>
            </clipPath>
<clipPath id="terminal-2395338637-line-17">
    <rect x="0" y="416.3" width="1220" height="24.65"/>
            </clipPath>
<clipPath id="terminal-2395338637-line-18">
    <rect x="0" y="440.7" width="1220" height="24.65"/>
            </clipPath>
<clipPath id="terminal-2395338637-line-19">
    <rect x="0" y="465.1" width="1220" height="24.65"/>
            </clipPath>
<clipPath id="terminal-2395338637-line-20">
    <rect x="0" y="489.5" width="1220" height="24.65"/>
            </clipPath>
<clipPath id="terminal-2395338637-line-21">
    <rect x="0" y="513.9" width="1220" height="24.65"/>
            </clipPath>
<clipPath id="terminal-2395338637-line-22">
    <rect x="0" y="538.3" width="1220" height="24.65"/>
            </clipPath>
<clipPath id="terminal-2395338637-line-23">
    <rect x="0" y="562.7" width="1220" height="24.65"/>
            </clipPath>
<clipPath id="terminal-2395338637-line-24">
    <rect x="0" y="587.1" width="1220" height="24.65"/>
            </clipPath>
<clipPath id="terminal-2395338637-line-25">
    <rect x="0" y="611.5" width="1220" height="24.65"/>
            </clipPath>
<clipPath id="terminal-2395338637-line-26">
    <rect x="0" y="635.9" width="1220" height="24.65"/>
            </clipPath>
<clipPath id="terminal-2395338637-line-27">
    <rect x="0" y="660.3" width="1220" height="24.65"/>
            </clipPath>
<clipPath id="terminal-2395338637-line-28">
    <rect x="0" y="684.7" width="1220" height="24.65"/>
            </clipPath>
<clipPath id="terminal-2395338637-line-29">
    <rect x="0" y="709.1" width="1220" height="24.65"/>
            </clipPath>
<clipPath id="terminal-2395338637-line-30">
    <rect x="0" y="733.5" width="1220" height="24.65"/>
            </clipPath>
<clipPath id="terminal-2395338637-line-31">
    <rect x="0" y="757.9" width="1220" height="24.65"/>
            </clipPath>
<clipPath id="terminal-2395338637-line-32">
    <rect x="0" y="782.3" width="1220" height="24.65"/>
            </clipPath>
<clipPath id="terminal-2395338637-line-33">
    <rect x="0" y="806.7" width="1220" height="24.65"/>
            </clipPath>
    </defs>

    <rect fill="#292929" stroke="rgba(255,255,255,0.35)" stroke-width="1" x="1" y="1" width="1236" height="902" rx="8"/><text class="terminal-2395338637-title" fill="#c5c8c6" text-anchor="middle" x="618" y="27">mavica-tools</text>
            <g transform="translate(26,22)">
            <circle cx="0" cy="0" r="7" fill="#ff5f57"/>
            <circle cx="22" cy="0" r="7" fill="#febc2e"/>
            <circle cx="44" cy="0" r="7" fill="#28c840"/>
            </g>
        
    <g transform="translate(9, 41)" clip-path="url(#terminal-2395338637-clip-terminal)">
    <rect fill="#1a1a1a" x="0" y="1.5" width="12.2" height="24.65" shape-rendering="crispEdges"/><rect fill="#1a1a1a" x="12.2" y="1.5" width="85.4" height="24.65" shape-rendering="crispEdges"/><rect fill="#1a1a1a" x="97.6" y="1.5" width="48.8" height="24.65" shape-rendering="crispEdges"/><rect fill="#1a1a1a" x="146.4" y="1.5" width="24.4" height="24.65" shape-rendering="crispEdges"/><rect fill="#1a1a1a" x="170.8" y="1.5" width="427" height="24.65" shape-rendering="crispEdges"/><rect fill="#1a1a1a" x="597.8" y="1.5" width="500.2" height="24.65" shape-rendering="crispEdges"/><rect fill="#1a1a1a" x="1098" y="1.5" width="109.8" height="24.65" shape-rendering="crispEdges"/><rect fill="#1a1a1a" x="1207.8" y="1.5" width="12.2" height="24.65" shape-rendering="crispEdges"/><rect fill="#33ff33" x="0" y="25.9" width="12.2" height="24.65" shape-rendering="crispEdges"/><rect fill="#272727" x="12.2" y="25.9" width="1183.4" height="24.65" shape-rendering="crispEdges"/><rect fill="#0a0a0a" x="1195.6" y="25.9" width="12.2" height="24.65" shape-rendering="crispEdges"/><rect fill="#0a0a0a" x="1207.8" y="25.9" width="12.2" height="24.65" shape-rendering="crispEdges"/><rect fill="#33ff33" x="0" y="50.3" width="12.2" height="24.65" shape-rendering="crispEdges"/><rect fill="#272727" x="12.2" y="50.3" width="24.4" height="24.65" shape-rendering="crispEdges"/><rect fill="#e0e0e0" x="36.6" y="50.3" width="12.2" height="24.65" shape-rendering="crispEdges"/><rect fill="#272727" x="48.8" y="50.3" width="329.4" height="24.65" shape-rendering="crispEdges"/><rect fill="#272727" x="378.2" y="50.3" width="793" height="24.65" shape-rendering="crispEdges"/><rect fill="#272727" x="1171.2" y="50.3" width="24.4" height="24.65" shape-rendering="crispEdges"/><rect fill="#0a0a0a" x="1195.6" y="50.3" width="12.2" height="24.65" shape-rendering="crispEdges"/><rect fill="#0a0a0a" x="1207.8" y="50.3" width="12.2" height="24.65" shape-rendering="crispEdges"/><rect fill="#33ff33" x="0" y="74.7" width="12.2" height="24.65" shape-rendering="crispEdges"/><rect fill="#272727" x="12.2" y="74.7" width="1183.4" height="24.65" shape-rendering="crispEdges"/><rect fill="#0a0a0a" x="1195.6" y="74.7" width="12.2" height="24.65" shape-rendering="crispEdges"/><rect fill="#0a0a0a" x="1207.8" y="74.7" width="12.2" height="24.65" shape-rendering="crispEdges"/><rect fill="#0a0a0a" x="0" y="99.1" width="1220" height="24.65" shape-rendering="crispEdges"/><rect fill="#333333" x="0" y="123.5" width="12.2" height="24.65" shape-rendering="crispEdges"/><rect fill="#1e1e1e" x="12.2" y="123.5" width="1183.4" height="24.65" shape-rendering="crispEdges"/><rect fill="#0a0a0a" x="1195.6" y="123.5" width="12.2" height="24.65" shape-rendering="crispEdges"/><rect fill="#0a0a0a" x="1207.8" y="123.5" width="12.2" height="24.65" shape-rendering="crispEdges"/><rect fill="#333333" x="0" y="147.9" width="12.2" height="24.65" shape-rendering="crispEdges"/><rect fill="#1e1e1e" x="12.2" y="147.9" width="24.4" height="24.65" shape-rendering="crispEdges"/><rect fill="#1e1e1e" x="36.6" y="147.9" width="158.6" height="24.65" shape-rendering="crispEdges"/><rect fill="#1e1e1e" x="195.2" y="147.9" width="976" height="24.65" shape-rendering="crispEdges"/><rect fill="#1e1e1e" x="1171.2" y="147.9" width="24.4" height="24.65" shape-rendering="crispEdges"/><rect fill="#0a0a0a" x="1195.6" y="147.9" width="12.2" height="24.65" shape-rendering="crispEdges"/><rect fill="#0a0a0a" x="1207.8" y="147.9" width="12.2" height="24.65" shape-rendering="crispEdges"/><rect fill="#333333" x="0" y="172.3" width="12.2" height="24.65" shape-rendering="crispEdges"/><rect fill="#1e1e1e" x="12.2" y="172.3" width="1183.4" height="24.65" shape-rendering="crispEdges"/><rect fill="#0a0a0a" x="1195.6" y="172.3" width="12.2" height="24.65" shape-rendering="crispEdges"/><rect fill="#0a0a0a" x="1207.8" y="172.3" width="12.2" height="24.65" shape-rendering="crispEdges"/><rect fill="#0a0a0a" x="0" y="196.7" width="1220" height="24.65" shape-rendering="crispEdges"/><rect fill="#0a0a0a" x="0" y="221.1" width="12.2" height="24.65" shape-rendering="crispEdges"/><rect fill="#0a0a0a" x="12.2" y="221.1" width="390.4" height="24.65" shape-rendering="crispEdges"/><rect fill="#0a0a0a" x="402.6" y="221.1" width="36.6" height="24.65" shape-rendering="crispEdges"/><rect fill="#0a0a0a" x="439.2" y="221.1" width="24.4" height="24.65" shape-rendering="crispEdges"/><rect fill="#0a0a0a" x="463.6" y="221.1" width="756.4" height="24.65" shape-rendering="crispEdges"/><rect fill="#0a0a0a" x="0" y="245.5" width="1220" height="24.65" shape-rendering="crispEdges"/><rect fill="#1a1a1a" x="0" y="269.9" width="36.6" height="24.65" shape-rendering="crispEdges"/><rect fill="#1a1a1a" x="36.6" y="269.9" width="122" height="24.65" shape-rendering="crispEdges"/><rect fill="#1a1a1a" x="158.6" y="269.9" width="73.2" height="24.65" shape-rendering="crispEdges"/><rect fill="#1a1a1a" x="231.8" y="269.9" width="97.6" height="24.65" shape-rendering="crispEdges"/><rect fill="#1a1a1a" x="329.4" y="269.9" width="97.6" height="24.65" shape-rendering="crispEdges"/><rect fill="#1a1a1a" x="427" y="269.9" width="793" height="24.65" shape-rendering="crispEdges"/><rect fill="#0a0a0a" x="0" y="294.3" width="1220" height="24.65" shape-rendering="crispEdges"/><rect fill="#0a0a0a" x="0" y="318.7" width="12.2" height="24.65" shape-rendering="crispEdges"/><rect fill="#30220f" x="12.2" y="318.7" width="134.2" height="24.65" shape-rendering="crispEdges"/><rect fill="#0a0a0a" x="146.4" y="318.7" width="1073.6" height="24.65" shape-rendering="crispEdges"/><rect fill="#0a0a0a" x="0" y="343.1" width="12.2" height="24.65" shape-rendering="crispEdges"/><rect fill="#30220f" x="12.2" y="343.1" width="134.2" height="24.65" shape-rendering="crispEdges"/><rect fill="#0a0a0a" x="146.4" y="343.1" width="1073.6" height="24.65" shape-rendering="crispEdges"/><rect fill="#0a0a0a" x="0" y="367.5" width="12.2" height="24.65" shape-rendering="crispEdges"/><rect fill="#30220f" x="12.2" y="367.5" width="134.2" height="24.65" shape-rendering="crispEdges"/><rect fill="#0a0a0a" x="146.4" y="367.5" width="1073.6" height="24.65" shape-rendering="crispEdges"/><rect fill="#0a0a0a" x="0" y="391.9" width="1220" height="24.65" shape-rendering="crispEdges"/><rect fill="#333333" x="0" y="416.3" width="12.2" height="24.65" shape-rendering="crispEdges"/><rect fill="#0a0a0a" x="12.2" y="416.3" width="1195.6" height="24.65" shape-rendering="crispEdges"/><rect fill="#0a0a0a" x="1207.8" y="416.3" width="12.2" height="24.65" shape-rendering="crispEdges"/><rect fill="#333333" x="0" y="440.7" width="12.2" height="24.65" shape-rendering="crispEdges"/><rect fill="#0a0a0a" x="12.2" y="440.7" width="12.2" height="24.65" shape-rendering="crispEdges"/><rect fill="#0a0a0a" x="24.4" y="440.7" width="231.8" height="24.65" shape-rendering="crispEdges"/><rect fill="#0a0a0a" x="256.2" y="440.7" width="939.4" height="24.65" shape-rendering="crispEdges"/><rect fill="#0a0a0a" x="1195.6" y="440.7" width="12.2" height="24.65" shape-rendering="crispEdges"/><rect fill="#0a0a0a" x="1207.8" y="440.7" width="12.2" height="24.65" shape-rendering="crispEdges"/><rect fill="#333333" x="0" y="465.1" width="12.2" height="24.65" shape-rendering="crispEdges"/><rect fill="#0a0a0a" x="12.2" y="465.1" width="1195.6" height="24.65" shape-rendering="crispEdges"/><rect fill="#0a0a0a" x="1207.8" y="465.1" width="12.2" height="24.65" shape-rendering="crispEdges"/><rect fill="#0a0a0a" x="0" y="489.5" width="1220" height="24.65" shape-rendering="crispEdges"/><rect fill="#333333" x="0" y="513.9" width="12.2" height="24.65" shape-rendering="crispEdges"/><rect fill="#0a0a0a" x="12.2" y="513.9" width="1195.6" height="24.65" shape-rendering="crispEdges"/><rect fill="#0a0a0a" x="1207.8" y="513.9" width="12.2" height="24.65" shape-rendering="crispEdges"/><rect fill="#333333" x="0" y="538.3" width="12.2" height="24.65" shape-rendering="crispEdges"/><rect fill="#0a0a0a" x="12.2" y="538.3" width="1195.6" height="24.65" shape-rendering="crispEdges"/><rect fill="#0a0a0a" x="1207.8" y="538.3" width="12.2" height="24.65" shape-rendering="crispEdges"/><rect fill="#0a0a0a" x="0" y="562.7" width="1220" height="24.65" shape-rendering="crispEdges"/><rect fill="#0a0a0a" x="0" y="587.1" width="1220" height="24.65" shape-rendering="crispEdges"/><rect fill="#0a0a0a" x="0" y="611.5" width="1220" height="24.65" shape-rendering="crispEdges"/><rect fill="#0a0a0a" x="0" y="635.9" width="1220" height="24.65" shape-rendering="crispEdges"/><rect fill="#0a0a0a" x="0" y="660.3" width="1220" height="24.65" shape-rendering="crispEdges"/><rect fill="#0a0a0a" x="0" y="684.7" width="1220" height="24.65" shape-rendering="crispEdges"/><rect fill="#0a0a0a" x="0" y="709.1" width="1220" height="24.65" shape-rendering="crispEdges"/><rect fill="#0a0a0a" x="0" y="733.5" width="1220" height="24.65" shape-rendering="crispEdges"/><rect fill="#0a0a0a" x="0" y="757.9" width="1220" height="24.65" shape-rendering="crispEdges"/><rect fill="#0a0a0a" x="0" y="782.3" width="1220" height="24.65" shape-rendering="crispEdges"/><rect fill="#0a0a0a" x="0" y="806.7" width="1220" height="24.65" shape-rendering="crispEdges"/><rect fill="#242f38" x="0" y="831.1" width="61" height="24.65" shape-rendering="crispEdges"/><rect fill="#242f38" x="61" y="831.1" width="61" height="24.65" shape-rendering="crispEdges"/><rect fill="#242f38" x="122" y="831.1" width="951.6" height="24.65" shape-rendering="crispEdges"/><rect fill="#242f38" x="1073.6" y="831.1" width="12.2" height="24.65" shape-rendering="crispEdges"/><rect fill="#242f38" x="1085.8" y="831.1" width="24.4" height="24.65" shape-rendering="crispEdges"/><rect fill="#242f38" x="1110.2" y="831.1" width="97.6" height="24.65" shape-rendering="crispEdges"/><rect fill="#242f38" x="1207.8" y="831.1" width="12.2" height="24.65" shape-rendering="crispEdges"/>
    <g class="terminal-2395338637-matrix">
    <text class="terminal-2395338637-r2" x="12.2" y="20" textLength="85.4" clip-path="url(#terminal-2395338637-line-0)">JPEG&#160;Ca</text><text class="terminal-2395338637-r2" x="97.6" y="20" textLength="48.8" clip-path="url(#terminal-2395338637-line-0)">rver</text><text class="terminal-2395338637-r4" x="170.8" y="20" textLength="427" clip-path="url(#terminal-2395338637-line-0)">Extract&#160;images&#160;from&#160;raw&#160;disk&#160;images</text><text class="terminal-2395338637-r1" x="1220" y="20" textLength="12.2" clip-path="url(#terminal-2395338637-line-0)">
</text><text class="terminal-2395338637-r5" x="0" y="44.4" textLength="12.2" clip-path="url(#terminal-2395338637-line-1)">▊</text><text class="terminal-2395338637-r6" x="12.2" y="44.4" textLength="1183.4" clip-path="url(#terminal-2395338637-line-1)">▔▔▔▔▔▔▔▔▔▔▔▔▔▔▔▔▔▔▔▔▔▔▔▔▔▔▔▔▔▔▔▔▔▔▔▔▔▔▔▔▔▔▔▔▔▔▔▔▔▔▔▔▔▔▔▔▔▔▔▔▔▔▔▔▔▔▔▔▔▔▔▔▔▔▔▔▔▔▔▔▔▔▔▔▔▔▔▔▔▔▔▔▔▔▔▔▔</text><text class="terminal-2395338637-r6" x="1195.6" y="44.4" textLength="12.2" clip-path="url(#terminal-2395338637-line-1)">▎</text><text class="terminal-2395338637-r1" x="1220" y="44.4" textLength="12.2" clip-path="url(#terminal-2395338637-line-1)">
</text><text class="terminal-2395338637-r5" x="0" y="68.8" textLength="12.2" clip-path="url(#terminal-2395338637-line-2)">▊</text><text class="terminal-2395338637-r7" x="36.6" y="68.8" textLength="12.2" clip-path="url(#terminal-2395338637-line-2)">P</text><text class="terminal-2395338637-r8" x="48.8" y="68.8" textLength="329.4" clip-path="url(#terminal-2395338637-line-2)">ath&#160;to&#160;disk&#160;image&#160;(.img)...</text><text class="terminal-2395338637-r6" x="1195.6" y="68.8" textLength="12.2" clip-path="url(#terminal-2395338637-line-2)">▎</text><text class="terminal-2395338637-r1" x="1220" y="68.8" textLength="12.2" clip-path="url(#terminal-2395338637-line-2)">
</text><text class="terminal-2395338637-r5" x="0" y="93.2" textLength="12.2" clip-path="url(#terminal-2395338637-line-3)">▊</text><text class="terminal-2395338637-r6" x="12.2" y="93.2" textLength="1183.4" clip-path="url(#terminal-2395338637-line-3)">▁▁▁▁▁▁▁▁▁▁▁▁▁▁▁▁▁▁▁▁▁▁▁▁▁▁▁▁▁▁▁▁▁▁▁▁▁▁▁▁▁▁▁▁▁▁▁▁▁▁▁▁▁▁▁▁▁▁▁▁▁▁▁▁▁▁▁▁▁▁▁▁▁▁▁▁▁▁▁▁▁▁▁▁▁▁▁▁▁▁▁▁▁▁▁▁▁</text><text class="terminal-2395338637-r6" x="1195.6" y="93.2" textLength="12.2" clip-path="url(#terminal-2395338637-line-3)">▎</text><text class="terminal-2395338637-r1" x="1220" y="93.2" textLength="12.2" clip-path="url(#terminal-2395338637-line-3)">
</text><text class="terminal-2395338637-r1" x="1220" y="117.6" textLength="12.2" clip-path="url(#terminal-2395338637-line-4)">
</text><text class="terminal-2395338637-r5" x="0" y="142" textLength="12.2" clip-path="url(#terminal-2395338637-line-5)">▊</text><text class="terminal-2395338637-r10" x="12.2" y="142" textLength="1183.4" clip-path="url(#terminal-2395338637-line-5)">▔▔▔▔▔▔▔▔▔▔▔▔▔▔▔▔▔▔▔▔▔▔▔▔▔▔▔▔▔▔▔▔▔▔▔▔▔▔▔▔▔▔▔▔▔▔▔▔▔▔▔▔▔▔▔▔▔▔▔▔▔▔▔▔▔▔▔▔▔▔▔▔▔▔▔▔▔▔▔▔▔▔▔▔▔▔▔▔▔▔▔▔▔▔▔▔▔</text><text class="terminal-2395338637-r10" x="1195.6" y="142" textLength="12.2" clip-path="url(#terminal-2395338637-line-5)">▎</text><text class="terminal-2395338637-r1" x="1220" y="142" textLength="12.2" clip-path="url(#terminal-2395338637-line-5)">
</text><text class="terminal-2395338637-r5" x="0" y="166.4" textLength="12.2" clip-path="url(#terminal-2395338637-line-6)">▊</text><text class="terminal-2395338637-r9" x="36.6" y="166.4" textLength="158.6" clip-path="url(#terminal-2395338637-line-6)">carved_images</text><text class="terminal-2395338637-r10" x="1195.6" y="166.4" textLength="12.2" clip-path="url(#terminal-2395338637-line-6)">▎</text><text class="terminal-2395338637-r1" x="1220" y="166.4" textLength="12.2" clip-path="url(#terminal-2395338637-line-6)">
</text><text class="terminal-2395338637-r5" x="0" y="190.8" textLength="12.2" clip-path="url(#terminal-2395338637-line-7)">▊</text><text class="terminal-2395338637-r10" x="12.2" y="190.8" textLength="1183.4" clip-path="url(#terminal-2395338637-line-7)">▁▁▁▁▁▁▁▁▁▁▁▁▁▁▁▁▁▁▁▁▁▁▁▁▁▁▁▁▁▁▁▁▁▁▁▁▁▁▁▁▁▁▁▁▁▁▁▁▁▁▁▁▁▁▁▁▁▁▁▁▁▁▁▁▁▁▁▁▁▁▁▁▁▁▁▁▁▁▁▁▁▁▁▁▁▁▁▁▁▁▁▁▁▁▁▁▁</text><text class="terminal-2395338637-r10" x="1195.6" y="190.8" textLength="12.2" clip-path="url(#terminal-2395338637-line-7)">▎</text><text class="terminal-2395338637-r1" x="1220" y="190.8" textLength="12.2" clip-path="url(#terminal-2395338637-line-7)">
</text><text class="terminal-2395338637-r1" x="1220" y="215.2" textLength="12.2" clip-path="url(#terminal-2395338637-line-8)">
</text><text class="terminal-2395338637-r11" x="12.2" y="239.6" textLength="390.4" clip-path="url(#terminal-2395338637-line-9)">━━━━━━━━━━━━━━━━━━━━━━━━━━━━━━━━</text><text class="terminal-2395338637-r9" x="439.2" y="239.6" textLength="24.4" clip-path="url(#terminal-2395338637-line-9)">0%</text><text class="terminal-2395338637-r1" x="1220" y="239.6" textLength="12.2" clip-path="url(#terminal-2395338637-line-9)">
</text><text class="terminal-2395338637-r1" x="1220" y="264" textLength="12.2" clip-path="url(#terminal-2395338637-line-10)">
</text><text class="terminal-2395338637-r2" x="0" y="288.4" textLength="36.6" clip-path="url(#terminal-2395338637-line-11)">&#160;#&#160;</text><text class="terminal-2395338637-r2" x="36.6" y="288.4" textLength="122" clip-path="url(#terminal-2395338637-line-11)">&#160;Filename&#160;</text><text class="terminal-2395338637-r2" x="158.6" y="288.4" textLength="73.2" clip-path="url(#terminal-2395338637-line-11)">&#160;Size&#160;</text><text class="terminal-2395338637-r2" x="231.8" y="288.4" textLength="97.6" clip-path="url(#terminal-2395338637-line-11)">&#160;Offset&#160;</text><text class="terminal-2395338637-r2" x="329.4" y="288.4" textLength="97.6" clip-path="url(#terminal-2395338637-line-11)">&#160;Status&#160;</text><text class="terminal-2395338637-r1" x="1220" y="288.4" textLength="12.2" clip-path="url(#terminal-2395338637-line-11)">
</text><text class="terminal-2395338637-r1" x="1220" y="312.8" textLength="12.2" clip-path="url(#terminal-2395338637-line-12)">
</text><text class="terminal-2395338637-r12" x="12.2" y="337.2" textLength="134.2" clip-path="url(#terminal-2395338637-line-13)">▔▔▔▔▔▔▔▔▔▔▔</text><text class="terminal-2395338637-r1" x="1220" y="337.2" textLength="12.2" clip-path="url(#terminal-2395338637-line-13)">
</text><text class="terminal-2395338637-r13" x="12.2" y="361.6" textLength="134.2" clip-path="url(#terminal-2395338637-line-14)">&#160;Check&#160;All&#160;</text><text class="terminal-2395338637-r1" x="1220" y="361.6" textLength="12.2" clip-path="url(#terminal-2395338637-line-14)">
</text><text class="terminal-2395338637-r14" x="12.2" y="386" textLength="134.2" clip-path="url(#terminal-2395338637-line-15)">▁▁▁▁▁▁▁▁▁▁▁</text><text class="terminal-2395338637-r1" x="1220" y="386" textLength="12.2" clip-path="url(#terminal-2395338637-line-15)">
</text><text class="terminal-2395338637-r1" x="1220" y="410.4" textLength="12.2" clip-path="url(#terminal-2395338637-line-16)">
</text><text class="terminal-2395338637-r5" x="0" y="434.8" textLength="12.2" clip-path="url(#terminal-2395338637-line-17)">▊</text><text class="terminal-2395338637-r10" x="12.2" y="434.8" textLength="1195.6" clip-path="url(#terminal-2395338637-line-17)">▔▔▔▔▔▔▔▔▔▔▔▔▔▔▔▔▔▔▔▔▔▔▔▔▔▔▔▔▔▔▔▔▔▔▔▔▔▔▔▔▔▔▔▔▔▔▔▔▔▔▔▔▔▔▔▔▔▔▔▔▔▔▔▔▔▔▔▔▔▔▔▔▔▔▔▔▔▔▔▔▔▔▔▔▔▔▔▔▔▔▔▔▔▔▔▔▔▔</text><text class="terminal-2395338637-r10" x="1207.8" y="434.8" textLength="12.2" clip-path="url(#terminal-2395338637-line-17)">▎</text><text class="terminal-2395338637-r1" x="1220" y="434.8" textLength="12.2" clip-path="url(#terminal-2395338637-line-17)">
</text><text class="terminal-2395338637-r5" x="0" y="459.2" textLength="12.2" clip-path="url(#terminal-2395338637-line-18)">▊</text><text class="terminal-2395338637-r15" x="24.4" y="459.2" textLength="231.8" clip-path="url(#terminal-2395338637-line-18)">&#160;&#160;No&#160;image&#160;selected</text><text class="terminal-2395338637-r10" x="1207.8" y="459.2" textLength="12.2" clip-path="url(#terminal-2395338637-line-18)">▎</text><text class="terminal-2395338637-r1" x="1220" y="459.2" textLength="12.2" clip-path="url(#terminal-2395338637-line-18)">
</text><text class="terminal-2395338637-r5" x="0" y="483.6" textLength="12.2" clip-path="url(#terminal-2395338637-line-19)">▊</text><text class="terminal-2395338637-r10" x="12.2" y="483.6" textLength="1195.6" clip-path="url(#terminal-2395338637-line-19)">▁▁▁▁▁▁▁▁▁▁▁▁▁▁▁▁▁▁▁▁▁▁▁▁▁▁▁▁▁▁▁▁▁▁▁▁▁▁▁▁▁▁▁▁▁▁▁▁▁▁▁▁▁▁▁▁▁▁▁▁▁▁▁▁▁▁▁▁▁▁▁▁▁▁▁▁▁▁▁▁▁▁▁▁▁▁▁▁▁▁▁▁▁▁▁▁▁▁</text><text class="terminal-2395338637-r10" x="1207.8" y="483.6" textLength="12.2" clip-path="url(#terminal-2395338637-line-19)">▎</text><text class="terminal-2395338637-r1" x="1220" y="483.6" textLength="12.2" clip-path="url(#terminal-2395338637-line-19)">
</text><text class="terminal-2395338637-r1" x="1220" y="508" textLength="12.2" clip-path="url(#terminal-2395338637-line-20)">
</text><text class="terminal-2395338637-r5" x="0" y="532.4" textLength="12.2" clip-path="url(#terminal-2395338637-line-21)">▊</text><text class="terminal-2395338637-r10" x="12.2" y="532.4" textLength="1195.6" clip-path="url(#terminal-2395338637-line-21)">▔▔▔▔▔▔▔▔▔▔▔▔▔▔▔▔▔▔▔▔▔▔▔▔▔▔▔▔▔▔▔▔▔▔▔▔▔▔▔▔▔▔▔▔▔▔▔▔▔▔▔▔▔▔▔▔▔▔▔▔▔▔▔▔▔▔▔▔▔▔▔▔▔▔▔▔▔▔▔▔▔▔▔▔▔▔▔▔▔▔▔▔▔▔▔▔▔▔</text><text class="terminal-2395338637-r10" x="1207.8" y="532.4" textLength="12.2" clip-path="url(#terminal-2395338637-line-21)">▎</text><text class="terminal-2395338637-r1" x="1220" y="532.4" textLength="12.2" clip-path="url(#terminal-2395338637-line-21)">
</text><text class="terminal-2395338637-r5" x="0" y="556.8" textLength="12.2" clip-path="url(#terminal-2395338637-line-22)">▊</text><text class="terminal-2395338637-r10" x="12.2" y="556.8" textLength="1195.6" clip-path="url(#terminal-2395338637-line-22)">▁▁▁▁▁▁▁▁▁▁▁▁▁▁▁▁▁▁▁▁▁▁▁▁▁▁▁▁▁▁▁▁▁▁▁▁▁▁▁▁▁▁▁▁▁▁▁▁▁▁▁▁▁▁▁▁▁▁▁▁▁▁▁▁▁▁▁▁▁▁▁▁▁▁▁▁▁▁▁▁▁▁▁▁▁▁▁▁▁▁▁▁▁▁▁▁▁▁</text><text class="terminal-2395338637-r10" x="1207.8" y="556.8" textLength="12.2" clip-path="url(#terminal-2395338637-line-22)">▎</text><text class="terminal-2395338637-r1" x="1220" y="556.8" textLength="12.2" clip-path="url(#terminal-2395338637-line-22)">
</text><text class="terminal-2395338637-r1" x="1220" y="581.2" textLength="12.2" clip-path="url(#terminal-2395338637-line-23)">
</text><text class="terminal-2395338637-r1" x="1220" y="605.6" textLength="12.2" clip-path="url(#terminal-2395338637-line-24)">
</text><text class="terminal-2395338637-r1" x="1220" y="630" textLength="12.2" clip-path="url(#terminal-2395338637-line-25)">
</text><text class="terminal-2395338637-r1" x="1220" y="654.4" textLength="12.2" clip-path="url(#terminal-2395338637-line-26)">
</text><text class="terminal-2395338637-r1" x="1220" y="678.8" textLength="12.2" clip-path="url(#terminal-2395338637-line-27)">
</text><text class="terminal-2395338637-r1" x="1220" y="703.2" textLength="12.2" clip-path="url(#terminal-2395338637-line-28)">
</text><text class="terminal-2395338637-r1" x="1220" y="727.6" textLength="12.2" clip-path="url(#terminal-2395338637-line-29)">
</text><text class="terminal-2395338637-r1" x="1220" y="752" textLength="12.2" clip-path="url(#terminal-2395338637-line-30)">
</text><text class="terminal-2395338637-r1" x="1220" y="776.4" textLength="12.2" clip-path="url(#terminal-2395338637-line-31)">
</text><text class="terminal-2395338637-r1" x="1220" y="800.8" textLength="12.2" clip-path="url(#terminal-2395338637-line-32)">
</text><text class="terminal-2395338637-r1" x="1220" y="825.2" textLength="12.2" clip-path="url(#terminal-2395338637-line-33)">
</text><text class="terminal-2395338637-r16" x="0" y="849.6" textLength="61" clip-path="url(#terminal-2395338637-line-34)">&#160;esc&#160;</text><text class="terminal-2395338637-r9" x="61" y="849.6" textLength="61" clip-path="url(#terminal-2395338637-line-34)">Back&#160;</text><text class="terminal-2395338637-r17" x="1073.6" y="849.6" textLength="12.2" clip-path="url(#terminal-2395338637-line-34)">▏</text><text class="terminal-2395338637-r16" x="1085.8" y="849.6" textLength="24.4" clip-path="url(#terminal-2395338637-line-34)">^p</text><text class="terminal-2395338637-r9" x="1110.2" y="849.6" textLength="97.6" clip-path="url(#terminal-2395338637-line-34)">&#160;palette</text>
    </g>
    </g>
</svg>
