<svg class="rich-terminal" viewBox="0 0 1238 977.1999999999999" xmlns="http://www.w3.org/2000/svg">
    <!-- Generated with Rich https://www.textualize.io -->
    <style>

    @font-face {
        font-family: "Fira Code";
        src: local("FiraCode-Regular"),
                url("https://cdnjs.cloudflare.com/ajax/libs/firacode/6.2.0/woff2/FiraCode-Regular.woff2") format("woff2"),
                url("https://cdnjs.cloudflare.com/ajax/libs/firacode/6.2.0/woff/FiraCode-Regular.woff") format("woff");
        font-style: normal;
        font-weight: 400;
    }
    @font-face {
        font-family: "Fira Code";
        src: local("FiraCode-Bold"),
                url("https://cdnjs.cloudflare.com/ajax/libs/firacode/6.2.0/woff2/FiraCode-Bold.woff2") format("woff2"),
                url("https://cdnjs.cloudflare.com/ajax/libs/firacode/6.2.0/woff/FiraCode-Bold.woff") format("woff");
        font-style: bold;
        font-weight: 700;
    }

    .terminal-1474590193-matrix {
        font-family: Fira Code, monospace;
        font-size: 20px;
        line-height: 24.4px;
        font-variant-east-asian: full-width;
    }

    .terminal-1474590193-title {
        font-size: 18px;
        font-weight: bold;
        font-family: arial;
    }

    .terminal-1474590193-r1 { fill: #c5c8c6 }
.terminal-1474590193-r2 { fill: #ffaa00;font-weight: bold }
.terminal-1474590193-r3 { fill: #0a0a0a }
.terminal-1474590193-r4 { fill: #33ff33 }
.terminal-1474590193-r5 { fill: #121212 }
.terminal-1474590193-r6 { fill: #797979 }
.terminal-1474590193-r7 { fill: #e0e0e0 }
.terminal-1474590193-r8 { fill: #1e1e1e }
.terminal-1474590193-r9 { fill: #ffaa00 }
.terminal-1474590193-r10 { fill: #312916 }
.terminal-1474590193-r11 { fill: #0f0f0f }
.terminal-1474590193-r12 { fill: #1a130a;font-weight: bold }
.terminal-1474590193-r13 { fill: #3e3e3e;font-weight: bold }
.terminal-1474590193-r14 { fill: #251908 }
.terminal-1474590193-r15 { fill: #333333 }
.terminal-1474590193-r16 { fill: #ffa62b;font-weight: bold }
.terminal-1474590193-r17 { fill: #495259 }
    </style>

    <defs>
    <clipPath id="terminal-1474590193-clip-terminal">
      <rect x="0" y="0" width="1219.0" height="926.1999999999999" />
    </clipPath>
    <clipPath id="terminal-1474590193-line-0">
    <rect x="0" y="1.5" width="1220" height="24.65"/>
            </clipPath>
<clipPath id="terminal-1474590193-line-1">
    <rect x="0" y="25.9" width="1220" height="24.65"/>
            </clipPath>
<clipPath id="terminal-1474590193-line-2">
    <rect x="0" y="50.3" width="1220" height="24.65"/>
            </clipPath>
<clipPath id="terminal-1474590193-line-3">
    <rect x="0" y="74.7" width="1220" height="24.65"/>
            </clipPath>
<clipPath id="terminal-1474590193-line-4">
    <rect x="0" y="99.1" width="1220" height="24.65"/>
            </clipPath>
<clipPath id="terminal-1474590193-line-5">
    <rect x="0" y="123.5" width="1220" height="24.65"/>
            </clipPath>
<clipPath id="terminal-1474590193-line-6">
    <rect x="0" y="147.9" width="1220" height="24.65"/>
            </clipPath>
<clipPath id="terminal-1474590193-line-7">
    <rect x="0" y="172.3" width="1220" height="24.65"/>
            </clipPath>
<clipPath id="terminal-1474590193-line-8">
    <rect x="0" y="196.7" width="1220" height="24.65"/>
            </clipPath>
<clipPath id="terminal-1474590193-line-9">
    <rect x="0" y="221.1" width="1220" height="24.65"/>
            </clipPath>
<clipPath id="terminal-1474590193-line-10">
    <rect x="0" y="245.5" width="1220" height="24.65"/>
            </clipPath>
<clipPath id="terminal-1474590193-line-11">
    <rect x="0" y="269.9" width="1220" height="24.65"/>
            </clipPath>
<clipPath id="terminal-1474590193-line-12">
    <rect x="0" y="294.3" width="1220" height="24.65"/>
            </clipPath>
<clipPath id="terminal-1474590193-line-13">
    <rect x="0" y="318.7" width="1220" height="24.65"/>
            </clipPath>
<clipPath id="terminal-1474590193-line-14">
    <rect x="0" y="343.1" width="1220" height="24.65"/>
            </clipPath>
<clipPath id="terminal-1474590193-line-15">
    <rect x="0" y="367.5" width="1220" height="24.65"/>
            </clipPath>
<clipPath id="terminal-1474590193-line-16">
    <rect x="0" y="391.9" width="1220" height="24.65"/>
            </clipPath>
<clipPath id="terminal-1474590193-line-17">
    <rect x="0" y="416.3" width="1220" height="24.65"/>
            </clipPath>
<clipPath id="terminal-1474590193-line-18">
    <rect x="0" y="440.7" width="1220" height="24.65"/>
            </clipPath>
<clipPath id="terminal-1474590193-line-19">
    <rect x="0" y="465.1" width="1220" height="24.65"/>
            </clipPath>
<clipPath id="terminal-1474590193-line-20">
    <rect x="0" y="489.5" width="1220" height="24.65"/>
            </clipPath>
<clipPath id="terminal-1474590193-line-21">
    <rect x="0" y="513.9" width="1220" height="24.65"/>
            </clipPath>
<clipPath id="terminal-1474590193-line-22">
    <rect x="0" y="538.3" width="1220" height="24.65"/>
            </clipPath>
<clipPath id="terminal-1474590193-line-23">
    <rect x="0" y="562.7" width="1220" height="24.65"/>
            </clipPath>
<clipPath id="terminal-1474590193-line-24">
    <rect x="0" y="587.1" width="1220" height="24.65"/>
            </clipPath>
<clipPath id="terminal-1474590193-line-25">
    <rect x="0" y="611.5" width="1220" height="24.65"/>
            </clipPath>
<clipPath id="terminal-1474590193-line-26">
    <rect x="0" y="635.9" width="1220" height="24.65"/>
            </clipPath>
<clipPath id="terminal-1474590193-line-27">
    <rect x="0" y="660.3" width="1220" height="24.65"/>
            </clipPath>
<clipPath id="terminal-1474590193-line-28">
    <rect x="0" y="684.7" width="1220" height="24.65"/>
            </clipPath>
<clipPath id="terminal-1474590193-line-29">
    <rect x="0" y="709.1" width="1220" height="24.65"/>
            </clipPath>
<clipPath id="terminal-1474590193-line-30">
    <rect x="0" y="733.5" width="1220" height="24.65"/>
            </clipPath>
<clipPath id="terminal-1474590193-line-31">
    <rect x="0" y="757.9" width="1220" height="24.65"/>
            </clipPath>
<clipPath id="terminal-1474590193-line-32">
    <rect x="0" y="782.3" width="1220" height="24.65"/>
            </clipPath>
<clipPath id="terminal-1474590193-line-33">
    <rect x="0" y="806.7" width="1220" height="24.65"/>
            </clipPath>
<clipPath id="terminal-1474590193-line-34">
    <rect x="0" y="831.1" width="1220" height="24.65"/>
            </clipPath>
<clipPath id="terminal-1474590193-line-35">
    <rect x="0" y="855.5" width="1220" height="24.65"/>
            </clipPath>
<clipPath id="terminal-1474590193-line-36">
    <rect x="0" y="879.9" width="1220" height="24.65"/>
            </clipPath>
    </defs>

    <rect fill="#292929" stroke="rgba(255,255,255,0.35)" stroke-width="1" x="1" y="1" width="1236" height="975.2" rx="8"/><text class="terminal-1474590193-title" fill="#c5c8c6" text-anchor="middle" x="618" y="27">mavica-tools</text>
            <g transform="translate(26,22)">
            <circle cx="0" cy="0" r="7" fill="#ff5f57"/>
            <circle cx="22" cy="0" r="7" fill="#febc2e"/>
            <circle cx="44" cy="0" r="7" fill="#28c840"/>
            </g>
        
    <g transform="translate(9, 41)" clip-path="url(#terminal-1474590193-clip-terminal)">
    <rect fill="#1a1a1a" x="0" y="1.5" width="12.2" height="24.65" shape-rendering="crispEdges"/><rect fill="#1a1a1a" x="12.2" y="1.5" width="85.4" height="24.65" shape-rendering="crispEdges"/><rect fill="#1a1a1a" x="97.6" y="1.5" width="122" height="24.65" shape-rendering="crispEdges"/><rect fill="#1a1a1a" x="219.6" y="1.5" width="878.4" height="24.65" shape-rendering="crispEdges"/><rect fill="#1a1a1a" x="1098" y="1.5" width="109.8" height="24.65" shape-rendering="crispEdges"/><rect fill="#1a1a1a" x="1207.8" y="1.5" width="12.2" height="24.65" shape-rendering="crispEdges"/><rect fill="#33ff33" x="0" y="25.9" width="12.2" height="24.65" shape-rendering="crispEdges"/><rect fill="#272727" x="12.2" y="25.9" width="1183.4" height="24.65" shape-rendering="crispEdges"/><rect fill="#0a0a0a" x="1195.6" y="25.9" width="12.2" height="24.65" shape-rendering="crispEdges"/><rect fill="#0a0a0a" x="1207.8" y="25.9" width="12.2" height="24.65" shape-rendering="crispEdges"/><rect fill="#33ff33" x="0" y="50.3" width="12.2" height="24.65" shape-rendering="crispEdges"/><rect fill="#272727" x="12.2" y="50.3" width="24.4" height="24.65" shape-rendering="crispEdges"/><rect fill="#e0e0e0" x="36.6" y="50.3" width="12.2" height="24.65" shape-rendering="crispEdges"/><rect fill="#272727" x="48.8" y="50.3" width="427" height="24.65" shape-rendering="crispEdges"/><rect fill="#272727" x="475.8" y="50.3" width="695.4" height="24.65" shape-rendering="crispEdges"/><rect fill="#272727" x="1171.2" y="50.3" width="24.4" height="24.65" shape-rendering="crispEdges"/><rect fill="#0a0a0a" x="1195.6" y="50.3" width="12.2" height="24.65" shape-rendering="crispEdges"/><rect fill="#0a0a0a" x="1207.8" y="50.3" width="12.2" height="24.65" shape-rendering="crispEdges"/><rect fill="#33ff33" x="0" y="74.7" width="12.2" height="24.65" shape-rendering="crispEdges"/><rect fill="#272727" x="12.2" y="74.7" width="1183.4" height="24.65" shape-rendering="crispEdges"/><rect fill="#0a0a0a" x="1195.6" y="74.7" width="12.2" height="24.65" shape-rendering="crispEdges"/><rect fill="#0a0a0a" x="1207.8" y="74.7" width="12.2" height="24.65" shape-rendering="crispEdges"/><rect fill="#0a0a0a" x="0" y="99.1" width="1220" height="24.65" shape-rendering="crispEdges"/><rect fill="#0a0a0a" x="0" y="123.5" width="12.2" height="24.65" shape-rendering="crispEdges"/><rect fill="#0a0a0a" x="12.2" y="123.5" width="390.4" height="24.65" shape-rendering="crispEdges"/><rect fill="#0a0a0a" x="402.6" y="123.5" width="36.6" height="24.65" shape-rendering="crispEdges"/><rect fill="#0a0a0a" x="439.2" y="123.5" width="24.4" height="24.65" shape-rendering="crispEdges"/><rect fill="#0a0a0a" x="463.6" y="123.5" width="756.4" height="24.65" shape-rendering="crispEdges"/><rect fill="#0a0a0a" x="0" y="147.9" width="1220" height="24.65" shape-rendering="crispEdges"/><rect fill="#1a1a1a" x="0" y="172.3" width="97.6" height="24.65" shape-rendering="crispEdges"/><rect fill="#1a1a1a" x="97.6" y="172.3" width="122" height="24.65" shape-rendering="crispEdges"/><rect fill="#1a1a1a" x="219.6" y="172.3" width="73.2" height="24.65" shape-rendering="crispEdges"/><rect fill="#1a1a1a" x="292.8" y="172.3" width="73.2" height="24.65" shape-rendering="crispEdges"/><rect fill="#1a1a1a" x="366" y="172.3" width="97.6" height="24.65" shape-rendering="crispEdges"/><rect fill="#1b1b1b" x="463.6" y="172.3" width="756.4" height="24.65" shape-rendering="crispEdges"/><rect fill="#0a0a0a" x="0" y="196.7" width="1220" height="24.65" shape-rendering="crispEdges"/><rect fill="#0a0a0a" x="0" y="221.1" width="0" height="24.65" shape-rendering="crispEdges"/><rect fill="#0a0a0a" x="0" y="221.1" width="1220" height="24.65" shape-rendering="crispEdges"/><rect fill="#0a0a0a" x="0" y="245.5" width="12.2" height="24.65" shape-rendering="crispEdges"/><rect fill="#30220f" x="12.2" y="245.5" width="219.6" height="24.65" shape-rendering="crispEdges"/><rect fill="#0a0a0a" x="231.8" y="245.5" width="12.2" height="24.65" shape-rendering="crispEdges"/><rect fill="#0d0d0d" x="244" y="245.5" width="195.2" height="24.65" shape-rendering="crispEdges"/><rect fill="#0a0a0a" x="439.2" y="245.5" width="780.8" height="24.65" shape-rendering="crispEdges"/><rect fill="#0a0a0a" x="0" y="269.9" width="12.2" height="24.65" shape-rendering="crispEdges"/><rect fill="#30220f" x="12.2" y="269.9" width="219.6" height="24.65" shape-rendering="crispEdges"/><rect fill="#0a0a0a" x="231.8" y="269.9" width="12.2" height="24.65" shape-rendering="crispEdges"/><rect fill="#0d0d0d" x="244" y="269.9" width="195.2" height="24.65" shape-rendering="crispEdges"/><rect fill="#0a0a0a" x="439.2" y="269.9" width="780.8" height="24.65" shape-rendering="crispEdges"/><rect fill="#0a0a0a" x="0" y="294.3" width="12.2" height="24.65" shape-rendering="crispEdges"/><rect fill="#30220f" x="12.2" y="294.3" width="219.6" height="24.65" shape-rendering="crispEdges"/><rect fill="#0a0a0a" x="231.8" y="294.3" width="12.2" height="24.65" shape-rendering="crispEdges"/><rect fill="#0d0d0d" x="244" y="294.3" width="195.2" height="24.65" shape-rendering="crispEdges"/><rect fill="#0a0a0a" x="439.2" y="294.3" width="780.8" height="24.65" shape-rendering="crispEdges"/><rect fill="#0a0a0a" x="0" y="318.7" width="1220" height="24.65" shape-rendering="crispEdges"/><rect fill="#333333" x="0" y="343.1" width="12.2" height="24.65" shape-rendering="crispEdges"/><rect fill="#0a0a0a" x="12.2" y="343.1" width="1195.6" height="24.65" shape-rendering="crispEdges"/><rect fill="#0a0a0a" x="1207.8" y="343.1" width="12.2" height="24.65" shape-rendering="crispEdges"/><rect fill="#333333" x="0" y="367.5" width="12.2" height="24.65" shape-rendering="crispEdges"/><rect fill="#0a0a0a" x="12.2" y="367.5" width="1195.6" height="24.65" shape-rendering="crispEdges"/><rect fill="#0a0a0a" x="1207.8" y="367.5" width="12.2" height="24.65" shape-rendering="crispEdges"/><rect fill="#0a0a0a" x="0" y="391.9" width="1220" height="24.65" shape-rendering="crispEdges"/><rect fill="#0a0a0a" x="0" y="416.3" width="1220" height="24.65" shape-rendering="crispEdges"/><rect fill="#0a0a0a" x="0" y="440.7" width="1220" height="24.65" shape-rendering="crispEdges"/><rect fill="#0a0a0a" x="0" y="465.1" width="1220" height="24.65" shape-rendering="crispEdges"/><rect fill="#0a0a0a" x="0" y="489.5" width="1220" height="24.65" shape-rendering="crispEdges"/><rect fill="#0a0a0a" x="0" y="513.9" width="1220" height="24.65" shape-rendering="crispEdges"/><rect fill="#0a0a0a" x="0" y="538.3" width="1220" height="24.65" shape-rendering="crispEdges"/><rect fill="#0a0a0a" x="0" y="562.7" width="1220" height="24.65" shape-rendering="crispEdges"/><rect fill="#0a0a0a" x="0" y="587.1" width="1220" height="24.65" shape-rendering="crispEdges"/><rect fill="#0a0a0a" x="0" y="611.5" width="1220" height="24.65" shape-rendering="crispEdges"/><rect fill="#0a0a0a" x="0" y="635.9" width="1220" height="24.65" shape-rendering="crispEdges"/><rect fill="#0a0a0a" x="0" y="660.3" width="1220" height="24.65" shape-rendering="crispEdges"/><rect fill="#0a0a0a" x="0" y="684.7" width="1220" height="24.65" shape-rendering="crispEdges"/><rect fill="#0a0a0a" x="0" y="709.1" width="1220" height="24.65" shape-rendering="crispEdges"/><rect fill="#0a0a0a" x="0" y="733.5" width="1220" height="24.65" shape-rendering="crispEdges"/><rect fill="#0a0a0a" x="0" y="757.9" width="1220" height="24.65" shape-rendering="crispEdges"/><rect fill="#0a0a0a" x="0" y="782.3" width="1220" height="24.65" shape-rendering="crispEdges"/><rect fill="#0a0a0a" x="0" y="806.7" width="1220" height="24.65" shape-rendering="crispEdges"/><rect fill="#0a0a0a" x="0" y="831.1" width="1220" height="24.65" shape-rendering="crispEdges"/><rect fill="#0a0a0a" x="0" y="855.5" width="1220" height="24.65" shape-rendering="crispEdges"/><rect fill="#0a0a0a" x="0" y="879.9" width="1220" height="24.65" shape-rendering="crispEdges"/><rect fill="#242f38" x="0" y="904.3" width="61" height="24.65" shape-rendering="crispEdges"/><rect fill="#242f38" x="61" y="904.3" width="61" height="24.65" shape-rendering="crispEdges"/><rect fill="#242f38" x="122" y="904.3" width="951.6" height="24.65" shape-rendering="crispEdges"/><rect fill="#242f38" x="1073.6" y="904.3" width="12.2" height="24.65" shape-rendering="crispEdges"/><rect fill="#242f38" x="1085.8" y="904.3" width="24.4" height="24.65" shape-rendering="crispEdges"/><rect fill="#242f38" x="1110.2" y="904.3" width="97.6" height="24.65" shape-rendering="crispEdges"/><rect fill="#242f38" x="1207.8" y="904.3" width="12.2" height="24.65" shape-rendering="crispEdges"/>
    <g class="terminal-1474590193-matrix">
    <text class="terminal-1474590193-r2" x="12.2" y="20" textLength="85.4" clip-path="url(#terminal-1474590193-line-0)">JPEG&#160;He</text><text class="terminal-1474590193-r2" x="97.6" y="20" textLength="122" clip-path="url(#terminal-1474590193-line-0)">alth&#160;Check</text><text class="terminal-1474590193-r1" x="1220" y="20" textLength="12.2" clip-path="url(#terminal-1474590193-line-0)">
</text><text class="terminal-1474590193-r3" x="0" y="44.4" textLength="12.2" clip-path="url(#terminal-1474590193-line-1)">▊</text><text class="terminal-1474590193-r4" x="12.2" y="44.4" textLength="1183.4" clip-path="url(#terminal-1474590193-line-1)">▔▔▔▔▔▔▔▔▔▔▔▔▔▔▔▔▔▔▔▔▔▔▔▔▔▔▔▔▔▔▔▔▔▔▔▔▔▔▔▔▔▔▔▔▔▔▔▔▔▔▔▔▔▔▔▔▔▔▔▔▔▔▔▔▔▔▔▔▔▔▔▔▔▔▔▔▔▔▔▔▔▔▔▔▔▔▔▔▔▔▔▔▔▔▔▔▔</text><text class="terminal-1474590193-r4" x="1195.6" y="44.4" textLength="12.2" clip-path="url(#terminal-1474590193-line-1)">▎</text><text class="terminal-1474590193-r1" x="1220" y="44.4" textLength="12.2" clip-path="url(#terminal-1474590193-line-1)">
</text><text class="terminal-1474590193-r3" x="0" y="68.8" textLength="12.2" clip-path="url(#terminal-1474590193-line-2)">▊</text><text class="terminal-1474590193-r5" x="36.6" y="68.8" textLength="12.2" clip-path="url(#terminal-1474590193-line-2)">P</text><text class="terminal-1474590193-r6" x="48.8" y="68.8" textLength="427" clip-path="url(#terminal-1474590193-line-2)">ath&#160;to&#160;directory&#160;or&#160;JPEG&#160;file(s)...</text><text class="terminal-1474590193-r4" x="1195.6" y="68.8" textLength="12.2" clip-path="url(#terminal-1474590193-line-2)">▎</text><text class="terminal-1474590193-r1" x="1220" y="68.8" textLength="12.2" clip-path="url(#terminal-1474590193-line-2)">
</text><text class="terminal-1474590193-r3" x="0" y="93.2" textLength="12.2" clip-path="url(#terminal-1474590193-line-3)">▊</text><text class="terminal-1474590193-r4" x="12.2" y="93.2" textLength="1183.4" clip-path="url(#terminal-1474590193-line-3)">▁▁▁▁▁▁▁▁▁▁▁▁▁▁▁▁▁▁▁▁▁▁▁▁▁▁▁▁▁▁▁▁▁▁▁▁▁▁▁▁▁▁▁▁▁▁▁▁▁▁▁▁▁▁▁▁▁▁▁▁▁▁▁▁▁▁▁▁▁▁▁▁▁▁▁▁▁▁▁▁▁▁▁▁▁▁▁▁▁▁▁▁▁▁▁▁▁</text><text class="terminal-1474590193-r4" x="1195.6" y="93.2" textLength="12.2" clip-path="url(#terminal-1474590193-line-3)">▎</text><text class="terminal-1474590193-r1" x="1220" y="93.2" textLength="12.2" clip-path="url(#terminal-1474590193-line-3)">
</text><text class="terminal-1474590193-r1" x="1220" y="117.6" textLength="12.2" clip-path="url(#terminal-1474590193-line-4)">
</text><text class="terminal-1474590193-r8" x="12.2" y="142" textLength="390.4" clip-path="url(#terminal-1474590193-line-5)">━━━━━━━━━━━━━━━━━━━━━━━━━━━━━━━━</text><text class="terminal-1474590193-r7" x="439.2" y="142" textLength="24.4" clip-path="url(#terminal-1474590193-line-5)">0%</text><text class="terminal-1474590193-r1" x="1220" y="142" textLength="12.2" clip-path="url(#terminal-1474590193-line-5)">
</text><text class="terminal-1474590193-r1" x="1220" y="166.4" textLength="12.2" clip-path="url(#terminal-1474590193-line-6)">
</text><text class="terminal-1474590193-r2" x="0" y="190.8" textLength="97.6" clip-path="url(#terminal-1474590193-line-7)">&#160;Status&#160;</text><text class="terminal-1474590193-r2" x="97.6" y="190.8" textLength="122" clip-path="url(#terminal-1474590193-line-7)">&#160;Filename&#160;</text><text class="terminal-1474590193-r2" x="219.6" y="190.8" textLength="73.2" clip-path="url(#terminal-1474590193-line-7)">&#160;Size&#160;</text><text class="terminal-1474590193-r2" x="292.8" y="190.8" textLength="73.2" clip-path="url(#terminal-1474590193-line-7)">&#160;Dims&#160;</text><text class="terminal-1474590193-r2" x="366" y="190.8" textLength="97.6" clip-path="url(#terminal-1474590193-line-7)">&#160;Issues&#160;</text><text class="terminal-1474590193-r1" x="1220" y="190.8" textLength="12.2" clip-path="url(#terminal-1474590193-line-7)">
</text><text class="terminal-1474590193-r1" x="1220" y="215.2" textLength="12.2" clip-path="url(#terminal-1474590193-line-8)">
</text><text class="terminal-1474590193-r1" x="1220" y="239.6" textLength="12.2" clip-path="url(#terminal-1474590193-line-9)">
</text><text class="terminal-1474590193-r10" x="12.2" y="264" textLength="219.6" clip-path="url(#terminal-1474590193-line-10)">▔▔▔▔▔▔▔▔▔▔▔▔▔▔▔▔▔▔</text><text class="terminal-1474590193-r11" x="244" y="264" textLength="195.2" clip-path="url(#terminal-1474590193-line-10)">▔▔▔▔▔▔▔▔▔▔▔▔▔▔▔▔</text><text class="terminal-1474590193-r1" x="1220" y="264" textLength="12.2" clip-path="url(#terminal-1474590193-line-10)">
</text><text class="terminal-1474590193-r12" x="12.2" y="288.4" textLength="219.6" clip-path="url(#terminal-1474590193-line-11)">&#160;Repair&#160;Bad&#160;Files&#160;</text><text class="terminal-1474590193-r13" x="244" y="288.4" textLength="195.2" clip-path="url(#terminal-1474590193-line-11)">&#160;Stamp&#160;Metadata&#160;</text><text class="terminal-1474590193-r1" x="1220" y="288.4" textLength="12.2" clip-path="url(#terminal-1474590193-line-11)">
</text><text class="terminal-1474590193-r14" x="12.2" y="312.8" textLength="219.6" clip-path="url(#terminal-1474590193-line-12)">▁▁▁▁▁▁▁▁▁▁▁▁▁▁▁▁▁▁</text><text class="terminal-1474590193-r3" x="244" y="312.8" textLength="195.2" clip-path="url(#terminal-1474590193-line-12)">▁▁▁▁▁▁▁▁▁▁▁▁▁▁▁▁</text><text class="terminal-1474590193-r1" x="1220" y="312.8" textLength="12.2" clip-path="url(#terminal-1474590193-line-12)">
</text><text class="terminal-1474590193-r1" x="1220" y="337.2" textLength="12.2" clip-path="url(#terminal-1474590193-line-13)">
</text><text class="terminal-1474590193-r3" x="0" y="361.6" textLength="12.2" clip-path="url(#terminal-1474590193-line-14)">▊</text><text class="terminal-1474590193-r15" x="12.2" y="361.6" textLength="1195.6" clip-path="url(#terminal-1474590193-line-14)">▔▔▔▔▔▔▔▔▔▔▔▔▔▔▔▔▔▔▔▔▔▔▔▔▔▔▔▔▔▔▔▔▔▔▔▔▔▔▔▔▔▔▔▔▔▔▔▔▔▔▔▔▔▔▔▔▔▔▔▔▔▔▔▔▔▔▔▔▔▔▔▔▔▔▔▔▔▔▔▔▔▔▔▔▔▔▔▔▔▔▔▔▔▔▔▔▔▔</text><text class="terminal-1474590193-r15" x="1207.8" y="361.6" textLength="12.2" clip-path="url(#terminal-1474590193-line-14)">▎</text><text class="terminal-1474590193-r1" x="1220" y="361.6" textLength="12.2" clip-path="url(#terminal-1474590193-line-14)">
</text><text class="terminal-1474590193-r3" x="0" y="386" textLength="12.2" clip-path="url(#terminal-1474590193-line-15)">▊</text><text class="terminal-1474590193-r15" x="12.2" y="386" textLength="1195.6" clip-path="url(#terminal-1474590193-line-15)">▁▁▁▁▁▁▁▁▁▁▁▁▁▁▁▁▁▁▁▁▁▁▁▁▁▁▁▁▁▁▁▁▁▁▁▁▁▁▁▁▁▁▁▁▁▁▁▁▁▁▁▁▁▁▁▁▁▁▁▁▁▁▁▁▁▁▁▁▁▁▁▁▁▁▁▁▁▁▁▁▁▁▁▁▁▁▁▁▁▁▁▁▁▁▁▁▁▁</text><text class="terminal-1474590193-r15" x="1207.8" y="386" textLength="12.2" clip-path="url(#terminal-1474590193-line-15)">▎</text><text class="terminal-1474590193-r1" x="1220" y="386" textLength="12.2" clip-path="url(#terminal-1474590193-line-15)">
</text><text class="terminal-1474590193-r1" x="1220" y="410.4" textLength="12.2" clip-path="url(#terminal-1474590193-line-16)">
</text><text class="terminal-1474590193-r1" x="1220" y="434.8" textLength="12.2" clip-path="url(#terminal-1474590193-line-17)">
</text><text class="terminal-1474590193-r1" x="1220" y="459.2" textLength="12.2" clip-path="url(#terminal-1474590193-line-18)">
</text><text class="terminal-1474590193-r1" x="1220" y="483.6" textLength="12.2" clip-path="url(#terminal-1474590193-line-19)">
</text><text class="terminal-1474590193-r1" x="1220" y="508" textLength="12.2" clip-path="url(#terminal-1474590193-line-20)">
</text><text class="terminal-1474590193-r1" x="1220" y="532.4" textLength="12.2" clip-path="url(#terminal-1474590193-line-21)">
</text><text class="terminal-1474590193-r1" x="1220" y="556.8" textLength="12.2" clip-path="url(#terminal-1474590193-line-22)">
</text><text class="terminal-1474590193-r1" x="1220" y="581.2" textLength="12.2" clip-path="url(#terminal-1474590193-line-23)">
</text><text class="terminal-1474590193-r1" x="1220" y="605.6" textLength="12.2" clip-path="url(#terminal-1474590193-line-24)">
</text><text class="terminal-1474590193-r1" x="1220" y="630" textLength="12.2" clip-path="url(#terminal-1474590193-line-25)">
</text><text class="terminal-1474590193-r1" x="1220" y="654.4" textLength="12.2" clip-path="url(#terminal-1474590193-line-26)">
</text><text class="terminal-1474590193-r1" x="1220" y="678.8" textLength="12.2" clip-path="url(#terminal-1474590193-line-27)">
</text><text class="terminal-1474590193-r1" x="1220" y="703.2" textLength="12.2" clip-path="url(#terminal-1474590193-line-28)">
</text><text class="terminal-1474590193-r1" x="1220" y="727.6" textLength="12.2" clip-path="url(#terminal-1474590193-line-29)">
</text><text class="terminal-1474590193-r1" x="1220" y="752" textLength="12.2" clip-path="url(#terminal-1474590193-line-30)">
</text><text class="terminal-1474590193-r1" x="1220" y="776.4" textLength="12.2" clip-path="url(#terminal-1474590193-line-31)">
</text><text class="terminal-1474590193-r1" x="1220" y="800.8" textLength="12.2" clip-path="url(#terminal-1474590193-line-32)">
</text><text class="terminal-1474590193-r1" x="1220" y="825.2" textLength="12.2" clip-path="url(#terminal-1474590193-line-33)">
</text><text class="terminal-1474590193-r1" x="1220" y="849.6" textLength="12.2" clip-path="url(#terminal-1474590193-line-34)">
</text><text class="terminal-1474590193-r1" x="1220" y="874" textLength="12.2" clip-path="url(#terminal-1474590193-line-35)">
</text><text class="terminal-1474590193-r1" x="1220" y="898.4" textLength="12.2" clip-path="url(#terminal-1474590193-line-36)">
</text><text class="terminal-1474590193-r16" x="0" y="922.8" textLength="61" clip-path="url(#terminal-1474590193-line-37)">&#160;esc&#160;</text><text class="terminal-1474590193-r7" x="61" y="922.8" textLength="61" clip-path="url(#terminal-1474590193-line-37)">Back&#160;</text><text class="terminal-1474590193-r17" x="1073.6" y="922.8" textLength="12.2" clip-path="url(#terminal-1474590193-line-37)">▏</text><text class="terminal-1474590193-r16" x="1085.8" y="922.8" textLength="24.4" clip-path="url(#terminal-1474590193-line-37)">^p</text><text class="terminal-1474590193-r7" x="1110.2" y="922.8" textLength="97.6" clip-path="url(#terminal-1474590193-line-37)">&#160;palette</text>
    </g>
    </g>
</svg>
