<svg class="rich-terminal" viewBox="0 0 1238 1026.0" xmlns="http://www.w3.org/2000/svg">
    <!-- Generated with Rich https://www.textualize.io -->
    <style>

    @font-face {
        font-family: "Fira Code";
        src: local("FiraCode-Regular"),
                url("https://cdnjs.cloudflare.com/ajax/libs/firacode/6.2.0/woff2/FiraCode-Regular.woff2") format("woff2"),
                url("https://cdnjs.cloudflare.com/ajax/libs/firacode/6.2.0/woff/FiraCode-Regular.woff") format("woff");
        font-style: normal;
        font-weight: 400;
    }
    @font-face {
        font-family: "Fira Code";
        src: local("FiraCode-Bold"),
                url("https://cdnjs.cloudflare.com/ajax/libs/firacode/6.2.0/woff2/FiraCode-Bold.woff2") format("woff2"),
                url("https://cdnjs.cloudflare.com/ajax/libs/firacode/6.2.0/woff/FiraCode-Bold.woff") format("woff");
        font-style: bold;
        font-weight: 700;
    }

    .terminal-898764802-matrix {
        font-family: Fira Code, monospace;
        font-size: 20px;
        line-height: 24.4px;
        font-variant-east-asian: full-width;
    }

    .terminal-898764802-title {
        font-size: 18px;
        font-weight: bold;
        font-family: arial;
    }

    .terminal-898764802-r1 { fill: #c5c8c6 }
.terminal-898764802-r2 { fill: #ffaa00;font-weight: bold }
.terminal-898764802-r3 { fill: #33ff33;font-weight: bold }
.terminal-898764802-r4 { fill: #2ab12a;font-weight: bold }
.terminal-898764802-r5 { fill: #0a0a0a }
.terminal-898764802-r6 { fill: #33ff33 }
.terminal-898764802-r7 { fill: #121212 }
.terminal-898764802-r8 { fill: #797979 }
.terminal-898764802-r9 { fill: #e0e0e0 }
.terminal-898764802-r10 { fill: #333333 }
.terminal-898764802-r11 { fill: #737373 }
.terminal-898764802-r12 { fill: #7ae998 }
.terminal-898764802-r13 { fill: #ffcf56 }
.terminal-898764802-r14 { fill: #2d2d2d }
.terminal-898764802-r15 { fill: #0a180e;font-weight: bold }
.terminal-898764802-r16 { fill: #211505;font-weight: bold }
.terminal-898764802-r17 { fill: #e0e0e0;font-weight: bold }
.terminal-898764802-r18 { fill: #008139 }
.terminal-898764802-r19 { fill: #b86b00 }
.terminal-898764802-r20 { fill: #0d0d0d }
.terminal-898764802-r21 { fill: #1e1e1e }
.terminal-898764802-r22 { fill: #979797 }
.terminal-898764802-r23 { fill: #ffa62b;font-weight: bold }
.terminal-898764802-r24 { fill: #495259 }
    </style>

    <defs>
    <clipPath id="terminal-898764802-clip-terminal">
      <rect x="0" y="0" width="1219.0" height="975.0" />
    </clipPath>
    <clipPath id="terminal-898764802-line-0">
    <rect x="0" y="1.5" width="1220" height="24.65"/>
            </clipPath>
<clipPath id="terminal-898764802-line-1">
    <rect x="0" y="25.9" width="1220" height="24.65"/>
            </clipPath>
<clipPath id="terminal-898764802-line-2">
    <rect x="0" y="50.3" width="1220" height="24.65"/>
            </clipPath>
<clipPath id="terminal-898764802-line-3">
    <rect x="0" y="74.7" width="1220" height="24.65"/>
            </clipPath>
<clipPath id="terminal-898764802-line-4">
    <rect x="0" y="99.1" width="1220" height="24.65"/>
            </clipPath>
<clipPath id="terminal-898764802-line-5">
    <rect x="0" y="123.5" width="1220" height="24.65"/>
            </clipPath>
<clipPath id="terminal-898764802-line-6">
    <rect x="0" y="147.9" width="1220" height="24.65"/>
            </clipPath>
<clipPath id="terminal-898764802-line-7">
    <rect x="0" y="172.3" width="1220" height="24.65"/>
            </clipPath>
<clipPath id="terminal-898764802-line-8">
    <rect x="0" y="196.7" width="1220" height="24.65"/>
            </clipPath>
<clipPath id="terminal-898764802-line-9">
    <rect x="0" y="221.1" width="1220" height="24.65"/>
            </clipPath>
<clipPath id="terminal-898764802-line-10">
    <rect x="0" y="245.5" width="1220" height="24.65"/>
            </clipPath>
<clipPath id="terminal-898764802-line-11">
    <rect x="0" y="269.9" width="1220" height="24.65"/>
            </clipPath>
<clipPath id="terminal-898764802-line-12">
    <rect x="0" y="294.3" width="1220" height="24.65"/>
            </clipPath>
<clipPath id="terminal-898764802-line-13">
    <rect x="0" y="318.7" width="1220" height="24.65"/>
            </clipPath>
<clipPath id="terminal-898764802-line-14">
    <rect x="0" y="343.1" width="1220" height="24.65"/>
            </clipPath>
<clipPath id="terminal-898764802-line-15">
    <rect x="0" y="367.5" width="1220" height="24.65"/>
            </clipPath>
<clipPath id="terminal-898764802-line-16">
    <rect x="0" y="391.9" width="1220" height="24.65"/>
            </clipPath>
<clipPath id="terminal-898764802-line-17">
    <rect x="0" y="416.3" width="1220" height="24.65"/>
            </clipPath>
<clipPath id="terminal-898764802-line-18">
    <rect x="0" y="440.7" width="1220" height="24.65"/>
            </clipPath>
<clipPath id="terminal-898764802-line-19">
    <rect x="0" y="465.1" width="1220" height="24.65"/>
            </clipPath>
<clipPath id="terminal-898764802-line-20">
    <rect x="0" y="489.5" width="1220" height="24.65"/>
            </clipPath>
<clipPath id="terminal-898764802-line-21">
    <rect x="0" y="513.9" width="1220" height="24.65"/>
            </clipPath>
<clipPath id="terminal-898764802-line-22">
    <rect x="0" y="538.3" width="1220" height="24.65"/>
            </clipPath>
<clipPath id="terminal-898764802-line-23">
    <rect x="0" y="562.7" width="1220" height="24.65"/>
            </clipPath>
<clipPath id="terminal-898764802-line-24">
    <rect x="0" y="587.1" width="1220" height="24.65"/>
            </clipPath>
<clipPath id="terminal-898764802-line-25">
    <rect x="0" y="611.5" width="1220" height="24.65"/>
            </clipPath>
<clipPath id="terminal-898764802-line-26">
    <rect x="0" y="635.9" width="1220" height="24.65"/>
            </clipPath>
<clipPath id="terminal-898764802-line-27">
    <rect x="0" y="660.3" width="1220" height="24.65"/>
            </clipPath>
<clipPath id="terminal-898764802-line-28">
    <rect x="0" y="684.7" width="1220" height="24.65"/>
            </clipPath>
<clipPath id="terminal-898764802-line-29">
    <rect x="0" y="709.1" width="1220" height="24.65"/>
            </clipPath>
<clipPath id="terminal-898764802-line-30">
    <rect x="0" y="733.5" width="1220" height="24.65"/>
            </clipPath>
<clipPath id="terminal-898764802-line-31">
    <rect x="0" y="757.9" width="1220" height="24.65"/>
            </clipPath>
<clipPath id="terminal-898764802-line-32">
    <rect x="0" y="782.3" width="1220" height="24.65"/>
            </clipPath>
<clipPath id="terminal-898764802-line-33">
    <rect x="0" y="806.7" width="1220" height="24.65"/>
            </clipPath>
<clipPath id="terminal-898764802-line-34">
    <rect x="0" y="831.1" width="1220" height="24.65"/>
            </clipPath>
<clipPath id="terminal-898764802-line-35">
    <rect x="0" y="855.5" width="1220" height="24.65"/>
            </clipPath>
<clipPath id="terminal-898764802-line-36">
    <rect x="0" y="879.9" width="1220" height="24.65"/>
            </clipPath>
<clipPath id="terminal-898764802-line-37">
    <rect x="0" y="904.3" width="1220" height="24.65"/>
            </clipPath>
<clipPath id="terminal-898764802-line-38">
    <rect x="0" y="928.7" width="1220" height="24.65"/>
            </clipPath>
    </defs>

    <rect fill="#292929" stroke="rgba(255,255,255,0.35)" stroke-width="1" x="1" y="1" width="1236" height="1024" rx="8"/><text class="terminal-898764802-title" fill="#c5c8c6" text-anchor="middle" x="618" y="27">mavica-tools</text>
            <g transform="translate(26,22)">
            <circle cx="0" cy="0" r="7" fill="#ff5f57"/>
            <circle cx="22" cy="0" r="7" fill="#febc2e"/>
            <circle cx="44" cy="0" r="7" fill="#28c840"/>
            </g>
        
    <g transform="translate(9, 41)" clip-path="url(#terminal-898764802-clip-terminal)">
    <rect fill="#1a1a1a" x="0" y="1.5" width="12.2" height="24.65" shape-rendering="crispEdges"/><rect fill="#1a1a1a" x="12.2" y="1.5" width="85.4" height="24.65" shape-rendering="crispEdges"/><rect fill="#1a1a1a" x="97.6" y="1.5" width="61" height="24.65" shape-rendering="crispEdges"/><rect fill="#1a1a1a" x="158.6" y="1.5" width="24.4" height="24.65" shape-rendering="crispEdges"/><rect fill="#1a1a1a" x="183" y="1.5" width="524.6" height="24.65" shape-rendering="crispEdges"/><rect fill="#1a1a1a" x="707.6" y="1.5" width="390.4" height="24.65" shape-rendering="crispEdges"/><rect fill="#1a1a1a" x="1098" y="1.5" width="109.8" height="24.65" shape-rendering="crispEdges"/><rect fill="#1a1a1a" x="1207.8" y="1.5" width="12.2" height="24.65" shape-rendering="crispEdges"/><rect fill="#33ff33" x="0" y="25.9" width="12.2" height="24.65" shape-rendering="crispEdges"/><rect fill="#272727" x="12.2" y="25.9" width="1183.4" height="24.65" shape-rendering="crispEdges"/><rect fill="#0a0a0a" x="1195.6" y="25.9" width="12.2" height="24.65" shape-rendering="crispEdges"/><rect fill="#0a0a0a" x="1207.8" y="25.9" width="12.2" height="24.65" shape-rendering="crispEdges"/><rect fill="#33ff33" x="0" y="50.3" width="12.2" height="24.65" shape-rendering="crispEdges"/><rect fill="#272727" x="12.2" y="50.3" width="24.4" height="24.65" shape-rendering="crispEdges"/><rect fill="#e0e0e0" x="36.6" y="50.3" width="12.2" height="24.65" shape-rendering="crispEdges"/><rect fill="#272727" x="48.8" y="50.3" width="219.6" height="24.65" shape-rendering="crispEdges"/><rect fill="#272727" x="268.4" y="50.3" width="902.8" height="24.65" shape-rendering="crispEdges"/><rect fill="#272727" x="1171.2" y="50.3" width="24.4" height="24.65" shape-rendering="crispEdges"/><rect fill="#0a0a0a" x="1195.6" y="50.3" width="12.2" height="24.65" shape-rendering="crispEdges"/><rect fill="#0a0a0a" x="1207.8" y="50.3" width="12.2" height="24.65" shape-rendering="crispEdges"/><rect fill="#33ff33" x="0" y="74.7" width="12.2" height="24.65" shape-rendering="crispEdges"/><rect fill="#272727" x="12.2" y="74.7" width="1183.4" height="24.65" shape-rendering="crispEdges"/><rect fill="#0a0a0a" x="1195.6" y="74.7" width="12.2" height="24.65" shape-rendering="crispEdges"/><rect fill="#0a0a0a" x="1207.8" y="74.7" width="12.2" height="24.65" shape-rendering="crispEdges"/><rect fill="#0a0a0a" x="0" y="99.1" width="1220" height="24.65" shape-rendering="crispEdges"/><rect fill="#333333" x="0" y="123.5" width="12.2" height="24.65" shape-rendering="crispEdges"/><rect fill="#1e1e1e" x="12.2" y="123.5" width="1183.4" height="24.65" shape-rendering="crispEdges"/><rect fill="#0a0a0a" x="1195.6" y="123.5" width="12.2" height="24.65" shape-rendering="crispEdges"/><rect fill="#0a0a0a" x="1207.8" y="123.5" width="12.2" height="24.65" shape-rendering="crispEdges"/><rect fill="#333333" x="0" y="147.9" width="12.2" height="24.65" shape-rendering="crispEdges"/><rect fill="#1e1e1e" x="12.2" y="147.9" width="24.4" height="24.65" shape-rendering="crispEdges"/><rect fill="#1e1e1e" x="36.6" y="147.9" width="73.2" height="24.65" shape-rendering="crispEdges"/><rect fill="#1e1e1e" x="109.8" y="147.9" width="1061.4" height="24.65" shape-rendering="crispEdges"/><rect fill="#1e1e1e" x="1171.2" y="147.9" width="24.4" height="24.65" shape-rendering="crispEdges"/><rect fill="#0a0a0a" x="1195.6" y="147.9" width="12.2" height="24.65" shape-rendering="crispEdges"/><rect fill="#0a0a0a" x="1207.8" y="147.9" width="12.2" height="24.65" shape-rendering="crispEdges"/><rect fill="#333333" x="0" y="172.3" width="12.2" height="24.65" shape-rendering="crispEdges"/><rect fill="#1e1e1e" x="12.2" y="172.3" width="1183.4" height="24.65" shape-rendering="crispEdges"/><rect fill="#0a0a0a" x="1195.6" y="172.3" width="12.2" height="24.65" shape-rendering="crispEdges"/><rect fill="#0a0a0a" x="1207.8" y="172.3" width="12.2" height="24.65" shape-rendering="crispEdges"/><rect fill="#0a0a0a" x="0" y="196.7" width="1220" height="24.65" shape-rendering="crispEdges"/><rect fill="#333333" x="0" y="221.1" width="12.2" height="24.65" shape-rendering="crispEdges"/><rect fill="#1e1e1e" x="12.2" y="221.1" width="1183.4" height="24.65" shape-rendering="crispEdges"/><rect fill="#0a0a0a" x="1195.6" y="221.1" width="12.2" height="24.65" shape-rendering="crispEdges"/><rect fill="#0a0a0a" x="1207.8" y="221.1" width="12.2" height="24.65" shape-rendering="crispEdges"/><rect fill="#333333" x="0" y="245.5" width="12.2" height="24.65" shape-rendering="crispEdges"/><rect fill="#1e1e1e" x="12.2" y="245.5" width="24.4" height="24.65" shape-rendering="crispEdges"/><rect fill="#1e1e1e" x="36.6" y="245.5" width="500.2" height="24.65" shape-rendering="crispEdges"/><rect fill="#1e1e1e" x="536.8" y="245.5" width="634.4" height="24.65" shape-rendering="crispEdges"/><rect fill="#1e1e1e" x="1171.2" y="245.5" width="24.4" height="24.65" shape-rendering="crispEdges"/><rect fill="#0a0a0a" x="1195.6" y="245.5" width="12.2" height="24.65" shape-rendering="crispEdges"/><rect fill="#0a0a0a" x="1207.8" y="245.5" width="12.2" height="24.65" shape-rendering="crispEdges"/><rect fill="#333333" x="0" y="269.9" width="12.2" height="24.65" shape-rendering="crispEdges"/><rect fill="#1e1e1e" x="12.2" y="269.9" width="1183.4" height="24.65" shape-rendering="crispEdges"/><rect fill="#0a0a0a" x="1195.6" y="269.9" width="12.2" height="24.65" shape-rendering="crispEdges"/><rect fill="#0a0a0a" x="1207.8" y="269.9" width="12.2" height="24.65" shape-rendering="crispEdges"/><rect fill="#0a0a0a" x="0" y="294.3" width="1220" height="24.65" shape-rendering="crispEdges"/><rect fill="#0a0a0a" x="0" y="318.7" width="12.2" height="24.65" shape-rendering="crispEdges"/><rect fill="#4ebf71" x="12.2" y="318.7" width="122" height="24.65" shape-rendering="crispEdges"/><rect fill="#0a0a0a" x="134.2" y="318.7" width="12.2" height="24.65" shape-rendering="crispEdges"/><rect fill="#fea62b" x="146.4" y="318.7" width="183" height="24.65" shape-rendering="crispEdges"/><rect fill="#0a0a0a" x="329.4" y="318.7" width="12.2" height="24.65" shape-rendering="crispEdges"/><rect fill="#1e1e1e" x="341.6" y="318.7" width="268.4" height="24.65" shape-rendering="crispEdges"/><rect fill="#0a0a0a" x="610" y="318.7" width="610" height="24.65" shape-rendering="crispEdges"/><rect fill="#0a0a0a" x="0" y="343.1" width="12.2" height="24.65" shape-rendering="crispEdges"/><rect fill="#4ebf71" x="12.2" y="343.1" width="12.2" height="24.65" shape-rendering="crispEdges"/><rect fill="#4ebf71" x="24.4" y="343.1" width="97.6" height="24.65" shape-rendering="crispEdges"/><rect fill="#4ebf71" x="122" y="343.1" width="12.2" height="24.65" shape-rendering="crispEdges"/><rect fill="#0a0a0a" x="134.2" y="343.1" width="12.2" height="24.65" shape-rendering="crispEdges"/><rect fill="#fea62b" x="146.4" y="343.1" width="183" height="24.65" shape-rendering="crispEdges"/><rect fill="#0a0a0a" x="329.4" y="343.1" width="12.2" height="24.65" shape-rendering="crispEdges"/><rect fill="#1e1e1e" x="341.6" y="343.1" width="268.4" height="24.65" shape-rendering="crispEdges"/><rect fill="#0a0a0a" x="610" y="343.1" width="610" height="24.65" shape-rendering="crispEdges"/><rect fill="#0a0a0a" x="0" y="367.5" width="12.2" height="24.65" shape-rendering="crispEdges"/><rect fill="#4ebf71" x="12.2" y="367.5" width="122" height="24.65" shape-rendering="crispEdges"/><rect fill="#0a0a0a" x="134.2" y="367.5" width="12.2" height="24.65" shape-rendering="crispEdges"/><rect fill="#fea62b" x="146.4" y="367.5" width="183" height="24.65" shape-rendering="crispEdges"/><rect fill="#0a0a0a" x="329.4" y="367.5" width="12.2" height="24.65" shape-rendering="crispEdges"/><rect fill="#1e1e1e" x="341.6" y="367.5" width="268.4" height="24.65" shape-rendering="crispEdges"/><rect fill="#0a0a0a" x="610" y="367.5" width="610" height="24.65" shape-rendering="crispEdges"/><rect fill="#0a0a0a" x="0" y="391.9" width="1220" height="24.65" shape-rendering="crispEdges"/><rect fill="#0a0a0a" x="0" y="416.3" width="12.2" height="24.65" shape-rendering="crispEdges"/><rect fill="#0a0a0a" x="12.2" y="416.3" width="390.4" height="24.65" shape-rendering="crispEdges"/><rect fill="#0a0a0a" x="402.6" y="416.3" width="36.6" height="24.65" shape-rendering="crispEdges"/><rect fill="#0a0a0a" x="439.2" y="416.3" width="24.4" height="24.65" shape-rendering="crispEdges"/><rect fill="#0a0a0a" x="463.6" y="416.3" width="756.4" height="24.65" shape-rendering="crispEdges"/><rect fill="#333333" x="0" y="440.7" width="12.2" height="24.65" shape-rendering="crispEdges"/><rect fill="#0a0a0a" x="12.2" y="440.7" width="1195.6" height="24.65" shape-rendering="crispEdges"/><rect fill="#0a0a0a" x="1207.8" y="440.7" width="12.2" height="24.65" shape-rendering="crispEdges"/><rect fill="#333333" x="0" y="465.1" width="12.2" height="24.65" shape-rendering="crispEdges"/><rect fill="#0a0a0a" x="12.2" y="465.1" width="12.2" height="24.65" shape-rendering="crispEdges"/><rect fill="#0a0a0a" x="24.4" y="465.1" width="231.8" height="24.65" shape-rendering="crispEdges"/><rect fill="#0a0a0a" x="256.2" y="465.1" width="939.4" height="24.65" shape-rendering="crispEdges"/><rect fill="#0a0a0a" x="1195.6" y="465.1" width="12.2" height="24.65" shape-rendering="crispEdges"/><rect fill="#0a0a0a" x="1207.8" y="465.1" width="12.2" height="24.65" shape-rendering="crispEdges"/><rect fill="#333333" x="0" y="489.5" width="12.2" height="24.65" shape-rendering="crispEdges"/><rect fill="#0a0a0a" x="12.2" y="489.5" width="1195.6" height="24.65" shape-rendering="crispEdges"/><rect fill="#0a0a0a" x="1207.8" y="489.5" width="12.2" height="24.65" shape-rendering="crispEdges"/><rect fill="#0a0a0a" x="0" y="513.9" width="1220" height="24.65" shape-rendering="crispEdges"/><rect fill="#333333" x="0" y="538.3" width="12.2" height="24.65" shape-rendering="crispEdges"/><rect fill="#0a0a0a" x="12.2" y="538.3" width="1195.6" height="24.65" shape-rendering="crispEdges"/><rect fill="#0a0a0a" x="1207.8" y="538.3" width="12.2" height="24.65" shape-rendering="crispEdges"/><rect fill="#333333" x="0" y="562.7" width="12.2" height="24.65" shape-rendering="crispEdges"/><rect fill="#0a0a0a" x="12.2" y="562.7" width="1195.6" height="24.65" shape-rendering="crispEdges"/><rect fill="#0a0a0a" x="1207.8" y="562.7" width="12.2" height="24.65" shape-rendering="crispEdges"/><rect fill="#0a0a0a" x="0" y="587.1" width="1220" height="24.65" shape-rendering="crispEdges"/><rect fill="#0a0a0a" x="0" y="611.5" width="1220" height="24.65" shape-rendering="crispEdges"/><rect fill="#0a0a0a" x="0" y="635.9" width="1220" height="24.65" shape-rendering="crispEdges"/><rect fill="#0a0a0a" x="0" y="660.3" width="1220" height="24.65" shape-rendering="crispEdges"/><rect fill="#0a0a0a" x="0" y="684.7" width="1220" height="24.65" shape-rendering="crispEdges"/><rect fill="#0a0a0a" x="0" y="709.1" width="1220" height="24.65" shape-rendering="crispEdges"/><rect fill="#0a0a0a" x="0" y="733.5" width="1220" height="24.65" shape-rendering="crispEdges"/><rect fill="#0a0a0a" x="0" y="757.9" width="1220" height="24.65" shape-rendering="crispEdges"/><rect fill="#0a0a0a" x="0" y="782.3" width="1220" height="24.65" shape-rendering="crispEdges"/><rect fill="#0a0a0a" x="0" y="806.7" width="1220" height="24.65" shape-rendering="crispEdges"/><rect fill="#0a0a0a" x="0" y="831.1" width="1220" height="24.65" shape-rendering="crispEdges"/><rect fill="#0a0a0a" x="0" y="855.5" width="1220" height="24.65" shape-rendering="crispEdges"/><rect fill="#0a0a0a" x="0" y="879.9" width="1220" height="24.65" shape-rendering="crispEdges"/><rect fill="#0a0a0a" x="0" y="904.3" width="1220" height="24.65" shape-rendering="crispEdges"/><rect fill="#0a0a0a" x="0" y="928.7" width="1220" height="24.65" shape-rendering="crispEdges"/><rect fill="#242f38" x="0" y="953.1" width="61" height="24.65" shape-rendering="crispEdges"/><rect fill="#242f38" x="61" y="953.1" width="61" height="24.65" shape-rendering="crispEdges"/><rect fill="#242f38" x="122" y="953.1" width="951.6" height="24.65" shape-rendering="crispEdges"/><rect fill="#242f38" x="1073.6" y="953.1" width="12.2" height="24.65" shape-rendering="crispEdges"/><rect fill="#242f38" x="1085.8" y="953.1" width="24.4" height="24.65" shape-rendering="crispEdges"/><rect fill="#242f38" x="1110.2" y="953.1" width="97.6" height="24.65" shape-rendering="crispEdges"/><rect fill="#242f38" x="1207.8" y="953.1" width="12.2" height="24.65" shape-rendering="crispEdges"/>
    <g class="terminal-898764802-matrix">
    <text class="terminal-898764802-r2" x="12.2" y="20" textLength="85.4" clip-path="url(#terminal-898764802-line-0)">Photo&#160;E</text><text class="terminal-898764802-r2" x="97.6" y="20" textLength="61" clip-path="url(#terminal-898764802-line-0)">xport</text><text class="terminal-898764802-r4" x="183" y="20" textLength="524.6" clip-path="url(#terminal-898764802-line-0)">Organize,&#160;rename,&#160;watermark,&#160;contact&#160;sheets</text><text class="terminal-898764802-r1" x="1220" y="20" textLength="12.2" clip-path="url(#terminal-898764802-line-0)">
</text><text class="terminal-898764802-r5" x="0" y="44.4" textLength="12.2" clip-path="url(#terminal-898764802-line-1)">▊</text><text class="terminal-898764802-r6" x="12.2" y="44.4" textLength="1183.4" clip-path="url(#terminal-898764802-line-1)">▔▔▔▔▔▔▔▔▔▔▔▔▔▔▔▔▔▔▔▔▔▔▔▔▔▔▔▔▔▔▔▔▔▔▔▔▔▔▔▔▔▔▔▔▔▔▔▔▔▔▔▔▔▔▔▔▔▔▔▔▔▔▔▔▔▔▔▔▔▔▔▔▔▔▔▔▔▔▔▔▔▔▔▔▔▔▔▔▔▔▔▔▔▔▔▔▔</text><text class="terminal-898764802-r6" x="1195.6" y="44.4" textLength="12.2" clip-path="url(#terminal-898764802-line-1)">▎</text><text class="terminal-898764802-r1" x="1220" y="44.4" textLength="12.2" clip-path="url(#terminal-898764802-line-1)">
</text><text class="terminal-898764802-r5" x="0" y="68.8" textLength="12.2" clip-path="url(#terminal-898764802-line-2)">▊</text><text class="terminal-898764802-r7" x="36.6" y="68.8" textLength="12.2" clip-path="url(#terminal-898764802-line-2)">S</text><text class="terminal-898764802-r8" x="48.8" y="68.8" textLength="219.6" clip-path="url(#terminal-898764802-line-2)">ource&#160;directory...</text><text class="terminal-898764802-r6" x="1195.6" y="68.8" textLength="12.2" clip-path="url(#terminal-898764802-line-2)">▎</text><text class="terminal-898764802-r1" x="1220" y="68.8" textLength="12.2" clip-path="url(#terminal-898764802-line-2)">
</text><text class="terminal-898764802-r5" x="0" y="93.2" textLength="12.2" clip-path="url(#terminal-898764802-line-3)">▊</text><text class="terminal-898764802-r6" x="12.2" y="93.2" textLength="1183.4" clip-path="url(#terminal-898764802-line-3)">▁▁▁▁▁▁▁▁▁▁▁▁▁▁▁▁▁▁▁▁▁▁▁▁▁▁▁▁▁▁▁▁▁▁▁▁▁▁▁▁▁▁▁▁▁▁▁▁▁▁▁▁▁▁▁▁▁▁▁▁▁▁▁▁▁▁▁▁▁▁▁▁▁▁▁▁▁▁▁▁▁▁▁▁▁▁▁▁▁▁▁▁▁▁▁▁▁</text><text class="terminal-898764802-r6" x="1195.6" y="93.2" textLength="12.2" clip-path="url(#terminal-898764802-line-3)">▎</text><text class="terminal-898764802-r1" x="1220" y="93.2" textLength="12.2" clip-path="url(#terminal-898764802-line-3)">
</text><text class="terminal-898764802-r1" x="1220" y="117.6" textLength="12.2" clip-path="url(#terminal-898764802-line-4)">
</text><text class="terminal-898764802-r5" x="0" y="142" textLength="12.2" clip-path="url(#terminal-898764802-line-5)">▊</text><text class="terminal-898764802-r10" x="12.2" y="142" textLength="1183.4" clip-path="url(#terminal-898764802-line-5)">▔▔▔▔▔▔▔▔▔▔▔▔▔▔▔▔▔▔▔▔▔▔▔▔▔▔▔▔▔▔▔▔▔▔▔▔▔▔▔▔▔▔▔▔▔▔▔▔▔▔▔▔▔▔▔▔▔▔▔▔▔▔▔▔▔▔▔▔▔▔▔▔▔▔▔▔▔▔▔▔▔▔▔▔▔▔▔▔▔▔▔▔▔▔▔▔▔</text><text class="terminal-898764802-r10" x="1195.6" y="142" textLength="12.2" clip-path="url(#terminal-898764802-line-5)">▎</text><text class="terminal-898764802-r1" x="1220" y="142" textLength="12.2" clip-path="url(#terminal-898764802-line-5)">
</text><text class="terminal-898764802-r5" x="0" y="166.4" textLength="12.2" clip-path="url(#terminal-898764802-line-6)">▊</text><text class="terminal-898764802-r9" x="36.6" y="166.4" textLength="73.2" clip-path="url(#terminal-898764802-line-6)">export</text><text class="terminal-898764802-r10" x="1195.6" y="166.4" textLength="12.2" clip-path="url(#terminal-898764802-line-6)">▎</text><text class="terminal-898764802-r1" x="1220" y="166.4" textLength="12.2" clip-path="url(#terminal-898764802-line-6)">
</text><text class="terminal-898764802-r5" x="0" y="190.8" textLength="12.2" clip-path="url(#terminal-898764802-line-7)">▊</text><text class="terminal-898764802-r10" x="12.2" y="190.8" textLength="1183.4" clip-path="url(#terminal-898764802-line-7)">▁▁▁▁▁▁▁▁▁▁▁▁▁▁▁▁▁▁▁▁▁▁▁▁▁▁▁▁▁▁▁▁▁▁▁▁▁▁▁▁▁▁▁▁▁▁▁▁▁▁▁▁▁▁▁▁▁▁▁▁▁▁▁▁▁▁▁▁▁▁▁▁▁▁▁▁▁▁▁▁▁▁▁▁▁▁▁▁▁▁▁▁▁▁▁▁▁</text><text class="terminal-898764802-r10" x="1195.6" y="190.8" textLength="12.2" clip-path="url(#terminal-898764802-line-7)">▎</text><text class="terminal-898764802-r1" x="1220" y="190.8" textLength="12.2" clip-path="url(#terminal-898764802-line-7)">
</text><text class="terminal-898764802-r1" x="1220" y="215.2" textLength="12.2" clip-path="url(#terminal-898764802-line-8)">
</text><text class="terminal-898764802-r5" x="0" y="239.6" textLength="12.2" clip-path="url(#terminal-898764802-line-9)">▊</text><text class="terminal-898764802-r10" x="12.2" y="239.6" textLength="1183.4" clip-path="url(#terminal-898764802-line-9)">▔▔▔▔▔▔▔▔▔▔▔▔▔▔▔▔▔▔▔▔▔▔▔▔▔▔▔▔▔▔▔▔▔▔▔▔▔▔▔▔▔▔▔▔▔▔▔▔▔▔▔▔▔▔▔▔▔▔▔▔▔▔▔▔▔▔▔▔▔▔▔▔▔▔▔▔▔▔▔▔▔▔▔▔▔▔▔▔▔▔▔▔▔▔▔▔▔</text><text class="terminal-898764802-r10" x="1195.6" y="239.6" textLength="12.2" clip-path="url(#terminal-898764802-line-9)">▎</text><text class="terminal-898764802-r1" x="1220" y="239.6" textLength="12.2" clip-path="url(#terminal-898764802-line-9)">
</text><text class="terminal-898764802-r5" x="0" y="264" textLength="12.2" clip-path="url(#terminal-898764802-line-10)">▊</text><text class="terminal-898764802-r11" x="36.6" y="264" textLength="500.2" clip-path="url(#terminal-898764802-line-10)">Watermark&#160;text&#160;(e.g.,&#160;Shot&#160;on&#160;Mavica&#160;FD7)</text><text class="terminal-898764802-r10" x="1195.6" y="264" textLength="12.2" clip-path="url(#terminal-898764802-line-10)">▎</text><text class="terminal-898764802-r1" x="1220" y="264" textLength="12.2" clip-path="url(#terminal-898764802-line-10)">
</text><text class="terminal-898764802-r5" x="0" y="288.4" textLength="12.2" clip-path="url(#terminal-898764802-line-11)">▊</text><text class="terminal-898764802-r10" x="12.2" y="288.4" textLength="1183.4" clip-path="url(#terminal-898764802-line-11)">▁▁▁▁▁▁▁▁▁▁▁▁▁▁▁▁▁▁▁▁▁▁▁▁▁▁▁▁▁▁▁▁▁▁▁▁▁▁▁▁▁▁▁▁▁▁▁▁▁▁▁▁▁▁▁▁▁▁▁▁▁▁▁▁▁▁▁▁▁▁▁▁▁▁▁▁▁▁▁▁▁▁▁▁▁▁▁▁▁▁▁▁▁▁▁▁▁</text><text class="terminal-898764802-r10" x="1195.6" y="288.4" textLength="12.2" clip-path="url(#terminal-898764802-line-11)">▎</text><text class="terminal-898764802-r1" x="1220" y="288.4" textLength="12.2" clip-path="url(#terminal-898764802-line-11)">
</text><text class="terminal-898764802-r1" x="1220" y="312.8" textLength="12.2" clip-path="url(#terminal-898764802-line-12)">
</text><text class="terminal-898764802-r12" x="12.2" y="337.2" textLength="122" clip-path="url(#terminal-898764802-line-13)">▔▔▔▔▔▔▔▔▔▔</text><text class="terminal-898764802-r13" x="146.4" y="337.2" textLength="183" clip-path="url(#terminal-898764802-line-13)">▔▔▔▔▔▔▔▔▔▔▔▔▔▔▔</text><text class="terminal-898764802-r14" x="341.6" y="337.2" textLength="268.4" clip-path="url(#terminal-898764802-line-13)">▔▔▔▔▔▔▔▔▔▔▔▔▔▔▔▔▔▔▔▔▔▔</text><text class="terminal-898764802-r1" x="1220" y="337.2" textLength="12.2" clip-path="url(#terminal-898764802-line-13)">
</text><text class="terminal-898764802-r15" x="24.4" y="361.6" textLength="97.6" clip-path="url(#terminal-898764802-line-14)">&#160;Export&#160;</text><text class="terminal-898764802-r16" x="146.4" y="361.6" textLength="183" clip-path="url(#terminal-898764802-line-14)">&#160;Contact&#160;Sheet&#160;</text><text class="terminal-898764802-r17" x="341.6" y="361.6" textLength="268.4" clip-path="url(#terminal-898764802-line-14)">&#160;Export&#160;+&#160;All&#160;Effects&#160;</text><text class="terminal-898764802-r1" x="1220" y="361.6" textLength="12.2" clip-path="url(#terminal-898764802-line-14)">
</text><text class="terminal-898764802-r18" x="12.2" y="386" textLength="122" clip-path="url(#terminal-898764802-line-15)">▁▁▁▁▁▁▁▁▁▁</text><text class="terminal-898764802-r19" x="146.4" y="386" textLength="183" clip-path="url(#terminal-898764802-line-15)">▁▁▁▁▁▁▁▁▁▁▁▁▁▁▁</text><text class="terminal-898764802-r20" x="341.6" y="386" textLength="268.4" clip-path="url(#terminal-898764802-line-15)">▁▁▁▁▁▁▁▁▁▁▁▁▁▁▁▁▁▁▁▁▁▁</text><text class="terminal-898764802-r1" x="1220" y="386" textLength="12.2" clip-path="url(#terminal-898764802-line-15)">
</text><text class="terminal-898764802-r1" x="1220" y="410.4" textLength="12.2" clip-path="url(#terminal-898764802-line-16)">
</text><text class="terminal-898764802-r21" x="12.2" y="434.8" textLength="390.4" clip-path="url(#terminal-898764802-line-17)">━━━━━━━━━━━━━━━━━━━━━━━━━━━━━━━━</text><text class="terminal-898764802-r9" x="439.2" y="434.8" textLength="24.4" clip-path="url(#terminal-898764802-line-17)">0%</text><text class="terminal-898764802-r1" x="1220" y="434.8" textLength="12.2" clip-path="url(#terminal-898764802-line-17)">
</text><text class="terminal-898764802-r5" x="0" y="459.2" textLength="12.2" clip-path="url(#terminal-898764802-line-18)">▊</text><text class="terminal-898764802-r10" x="12.2" y="459.2" textLength="1195.6" clip-path="url(#terminal-898764802-line-18)">▔▔▔▔▔▔▔▔▔▔▔▔▔▔▔▔▔▔▔▔▔▔▔▔▔▔▔▔▔▔▔▔▔▔▔▔▔▔▔▔▔▔▔▔▔▔▔▔▔▔▔▔▔▔▔▔▔▔▔▔▔▔▔▔▔▔▔▔▔▔▔▔▔▔▔▔▔▔▔▔▔▔▔▔▔▔▔▔▔▔▔▔▔▔▔▔▔▔</text><text class="terminal-898764802-r10" x="1207.8" y="459.2" textLength="12.2" clip-path="url(#terminal-898764802-line-18)">▎</text><text class="terminal-898764802-r1" x="1220" y="459.2" textLength="12.2" clip-path="url(#terminal-898764802-line-18)">
</text><text class="terminal-898764802-r5" x="0" y="483.6" textLength="12.2" clip-path="url(#terminal-898764802-line-19)">▊</text><text class="terminal-898764802-r22" x="24.4" y="483.6" textLength="231.8" clip-path="url(#terminal-898764802-line-19)">&#160;&#160;No&#160;image&#160;selected</text><text class="terminal-898764802-r10" x="1207.8" y="483.6" textLength="12.2" clip-path="url(#terminal-898764802-line-19)">▎</text><text class="terminal-898764802-r1" x="1220" y="483.6" textLength="12.2" clip-path="url(#terminal-898764802-line-19)">
</text><text class="terminal-898764802-r5" x="0" y="508" textLength="12.2" clip-path="url(#terminal-898764802-line-20)">▊</text><text class="terminal-898764802-r10" x="12.2" y="508" textLength="1195.6" clip-path="url(#terminal-898764802-line-20)">▁▁▁▁▁▁▁▁▁▁▁▁▁▁▁▁▁▁▁▁▁▁▁▁▁▁▁▁▁▁▁▁▁▁▁▁▁▁▁▁▁▁▁▁▁▁▁▁▁▁▁▁▁▁▁▁▁▁▁▁▁▁▁▁▁▁▁▁▁▁▁▁▁▁▁▁▁▁▁▁▁▁▁▁▁▁▁▁▁▁▁▁▁▁▁▁▁▁</text><text class="terminal-898764802-r10" x="1207.8" y="508" textLength="12.2" clip-path="url(#terminal-898764802-line-20)">▎</text><text class="terminal-898764802-r1" x="1220" y="508" textLength="12.2" clip-path="url(#terminal-898764802-line-20)">
</text><text class="terminal-898764802-r1" x="1220" y="532.4" textLength="12.2" clip-path="url(#terminal-898764802-line-21)">
</text><text class="terminal-898764802-r5" x="0" y="556.8" textLength="12.2" clip-path="url(#terminal-898764802-line-22)">▊</text><text class="terminal-898764802-r10" x="12.2" y="556.8" textLength="1195.6" clip-path="url(#terminal-898764802-line-22)">▔▔▔▔▔▔▔▔▔▔▔▔▔▔▔▔▔▔▔▔▔▔▔▔▔▔▔▔▔▔▔▔▔▔▔▔▔▔▔▔▔▔▔▔▔▔▔▔▔▔▔▔▔▔▔▔▔▔▔▔▔▔▔▔▔▔▔▔▔▔▔▔▔▔▔▔▔▔▔▔▔▔▔▔▔▔▔▔▔▔▔▔▔▔▔▔▔▔</text><text class="terminal-898764802-r10" x="1207.8" y="556.8" textLength="12.2" clip-path="url(#terminal-898764802-line-22)">▎</text><text class="terminal-898764802-r1" x="1220" y="556.8" textLength="12.2" clip-path="url(#terminal-898764802-line-22)">
</text><text class="terminal-898764802-r5" x="0" y="581.2" textLength="12.2" clip-path="url(#terminal-898764802-line-23)">▊</text><text class="terminal-898764802-r10" x="12.2" y="581.2" textLength="1195.6" clip-path="url(#terminal-898764802-line-23)">▁▁▁▁▁▁▁▁▁▁▁▁▁▁▁▁▁▁▁▁▁▁▁▁▁▁▁▁▁▁▁▁▁▁▁▁▁▁▁▁▁▁▁▁▁▁▁▁▁▁▁▁▁▁▁▁▁▁▁▁▁▁▁▁▁▁▁▁▁▁▁▁▁▁▁▁▁▁▁▁▁▁▁▁▁▁▁▁▁▁▁▁▁▁▁▁▁▁</text><text class="terminal-898764802-r10" x="1207.8" y="581.2" textLength="12.2" clip-path="url(#terminal-898764802-line-23)">▎</text><text class="terminal-898764802-r1" x="1220" y="581.2" textLength="12.2" clip-path="url(#terminal-898764802-line-23)">
</text><text class="terminal-898764802-r1" x="1220" y="605.6" textLength="12.2" clip-path="url(#terminal-898764802-line-24)">
</text><text class="terminal-898764802-r1" x="1220" y="630" textLength="12.2" clip-path="url(#terminal-898764802-line-25)">
</text><text class="terminal-898764802-r1" x="1220" y="654.4" textLength="12.2" clip-path="url(#terminal-898764802-line-26)">
</text><text class="terminal-898764802-r1" x="1220" y="678.8" textLength="12.2" clip-path="url(#terminal-898764802-line-27)">
</text><text class="terminal-898764802-r1" x="1220" y="703.2" textLength="12.2" clip-path="url(#terminal-898764802-line-28)">
</text><text class="terminal-898764802-r1" x="1220" y="727.6" textLength="12.2" clip-path="url(#terminal-898764802-line-29)">
</text><text class="terminal-898764802-r1" x="1220" y="752" textLength="12.2" clip-path="url(#terminal-898764802-line-30)">
</text><text class="terminal-898764802-r1" x="1220" y="776.4" textLength="12.2" clip-path="url(#terminal-898764802-line-31)">
</text><text class="terminal-898764802-r1" x="1220" y="800.8" textLength="12.2" clip-path="url(#terminal-898764802-line-32)">
</text><text class="terminal-898764802-r1" x="1220" y="825.2" textLength="12.2" clip-path="url(#terminal-898764802-line-33)">
</text><text class="terminal-898764802-r1" x="1220" y="849.6" textLength="12.2" clip-path="url(#terminal-898764802-line-34)">
</text><text class="terminal-898764802-r1" x="1220" y="874" textLength="12.2" clip-path="url(#terminal-898764802-line-35)">
</text><text class="terminal-898764802-r1" x="1220" y="898.4" textLength="12.2" clip-path="url(#terminal-898764802-line-36)">
</text><text class="terminal-898764802-r1" x="1220" y="922.8" textLength="12.2" clip-path="url(#terminal-898764802-line-37)">
</text><text class="terminal-898764802-r1" x="1220" y="947.2" textLength="12.2" clip-path="url(#terminal-898764802-line-38)">
</text><text class="terminal-898764802-r23" x="0" y="971.6" textLength="61" clip-path="url(#terminal-898764802-line-39)">&#160;esc&#160;</text><text class="terminal-898764802-r9" x="61" y="971.6" textLength="61" clip-path="url(#terminal-898764802-line-39)">Back&#160;</text><text class="terminal-898764802-r24" x="1073.6" y="971.6" textLength="12.2" clip-path="url(#terminal-898764802-line-39)">▏</text><text class="terminal-898764802-r23" x="1085.8" y="971.6" textLength="24.4" clip-path="url(#terminal-898764802-line-39)">^p</text><text class="terminal-898764802-r9" x="1110.2" y="971.6" textLength="97.6" clip-path="url(#terminal-898764802-line-39)">&#160;palette</text>
    </g>
    </g>
</svg>
