<svg class="rich-terminal" viewBox="0 0 1482 928.4" xmlns="http://www.w3.org/2000/svg">
    <!-- Generated with Rich https://www.textualize.io -->
    <style>

    @font-face {
        font-family: "Fira Code";
        src: local("FiraCode-Regular"),
                url("https://cdnjs.cloudflare.com/ajax/libs/firacode/6.2.0/woff2/FiraCode-Regular.woff2") format("woff2"),
                url("https://cdnjs.cloudflare.com/ajax/libs/firacode/6.2.0/woff/FiraCode-Regular.woff") format("woff");
        font-style: normal;
        font-weight: 400;
    }
    @font-face {
        font-family: "Fira Code";
        src: local("FiraCode-Bold"),
                url("https://cdnjs.cloudflare.com/ajax/libs/firacode/6.2.0/woff2/FiraCode-Bold.woff2") format("woff2"),
                url("https://cdnjs.cloudflare.com/ajax/libs/firacode/6.2.0/woff/FiraCode-Bold.woff") format("woff");
        font-style: bold;
        font-weight: 700;
    }

    .terminal-1398083059-matrix {
        font-family: Fira Code, monospace;
        font-size: 20px;
        line-height: 24.4px;
        font-variant-east-asian: full-width;
    }

    .terminal-1398083059-title {
        font-size: 18px;
        font-weight: bold;
        font-family: arial;
    }

    .terminal-1398083059-r1 { fill: #c5c8c6 }
.terminal-1398083059-r2 { fill: #e0e0e0 }
.terminal-1398083059-r3 { fill: #a0a3a6 }
.terminal-1398083059-r4 { fill: #ffaa00;font-weight: bold }
.terminal-1398083059-r5 { fill: #0a0a0a }
.terminal-1398083059-r6 { fill: #e0e0e0;font-weight: bold }
.terminal-1398083059-r7 { fill: #9f9f9f }
.terminal-1398083059-r8 { fill: #3e3e3e;font-weight: bold }
.terminal-1398083059-r9 { fill: #0a180e;font-weight: bold }
.terminal-1398083059-r10 { fill: #4a4043;font-weight: bold }
.terminal-1398083059-r11 { fill: #1a130a;font-weight: bold }
.terminal-1398083059-r12 { fill: #1e1e1e }
.terminal-1398083059-r13 { fill: #333333 }
.terminal-1398083059-r14 { fill: #979797 }
.terminal-1398083059-r15 { fill: #33ff33 }
.terminal-1398083059-r16 { fill: #000000 }
.terminal-1398083059-r17 { fill: #ffa62b;font-weight: bold }
.terminal-1398083059-r18 { fill: #495259 }
    </style>

    <defs>
    <clipPath id="terminal-1398083059-clip-terminal">
      <rect x="0" y="0" width="1463.0" height="877.4" />
    </clipPath>
    <clipPath id="terminal-1398083059-line-0">
    <rect x="0" y="1.5" width="1464" height="24.65"/>
            </clipPath>
<clipPath id="terminal-1398083059-line-1">
    <rect x="0" y="25.9" width="1464" height="24.65"/>
            </clipPath>
<clipPath id="terminal-1398083059-line-2">
    <rect x="0" y="50.3" width="1464" height="24.65"/>
            </clipPath>
<clipPath id="terminal-1398083059-line-3">
    <rect x="0" y="74.7" width="1464" height="24.65"/>
            </clipPath>
<clipPath id="terminal-1398083059-line-4">
    <rect x="0" y="99.1" width="1464" height="24.65"/>
            </clipPath>
<clipPath id="terminal-1398083059-line-5">
    <rect x="0" y="123.5" width="1464" height="24.65"/>
            </clipPath>
<clipPath id="terminal-1398083059-line-6">
    <rect x="0" y="147.9" width="1464" height="24.65"/>
            </clipPath>
<clipPath id="terminal-1398083059-line-7">
    <rect x="0" y="172.3" width="1464" height="24.65"/>
            </clipPath>
<clipPath id="terminal-1398083059-line-8">
    <rect x="0" y="196.7" width="1464" height="24.65"/>
            </clipPath>
<clipPath id="terminal-1398083059-line-9">
    <rect x="0" y="221.1" width="1464" height="24.65"/>
            </clipPath>
<clipPath id="terminal-1398083059-line-10">
    <rect x="0" y="245.5" width="1464" height="24.65"/>
            </clipPath>
<clipPath id="terminal-1398083059-line-11">
    <rect x="0" y="269.9" width="1464" height="24.65"/>
            </clipPath>
<clipPath id="terminal-1398083059-line-12">
    <rect x="0" y="294.3" width="1464" height="24.65"/>
            </clipPath>
<clipPath id="terminal-1398083059-line-13">
    <rect x="0" y="318.7" width="1464" height="24.65"/>
            </clipPath>
<clipPath id="terminal-1398083059-line-14">
    <rect x="0" y="343.1" width="1464" height="24.65"/>
            </clipPath>
<clipPath id="terminal-1398083059-line-15">
    <rect x="0" y="367.5" width="1464" height="24.65"/>
            </clipPath>
<clipPath id="terminal-1398083059-line-16">
    <rect x="0" y="391.9" width="1464" height="24.65"/>
            </clipPath>
<clipPath id="terminal-1398083059-line-17">
    <rect x="0" y="416.3" width="1464" height="24.65"/>
            </clipPath>
<clipPath id="terminal-1398083059-line-18">
    <rect x="0" y="440.7" width="1464" height="24.65"/>
            </clipPath>
<clipPath id="terminal-1398083059-line-19">
    <rect x="0" y="465.1" width="1464" height="24.65"/>
            </clipPath>
<clipPath id="terminal-1398083059-line-20">
    <rect x="0" y="489.5" width="1464" height="24.65"/>
            </clipPath>
<clipPath id="terminal-1398083059-line-21">
    <rect x="0" y="513.9" width="1464" height="24.65"/>
            </clipPath>
<clipPath id="terminal-1398083059-line-22">
    <rect x="0" y="538.3" width="1464" height="24.65"/>
            </clipPath>
<clipPath id="terminal-1398083059-line-23">
    <rect x="0" y="562.7" width="1464" height="24.65"/>
            </clipPath>
<clipPath id="terminal-1398083059-line-24">
    <rect x="0" y="587.1" width="1464" height="24.65"/>
            </clipPath>
<clipPath id="terminal-1398083059-line-25">
    <rect x="0" y="611.5" width="1464" height="24.65"/>
            </clipPath>
<clipPath id="terminal-1398083059-line-26">
    <rect x="0" y="635.9" width="1464" height="24.65"/>
            </clipPath>
<clipPath id="terminal-1398083059-line-27">
    <rect x="0" y="660.3" width="1464" height="24.65"/>
            </clipPath>
<clipPath id="terminal-1398083059-line-28">
    <rect x="0" y="684.7" width="1464" height="24.65"/>
            </clipPath>
<clipPath id="terminal-1398083059-line-29">
    <rect x="0" y="709.1" width="1464" height="24.65"/>
            </clipPath>
<clipPath id="terminal-1398083059-line-30">
    <rect x="0" y="733.5" width="1464" height="24.65"/>
            </clipPath>
<clipPath id="terminal-1398083059-line-31">
    <rect x="0" y="757.9" width="1464" height="24.65"/>
            </clipPath>
<clipPath id="terminal-1398083059-line-32">
    <rect x="0" y="782.3" width="1464" height="24.65"/>
            </clipPath>
<clipPath id="terminal-1398083059-line-33">
    <rect x="0" y="806.7" width="1464" height="24.65"/>
            </clipPath>
<clipPath id="terminal-1398083059-line-34">
    <rect x="0" y="831.1" width="1464" height="24.65"/>
            </clipPath>
    </defs>

    <rect fill="#292929" stroke="rgba(255,255,255,0.35)" stroke-width="1" x="1" y="1" width="1480" height="926.4" rx="8"/><text class="terminal-1398083059-title" fill="#c5c8c6" text-anchor="middle" x="740" y="27">mavica-tools</text>
            <g transform="translate(26,22)">
            <circle cx="0" cy="0" r="7" fill="#ff5f57"/>
            <circle cx="22" cy="0" r="7" fill="#febc2e"/>
            <circle cx="44" cy="0" r="7" fill="#28c840"/>
            </g>
        
    <g transform="translate(9, 41)" clip-path="url(#terminal-1398083059-clip-terminal)">
    <rect fill="#242f38" x="0" y="1.5" width="12.2" height="24.65" shape-rendering="crispEdges"/><rect fill="#242f38" x="12.2" y="1.5" width="12.2" height="24.65" shape-rendering="crispEdges"/><rect fill="#242f38" x="24.4" y="1.5" width="61" height="24.65" shape-rendering="crispEdges"/><rect fill="#242f38" x="85.4" y="1.5" width="12.2" height="24.65" shape-rendering="crispEdges"/><rect fill="#242f38" x="97.6" y="1.5" width="390.4" height="24.65" shape-rendering="crispEdges"/><rect fill="#242f38" x="488" y="1.5" width="146.4" height="24.65" shape-rendering="crispEdges"/><rect fill="#242f38" x="634.4" y="1.5" width="36.6" height="24.65" shape-rendering="crispEdges"/><rect fill="#242f38" x="671" y="1.5" width="280.6" height="24.65" shape-rendering="crispEdges"/><rect fill="#242f38" x="951.6" y="1.5" width="390.4" height="24.65" shape-rendering="crispEdges"/><rect fill="#242f38" x="1342" y="1.5" width="12.2" height="24.65" shape-rendering="crispEdges"/><rect fill="#242f38" x="1354.2" y="1.5" width="0" height="24.65" shape-rendering="crispEdges"/><rect fill="#242f38" x="1354.2" y="1.5" width="97.6" height="24.65" shape-rendering="crispEdges"/><rect fill="#242f38" x="1451.8" y="1.5" width="12.2" height="24.65" shape-rendering="crispEdges"/><rect fill="#1a1a1a" x="0" y="25.9" width="12.2" height="24.65" shape-rendering="crispEdges"/><rect fill="#1a1a1a" x="12.2" y="25.9" width="219.6" height="24.65" shape-rendering="crispEdges"/><rect fill="#1a1a1a" x="231.8" y="25.9" width="1195.6" height="24.65" shape-rendering="crispEdges"/><rect fill="#1a1a1a" x="1427.4" y="25.9" width="12.2" height="24.65" shape-rendering="crispEdges"/><rect fill="#003054" x="1439.6" y="25.9" width="24.4" height="24.65" shape-rendering="crispEdges"/><rect fill="#0a0a0a" x="0" y="50.3" width="1439.6" height="24.65" shape-rendering="crispEdges"/><rect fill="#003054" x="1439.6" y="50.3" width="24.4" height="24.65" shape-rendering="crispEdges"/><rect fill="#0a0a0a" x="0" y="74.7" width="12.2" height="24.65" shape-rendering="crispEdges"/><rect fill="#0a0a0a" x="12.2" y="74.7" width="24.4" height="24.65" shape-rendering="crispEdges"/><rect fill="#0a0a0a" x="36.6" y="74.7" width="73.2" height="24.65" shape-rendering="crispEdges"/><rect fill="#0a0a0a" x="109.8" y="74.7" width="12.2" height="24.65" shape-rendering="crispEdges"/><rect fill="#111111" x="122" y="74.7" width="36.6" height="24.65" shape-rendering="crispEdges"/><rect fill="#111111" x="158.6" y="74.7" width="854" height="24.65" shape-rendering="crispEdges"/><rect fill="#0a0a0a" x="1012.6" y="74.7" width="12.2" height="24.65" shape-rendering="crispEdges"/><rect fill="#0d0d0d" x="1024.8" y="74.7" width="12.2" height="24.65" shape-rendering="crispEdges"/><rect fill="#0d0d0d" x="1037" y="74.7" width="12.2" height="24.65" shape-rendering="crispEdges"/><rect fill="#0d0d0d" x="1049.2" y="74.7" width="61" height="24.65" shape-rendering="crispEdges"/><rect fill="#0d0d0d" x="1110.2" y="74.7" width="24.4" height="24.65" shape-rendering="crispEdges"/><rect fill="#0d0d0d" x="1134.6" y="74.7" width="12.2" height="24.65" shape-rendering="crispEdges"/><rect fill="#0a0a0a" x="1146.8" y="74.7" width="12.2" height="24.65" shape-rendering="crispEdges"/><rect fill="#1e1e1e" x="1159" y="74.7" width="12.2" height="24.65" shape-rendering="crispEdges"/><rect fill="#1e1e1e" x="1171.2" y="74.7" width="97.6" height="24.65" shape-rendering="crispEdges"/><rect fill="#1e1e1e" x="1268.8" y="74.7" width="12.2" height="24.65" shape-rendering="crispEdges"/><rect fill="#0a0a0a" x="1281" y="74.7" width="12.2" height="24.65" shape-rendering="crispEdges"/><rect fill="#1e1e1e" x="1293.2" y="74.7" width="12.2" height="24.65" shape-rendering="crispEdges"/><rect fill="#1e1e1e" x="1305.4" y="74.7" width="12.2" height="24.65" shape-rendering="crispEdges"/><rect fill="#1e1e1e" x="1317.6" y="74.7" width="73.2" height="24.65" shape-rendering="crispEdges"/><rect fill="#1e1e1e" x="1390.8" y="74.7" width="12.2" height="24.65" shape-rendering="crispEdges"/><rect fill="#1e1e1e" x="1403" y="74.7" width="12.2" height="24.65" shape-rendering="crispEdges"/><rect fill="#0a0a0a" x="1415.2" y="74.7" width="12.2" height="24.65" shape-rendering="crispEdges"/><rect fill="#0a0a0a" x="1427.4" y="74.7" width="12.2" height="24.65" shape-rendering="crispEdges"/><rect fill="#003054" x="1439.6" y="74.7" width="24.4" height="24.65" shape-rendering="crispEdges"/><rect fill="#0a0a0a" x="0" y="99.1" width="1439.6" height="24.65" shape-rendering="crispEdges"/><rect fill="#003054" x="1439.6" y="99.1" width="24.4" height="24.65" shape-rendering="crispEdges"/><rect fill="#0a0a0a" x="0" y="123.5" width="12.2" height="24.65" shape-rendering="crispEdges"/><rect fill="#0a0a0a" x="12.2" y="123.5" width="61" height="24.65" shape-rendering="crispEdges"/><rect fill="#0a0a0a" x="73.2" y="123.5" width="36.6" height="24.65" shape-rendering="crispEdges"/><rect fill="#0a0a0a" x="109.8" y="123.5" width="12.2" height="24.65" shape-rendering="crispEdges"/><rect fill="#1a1a1a" x="122" y="123.5" width="427" height="24.65" shape-rendering="crispEdges"/><rect fill="#1a1a1a" x="549" y="123.5" width="597.8" height="24.65" shape-rendering="crispEdges"/><rect fill="#0a0a0a" x="1146.8" y="123.5" width="12.2" height="24.65" shape-rendering="crispEdges"/><rect fill="#1e1e1e" x="1159" y="123.5" width="12.2" height="24.65" shape-rendering="crispEdges"/><rect fill="#1e1e1e" x="1171.2" y="123.5" width="97.6" height="24.65" shape-rendering="crispEdges"/><rect fill="#1e1e1e" x="1268.8" y="123.5" width="12.2" height="24.65" shape-rendering="crispEdges"/><rect fill="#0a0a0a" x="1281" y="123.5" width="12.2" height="24.65" shape-rendering="crispEdges"/><rect fill="#1e1e1e" x="1293.2" y="123.5" width="12.2" height="24.65" shape-rendering="crispEdges"/><rect fill="#1e1e1e" x="1305.4" y="123.5" width="12.2" height="24.65" shape-rendering="crispEdges"/><rect fill="#1e1e1e" x="1317.6" y="123.5" width="73.2" height="24.65" shape-rendering="crispEdges"/><rect fill="#1e1e1e" x="1390.8" y="123.5" width="12.2" height="24.65" shape-rendering="crispEdges"/><rect fill="#1e1e1e" x="1403" y="123.5" width="12.2" height="24.65" shape-rendering="crispEdges"/><rect fill="#0a0a0a" x="1415.2" y="123.5" width="12.2" height="24.65" shape-rendering="crispEdges"/><rect fill="#0a0a0a" x="1427.4" y="123.5" width="12.2" height="24.65" shape-rendering="crispEdges"/><rect fill="#003054" x="1439.6" y="123.5" width="24.4" height="24.65" shape-rendering="crispEdges"/><rect fill="#0a0a0a" x="0" y="147.9" width="1439.6" height="24.65" shape-rendering="crispEdges"/><rect fill="#003054" x="1439.6" y="147.9" width="24.4" height="24.65" shape-rendering="crispEdges"/><rect fill="#0a0a0a" x="0" y="172.3" width="12.2" height="24.65" shape-rendering="crispEdges"/><rect fill="#0a0a0a" x="12.2" y="172.3" width="12.2" height="24.65" shape-rendering="crispEdges"/><rect fill="#4ebf71" x="24.4" y="172.3" width="12.2" height="24.65" shape-rendering="crispEdges"/><rect fill="#4ebf71" x="36.6" y="172.3" width="244" height="24.65" shape-rendering="crispEdges"/><rect fill="#4ebf71" x="280.6" y="172.3" width="12.2" height="24.65" shape-rendering="crispEdges"/><rect fill="#0a0a0a" x="292.8" y="172.3" width="12.2" height="24.65" shape-rendering="crispEdges"/><rect fill="#261216" x="305" y="172.3" width="12.2" height="24.65" shape-rendering="crispEdges"/><rect fill="#261216" x="317.2" y="172.3" width="12.2" height="24.65" shape-rendering="crispEdges"/><rect fill="#261216" x="329.4" y="172.3" width="73.2" height="24.65" shape-rendering="crispEdges"/><rect fill="#261216" x="402.6" y="172.3" width="12.2" height="24.65" shape-rendering="crispEdges"/><rect fill="#261216" x="414.8" y="172.3" width="12.2" height="24.65" shape-rendering="crispEdges"/><rect fill="#0a0a0a" x="427" y="172.3" width="12.2" height="24.65" shape-rendering="crispEdges"/><rect fill="#30220f" x="439.2" y="172.3" width="12.2" height="24.65" shape-rendering="crispEdges"/><rect fill="#30220f" x="451.4" y="172.3" width="134.2" height="24.65" shape-rendering="crispEdges"/><rect fill="#30220f" x="585.6" y="172.3" width="12.2" height="24.65" shape-rendering="crispEdges"/><rect fill="#0a0a0a" x="597.8" y="172.3" width="829.6" height="24.65" shape-rendering="crispEdges"/><rect fill="#0a0a0a" x="1427.4" y="172.3" width="12.2" height="24.65" shape-rendering="crispEdges"/><rect fill="#003054" x="1439.6" y="172.3" width="24.4" height="24.65" shape-rendering="crispEdges"/><rect fill="#0a0a0a" x="0" y="196.7" width="1439.6" height="24.65" shape-rendering="crispEdges"/><rect fill="#003054" x="1439.6" y="196.7" width="24.4" height="24.65" shape-rendering="crispEdges"/><rect fill="#0a0a0a" x="0" y="221.1" width="12.2" height="24.65" shape-rendering="crispEdges"/><rect fill="#0a0a0a" x="12.2" y="221.1" width="390.4" height="24.65" shape-rendering="crispEdges"/><rect fill="#0a0a0a" x="402.6" y="221.1" width="36.6" height="24.65" shape-rendering="crispEdges"/><rect fill="#0a0a0a" x="439.2" y="221.1" width="24.4" height="24.65" shape-rendering="crispEdges"/><rect fill="#0a0a0a" x="463.6" y="221.1" width="12.2" height="24.65" shape-rendering="crispEdges"/><rect fill="#0a0a0a" x="475.8" y="221.1" width="97.6" height="24.65" shape-rendering="crispEdges"/><rect fill="#0a0a0a" x="573.4" y="221.1" width="866.2" height="24.65" shape-rendering="crispEdges"/><rect fill="#003054" x="1439.6" y="221.1" width="24.4" height="24.65" shape-rendering="crispEdges"/><rect fill="#0a0a0a" x="0" y="245.5" width="0" height="24.65" shape-rendering="crispEdges"/><rect fill="#0a0a0a" x="0" y="245.5" width="1439.6" height="24.65" shape-rendering="crispEdges"/><rect fill="#003054" x="1439.6" y="245.5" width="24.4" height="24.65" shape-rendering="crispEdges"/><rect fill="#0a0a0a" x="0" y="269.9" width="951.6" height="24.65" shape-rendering="crispEdges"/><rect fill="#333333" x="951.6" y="269.9" width="12.2" height="24.65" shape-rendering="crispEdges"/><rect fill="#0a0a0a" x="963.8" y="269.9" width="463.6" height="24.65" shape-rendering="crispEdges"/><rect fill="#0a0a0a" x="1427.4" y="269.9" width="12.2" height="24.65" shape-rendering="crispEdges"/><rect fill="#003054" x="1439.6" y="269.9" width="24.4" height="24.65" shape-rendering="crispEdges"/><rect fill="#1a1a1a" x="0" y="294.3" width="97.6" height="24.65" shape-rendering="crispEdges"/><rect fill="#1a1a1a" x="97.6" y="294.3" width="158.6" height="24.65" shape-rendering="crispEdges"/><rect fill="#1a1a1a" x="256.2" y="294.3" width="109.8" height="24.65" shape-rendering="crispEdges"/><rect fill="#1a1a1a" x="366" y="294.3" width="146.4" height="24.65" shape-rendering="crispEdges"/><rect fill="#1a1a1a" x="512.4" y="294.3" width="439.2" height="24.65" shape-rendering="crispEdges"/><rect fill="#333333" x="951.6" y="294.3" width="12.2" height="24.65" shape-rendering="crispEdges"/><rect fill="#0a0a0a" x="963.8" y="294.3" width="12.2" height="24.65" shape-rendering="crispEdges"/><rect fill="#0a0a0a" x="976" y="294.3" width="97.6" height="24.65" shape-rendering="crispEdges"/><rect fill="#0a0a0a" x="1073.6" y="294.3" width="231.8" height="24.65" shape-rendering="crispEdges"/><rect fill="#0a0a0a" x="1305.4" y="294.3" width="109.8" height="24.65" shape-rendering="crispEdges"/><rect fill="#0a0a0a" x="1415.2" y="294.3" width="12.2" height="24.65" shape-rendering="crispEdges"/><rect fill="#0a0a0a" x="1427.4" y="294.3" width="12.2" height="24.65" shape-rendering="crispEdges"/><rect fill="#003054" x="1439.6" y="294.3" width="24.4" height="24.65" shape-rendering="crispEdges"/><rect fill="#1a3a1a" x="0" y="318.7" width="97.6" height="24.65" shape-rendering="crispEdges"/><rect fill="#1a3a1a" x="97.6" y="318.7" width="158.6" height="24.65" shape-rendering="crispEdges"/><rect fill="#1a3a1a" x="256.2" y="318.7" width="109.8" height="24.65" shape-rendering="crispEdges"/><rect fill="#1a3a1a" x="366" y="318.7" width="146.4" height="24.65" shape-rendering="crispEdges"/><rect fill="#1a3a1a" x="512.4" y="318.7" width="439.2" height="24.65" shape-rendering="crispEdges"/><rect fill="#333333" x="951.6" y="318.7" width="12.2" height="24.65" shape-rendering="crispEdges"/><rect fill="#0a0a0a" x="963.8" y="318.7" width="12.2" height="24.65" shape-rendering="crispEdges"/><rect fill="#0a0a0a" x="976" y="318.7" width="439.2" height="24.65" shape-rendering="crispEdges"/><rect fill="#0a0a0a" x="1415.2" y="318.7" width="12.2" height="24.65" shape-rendering="crispEdges"/><rect fill="#0a0a0a" x="1427.4" y="318.7" width="12.2" height="24.65" shape-rendering="crispEdges"/><rect fill="#003054" x="1439.6" y="318.7" width="24.4" height="24.65" shape-rendering="crispEdges"/><rect fill="#1e1e1e" x="0" y="343.1" width="97.6" height="24.65" shape-rendering="crispEdges"/><rect fill="#1e1e1e" x="97.6" y="343.1" width="158.6" height="24.65" shape-rendering="crispEdges"/><rect fill="#1e1e1e" x="256.2" y="343.1" width="109.8" height="24.65" shape-rendering="crispEdges"/><rect fill="#1e1e1e" x="366" y="343.1" width="146.4" height="24.65" shape-rendering="crispEdges"/><rect fill="#1e1e1e" x="512.4" y="343.1" width="439.2" height="24.65" shape-rendering="crispEdges"/><rect fill="#333333" x="951.6" y="343.1" width="12.2" height="24.65" shape-rendering="crispEdges"/><rect fill="#0a0a0a" x="963.8" y="343.1" width="12.2" height="24.65" shape-rendering="crispEdges"/><rect fill="#0a0a0a" x="976" y="343.1" width="439.2" height="24.65" shape-rendering="crispEdges"/><rect fill="#0a0a0a" x="1415.2" y="343.1" width="12.2" height="24.65" shape-rendering="crispEdges"/><rect fill="#0a0a0a" x="1427.4" y="343.1" width="12.2" height="24.65" shape-rendering="crispEdges"/><rect fill="#003054" x="1439.6" y="343.1" width="24.4" height="24.65" shape-rendering="crispEdges"/><rect fill="#1e1e1e" x="0" y="367.5" width="97.6" height="24.65" shape-rendering="crispEdges"/><rect fill="#1e1e1e" x="97.6" y="367.5" width="158.6" height="24.65" shape-rendering="crispEdges"/><rect fill="#1e1e1e" x="256.2" y="367.5" width="109.8" height="24.65" shape-rendering="crispEdges"/><rect fill="#1e1e1e" x="366" y="367.5" width="146.4" height="24.65" shape-rendering="crispEdges"/><rect fill="#1e1e1e" x="512.4" y="367.5" width="439.2" height="24.65" shape-rendering="crispEdges"/><rect fill="#333333" x="951.6" y="367.5" width="12.2" height="24.65" shape-rendering="crispEdges"/><rect fill="#0a0a0a" x="963.8" y="367.5" width="463.6" height="24.65" shape-rendering="crispEdges"/><rect fill="#0a0a0a" x="1427.4" y="367.5" width="12.2" height="24.65" shape-rendering="crispEdges"/><rect fill="#003054" x="1439.6" y="367.5" width="24.4" height="24.65" shape-rendering="crispEdges"/><rect fill="#1e1e1e" x="0" y="391.9" width="97.6" height="24.65" shape-rendering="crispEdges"/><rect fill="#1e1e1e" x="97.6" y="391.9" width="158.6" height="24.65" shape-rendering="crispEdges"/><rect fill="#1e1e1e" x="256.2" y="391.9" width="109.8" height="24.65" shape-rendering="crispEdges"/><rect fill="#1e1e1e" x="366" y="391.9" width="146.4" height="24.65" shape-rendering="crispEdges"/><rect fill="#1e1e1e" x="512.4" y="391.9" width="439.2" height="24.65" shape-rendering="crispEdges"/><rect fill="#0a0a0a" x="951.6" y="391.9" width="488" height="24.65" shape-rendering="crispEdges"/><rect fill="#003054" x="1439.6" y="391.9" width="24.4" height="24.65" shape-rendering="crispEdges"/><rect fill="#1e1e1e" x="0" y="416.3" width="97.6" height="24.65" shape-rendering="crispEdges"/><rect fill="#1e1e1e" x="97.6" y="416.3" width="158.6" height="24.65" shape-rendering="crispEdges"/><rect fill="#1e1e1e" x="256.2" y="416.3" width="109.8" height="24.65" shape-rendering="crispEdges"/><rect fill="#1e1e1e" x="366" y="416.3" width="146.4" height="24.65" shape-rendering="crispEdges"/><rect fill="#1e1e1e" x="512.4" y="416.3" width="439.2" height="24.65" shape-rendering="crispEdges"/><rect fill="#0a0a0a" x="951.6" y="416.3" width="488" height="24.65" shape-rendering="crispEdges"/><rect fill="#000000" x="1439.6" y="416.3" width="24.4" height="24.65" shape-rendering="crispEdges"/><rect fill="#0a0a0a" x="0" y="440.7" width="951.6" height="24.65" shape-rendering="crispEdges"/><rect fill="#0a0a0a" x="951.6" y="440.7" width="488" height="24.65" shape-rendering="crispEdges"/><rect fill="#000000" x="1439.6" y="440.7" width="24.4" height="24.65" shape-rendering="crispEdges"/><rect fill="#0a0a0a" x="0" y="465.1" width="951.6" height="24.65" shape-rendering="crispEdges"/><rect fill="#0a0a0a" x="951.6" y="465.1" width="488" height="24.65" shape-rendering="crispEdges"/><rect fill="#000000" x="1439.6" y="465.1" width="24.4" height="24.65" shape-rendering="crispEdges"/><rect fill="#0a0a0a" x="0" y="489.5" width="951.6" height="24.65" shape-rendering="crispEdges"/><rect fill="#0a0a0a" x="951.6" y="489.5" width="488" height="24.65" shape-rendering="crispEdges"/><rect fill="#000000" x="1439.6" y="489.5" width="24.4" height="24.65" shape-rendering="crispEdges"/><rect fill="#0a0a0a" x="0" y="513.9" width="951.6" height="24.65" shape-rendering="crispEdges"/><rect fill="#0a0a0a" x="951.6" y="513.9" width="488" height="24.65" shape-rendering="crispEdges"/><rect fill="#000000" x="1439.6" y="513.9" width="24.4" height="24.65" shape-rendering="crispEdges"/><rect fill="#0a0a0a" x="0" y="538.3" width="951.6" height="24.65" shape-rendering="crispEdges"/><rect fill="#0a0a0a" x="951.6" y="538.3" width="488" height="24.65" shape-rendering="crispEdges"/><rect fill="#000000" x="1439.6" y="538.3" width="24.4" height="24.65" shape-rendering="crispEdges"/><rect fill="#0a0a0a" x="0" y="562.7" width="951.6" height="24.65" shape-rendering="crispEdges"/><rect fill="#0a0a0a" x="951.6" y="562.7" width="488" height="24.65" shape-rendering="crispEdges"/><rect fill="#000000" x="1439.6" y="562.7" width="24.4" height="24.65" shape-rendering="crispEdges"/><rect fill="#0a0a0a" x="0" y="587.1" width="951.6" height="24.65" shape-rendering="crispEdges"/><rect fill="#0a0a0a" x="951.6" y="587.1" width="488" height="24.65" shape-rendering="crispEdges"/><rect fill="#000000" x="1439.6" y="587.1" width="24.4" height="24.65" shape-rendering="crispEdges"/><rect fill="#0a0a0a" x="0" y="611.5" width="951.6" height="24.65" shape-rendering="crispEdges"/><rect fill="#0a0a0a" x="951.6" y="611.5" width="488" height="24.65" shape-rendering="crispEdges"/><rect fill="#000000" x="1439.6" y="611.5" width="24.4" height="24.65" shape-rendering="crispEdges"/><rect fill="#0a0a0a" x="0" y="635.9" width="951.6" height="24.65" shape-rendering="crispEdges"/><rect fill="#0a0a0a" x="951.6" y="635.9" width="488" height="24.65" shape-rendering="crispEdges"/><rect fill="#000000" x="1439.6" y="635.9" width="24.4" height="24.65" shape-rendering="crispEdges"/><rect fill="#0a0a0a" x="0" y="660.3" width="951.6" height="24.65" shape-rendering="crispEdges"/><rect fill="#0a0a0a" x="951.6" y="660.3" width="488" height="24.65" shape-rendering="crispEdges"/><rect fill="#000000" x="1439.6" y="660.3" width="24.4" height="24.65" shape-rendering="crispEdges"/><rect fill="#0a0a0a" x="0" y="684.7" width="951.6" height="24.65" shape-rendering="crispEdges"/><rect fill="#0a0a0a" x="951.6" y="684.7" width="488" height="24.65" shape-rendering="crispEdges"/><rect fill="#000000" x="1439.6" y="684.7" width="24.4" height="24.65" shape-rendering="crispEdges"/><rect fill="#0a0a0a" x="0" y="709.1" width="951.6" height="24.65" shape-rendering="crispEdges"/><rect fill="#0a0a0a" x="951.6" y="709.1" width="488" height="24.65" shape-rendering="crispEdges"/><rect fill="#000000" x="1439.6" y="709.1" width="24.4" height="24.65" shape-rendering="crispEdges"/><rect fill="#0a0a0a" x="0" y="733.5" width="951.6" height="24.65" shape-rendering="crispEdges"/><rect fill="#0a0a0a" x="951.6" y="733.5" width="488" height="24.65" shape-rendering="crispEdges"/><rect fill="#000000" x="1439.6" y="733.5" width="24.4" height="24.65" shape-rendering="crispEdges"/><rect fill="#0a0a0a" x="0" y="757.9" width="951.6" height="24.65" shape-rendering="crispEdges"/><rect fill="#0a0a0a" x="951.6" y="757.9" width="488" height="24.65" shape-rendering="crispEdges"/><rect fill="#000000" x="1439.6" y="757.9" width="24.4" height="24.65" shape-rendering="crispEdges"/><rect fill="#0a0a0a" x="0" y="782.3" width="951.6" height="24.65" shape-rendering="crispEdges"/><rect fill="#0a0a0a" x="951.6" y="782.3" width="488" height="24.65" shape-rendering="crispEdges"/><rect fill="#000000" x="1439.6" y="782.3" width="24.4" height="24.65" shape-rendering="crispEdges"/><rect fill="#0a0a0a" x="0" y="806.7" width="951.6" height="24.65" shape-rendering="crispEdges"/><rect fill="#0a0a0a" x="951.6" y="806.7" width="488" height="24.65" shape-rendering="crispEdges"/><rect fill="#000000" x="1439.6" y="806.7" width="24.4" height="24.65" shape-rendering="crispEdges"/><rect fill="#0a0a0a" x="0" y="831.1" width="951.6" height="24.65" shape-rendering="crispEdges"/><rect fill="#0a0a0a" x="951.6" y="831.1" width="488" height="24.65" shape-rendering="crispEdges"/><rect fill="#000000" x="1439.6" y="831.1" width="24.4" height="24.65" shape-rendering="crispEdges"/><rect fill="#242f38" x="0" y="855.5" width="61" height="24.65" shape-rendering="crispEdges"/><rect fill="#242f38" x="61" y="855.5" width="61" height="24.65" shape-rendering="crispEdges"/><rect fill="#242f38" x="122" y="855.5" width="48.8" height="24.65" shape-rendering="crispEdges"/><rect fill="#242f38" x="170.8" y="855.5" width="85.4" height="24.65" shape-rendering="crispEdges"/><rect fill="#242f38" x="256.2" y="855.5" width="36.6" height="24.65" shape-rendering="crispEdges"/><rect fill="#242f38" x="292.8" y="855.5" width="109.8" height="24.65" shape-rendering="crispEdges"/><rect fill="#242f38" x="402.6" y="855.5" width="36.6" height="24.65" shape-rendering="crispEdges"/><rect fill="#242f38" x="439.2" y="855.5" width="61" height="24.65" shape-rendering="crispEdges"/><rect fill="#242f38" x="500.2" y="855.5" width="36.6" height="24.65" shape-rendering="crispEdges"/><rect fill="#242f38" x="536.8" y="855.5" width="61" height="24.65" shape-rendering="crispEdges"/><rect fill="#242f38" x="597.8" y="855.5" width="36.6" height="24.65" shape-rendering="crispEdges"/><rect fill="#242f38" x="634.4" y="855.5" width="61" height="24.65" shape-rendering="crispEdges"/><rect fill="#242f38" x="695.4" y="855.5" width="622.2" height="24.65" shape-rendering="crispEdges"/><rect fill="#242f38" x="1317.6" y="855.5" width="12.2" height="24.65" shape-rendering="crispEdges"/><rect fill="#242f38" x="1329.8" y="855.5" width="24.4" height="24.65" shape-rendering="crispEdges"/><rect fill="#242f38" x="1354.2" y="855.5" width="97.6" height="24.65" shape-rendering="crispEdges"/><rect fill="#242f38" x="1451.8" y="855.5" width="12.2" height="24.65" shape-rendering="crispEdges"/>
    <g class="terminal-1398083059-matrix">
    <text class="terminal-1398083059-r2" x="12.2" y="20" textLength="12.2" clip-path="url(#terminal-1398083059-line-0)">⭘</text><text class="terminal-1398083059-r2" x="488" y="20" textLength="146.4" clip-path="url(#terminal-1398083059-line-0)">mavica-tools</text><text class="terminal-1398083059-r3" x="634.4" y="20" textLength="36.6" clip-path="url(#terminal-1398083059-line-0)">&#160;—&#160;</text><text class="terminal-1398083059-r3" x="671" y="20" textLength="280.6" clip-path="url(#terminal-1398083059-line-0)">Floppy&#160;Recovery&#160;Toolkit</text><text class="terminal-1398083059-r1" x="1464" y="20" textLength="12.2" clip-path="url(#terminal-1398083059-line-0)">
</text><text class="terminal-1398083059-r4" x="12.2" y="44.4" textLength="219.6" clip-path="url(#terminal-1398083059-line-1)">Import&#160;from&#160;Floppy</text><text class="terminal-1398083059-r1" x="1464" y="44.4" textLength="12.2" clip-path="url(#terminal-1398083059-line-1)">
</text><text class="terminal-1398083059-r1" x="1464" y="68.8" textLength="12.2" clip-path="url(#terminal-1398083059-line-2)">
</text><text class="terminal-1398083059-r6" x="36.6" y="93.2" textLength="73.2" clip-path="url(#terminal-1398083059-line-3)">Source</text><text class="terminal-1398083059-r7" x="122" y="93.2" textLength="36.6" clip-path="url(#terminal-1398083059-line-3)">A:\</text><text class="terminal-1398083059-r8" x="1049.2" y="93.2" textLength="61" clip-path="url(#terminal-1398083059-line-3)">&#160;...&#160;</text><text class="terminal-1398083059-r6" x="1171.2" y="93.2" textLength="97.6" clip-path="url(#terminal-1398083059-line-3)">&#160;Browse&#160;</text><text class="terminal-1398083059-r6" x="1317.6" y="93.2" textLength="73.2" clip-path="url(#terminal-1398083059-line-3)">&#160;Open&#160;</text><text class="terminal-1398083059-r1" x="1464" y="93.2" textLength="12.2" clip-path="url(#terminal-1398083059-line-3)">
</text><text class="terminal-1398083059-r1" x="1464" y="117.6" textLength="12.2" clip-path="url(#terminal-1398083059-line-4)">
</text><text class="terminal-1398083059-r6" x="73.2" y="142" textLength="36.6" clip-path="url(#terminal-1398083059-line-5)">Out</text><text class="terminal-1398083059-r2" x="122" y="142" textLength="427" clip-path="url(#terminal-1398083059-line-5)">mavica_out/import_2025-03-15_143022</text><text class="terminal-1398083059-r6" x="1171.2" y="142" textLength="97.6" clip-path="url(#terminal-1398083059-line-5)">&#160;Browse&#160;</text><text class="terminal-1398083059-r6" x="1317.6" y="142" textLength="73.2" clip-path="url(#terminal-1398083059-line-5)">&#160;Open&#160;</text><text class="terminal-1398083059-r1" x="1464" y="142" textLength="12.2" clip-path="url(#terminal-1398083059-line-5)">
</text><text class="terminal-1398083059-r1" x="1464" y="166.4" textLength="12.2" clip-path="url(#terminal-1398083059-line-6)">
</text><text class="terminal-1398083059-r9" x="36.6" y="190.8" textLength="244" clip-path="url(#terminal-1398083059-line-7)">&#160;Import&#160;Photos&#160;(F2)&#160;</text><text class="terminal-1398083059-r10" x="329.4" y="190.8" textLength="73.2" clip-path="url(#terminal-1398083059-line-7)">&#160;Stop&#160;</text><text class="terminal-1398083059-r11" x="451.4" y="190.8" textLength="134.2" clip-path="url(#terminal-1398083059-line-7)">&#160;Next&#160;Disk&#160;</text><text class="terminal-1398083059-r1" x="1464" y="190.8" textLength="12.2" clip-path="url(#terminal-1398083059-line-7)">
</text><text class="terminal-1398083059-r1" x="1464" y="215.2" textLength="12.2" clip-path="url(#terminal-1398083059-line-8)">
</text><text class="terminal-1398083059-r12" x="12.2" y="239.6" textLength="390.4" clip-path="url(#terminal-1398083059-line-9)">━━━━━━━━━━━━━━━━━━━━━━━━━━━━━━━━</text><text class="terminal-1398083059-r2" x="439.2" y="239.6" textLength="24.4" clip-path="url(#terminal-1398083059-line-9)">0%</text><text class="terminal-1398083059-r2" x="475.8" y="239.6" textLength="97.6" clip-path="url(#terminal-1398083059-line-9)">--:--:--</text><text class="terminal-1398083059-r1" x="1464" y="239.6" textLength="12.2" clip-path="url(#terminal-1398083059-line-9)">
</text><text class="terminal-1398083059-r1" x="1464" y="264" textLength="12.2" clip-path="url(#terminal-1398083059-line-10)">
</text><text class="terminal-1398083059-r5" x="951.6" y="288.4" textLength="12.2" clip-path="url(#terminal-1398083059-line-11)">▊</text><text class="terminal-1398083059-r13" x="963.8" y="288.4" textLength="463.6" clip-path="url(#terminal-1398083059-line-11)">▔▔▔▔▔▔▔▔▔▔▔▔▔▔▔▔▔▔▔▔▔▔▔▔▔▔▔▔▔▔▔▔▔▔▔▔▔▔</text><text class="terminal-1398083059-r13" x="1427.4" y="288.4" textLength="12.2" clip-path="url(#terminal-1398083059-line-11)">▎</text><text class="terminal-1398083059-r1" x="1464" y="288.4" textLength="12.2" clip-path="url(#terminal-1398083059-line-11)">
</text><text class="terminal-1398083059-r4" x="0" y="312.8" textLength="97.6" clip-path="url(#terminal-1398083059-line-12)">&#160;Status&#160;</text><text class="terminal-1398083059-r4" x="97.6" y="312.8" textLength="158.6" clip-path="url(#terminal-1398083059-line-12)">&#160;Filename&#160;&#160;&#160;&#160;</text><text class="terminal-1398083059-r4" x="256.2" y="312.8" textLength="109.8" clip-path="url(#terminal-1398083059-line-12)">&#160;Size&#160;&#160;&#160;&#160;</text><text class="terminal-1398083059-r4" x="366" y="312.8" textLength="146.4" clip-path="url(#terminal-1398083059-line-12)">&#160;Date&#160;&#160;&#160;&#160;&#160;&#160;&#160;</text><text class="terminal-1398083059-r5" x="951.6" y="312.8" textLength="12.2" clip-path="url(#terminal-1398083059-line-12)">▊</text><text class="terminal-1398083059-r14" x="1073.6" y="312.8" textLength="231.8" clip-path="url(#terminal-1398083059-line-12)">&#160;&#160;No&#160;image&#160;selected</text><text class="terminal-1398083059-r13" x="1427.4" y="312.8" textLength="12.2" clip-path="url(#terminal-1398083059-line-12)">▎</text><text class="terminal-1398083059-r1" x="1464" y="312.8" textLength="12.2" clip-path="url(#terminal-1398083059-line-12)">
</text><text class="terminal-1398083059-r15" x="0" y="337.2" textLength="97.6" clip-path="url(#terminal-1398083059-line-13)">&#160;OK&#160;&#160;&#160;&#160;&#160;</text><text class="terminal-1398083059-r15" x="97.6" y="337.2" textLength="158.6" clip-path="url(#terminal-1398083059-line-13)">&#160;MVC-001.JPG&#160;</text><text class="terminal-1398083059-r15" x="256.2" y="337.2" textLength="109.8" clip-path="url(#terminal-1398083059-line-13)">&#160;94.2&#160;KB&#160;</text><text class="terminal-1398083059-r15" x="366" y="337.2" textLength="146.4" clip-path="url(#terminal-1398083059-line-13)">&#160;2001-07-04&#160;</text><text class="terminal-1398083059-r5" x="951.6" y="337.2" textLength="12.2" clip-path="url(#terminal-1398083059-line-13)">▊</text><text class="terminal-1398083059-r13" x="1427.4" y="337.2" textLength="12.2" clip-path="url(#terminal-1398083059-line-13)">▎</text><text class="terminal-1398083059-r1" x="1464" y="337.2" textLength="12.2" clip-path="url(#terminal-1398083059-line-13)">
</text><text class="terminal-1398083059-r2" x="0" y="361.6" textLength="97.6" clip-path="url(#terminal-1398083059-line-14)">&#160;OK&#160;&#160;&#160;&#160;&#160;</text><text class="terminal-1398083059-r2" x="97.6" y="361.6" textLength="158.6" clip-path="url(#terminal-1398083059-line-14)">&#160;MVC-002.JPG&#160;</text><text class="terminal-1398083059-r2" x="256.2" y="361.6" textLength="109.8" clip-path="url(#terminal-1398083059-line-14)">&#160;87.6&#160;KB&#160;</text><text class="terminal-1398083059-r2" x="366" y="361.6" textLength="146.4" clip-path="url(#terminal-1398083059-line-14)">&#160;2001-07-04&#160;</text><text class="terminal-1398083059-r5" x="951.6" y="361.6" textLength="12.2" clip-path="url(#terminal-1398083059-line-14)">▊</text><text class="terminal-1398083059-r13" x="1427.4" y="361.6" textLength="12.2" clip-path="url(#terminal-1398083059-line-14)">▎</text><text class="terminal-1398083059-r1" x="1464" y="361.6" textLength="12.2" clip-path="url(#terminal-1398083059-line-14)">
</text><text class="terminal-1398083059-r2" x="0" y="386" textLength="97.6" clip-path="url(#terminal-1398083059-line-15)">&#160;OK&#160;&#160;&#160;&#160;&#160;</text><text class="terminal-1398083059-r2" x="97.6" y="386" textLength="158.6" clip-path="url(#terminal-1398083059-line-15)">&#160;MVC-003.JPG&#160;</text><text class="terminal-1398083059-r2" x="256.2" y="386" textLength="109.8" clip-path="url(#terminal-1398083059-line-15)">&#160;91.1&#160;KB&#160;</text><text class="terminal-1398083059-r2" x="366" y="386" textLength="146.4" clip-path="url(#terminal-1398083059-line-15)">&#160;2001-07-04&#160;</text><text class="terminal-1398083059-r5" x="951.6" y="386" textLength="12.2" clip-path="url(#terminal-1398083059-line-15)">▊</text><text class="terminal-1398083059-r13" x="963.8" y="386" textLength="463.6" clip-path="url(#terminal-1398083059-line-15)">▁▁▁▁▁▁▁▁▁▁▁▁▁▁▁▁▁▁▁▁▁▁▁▁▁▁▁▁▁▁▁▁▁▁▁▁▁▁</text><text class="terminal-1398083059-r13" x="1427.4" y="386" textLength="12.2" clip-path="url(#terminal-1398083059-line-15)">▎</text><text class="terminal-1398083059-r1" x="1464" y="386" textLength="12.2" clip-path="url(#terminal-1398083059-line-15)">
</text><text class="terminal-1398083059-r2" x="0" y="410.4" textLength="97.6" clip-path="url(#terminal-1398083059-line-16)">&#160;OK&#160;&#160;&#160;&#160;&#160;</text><text class="terminal-1398083059-r2" x="97.6" y="410.4" textLength="158.6" clip-path="url(#terminal-1398083059-line-16)">&#160;MVC-004.JPG&#160;</text><text class="terminal-1398083059-r2" x="256.2" y="410.4" textLength="109.8" clip-path="url(#terminal-1398083059-line-16)">&#160;88.3&#160;KB&#160;</text><text class="terminal-1398083059-r2" x="366" y="410.4" textLength="146.4" clip-path="url(#terminal-1398083059-line-16)">&#160;2001-07-04&#160;</text><text class="terminal-1398083059-r16" x="1439.6" y="410.4" textLength="24.4" clip-path="url(#terminal-1398083059-line-16)">▆▆</text><text class="terminal-1398083059-r1" x="1464" y="410.4" textLength="12.2" clip-path="url(#terminal-1398083059-line-16)">
</text><text class="terminal-1398083059-r2" x="0" y="434.8" textLength="97.6" clip-path="url(#terminal-1398083059-line-17)">&#160;OK&#160;&#160;&#160;&#160;&#160;</text><text class="terminal-1398083059-r2" x="97.6" y="434.8" textLength="158.6" clip-path="url(#terminal-1398083059-line-17)">&#160;MVC-005.JPG&#160;</text><text class="terminal-1398083059-r2" x="256.2" y="434.8" textLength="109.8" clip-path="url(#terminal-1398083059-line-17)">&#160;93.7&#160;KB&#160;</text><text class="terminal-1398083059-r2" x="366" y="434.8" textLength="146.4" clip-path="url(#terminal-1398083059-line-17)">&#160;2001-07-04&#160;</text><text class="terminal-1398083059-r1" x="1464" y="434.8" textLength="12.2" clip-path="url(#terminal-1398083059-line-17)">
</text><text class="terminal-1398083059-r1" x="1464" y="459.2" textLength="12.2" clip-path="url(#terminal-1398083059-line-18)">
</text><text class="terminal-1398083059-r1" x="1464" y="483.6" textLength="12.2" clip-path="url(#terminal-1398083059-line-19)">
</text><text class="terminal-1398083059-r1" x="1464" y="508" textLength="12.2" clip-path="url(#terminal-1398083059-line-20)">
</text><text class="terminal-1398083059-r1" x="1464" y="532.4" textLength="12.2" clip-path="url(#terminal-1398083059-line-21)">
</text><text class="terminal-1398083059-r1" x="1464" y="556.8" textLength="12.2" clip-path="url(#terminal-1398083059-line-22)">
</text><text class="terminal-1398083059-r1" x="1464" y="581.2" textLength="12.2" clip-path="url(#terminal-1398083059-line-23)">
</text><text class="terminal-1398083059-r1" x="1464" y="605.6" textLength="12.2" clip-path="url(#terminal-1398083059-line-24)">
</text><text class="terminal-1398083059-r1" x="1464" y="630" textLength="12.2" clip-path="url(#terminal-1398083059-line-25)">
</text><text class="terminal-1398083059-r1" x="1464" y="654.4" textLength="12.2" clip-path="url(#terminal-1398083059-line-26)">
</text><text class="terminal-1398083059-r1" x="1464" y="678.8" textLength="12.2" clip-path="url(#terminal-1398083059-line-27)">
</text><text class="terminal-1398083059-r1" x="1464" y="703.2" textLength="12.2" clip-path="url(#terminal-1398083059-line-28)">
</text><text class="terminal-1398083059-r1" x="1464" y="727.6" textLength="12.2" clip-path="url(#terminal-1398083059-line-29)">
</text><text class="terminal-1398083059-r1" x="1464" y="752" textLength="12.2" clip-path="url(#terminal-1398083059-line-30)">
</text><text class="terminal-1398083059-r1" x="1464" y="776.4" textLength="12.2" clip-path="url(#terminal-1398083059-line-31)">
</text><text class="terminal-1398083059-r1" x="1464" y="800.8" textLength="12.2" clip-path="url(#terminal-1398083059-line-32)">
</text><text class="terminal-1398083059-r1" x="1464" y="825.2" textLength="12.2" clip-path="url(#terminal-1398083059-line-33)">
</text><text class="terminal-1398083059-r1" x="1464" y="849.6" textLength="12.2" clip-path="url(#terminal-1398083059-line-34)">
</text><text class="terminal-1398083059-r17" x="0" y="874" textLength="61" clip-path="url(#terminal-1398083059-line-35)">&#160;esc&#160;</text><text class="terminal-1398083059-r2" x="61" y="874" textLength="61" clip-path="url(#terminal-1398083059-line-35)">Back&#160;</text><text class="terminal-1398083059-r17" x="122" y="874" textLength="48.8" clip-path="url(#terminal-1398083059-line-35)">&#160;f2&#160;</text><text class="terminal-1398083059-r2" x="170.8" y="874" textLength="85.4" clip-path="url(#terminal-1398083059-line-35)">Import&#160;</text><text class="terminal-1398083059-r17" x="256.2" y="874" textLength="36.6" clip-path="url(#terminal-1398083059-line-35)">&#160;o&#160;</text><text class="terminal-1398083059-r2" x="292.8" y="874" textLength="109.8" clip-path="url(#terminal-1398083059-line-35)">Open&#160;Out&#160;</text><text class="terminal-1398083059-r17" x="402.6" y="874" textLength="36.6" clip-path="url(#terminal-1398083059-line-35)">&#160;q&#160;</text><text class="terminal-1398083059-r2" x="439.2" y="874" textLength="61" clip-path="url(#terminal-1398083059-line-35)">Quit&#160;</text><text class="terminal-1398083059-r17" x="500.2" y="874" textLength="36.6" clip-path="url(#terminal-1398083059-line-35)">&#160;h&#160;</text><text class="terminal-1398083059-r2" x="536.8" y="874" textLength="61" clip-path="url(#terminal-1398083059-line-35)">Home&#160;</text><text class="terminal-1398083059-r17" x="597.8" y="874" textLength="36.6" clip-path="url(#terminal-1398083059-line-35)">&#160;?&#160;</text><text class="terminal-1398083059-r2" x="634.4" y="874" textLength="61" clip-path="url(#terminal-1398083059-line-35)">Help&#160;</text><text class="terminal-1398083059-r18" x="1317.6" y="874" textLength="12.2" clip-path="url(#terminal-1398083059-line-35)">▏</text><text class="terminal-1398083059-r17" x="1329.8" y="874" textLength="24.4" clip-path="url(#terminal-1398083059-line-35)">^p</text><text class="terminal-1398083059-r2" x="1354.2" y="874" textLength="97.6" clip-path="url(#terminal-1398083059-line-35)">&#160;palette</text>
    </g>
    </g>
</svg>
