<svg class="rich-terminal" viewBox="0 0 1238 1026.0" xmlns="http://www.w3.org/2000/svg">
    <!-- Generated with Rich https://www.textualize.io -->
    <style>

    @font-face {
        font-family: "Fira Code";
        src: local("FiraCode-Regular"),
                url("https://cdnjs.cloudflare.com/ajax/libs/firacode/6.2.0/woff2/FiraCode-Regular.woff2") format("woff2"),
                url("https://cdnjs.cloudflare.com/ajax/libs/firacode/6.2.0/woff/FiraCode-Regular.woff") format("woff");
        font-style: normal;
        font-weight: 400;
    }
    @font-face {
        font-family: "Fira Code";
        src: local("FiraCode-Bold"),
                url("https://cdnjs.cloudflare.com/ajax/libs/firacode/6.2.0/woff2/FiraCode-Bold.woff2") format("woff2"),
                url("https://cdnjs.cloudflare.com/ajax/libs/firacode/6.2.0/woff/FiraCode-Bold.woff") format("woff");
        font-style: bold;
        font-weight: 700;
    }

    .terminal-1610936377-matrix {
        font-family: Fira Code, monospace;
        font-size: 20px;
        line-height: 24.4px;
        font-variant-east-asian: full-width;
    }

    .terminal-1610936377-title {
        font-size: 18px;
        font-weight: bold;
        font-family: arial;
    }

    .terminal-1610936377-r1 { fill: #c5c8c6 }
.terminal-1610936377-r2 { fill: #ffaa00;font-weight: bold }
.terminal-1610936377-r3 { fill: #33ff33;font-weight: bold }
.terminal-1610936377-r4 { fill: #2ab12a;font-weight: bold }
.terminal-1610936377-r5 { fill: #e0e0e0 }
.terminal-1610936377-r6 { fill: #979797 }
.terminal-1610936377-r7 { fill: #979797;font-weight: bold }
.terminal-1610936377-r8 { fill: #e0e0e0;font-weight: bold }
.terminal-1610936377-r9 { fill: #0a0a0a }
.terminal-1610936377-r10 { fill: #33ff33 }
.terminal-1610936377-r11 { fill: #121212 }
.terminal-1610936377-r12 { fill: #7ae998 }
.terminal-1610936377-r13 { fill: #0a180e;font-weight: bold }
.terminal-1610936377-r14 { fill: #008139 }
.terminal-1610936377-r15 { fill: #1b2d20 }
.terminal-1610936377-r16 { fill: #0f0f0f }
.terminal-1610936377-r17 { fill: #0c150f;font-weight: bold }
.terminal-1610936377-r18 { fill: #3e3e3e;font-weight: bold }
.terminal-1610936377-r19 { fill: #081c11 }
.terminal-1610936377-r20 { fill: #333333 }
.terminal-1610936377-r21 { fill: #ffa62b;font-weight: bold }
.terminal-1610936377-r22 { fill: #495259 }
    </style>

    <defs>
    <clipPath id="terminal-1610936377-clip-terminal">
      <rect x="0" y="0" width="1219.0" height="975.0" />
    </clipPath>
    <clipPath id="terminal-1610936377-line-0">
    <rect x="0" y="1.5" width="1220" height="24.65"/>
            </clipPath>
<clipPath id="terminal-1610936377-line-1">
    <rect x="0" y="25.9" width="1220" height="24.65"/>
            </clipPath>
<clipPath id="terminal-1610936377-line-2">
    <rect x="0" y="50.3" width="1220" height="24.65"/>
            </clipPath>
<clipPath id="terminal-1610936377-line-3">
    <rect x="0" y="74.7" width="1220" height="24.65"/>
            </clipPath>
<clipPath id="terminal-1610936377-line-4">
    <rect x="0" y="99.1" width="1220" height="24.65"/>
            </clipPath>
<clipPath id="terminal-1610936377-line-5">
    <rect x="0" y="123.5" width="1220" height="24.65"/>
            </clipPath>
<clipPath id="terminal-1610936377-line-6">
    <rect x="0" y="147.9" width="1220" height="24.65"/>
            </clipPath>
<clipPath id="terminal-1610936377-line-7">
    <rect x="0" y="172.3" width="1220" height="24.65"/>
            </clipPath>
<clipPath id="terminal-1610936377-line-8">
    <rect x="0" y="196.7" width="1220" height="24.65"/>
            </clipPath>
<clipPath id="terminal-1610936377-line-9">
    <rect x="0" y="221.1" width="1220" height="24.65"/>
            </clipPath>
<clipPath id="terminal-1610936377-line-10">
    <rect x="0" y="245.5" width="1220" height="24.65"/>
            </clipPath>
<clipPath id="terminal-1610936377-line-11">
    <rect x="0" y="269.9" width="1220" height="24.65"/>
            </clipPath>
<clipPath id="terminal-1610936377-line-12">
    <rect x="0" y="294.3" width="1220" height="24.65"/>
            </clipPath>
<clipPath id="terminal-1610936377-line-13">
    <rect x="0" y="318.7" width="1220" height="24.65"/>
            </clipPath>
<clipPath id="terminal-1610936377-line-14">
    <rect x="0" y="343.1" width="1220" height="24.65"/>
            </clipPath>
<clipPath id="terminal-1610936377-line-15">
    <rect x="0" y="367.5" width="1220" height="24.65"/>
            </clipPath>
<clipPath id="terminal-1610936377-line-16">
    <rect x="0" y="391.9" width="1220" height="24.65"/>
            </clipPath>
<clipPath id="terminal-1610936377-line-17">
    <rect x="0" y="416.3" width="1220" height="24.65"/>
            </clipPath>
<clipPath id="terminal-1610936377-line-18">
    <rect x="0" y="440.7" width="1220" height="24.65"/>
            </clipPath>
<clipPath id="terminal-1610936377-line-19">
    <rect x="0" y="465.1" width="1220" height="24.65"/>
            </clipPath>
<clipPath id="terminal-1610936377-line-20">
    <rect x="0" y="489.5" width="1220" height="24.65"/>
            </clipPath>
<clipPath id="terminal-1610936377-line-21">
    <rect x="0" y="513.9" width="1220" height="24.65"/>
            </clipPath>
<clipPath id="terminal-1610936377-line-22">
    <rect x="0" y="538.3" width="1220" height="24.65"/>
            </clipPath>
<clipPath id="terminal-1610936377-line-23">
    <rect x="0" y="562.7" width="1220" height="24.65"/>
            </clipPath>
<clipPath id="terminal-1610936377-line-24">
    <rect x="0" y="587.1" width="1220" height="24.65"/>
            </clipPath>
<clipPath id="terminal-1610936377-line-25">
    <rect x="0" y="611.5" width="1220" height="24.65"/>
            </clipPath>
<clipPath id="terminal-1610936377-line-26">
    <rect x="0" y="635.9" width="1220" height="24.65"/>
            </clipPath>
<clipPath id="terminal-1610936377-line-27">
    <rect x="0" y="660.3" width="1220" height="24.65"/>
            </clipPath>
<clipPath id="terminal-1610936377-line-28">
    <rect x="0" y="684.7" width="1220" height="24.65"/>
            </clipPath>
<clipPath id="terminal-1610936377-line-29">
    <rect x="0" y="709.1" width="1220" height="24.65"/>
            </clipPath>
<clipPath id="terminal-1610936377-line-30">
    <rect x="0" y="733.5" width="1220" height="24.65"/>
            </clipPath>
<clipPath id="terminal-1610936377-line-31">
    <rect x="0" y="757.9" width="1220" height="24.65"/>
            </clipPath>
<clipPath id="terminal-1610936377-line-32">
    <rect x="0" y="782.3" width="1220" height="24.65"/>
            </clipPath>
<clipPath id="terminal-1610936377-line-33">
    <rect x="0" y="806.7" width="1220" height="24.65"/>
            </clipPath>
<clipPath id="terminal-1610936377-line-34">
    <rect x="0" y="831.1" width="1220" height="24.65"/>
            </clipPath>
<clipPath id="terminal-1610936377-line-35">
    <rect x="0" y="855.5" width="1220" height="24.65"/>
            </clipPath>
<clipPath id="terminal-1610936377-line-36">
    <rect x="0" y="879.9" width="1220" height="24.65"/>
            </clipPath>
<clipPath id="terminal-1610936377-line-37">
    <rect x="0" y="904.3" width="1220" height="24.65"/>
            </clipPath>
<clipPath id="terminal-1610936377-line-38">
    <rect x="0" y="928.7" width="1220" height="24.65"/>
            </clipPath>
    </defs>

    <rect fill="#292929" stroke="rgba(255,255,255,0.35)" stroke-width="1" x="1" y="1" width="1236" height="1024" rx="8"/><text class="terminal-1610936377-title" fill="#c5c8c6" text-anchor="middle" x="618" y="27">mavica-tools</text>
            <g transform="translate(26,22)">
            <circle cx="0" cy="0" r="7" fill="#ff5f57"/>
            <circle cx="22" cy="0" r="7" fill="#febc2e"/>
            <circle cx="44" cy="0" r="7" fill="#28c840"/>
            </g>
        
    <g transform="translate(9, 41)" clip-path="url(#terminal-1610936377-clip-terminal)">
    <rect fill="#1a1a1a" x="0" y="1.5" width="12.2" height="24.65" shape-rendering="crispEdges"/><rect fill="#1a1a1a" x="12.2" y="1.5" width="85.4" height="24.65" shape-rendering="crispEdges"/><rect fill="#1a1a1a" x="97.6" y="1.5" width="134.2" height="24.65" shape-rendering="crispEdges"/><rect fill="#1a1a1a" x="231.8" y="1.5" width="24.4" height="24.65" shape-rendering="crispEdges"/><rect fill="#1a1a1a" x="256.2" y="1.5" width="475.8" height="24.65" shape-rendering="crispEdges"/><rect fill="#1a1a1a" x="732" y="1.5" width="366" height="24.65" shape-rendering="crispEdges"/><rect fill="#1a1a1a" x="1098" y="1.5" width="109.8" height="24.65" shape-rendering="crispEdges"/><rect fill="#1a1a1a" x="1207.8" y="1.5" width="12.2" height="24.65" shape-rendering="crispEdges"/><rect fill="#0a0a0a" x="0" y="25.9" width="671" height="24.65" shape-rendering="crispEdges"/><rect fill="#0a0a0a" x="671" y="25.9" width="549" height="24.65" shape-rendering="crispEdges"/><rect fill="#0a0a0a" x="0" y="50.3" width="683.2" height="24.65" shape-rendering="crispEdges"/><rect fill="#0a0a0a" x="683.2" y="50.3" width="536.8" height="24.65" shape-rendering="crispEdges"/><rect fill="#0a0a0a" x="0" y="74.7" width="0" height="24.65" shape-rendering="crispEdges"/><rect fill="#0a0a0a" x="0" y="74.7" width="1220" height="24.65" shape-rendering="crispEdges"/><rect fill="#0a0a0a" x="0" y="99.1" width="24.4" height="24.65" shape-rendering="crispEdges"/><rect fill="#0a0a0a" x="24.4" y="99.1" width="561.2" height="24.65" shape-rendering="crispEdges"/><rect fill="#0a0a0a" x="585.6" y="99.1" width="634.4" height="24.65" shape-rendering="crispEdges"/><rect fill="#0a0a0a" x="0" y="123.5" width="73.2" height="24.65" shape-rendering="crispEdges"/><rect fill="#0a0a0a" x="73.2" y="123.5" width="207.4" height="24.65" shape-rendering="crispEdges"/><rect fill="#0a0a0a" x="280.6" y="123.5" width="341.6" height="24.65" shape-rendering="crispEdges"/><rect fill="#0a0a0a" x="622.2" y="123.5" width="597.8" height="24.65" shape-rendering="crispEdges"/><rect fill="#0a0a0a" x="0" y="147.9" width="0" height="24.65" shape-rendering="crispEdges"/><rect fill="#0a0a0a" x="0" y="147.9" width="1220" height="24.65" shape-rendering="crispEdges"/><rect fill="#0a0a0a" x="0" y="172.3" width="1220" height="24.65" shape-rendering="crispEdges"/><rect fill="#0a0a0a" x="0" y="196.7" width="24.4" height="24.65" shape-rendering="crispEdges"/><rect fill="#0a0a0a" x="24.4" y="196.7" width="97.6" height="24.65" shape-rendering="crispEdges"/><rect fill="#0a0a0a" x="122" y="196.7" width="1098" height="24.65" shape-rendering="crispEdges"/><rect fill="#33ff33" x="0" y="221.1" width="12.2" height="24.65" shape-rendering="crispEdges"/><rect fill="#272727" x="12.2" y="221.1" width="1183.4" height="24.65" shape-rendering="crispEdges"/><rect fill="#0a0a0a" x="1195.6" y="221.1" width="12.2" height="24.65" shape-rendering="crispEdges"/><rect fill="#0a0a0a" x="1207.8" y="221.1" width="12.2" height="24.65" shape-rendering="crispEdges"/><rect fill="#33ff33" x="0" y="245.5" width="12.2" height="24.65" shape-rendering="crispEdges"/><rect fill="#272727" x="12.2" y="245.5" width="24.4" height="24.65" shape-rendering="crispEdges"/><rect fill="#2d4e74" x="36.6" y="245.5" width="73.2" height="24.65" shape-rendering="crispEdges"/><rect fill="#e0e0e0" x="109.8" y="245.5" width="12.2" height="24.65" shape-rendering="crispEdges"/><rect fill="#272727" x="122" y="245.5" width="1049.2" height="24.65" shape-rendering="crispEdges"/><rect fill="#272727" x="1171.2" y="245.5" width="24.4" height="24.65" shape-rendering="crispEdges"/><rect fill="#0a0a0a" x="1195.6" y="245.5" width="12.2" height="24.65" shape-rendering="crispEdges"/><rect fill="#0a0a0a" x="1207.8" y="245.5" width="12.2" height="24.65" shape-rendering="crispEdges"/><rect fill="#33ff33" x="0" y="269.9" width="12.2" height="24.65" shape-rendering="crispEdges"/><rect fill="#272727" x="12.2" y="269.9" width="1183.4" height="24.65" shape-rendering="crispEdges"/><rect fill="#0a0a0a" x="1195.6" y="269.9" width="12.2" height="24.65" shape-rendering="crispEdges"/><rect fill="#0a0a0a" x="1207.8" y="269.9" width="12.2" height="24.65" shape-rendering="crispEdges"/><rect fill="#0a0a0a" x="0" y="294.3" width="1220" height="24.65" shape-rendering="crispEdges"/><rect fill="#0a0a0a" x="0" y="318.7" width="0" height="24.65" shape-rendering="crispEdges"/><rect fill="#0a0a0a" x="0" y="318.7" width="1220" height="24.65" shape-rendering="crispEdges"/><rect fill="#0a0a0a" x="0" y="343.1" width="24.4" height="24.65" shape-rendering="crispEdges"/><rect fill="#0a0a0a" x="24.4" y="343.1" width="268.4" height="24.65" shape-rendering="crispEdges"/><rect fill="#0a0a0a" x="292.8" y="343.1" width="927.2" height="24.65" shape-rendering="crispEdges"/><rect fill="#0a0a0a" x="0" y="367.5" width="24.4" height="24.65" shape-rendering="crispEdges"/><rect fill="#0a0a0a" x="24.4" y="367.5" width="610" height="24.65" shape-rendering="crispEdges"/><rect fill="#0a0a0a" x="634.4" y="367.5" width="585.6" height="24.65" shape-rendering="crispEdges"/><rect fill="#0a0a0a" x="0" y="391.9" width="12.2" height="24.65" shape-rendering="crispEdges"/><rect fill="#4ebf71" x="12.2" y="391.9" width="256.2" height="24.65" shape-rendering="crispEdges"/><rect fill="#0a0a0a" x="268.4" y="391.9" width="12.2" height="24.65" shape-rendering="crispEdges"/><rect fill="#4ebf71" x="280.6" y="391.9" width="231.8" height="24.65" shape-rendering="crispEdges"/><rect fill="#0a0a0a" x="512.4" y="391.9" width="707.6" height="24.65" shape-rendering="crispEdges"/><rect fill="#0a0a0a" x="0" y="416.3" width="12.2" height="24.65" shape-rendering="crispEdges"/><rect fill="#4ebf71" x="12.2" y="416.3" width="256.2" height="24.65" shape-rendering="crispEdges"/><rect fill="#0a0a0a" x="268.4" y="416.3" width="12.2" height="24.65" shape-rendering="crispEdges"/><rect fill="#4ebf71" x="280.6" y="416.3" width="231.8" height="24.65" shape-rendering="crispEdges"/><rect fill="#0a0a0a" x="512.4" y="416.3" width="707.6" height="24.65" shape-rendering="crispEdges"/><rect fill="#0a0a0a" x="0" y="440.7" width="12.2" height="24.65" shape-rendering="crispEdges"/><rect fill="#4ebf71" x="12.2" y="440.7" width="256.2" height="24.65" shape-rendering="crispEdges"/><rect fill="#0a0a0a" x="268.4" y="440.7" width="12.2" height="24.65" shape-rendering="crispEdges"/><rect fill="#4ebf71" x="280.6" y="440.7" width="231.8" height="24.65" shape-rendering="crispEdges"/><rect fill="#0a0a0a" x="512.4" y="440.7" width="707.6" height="24.65" shape-rendering="crispEdges"/><rect fill="#0a0a0a" x="0" y="465.1" width="1220" height="24.65" shape-rendering="crispEdges"/><rect fill="#0a0a0a" x="0" y="489.5" width="0" height="24.65" shape-rendering="crispEdges"/><rect fill="#0a0a0a" x="0" y="489.5" width="1220" height="24.65" shape-rendering="crispEdges"/><rect fill="#0a0a0a" x="0" y="513.9" width="24.4" height="24.65" shape-rendering="crispEdges"/><rect fill="#0a0a0a" x="24.4" y="513.9" width="268.4" height="24.65" shape-rendering="crispEdges"/><rect fill="#0a0a0a" x="292.8" y="513.9" width="927.2" height="24.65" shape-rendering="crispEdges"/><rect fill="#0a0a0a" x="0" y="538.3" width="24.4" height="24.65" shape-rendering="crispEdges"/><rect fill="#0a0a0a" x="24.4" y="538.3" width="719.8" height="24.65" shape-rendering="crispEdges"/><rect fill="#0a0a0a" x="744.2" y="538.3" width="475.8" height="24.65" shape-rendering="crispEdges"/><rect fill="#0a0a0a" x="0" y="562.7" width="805.2" height="24.65" shape-rendering="crispEdges"/><rect fill="#0a0a0a" x="805.2" y="562.7" width="414.8" height="24.65" shape-rendering="crispEdges"/><rect fill="#0a0a0a" x="0" y="587.1" width="12.2" height="24.65" shape-rendering="crispEdges"/><rect fill="#14261a" x="12.2" y="587.1" width="219.6" height="24.65" shape-rendering="crispEdges"/><rect fill="#0a0a0a" x="231.8" y="587.1" width="12.2" height="24.65" shape-rendering="crispEdges"/><rect fill="#0d0d0d" x="244" y="587.1" width="183" height="24.65" shape-rendering="crispEdges"/><rect fill="#0a0a0a" x="427" y="587.1" width="793" height="24.65" shape-rendering="crispEdges"/><rect fill="#0a0a0a" x="0" y="611.5" width="12.2" height="24.65" shape-rendering="crispEdges"/><rect fill="#14261a" x="12.2" y="611.5" width="219.6" height="24.65" shape-rendering="crispEdges"/><rect fill="#0a0a0a" x="231.8" y="611.5" width="12.2" height="24.65" shape-rendering="crispEdges"/><rect fill="#0d0d0d" x="244" y="611.5" width="183" height="24.65" shape-rendering="crispEdges"/><rect fill="#0a0a0a" x="427" y="611.5" width="793" height="24.65" shape-rendering="crispEdges"/><rect fill="#0a0a0a" x="0" y="635.9" width="12.2" height="24.65" shape-rendering="crispEdges"/><rect fill="#14261a" x="12.2" y="635.9" width="219.6" height="24.65" shape-rendering="crispEdges"/><rect fill="#0a0a0a" x="231.8" y="635.9" width="12.2" height="24.65" shape-rendering="crispEdges"/><rect fill="#0d0d0d" x="244" y="635.9" width="183" height="24.65" shape-rendering="crispEdges"/><rect fill="#0a0a0a" x="427" y="635.9" width="793" height="24.65" shape-rendering="crispEdges"/><rect fill="#0a0a0a" x="0" y="660.3" width="1220" height="24.65" shape-rendering="crispEdges"/><rect fill="#0a0a0a" x="0" y="684.7" width="0" height="24.65" shape-rendering="crispEdges"/><rect fill="#0a0a0a" x="0" y="684.7" width="1220" height="24.65" shape-rendering="crispEdges"/><rect fill="#0a0a0a" x="0" y="709.1" width="24.4" height="24.65" shape-rendering="crispEdges"/><rect fill="#0a0a0a" x="24.4" y="709.1" width="170.8" height="24.65" shape-rendering="crispEdges"/><rect fill="#0a0a0a" x="195.2" y="709.1" width="1024.8" height="24.65" shape-rendering="crispEdges"/><rect fill="#0a0a0a" x="0" y="733.5" width="24.4" height="24.65" shape-rendering="crispEdges"/><rect fill="#0a0a0a" x="24.4" y="733.5" width="597.8" height="24.65" shape-rendering="crispEdges"/><rect fill="#0a0a0a" x="622.2" y="733.5" width="597.8" height="24.65" shape-rendering="crispEdges"/><rect fill="#0a0a0a" x="0" y="757.9" width="12.2" height="24.65" shape-rendering="crispEdges"/><rect fill="#14261a" x="12.2" y="757.9" width="195.2" height="24.65" shape-rendering="crispEdges"/><rect fill="#0a0a0a" x="207.4" y="757.9" width="12.2" height="24.65" shape-rendering="crispEdges"/><rect fill="#0d0d0d" x="219.6" y="757.9" width="207.4" height="24.65" shape-rendering="crispEdges"/><rect fill="#0a0a0a" x="427" y="757.9" width="793" height="24.65" shape-rendering="crispEdges"/><rect fill="#0a0a0a" x="0" y="782.3" width="12.2" height="24.65" shape-rendering="crispEdges"/><rect fill="#14261a" x="12.2" y="782.3" width="195.2" height="24.65" shape-rendering="crispEdges"/><rect fill="#0a0a0a" x="207.4" y="782.3" width="12.2" height="24.65" shape-rendering="crispEdges"/><rect fill="#0d0d0d" x="219.6" y="782.3" width="207.4" height="24.65" shape-rendering="crispEdges"/><rect fill="#0a0a0a" x="427" y="782.3" width="793" height="24.65" shape-rendering="crispEdges"/><rect fill="#0a0a0a" x="0" y="806.7" width="12.2" height="24.65" shape-rendering="crispEdges"/><rect fill="#14261a" x="12.2" y="806.7" width="195.2" height="24.65" shape-rendering="crispEdges"/><rect fill="#0a0a0a" x="207.4" y="806.7" width="12.2" height="24.65" shape-rendering="crispEdges"/><rect fill="#0d0d0d" x="219.6" y="806.7" width="207.4" height="24.65" shape-rendering="crispEdges"/><rect fill="#0a0a0a" x="427" y="806.7" width="793" height="24.65" shape-rendering="crispEdges"/><rect fill="#0a0a0a" x="0" y="831.1" width="1220" height="24.65" shape-rendering="crispEdges"/><rect fill="#333333" x="0" y="855.5" width="12.2" height="24.65" shape-rendering="crispEdges"/><rect fill="#0a0a0a" x="12.2" y="855.5" width="1195.6" height="24.65" shape-rendering="crispEdges"/><rect fill="#0a0a0a" x="1207.8" y="855.5" width="12.2" height="24.65" shape-rendering="crispEdges"/><rect fill="#333333" x="0" y="879.9" width="12.2" height="24.65" shape-rendering="crispEdges"/><rect fill="#0a0a0a" x="12.2" y="879.9" width="1195.6" height="24.65" shape-rendering="crispEdges"/><rect fill="#0a0a0a" x="1207.8" y="879.9" width="12.2" height="24.65" shape-rendering="crispEdges"/><rect fill="#0a0a0a" x="0" y="904.3" width="1220" height="24.65" shape-rendering="crispEdges"/><rect fill="#0a0a0a" x="0" y="928.7" width="1220" height="24.65" shape-rendering="crispEdges"/><rect fill="#242f38" x="0" y="953.1" width="61" height="24.65" shape-rendering="crispEdges"/><rect fill="#242f38" x="61" y="953.1" width="61" height="24.65" shape-rendering="crispEdges"/><rect fill="#242f38" x="122" y="953.1" width="951.6" height="24.65" shape-rendering="crispEdges"/><rect fill="#242f38" x="1073.6" y="953.1" width="12.2" height="24.65" shape-rendering="crispEdges"/><rect fill="#242f38" x="1085.8" y="953.1" width="24.4" height="24.65" shape-rendering="crispEdges"/><rect fill="#242f38" x="1110.2" y="953.1" width="97.6" height="24.65" shape-rendering="crispEdges"/><rect fill="#242f38" x="1207.8" y="953.1" width="12.2" height="24.65" shape-rendering="crispEdges"/>
    <g class="terminal-1610936377-matrix">
    <text class="terminal-1610936377-r2" x="12.2" y="20" textLength="85.4" clip-path="url(#terminal-1610936377-line-0)">Import&#160;</text><text class="terminal-1610936377-r2" x="97.6" y="20" textLength="134.2" clip-path="url(#terminal-1610936377-line-0)">from&#160;Floppy</text><text class="terminal-1610936377-r4" x="256.2" y="20" textLength="475.8" clip-path="url(#terminal-1610936377-line-0)">Read&#160;&gt;&#160;Tag&#160;&gt;&#160;Export&#160;—&#160;for&#160;working&#160;disks</text><text class="terminal-1610936377-r1" x="1220" y="20" textLength="12.2" clip-path="url(#terminal-1610936377-line-0)">
</text><text class="terminal-1610936377-r5" x="0" y="44.4" textLength="671" clip-path="url(#terminal-1610936377-line-1)">&#160;&#160;Your&#160;floppy&#160;works&#160;fine?&#160;Great&#160;—&#160;follow&#160;these&#160;steps&#160;to</text><text class="terminal-1610936377-r1" x="1220" y="44.4" textLength="12.2" clip-path="url(#terminal-1610936377-line-1)">
</text><text class="terminal-1610936377-r5" x="0" y="68.8" textLength="683.2" clip-path="url(#terminal-1610936377-line-2)">&#160;&#160;get&#160;your&#160;photos&#160;off,&#160;add&#160;camera/date&#160;info,&#160;and&#160;export.</text><text class="terminal-1610936377-r1" x="1220" y="68.8" textLength="12.2" clip-path="url(#terminal-1610936377-line-2)">
</text><text class="terminal-1610936377-r1" x="1220" y="93.2" textLength="12.2" clip-path="url(#terminal-1610936377-line-3)">
</text><text class="terminal-1610936377-r6" x="24.4" y="117.6" textLength="561.2" clip-path="url(#terminal-1610936377-line-4)">If&#160;your&#160;disk&#160;is&#160;damaged&#160;or&#160;photos&#160;are&#160;corrupt,</text><text class="terminal-1610936377-r1" x="1220" y="117.6" textLength="12.2" clip-path="url(#terminal-1610936377-line-4)">
</text><text class="terminal-1610936377-r6" x="0" y="142" textLength="73.2" clip-path="url(#terminal-1610936377-line-5)">&#160;&#160;use&#160;</text><text class="terminal-1610936377-r7" x="73.2" y="142" textLength="207.4" clip-path="url(#terminal-1610936377-line-5)">Repair&#160;&amp;&#160;Recovery</text><text class="terminal-1610936377-r8" x="280.6" y="142" textLength="341.6" clip-path="url(#terminal-1610936377-line-5)">&#160;from&#160;the&#160;main&#160;menu&#160;instead.</text><text class="terminal-1610936377-r1" x="1220" y="142" textLength="12.2" clip-path="url(#terminal-1610936377-line-5)">
</text><text class="terminal-1610936377-r1" x="1220" y="166.4" textLength="12.2" clip-path="url(#terminal-1610936377-line-6)">
</text><text class="terminal-1610936377-r1" x="1220" y="190.8" textLength="12.2" clip-path="url(#terminal-1610936377-line-7)">
</text><text class="terminal-1610936377-r2" x="24.4" y="215.2" textLength="97.6" clip-path="url(#terminal-1610936377-line-8)">Settings</text><text class="terminal-1610936377-r1" x="1220" y="215.2" textLength="12.2" clip-path="url(#terminal-1610936377-line-8)">
</text><text class="terminal-1610936377-r9" x="0" y="239.6" textLength="12.2" clip-path="url(#terminal-1610936377-line-9)">▊</text><text class="terminal-1610936377-r10" x="12.2" y="239.6" textLength="1183.4" clip-path="url(#terminal-1610936377-line-9)">▔▔▔▔▔▔▔▔▔▔▔▔▔▔▔▔▔▔▔▔▔▔▔▔▔▔▔▔▔▔▔▔▔▔▔▔▔▔▔▔▔▔▔▔▔▔▔▔▔▔▔▔▔▔▔▔▔▔▔▔▔▔▔▔▔▔▔▔▔▔▔▔▔▔▔▔▔▔▔▔▔▔▔▔▔▔▔▔▔▔▔▔▔▔▔▔▔</text><text class="terminal-1610936377-r10" x="1195.6" y="239.6" textLength="12.2" clip-path="url(#terminal-1610936377-line-9)">▎</text><text class="terminal-1610936377-r1" x="1220" y="239.6" textLength="12.2" clip-path="url(#terminal-1610936377-line-9)">
</text><text class="terminal-1610936377-r9" x="0" y="264" textLength="12.2" clip-path="url(#terminal-1610936377-line-10)">▊</text><text class="terminal-1610936377-r5" x="36.6" y="264" textLength="73.2" clip-path="url(#terminal-1610936377-line-10)">import</text><text class="terminal-1610936377-r10" x="1195.6" y="264" textLength="12.2" clip-path="url(#terminal-1610936377-line-10)">▎</text><text class="terminal-1610936377-r1" x="1220" y="264" textLength="12.2" clip-path="url(#terminal-1610936377-line-10)">
</text><text class="terminal-1610936377-r9" x="0" y="288.4" textLength="12.2" clip-path="url(#terminal-1610936377-line-11)">▊</text><text class="terminal-1610936377-r10" x="12.2" y="288.4" textLength="1183.4" clip-path="url(#terminal-1610936377-line-11)">▁▁▁▁▁▁▁▁▁▁▁▁▁▁▁▁▁▁▁▁▁▁▁▁▁▁▁▁▁▁▁▁▁▁▁▁▁▁▁▁▁▁▁▁▁▁▁▁▁▁▁▁▁▁▁▁▁▁▁▁▁▁▁▁▁▁▁▁▁▁▁▁▁▁▁▁▁▁▁▁▁▁▁▁▁▁▁▁▁▁▁▁▁▁▁▁▁</text><text class="terminal-1610936377-r10" x="1195.6" y="288.4" textLength="12.2" clip-path="url(#terminal-1610936377-line-11)">▎</text><text class="terminal-1610936377-r1" x="1220" y="288.4" textLength="12.2" clip-path="url(#terminal-1610936377-line-11)">
</text><text class="terminal-1610936377-r1" x="1220" y="312.8" textLength="12.2" clip-path="url(#terminal-1610936377-line-12)">
</text><text class="terminal-1610936377-r1" x="1220" y="337.2" textLength="12.2" clip-path="url(#terminal-1610936377-line-13)">
</text><text class="terminal-1610936377-r3" x="24.4" y="361.6" textLength="268.4" clip-path="url(#terminal-1610936377-line-14)">Step&#160;1:&#160;Get&#160;the&#160;photos</text><text class="terminal-1610936377-r1" x="1220" y="361.6" textLength="12.2" clip-path="url(#terminal-1610936377-line-14)">
</text><text class="terminal-1610936377-r6" x="24.4" y="386" textLength="610" clip-path="url(#terminal-1610936377-line-15)">Extract&#160;files&#160;from&#160;the&#160;floppy&#160;with&#160;original&#160;names.</text><text class="terminal-1610936377-r1" x="1220" y="386" textLength="12.2" clip-path="url(#terminal-1610936377-line-15)">
</text><text class="terminal-1610936377-r12" x="12.2" y="410.4" textLength="256.2" clip-path="url(#terminal-1610936377-line-16)">▔▔▔▔▔▔▔▔▔▔▔▔▔▔▔▔▔▔▔▔▔</text><text class="terminal-1610936377-r12" x="280.6" y="410.4" textLength="231.8" clip-path="url(#terminal-1610936377-line-16)">▔▔▔▔▔▔▔▔▔▔▔▔▔▔▔▔▔▔▔</text><text class="terminal-1610936377-r1" x="1220" y="410.4" textLength="12.2" clip-path="url(#terminal-1610936377-line-16)">
</text><text class="terminal-1610936377-r13" x="12.2" y="434.8" textLength="256.2" clip-path="url(#terminal-1610936377-line-17)">&#160;Browse&#160;Floppy&#160;Files&#160;</text><text class="terminal-1610936377-r13" x="280.6" y="434.8" textLength="231.8" clip-path="url(#terminal-1610936377-line-17)">&#160;Quick&#160;Extract&#160;All&#160;</text><text class="terminal-1610936377-r1" x="1220" y="434.8" textLength="12.2" clip-path="url(#terminal-1610936377-line-17)">
</text><text class="terminal-1610936377-r14" x="12.2" y="459.2" textLength="256.2" clip-path="url(#terminal-1610936377-line-18)">▁▁▁▁▁▁▁▁▁▁▁▁▁▁▁▁▁▁▁▁▁</text><text class="terminal-1610936377-r14" x="280.6" y="459.2" textLength="231.8" clip-path="url(#terminal-1610936377-line-18)">▁▁▁▁▁▁▁▁▁▁▁▁▁▁▁▁▁▁▁</text><text class="terminal-1610936377-r1" x="1220" y="459.2" textLength="12.2" clip-path="url(#terminal-1610936377-line-18)">
</text><text class="terminal-1610936377-r1" x="1220" y="483.6" textLength="12.2" clip-path="url(#terminal-1610936377-line-19)">
</text><text class="terminal-1610936377-r1" x="1220" y="508" textLength="12.2" clip-path="url(#terminal-1610936377-line-20)">
</text><text class="terminal-1610936377-r3" x="24.4" y="532.4" textLength="268.4" clip-path="url(#terminal-1610936377-line-21)">Step&#160;2:&#160;Add&#160;photo&#160;info</text><text class="terminal-1610936377-r1" x="1220" y="532.4" textLength="12.2" clip-path="url(#terminal-1610936377-line-21)">
</text><text class="terminal-1610936377-r6" x="24.4" y="556.8" textLength="719.8" clip-path="url(#terminal-1610936377-line-22)">Add&#160;camera&#160;model,&#160;date,&#160;focal&#160;length,&#160;and&#160;aperture&#160;to&#160;EXIF.</text><text class="terminal-1610936377-r1" x="1220" y="556.8" textLength="12.2" clip-path="url(#terminal-1610936377-line-22)">
</text><text class="terminal-1610936377-r6" x="0" y="581.2" textLength="805.2" clip-path="url(#terminal-1610936377-line-23)">&#160;&#160;This&#160;makes&#160;your&#160;photos&#160;sortable&#160;and&#160;searchable&#160;in&#160;any&#160;photo&#160;app.</text><text class="terminal-1610936377-r1" x="1220" y="581.2" textLength="12.2" clip-path="url(#terminal-1610936377-line-23)">
</text><text class="terminal-1610936377-r15" x="12.2" y="605.6" textLength="219.6" clip-path="url(#terminal-1610936377-line-24)">▔▔▔▔▔▔▔▔▔▔▔▔▔▔▔▔▔▔</text><text class="terminal-1610936377-r16" x="244" y="605.6" textLength="183" clip-path="url(#terminal-1610936377-line-24)">▔▔▔▔▔▔▔▔▔▔▔▔▔▔▔</text><text class="terminal-1610936377-r1" x="1220" y="605.6" textLength="12.2" clip-path="url(#terminal-1610936377-line-24)">
</text><text class="terminal-1610936377-r17" x="12.2" y="630" textLength="219.6" clip-path="url(#terminal-1610936377-line-25)">&#160;Stamp&#160;All&#160;Photos&#160;</text><text class="terminal-1610936377-r18" x="244" y="630" textLength="183" clip-path="url(#terminal-1610936377-line-25)">&#160;Add&#160;GPS&#160;Track&#160;</text><text class="terminal-1610936377-r1" x="1220" y="630" textLength="12.2" clip-path="url(#terminal-1610936377-line-25)">
</text><text class="terminal-1610936377-r19" x="12.2" y="654.4" textLength="219.6" clip-path="url(#terminal-1610936377-line-26)">▁▁▁▁▁▁▁▁▁▁▁▁▁▁▁▁▁▁</text><text class="terminal-1610936377-r9" x="244" y="654.4" textLength="183" clip-path="url(#terminal-1610936377-line-26)">▁▁▁▁▁▁▁▁▁▁▁▁▁▁▁</text><text class="terminal-1610936377-r1" x="1220" y="654.4" textLength="12.2" clip-path="url(#terminal-1610936377-line-26)">
</text><text class="terminal-1610936377-r1" x="1220" y="678.8" textLength="12.2" clip-path="url(#terminal-1610936377-line-27)">
</text><text class="terminal-1610936377-r1" x="1220" y="703.2" textLength="12.2" clip-path="url(#terminal-1610936377-line-28)">
</text><text class="terminal-1610936377-r3" x="24.4" y="727.6" textLength="170.8" clip-path="url(#terminal-1610936377-line-29)">Step&#160;3:&#160;Export</text><text class="terminal-1610936377-r1" x="1220" y="727.6" textLength="12.2" clip-path="url(#terminal-1610936377-line-29)">
</text><text class="terminal-1610936377-r6" x="24.4" y="752" textLength="597.8" clip-path="url(#terminal-1610936377-line-30)">Organize,&#160;create&#160;a&#160;contact&#160;sheet,&#160;add&#160;watermarks.</text><text class="terminal-1610936377-r1" x="1220" y="752" textLength="12.2" clip-path="url(#terminal-1610936377-line-30)">
</text><text class="terminal-1610936377-r15" x="12.2" y="776.4" textLength="195.2" clip-path="url(#terminal-1610936377-line-31)">▔▔▔▔▔▔▔▔▔▔▔▔▔▔▔▔</text><text class="terminal-1610936377-r16" x="219.6" y="776.4" textLength="207.4" clip-path="url(#terminal-1610936377-line-31)">▔▔▔▔▔▔▔▔▔▔▔▔▔▔▔▔▔</text><text class="terminal-1610936377-r1" x="1220" y="776.4" textLength="12.2" clip-path="url(#terminal-1610936377-line-31)">
</text><text class="terminal-1610936377-r17" x="12.2" y="800.8" textLength="195.2" clip-path="url(#terminal-1610936377-line-32)">&#160;Export&#160;&amp;&#160;Share&#160;</text><text class="terminal-1610936377-r18" x="219.6" y="800.8" textLength="207.4" clip-path="url(#terminal-1610936377-line-32)">&#160;Generate&#160;Report&#160;</text><text class="terminal-1610936377-r1" x="1220" y="800.8" textLength="12.2" clip-path="url(#terminal-1610936377-line-32)">
</text><text class="terminal-1610936377-r19" x="12.2" y="825.2" textLength="195.2" clip-path="url(#terminal-1610936377-line-33)">▁▁▁▁▁▁▁▁▁▁▁▁▁▁▁▁</text><text class="terminal-1610936377-r9" x="219.6" y="825.2" textLength="207.4" clip-path="url(#terminal-1610936377-line-33)">▁▁▁▁▁▁▁▁▁▁▁▁▁▁▁▁▁</text><text class="terminal-1610936377-r1" x="1220" y="825.2" textLength="12.2" clip-path="url(#terminal-1610936377-line-33)">
</text><text class="terminal-1610936377-r1" x="1220" y="849.6" textLength="12.2" clip-path="url(#terminal-1610936377-line-34)">
</text><text class="terminal-1610936377-r9" x="0" y="874" textLength="12.2" clip-path="url(#terminal-1610936377-line-35)">▊</text><text class="terminal-1610936377-r20" x="12.2" y="874" textLength="1195.6" clip-path="url(#terminal-1610936377-line-35)">▔▔▔▔▔▔▔▔▔▔▔▔▔▔▔▔▔▔▔▔▔▔▔▔▔▔▔▔▔▔▔▔▔▔▔▔▔▔▔▔▔▔▔▔▔▔▔▔▔▔▔▔▔▔▔▔▔▔▔▔▔▔▔▔▔▔▔▔▔▔▔▔▔▔▔▔▔▔▔▔▔▔▔▔▔▔▔▔▔▔▔▔▔▔▔▔▔▔</text><text class="terminal-1610936377-r20" x="1207.8" y="874" textLength="12.2" clip-path="url(#terminal-1610936377-line-35)">▎</text><text class="terminal-1610936377-r1" x="1220" y="874" textLength="12.2" clip-path="url(#terminal-1610936377-line-35)">
</text><text class="terminal-1610936377-r9" x="0" y="898.4" textLength="12.2" clip-path="url(#terminal-1610936377-line-36)">▊</text><text class="terminal-1610936377-r20" x="12.2" y="898.4" textLength="1195.6" clip-path="url(#terminal-1610936377-line-36)">▁▁▁▁▁▁▁▁▁▁▁▁▁▁▁▁▁▁▁▁▁▁▁▁▁▁▁▁▁▁▁▁▁▁▁▁▁▁▁▁▁▁▁▁▁▁▁▁▁▁▁▁▁▁▁▁▁▁▁▁▁▁▁▁▁▁▁▁▁▁▁▁▁▁▁▁▁▁▁▁▁▁▁▁▁▁▁▁▁▁▁▁▁▁▁▁▁▁</text><text class="terminal-1610936377-r20" x="1207.8" y="898.4" textLength="12.2" clip-path="url(#terminal-1610936377-line-36)">▎</text><text class="terminal-1610936377-r1" x="1220" y="898.4" textLength="12.2" clip-path="url(#terminal-1610936377-line-36)">
</text><text class="terminal-1610936377-r1" x="1220" y="922.8" textLength="12.2" clip-path="url(#terminal-1610936377-line-37)">
</text><text class="terminal-1610936377-r1" x="1220" y="947.2" textLength="12.2" clip-path="url(#terminal-1610936377-line-38)">
</text><text class="terminal-1610936377-r21" x="0" y="971.6" textLength="61" clip-path="url(#terminal-1610936377-line-39)">&#160;esc&#160;</text><text class="terminal-1610936377-r5" x="61" y="971.6" textLength="61" clip-path="url(#terminal-1610936377-line-39)">Back&#160;</text><text class="terminal-1610936377-r22" x="1073.6" y="971.6" textLength="12.2" clip-path="url(#terminal-1610936377-line-39)">▏</text><text class="terminal-1610936377-r21" x="1085.8" y="971.6" textLength="24.4" clip-path="url(#terminal-1610936377-line-39)">^p</text><text class="terminal-1610936377-r5" x="1110.2" y="971.6" textLength="97.6" clip-path="url(#terminal-1610936377-line-39)">&#160;palette</text>
    </g>
    </g>
</svg>
