<svg class="rich-terminal" viewBox="0 0 1238 830.8" xmlns="http://www.w3.org/2000/svg">
    <!-- Generated with Rich https://www.textualize.io -->
    <style>

    @font-face {
        font-family: "Fira Code";
        src: local("FiraCode-Regular"),
                url("https://cdnjs.cloudflare.com/ajax/libs/firacode/6.2.0/woff2/FiraCode-Regular.woff2") format("woff2"),
                url("https://cdnjs.cloudflare.com/ajax/libs/firacode/6.2.0/woff/FiraCode-Regular.woff") format("woff");
        font-style: normal;
        font-weight: 400;
    }
    @font-face {
        font-family: "Fira Code";
        src: local("FiraCode-Bold"),
                url("https://cdnjs.cloudflare.com/ajax/libs/firacode/6.2.0/woff2/FiraCode-Bold.woff2") format("woff2"),
                url("https://cdnjs.cloudflare.com/ajax/libs/firacode/6.2.0/woff/FiraCode-Bold.woff") format("woff");
        font-style: bold;
        font-weight: 700;
    }

    .terminal-481439273-matrix {
        font-family: Fira Code, monospace;
        font-size: 20px;
        line-height: 24.4px;
        font-variant-east-asian: full-width;
    }

    .terminal-481439273-title {
        font-size: 18px;
        font-weight: bold;
        font-family: arial;
    }

    .terminal-481439273-r1 { fill: #c5c8c6 }
.terminal-481439273-r2 { fill: #ffaa00;font-weight: bold }
.terminal-481439273-r3 { fill: #0a0a0a }
.terminal-481439273-r4 { fill: #33ff33 }
.terminal-481439273-r5 { fill: #e0e0e0 }
.terminal-481439273-r6 { fill: #121212 }
.terminal-481439273-r7 { fill: #7ae998 }
.terminal-481439273-r8 { fill: #ffcf56 }
.terminal-481439273-r9 { fill: #1a1a1a }
.terminal-481439273-r10 { fill: #0a180e;font-weight: bold }
.terminal-481439273-r11 { fill: #211505;font-weight: bold }
.terminal-481439273-r12 { fill: #676767;font-weight: bold }
.terminal-481439273-r13 { fill: #008139 }
.terminal-481439273-r14 { fill: #b86b00 }
.terminal-481439273-r15 { fill: #0b0b0b }
.terminal-481439273-r16 { fill: #979797 }
.terminal-481439273-r17 { fill: #333333 }
.terminal-481439273-r18 { fill: #ffa62b;font-weight: bold }
.terminal-481439273-r19 { fill: #495259 }
    </style>

    <defs>
    <clipPath id="terminal-481439273-clip-terminal">
      <rect x="0" y="0" width="1219.0" height="779.8" />
    </clipPath>
    <clipPath id="terminal-481439273-line-0">
    <rect x="0" y="1.5" width="1220" height="24.65"/>
            </clipPath>
<clipPath id="terminal-481439273-line-1">
    <rect x="0" y="25.9" width="1220" height="24.65"/>
            </clipPath>
<clipPath id="terminal-481439273-line-2">
    <rect x="0" y="50.3" width="1220" height="24.65"/>
            </clipPath>
<clipPath id="terminal-481439273-line-3">
    <rect x="0" y="74.7" width="1220" height="24.65"/>
            </clipPath>
<clipPath id="terminal-481439273-line-4">
    <rect x="0" y="99.1" width="1220" height="24.65"/>
            </clipPath>
<clipPath id="terminal-481439273-line-5">
    <rect x="0" y="123.5" width="1220" height="24.65"/>
            </clipPath>
<clipPath id="terminal-481439273-line-6">
    <rect x="0" y="147.9" width="1220" height="24.65"/>
            </clipPath>
<clipPath id="terminal-481439273-line-7">
    <rect x="0" y="172.3" width="1220" height="24.65"/>
            </clipPath>
<clipPath id="terminal-481439273-line-8">
    <rect x="0" y="196.7" width="1220" height="24.65"/>
            </clipPath>
<clipPath id="terminal-481439273-line-9">
    <rect x="0" y="221.1" width="1220" height="24.65"/>
            </clipPath>
<clipPath id="terminal-481439273-line-10">
    <rect x="0" y="245.5" width="1220" height="24.65"/>
            </clipPath>
<clipPath id="terminal-481439273-line-11">
    <rect x="0" y="269.9" width="1220" height="24.65"/>
            </clipPath>
<clipPath id="terminal-481439273-line-12">
    <rect x="0" y="294.3" width="1220" height="24.65"/>
            </clipPath>
<clipPath id="terminal-481439273-line-13">
    <rect x="0" y="318.7" width="1220" height="24.65"/>
            </clipPath>
<clipPath id="terminal-481439273-line-14">
    <rect x="0" y="343.1" width="1220" height="24.65"/>
            </clipPath>
<clipPath id="terminal-481439273-line-15">
    <rect x="0" y="367.5" width="1220" height="24.65"/>
            </clipPath>
<clipPath id="terminal-481439273-line-16">
    <rect x="0" y="391.9" width="1220" height="24.65"/>
            </clipPath>
<clipPath id="terminal-481439273-line-17">
    <rect x="0" y="416.3" width="1220" height="24.65"/>
            </clipPath>
<clipPath id="terminal-481439273-line-18">
    <rect x="0" y="440.7" width="1220" height="24.65"/>
            </clipPath>
<clipPath id="terminal-481439273-line-19">
    <rect x="0" y="465.1" width="1220" height="24.65"/>
            </clipPath>
<clipPath id="terminal-481439273-line-20">
    <rect x="0" y="489.5" width="1220" height="24.65"/>
            </clipPath>
<clipPath id="terminal-481439273-line-21">
    <rect x="0" y="513.9" width="1220" height="24.65"/>
            </clipPath>
<clipPath id="terminal-481439273-line-22">
    <rect x="0" y="538.3" width="1220" height="24.65"/>
            </clipPath>
<clipPath id="terminal-481439273-line-23">
    <rect x="0" y="562.7" width="1220" height="24.65"/>
            </clipPath>
<clipPath id="terminal-481439273-line-24">
    <rect x="0" y="587.1" width="1220" height="24.65"/>
            </clipPath>
<clipPath id="terminal-481439273-line-25">
    <rect x="0" y="611.5" width="1220" height="24.65"/>
            </clipPath>
<clipPath id="terminal-481439273-line-26">
    <rect x="0" y="635.9" width="1220" height="24.65"/>
            </clipPath>
<clipPath id="terminal-481439273-line-27">
    <rect x="0" y="660.3" width="1220" height="24.65"/>
            </clipPath>
<clipPath id="terminal-481439273-line-28">
    <rect x="0" y="684.7" width="1220" height="24.65"/>
            </clipPath>
<clipPath id="terminal-481439273-line-29">
    <rect x="0" y="709.1" width="1220" height="24.65"/>
            </clipPath>
<clipPath id="terminal-481439273-line-30">
    <rect x="0" y="733.5" width="1220" height="24.65"/>
            </clipPath>
    </defs>

    <rect fill="#292929" stroke="rgba(255,255,255,0.35)" stroke-width="1" x="1" y="1" width="1236" height="828.8" rx="8"/><text class="terminal-481439273-title" fill="#c5c8c6" text-anchor="middle" x="618" y="27">mavica-tools</text>
            <g transform="translate(26,22)">
            <circle cx="0" cy="0" r="7" fill="#ff5f57"/>
            <circle cx="22" cy="0" r="7" fill="#febc2e"/>
            <circle cx="44" cy="0" r="7" fill="#28c840"/>
            </g>
        
    <g transform="translate(9, 41)" clip-path="url(#terminal-481439273-clip-terminal)">
    <rect fill="#1a1a1a" x="0" y="1.5" width="12.2" height="24.65" shape-rendering="crispEdges"/><rect fill="#1a1a1a" x="12.2" y="1.5" width="85.4" height="24.65" shape-rendering="crispEdges"/><rect fill="#1a1a1a" x="97.6" y="1.5" width="207.4" height="24.65" shape-rendering="crispEdges"/><rect fill="#1a1a1a" x="305" y="1.5" width="793" height="24.65" shape-rendering="crispEdges"/><rect fill="#1a1a1a" x="1098" y="1.5" width="109.8" height="24.65" shape-rendering="crispEdges"/><rect fill="#1a1a1a" x="1207.8" y="1.5" width="12.2" height="24.65" shape-rendering="crispEdges"/><rect fill="#33ff33" x="0" y="25.9" width="12.2" height="24.65" shape-rendering="crispEdges"/><rect fill="#272727" x="12.2" y="25.9" width="1183.4" height="24.65" shape-rendering="crispEdges"/><rect fill="#0a0a0a" x="1195.6" y="25.9" width="12.2" height="24.65" shape-rendering="crispEdges"/><rect fill="#0a0a0a" x="1207.8" y="25.9" width="12.2" height="24.65" shape-rendering="crispEdges"/><rect fill="#33ff33" x="0" y="50.3" width="12.2" height="24.65" shape-rendering="crispEdges"/><rect fill="#272727" x="12.2" y="50.3" width="24.4" height="24.65" shape-rendering="crispEdges"/><rect fill="#2d4e74" x="36.6" y="50.3" width="97.6" height="24.65" shape-rendering="crispEdges"/><rect fill="#e0e0e0" x="134.2" y="50.3" width="12.2" height="24.65" shape-rendering="crispEdges"/><rect fill="#272727" x="146.4" y="50.3" width="1024.8" height="24.65" shape-rendering="crispEdges"/><rect fill="#272727" x="1171.2" y="50.3" width="24.4" height="24.65" shape-rendering="crispEdges"/><rect fill="#0a0a0a" x="1195.6" y="50.3" width="12.2" height="24.65" shape-rendering="crispEdges"/><rect fill="#0a0a0a" x="1207.8" y="50.3" width="12.2" height="24.65" shape-rendering="crispEdges"/><rect fill="#33ff33" x="0" y="74.7" width="12.2" height="24.65" shape-rendering="crispEdges"/><rect fill="#272727" x="12.2" y="74.7" width="1183.4" height="24.65" shape-rendering="crispEdges"/><rect fill="#0a0a0a" x="1195.6" y="74.7" width="12.2" height="24.65" shape-rendering="crispEdges"/><rect fill="#0a0a0a" x="1207.8" y="74.7" width="12.2" height="24.65" shape-rendering="crispEdges"/><rect fill="#0a0a0a" x="0" y="99.1" width="1220" height="24.65" shape-rendering="crispEdges"/><rect fill="#0a0a0a" x="0" y="123.5" width="1220" height="24.65" shape-rendering="crispEdges"/><rect fill="#0a0a0a" x="0" y="147.9" width="1220" height="24.65" shape-rendering="crispEdges"/><rect fill="#0a0a0a" x="0" y="172.3" width="1220" height="24.65" shape-rendering="crispEdges"/><rect fill="#0a0a0a" x="0" y="196.7" width="1220" height="24.65" shape-rendering="crispEdges"/><rect fill="#0a0a0a" x="0" y="221.1" width="1220" height="24.65" shape-rendering="crispEdges"/><rect fill="#0a0a0a" x="0" y="245.5" width="1220" height="24.65" shape-rendering="crispEdges"/><rect fill="#0a0a0a" x="0" y="269.9" width="12.2" height="24.65" shape-rendering="crispEdges"/><rect fill="#4ebf71" x="12.2" y="269.9" width="195.2" height="24.65" shape-rendering="crispEdges"/><rect fill="#0a0a0a" x="207.4" y="269.9" width="12.2" height="24.65" shape-rendering="crispEdges"/><rect fill="#fea62b" x="219.6" y="269.9" width="195.2" height="24.65" shape-rendering="crispEdges"/><rect fill="#0a0a0a" x="414.8" y="269.9" width="12.2" height="24.65" shape-rendering="crispEdges"/><rect fill="#131313" x="427" y="269.9" width="207.4" height="24.65" shape-rendering="crispEdges"/><rect fill="#0a0a0a" x="634.4" y="269.9" width="585.6" height="24.65" shape-rendering="crispEdges"/><rect fill="#0a0a0a" x="0" y="294.3" width="12.2" height="24.65" shape-rendering="crispEdges"/><rect fill="#4ebf71" x="12.2" y="294.3" width="12.2" height="24.65" shape-rendering="crispEdges"/><rect fill="#4ebf71" x="24.4" y="294.3" width="158.6" height="24.65" shape-rendering="crispEdges"/><rect fill="#4ebf71" x="183" y="294.3" width="24.4" height="24.65" shape-rendering="crispEdges"/><rect fill="#0a0a0a" x="207.4" y="294.3" width="12.2" height="24.65" shape-rendering="crispEdges"/><rect fill="#fea62b" x="219.6" y="294.3" width="12.2" height="24.65" shape-rendering="crispEdges"/><rect fill="#fea62b" x="231.8" y="294.3" width="170.8" height="24.65" shape-rendering="crispEdges"/><rect fill="#fea62b" x="402.6" y="294.3" width="12.2" height="24.65" shape-rendering="crispEdges"/><rect fill="#0a0a0a" x="414.8" y="294.3" width="12.2" height="24.65" shape-rendering="crispEdges"/><rect fill="#131313" x="427" y="294.3" width="207.4" height="24.65" shape-rendering="crispEdges"/><rect fill="#0a0a0a" x="634.4" y="294.3" width="585.6" height="24.65" shape-rendering="crispEdges"/><rect fill="#0a0a0a" x="0" y="318.7" width="12.2" height="24.65" shape-rendering="crispEdges"/><rect fill="#4ebf71" x="12.2" y="318.7" width="195.2" height="24.65" shape-rendering="crispEdges"/><rect fill="#0a0a0a" x="207.4" y="318.7" width="12.2" height="24.65" shape-rendering="crispEdges"/><rect fill="#fea62b" x="219.6" y="318.7" width="195.2" height="24.65" shape-rendering="crispEdges"/><rect fill="#0a0a0a" x="414.8" y="318.7" width="12.2" height="24.65" shape-rendering="crispEdges"/><rect fill="#131313" x="427" y="318.7" width="207.4" height="24.65" shape-rendering="crispEdges"/><rect fill="#0a0a0a" x="634.4" y="318.7" width="585.6" height="24.65" shape-rendering="crispEdges"/><rect fill="#0a0a0a" x="0" y="343.1" width="1220" height="24.65" shape-rendering="crispEdges"/><rect fill="#0a0a0a" x="0" y="367.5" width="1220" height="24.65" shape-rendering="crispEdges"/><rect fill="#0a0a0a" x="0" y="391.9" width="1220" height="24.65" shape-rendering="crispEdges"/><rect fill="#0a0a0a" x="0" y="416.3" width="1220" height="24.65" shape-rendering="crispEdges"/><rect fill="#0a0a0a" x="0" y="440.7" width="1220" height="24.65" shape-rendering="crispEdges"/><rect fill="#0a0a0a" x="0" y="465.1" width="1220" height="24.65" shape-rendering="crispEdges"/><rect fill="#0a0a0a" x="0" y="489.5" width="1220" height="24.65" shape-rendering="crispEdges"/><rect fill="#0a0a0a" x="0" y="513.9" width="1220" height="24.65" shape-rendering="crispEdges"/><rect fill="#0a0a0a" x="0" y="538.3" width="0" height="24.65" shape-rendering="crispEdges"/><rect fill="#0a0a0a" x="0" y="538.3" width="1220" height="24.65" shape-rendering="crispEdges"/><rect fill="#0a0a0a" x="0" y="562.7" width="1220" height="24.65" shape-rendering="crispEdges"/><rect fill="#0a0a0a" x="0" y="587.1" width="12.2" height="24.65" shape-rendering="crispEdges"/><rect fill="#0a0a0a" x="12.2" y="587.1" width="170.8" height="24.65" shape-rendering="crispEdges"/><rect fill="#0a0a0a" x="183" y="587.1" width="1024.8" height="24.65" shape-rendering="crispEdges"/><rect fill="#0a0a0a" x="1207.8" y="587.1" width="12.2" height="24.65" shape-rendering="crispEdges"/><rect fill="#0a0a0a" x="0" y="611.5" width="1220" height="24.65" shape-rendering="crispEdges"/><rect fill="#0a0a0a" x="0" y="635.9" width="0" height="24.65" shape-rendering="crispEdges"/><rect fill="#0a0a0a" x="0" y="635.9" width="1220" height="24.65" shape-rendering="crispEdges"/><rect fill="#0a0a0a" x="0" y="660.3" width="1220" height="24.65" shape-rendering="crispEdges"/><rect fill="#333333" x="0" y="684.7" width="12.2" height="24.65" shape-rendering="crispEdges"/><rect fill="#0a0a0a" x="12.2" y="684.7" width="1195.6" height="24.65" shape-rendering="crispEdges"/><rect fill="#0a0a0a" x="1207.8" y="684.7" width="12.2" height="24.65" shape-rendering="crispEdges"/><rect fill="#333333" x="0" y="709.1" width="12.2" height="24.65" shape-rendering="crispEdges"/><rect fill="#0a0a0a" x="12.2" y="709.1" width="1195.6" height="24.65" shape-rendering="crispEdges"/><rect fill="#0a0a0a" x="1207.8" y="709.1" width="12.2" height="24.65" shape-rendering="crispEdges"/><rect fill="#0a0a0a" x="0" y="733.5" width="1220" height="24.65" shape-rendering="crispEdges"/><rect fill="#242f38" x="0" y="757.9" width="61" height="24.65" shape-rendering="crispEdges"/><rect fill="#242f38" x="61" y="757.9" width="61" height="24.65" shape-rendering="crispEdges"/><rect fill="#242f38" x="122" y="757.9" width="951.6" height="24.65" shape-rendering="crispEdges"/><rect fill="#242f38" x="1073.6" y="757.9" width="12.2" height="24.65" shape-rendering="crispEdges"/><rect fill="#242f38" x="1085.8" y="757.9" width="24.4" height="24.65" shape-rendering="crispEdges"/><rect fill="#242f38" x="1110.2" y="757.9" width="97.6" height="24.65" shape-rendering="crispEdges"/><rect fill="#242f38" x="1207.8" y="757.9" width="12.2" height="24.65" shape-rendering="crispEdges"/>
    <g class="terminal-481439273-matrix">
    <text class="terminal-481439273-r2" x="12.2" y="20" textLength="85.4" clip-path="url(#terminal-481439273-line-0)">Multi-P</text><text class="terminal-481439273-r2" x="97.6" y="20" textLength="207.4" clip-path="url(#terminal-481439273-line-0)">ass&#160;Floppy&#160;Imager</text><text class="terminal-481439273-r1" x="1220" y="20" textLength="12.2" clip-path="url(#terminal-481439273-line-0)">
</text><text class="terminal-481439273-r3" x="0" y="44.4" textLength="12.2" clip-path="url(#terminal-481439273-line-1)">▊</text><text class="terminal-481439273-r4" x="12.2" y="44.4" textLength="1183.4" clip-path="url(#terminal-481439273-line-1)">▔▔▔▔▔▔▔▔▔▔▔▔▔▔▔▔▔▔▔▔▔▔▔▔▔▔▔▔▔▔▔▔▔▔▔▔▔▔▔▔▔▔▔▔▔▔▔▔▔▔▔▔▔▔▔▔▔▔▔▔▔▔▔▔▔▔▔▔▔▔▔▔▔▔▔▔▔▔▔▔▔▔▔▔▔▔▔▔▔▔▔▔▔▔▔▔▔</text><text class="terminal-481439273-r4" x="1195.6" y="44.4" textLength="12.2" clip-path="url(#terminal-481439273-line-1)">▎</text><text class="terminal-481439273-r1" x="1220" y="44.4" textLength="12.2" clip-path="url(#terminal-481439273-line-1)">
</text><text class="terminal-481439273-r3" x="0" y="68.8" textLength="12.2" clip-path="url(#terminal-481439273-line-2)">▊</text><text class="terminal-481439273-r5" x="36.6" y="68.8" textLength="97.6" clip-path="url(#terminal-481439273-line-2)">/dev/fd0</text><text class="terminal-481439273-r4" x="1195.6" y="68.8" textLength="12.2" clip-path="url(#terminal-481439273-line-2)">▎</text><text class="terminal-481439273-r1" x="1220" y="68.8" textLength="12.2" clip-path="url(#terminal-481439273-line-2)">
</text><text class="terminal-481439273-r3" x="0" y="93.2" textLength="12.2" clip-path="url(#terminal-481439273-line-3)">▊</text><text class="terminal-481439273-r4" x="12.2" y="93.2" textLength="1183.4" clip-path="url(#terminal-481439273-line-3)">▁▁▁▁▁▁▁▁▁▁▁▁▁▁▁▁▁▁▁▁▁▁▁▁▁▁▁▁▁▁▁▁▁▁▁▁▁▁▁▁▁▁▁▁▁▁▁▁▁▁▁▁▁▁▁▁▁▁▁▁▁▁▁▁▁▁▁▁▁▁▁▁▁▁▁▁▁▁▁▁▁▁▁▁▁▁▁▁▁▁▁▁▁▁▁▁▁</text><text class="terminal-481439273-r4" x="1195.6" y="93.2" textLength="12.2" clip-path="url(#terminal-481439273-line-3)">▎</text><text class="terminal-481439273-r1" x="1220" y="93.2" textLength="12.2" clip-path="url(#terminal-481439273-line-3)">
</text><text class="terminal-481439273-r1" x="1220" y="117.6" textLength="12.2" clip-path="url(#terminal-481439273-line-4)">
</text><text class="terminal-481439273-r1" x="1220" y="142" textLength="12.2" clip-path="url(#terminal-481439273-line-5)">
</text><text class="terminal-481439273-r1" x="1220" y="166.4" textLength="12.2" clip-path="url(#terminal-481439273-line-6)">
</text><text class="terminal-481439273-r1" x="1220" y="190.8" textLength="12.2" clip-path="url(#terminal-481439273-line-7)">
</text><text class="terminal-481439273-r1" x="1220" y="215.2" textLength="12.2" clip-path="url(#terminal-481439273-line-8)">
</text><text class="terminal-481439273-r1" x="1220" y="239.6" textLength="12.2" clip-path="url(#terminal-481439273-line-9)">
</text><text class="terminal-481439273-r1" x="1220" y="264" textLength="12.2" clip-path="url(#terminal-481439273-line-10)">
</text><text class="terminal-481439273-r7" x="12.2" y="288.4" textLength="195.2" clip-path="url(#terminal-481439273-line-11)">▔▔▔▔▔▔▔▔▔▔▔▔▔▔▔▔</text><text class="terminal-481439273-r8" x="219.6" y="288.4" textLength="195.2" clip-path="url(#terminal-481439273-line-11)">▔▔▔▔▔▔▔▔▔▔▔▔▔▔▔▔</text><text class="terminal-481439273-r9" x="427" y="288.4" textLength="207.4" clip-path="url(#terminal-481439273-line-11)">▔▔▔▔▔▔▔▔▔▔▔▔▔▔▔▔▔</text><text class="terminal-481439273-r1" x="1220" y="288.4" textLength="12.2" clip-path="url(#terminal-481439273-line-11)">
</text><text class="terminal-481439273-r10" x="24.4" y="312.8" textLength="158.6" clip-path="url(#terminal-481439273-line-12)">&#160;Read&#160;Device&#160;</text><text class="terminal-481439273-r11" x="231.8" y="312.8" textLength="170.8" clip-path="url(#terminal-481439273-line-12)">&#160;Merge&#160;Images&#160;</text><text class="terminal-481439273-r12" x="427" y="312.8" textLength="207.4" clip-path="url(#terminal-481439273-line-12)">&#160;Carve&#160;Merged&#160;-&gt;&#160;</text><text class="terminal-481439273-r1" x="1220" y="312.8" textLength="12.2" clip-path="url(#terminal-481439273-line-12)">
</text><text class="terminal-481439273-r13" x="12.2" y="337.2" textLength="195.2" clip-path="url(#terminal-481439273-line-13)">▁▁▁▁▁▁▁▁▁▁▁▁▁▁▁▁</text><text class="terminal-481439273-r14" x="219.6" y="337.2" textLength="195.2" clip-path="url(#terminal-481439273-line-13)">▁▁▁▁▁▁▁▁▁▁▁▁▁▁▁▁</text><text class="terminal-481439273-r15" x="427" y="337.2" textLength="207.4" clip-path="url(#terminal-481439273-line-13)">▁▁▁▁▁▁▁▁▁▁▁▁▁▁▁▁▁</text><text class="terminal-481439273-r1" x="1220" y="337.2" textLength="12.2" clip-path="url(#terminal-481439273-line-13)">
</text><text class="terminal-481439273-r1" x="1220" y="361.6" textLength="12.2" clip-path="url(#terminal-481439273-line-14)">
</text><text class="terminal-481439273-r1" x="1220" y="386" textLength="12.2" clip-path="url(#terminal-481439273-line-15)">
</text><text class="terminal-481439273-r1" x="1220" y="410.4" textLength="12.2" clip-path="url(#terminal-481439273-line-16)">
</text><text class="terminal-481439273-r1" x="1220" y="434.8" textLength="12.2" clip-path="url(#terminal-481439273-line-17)">
</text><text class="terminal-481439273-r1" x="1220" y="459.2" textLength="12.2" clip-path="url(#terminal-481439273-line-18)">
</text><text class="terminal-481439273-r1" x="1220" y="483.6" textLength="12.2" clip-path="url(#terminal-481439273-line-19)">
</text><text class="terminal-481439273-r1" x="1220" y="508" textLength="12.2" clip-path="url(#terminal-481439273-line-20)">
</text><text class="terminal-481439273-r1" x="1220" y="532.4" textLength="12.2" clip-path="url(#terminal-481439273-line-21)">
</text><text class="terminal-481439273-r1" x="1220" y="556.8" textLength="12.2" clip-path="url(#terminal-481439273-line-22)">
</text><text class="terminal-481439273-r1" x="1220" y="581.2" textLength="12.2" clip-path="url(#terminal-481439273-line-23)">
</text><text class="terminal-481439273-r16" x="12.2" y="605.6" textLength="170.8" clip-path="url(#terminal-481439273-line-24)">No&#160;sector&#160;data</text><text class="terminal-481439273-r1" x="1220" y="605.6" textLength="12.2" clip-path="url(#terminal-481439273-line-24)">
</text><text class="terminal-481439273-r1" x="1220" y="630" textLength="12.2" clip-path="url(#terminal-481439273-line-25)">
</text><text class="terminal-481439273-r1" x="1220" y="654.4" textLength="12.2" clip-path="url(#terminal-481439273-line-26)">
</text><text class="terminal-481439273-r1" x="1220" y="678.8" textLength="12.2" clip-path="url(#terminal-481439273-line-27)">
</text><text class="terminal-481439273-r3" x="0" y="703.2" textLength="12.2" clip-path="url(#terminal-481439273-line-28)">▊</text><text class="terminal-481439273-r17" x="12.2" y="703.2" textLength="1195.6" clip-path="url(#terminal-481439273-line-28)">▔▔▔▔▔▔▔▔▔▔▔▔▔▔▔▔▔▔▔▔▔▔▔▔▔▔▔▔▔▔▔▔▔▔▔▔▔▔▔▔▔▔▔▔▔▔▔▔▔▔▔▔▔▔▔▔▔▔▔▔▔▔▔▔▔▔▔▔▔▔▔▔▔▔▔▔▔▔▔▔▔▔▔▔▔▔▔▔▔▔▔▔▔▔▔▔▔▔</text><text class="terminal-481439273-r17" x="1207.8" y="703.2" textLength="12.2" clip-path="url(#terminal-481439273-line-28)">▎</text><text class="terminal-481439273-r1" x="1220" y="703.2" textLength="12.2" clip-path="url(#terminal-481439273-line-28)">
</text><text class="terminal-481439273-r3" x="0" y="727.6" textLength="12.2" clip-path="url(#terminal-481439273-line-29)">▊</text><text class="terminal-481439273-r17" x="12.2" y="727.6" textLength="1195.6" clip-path="url(#terminal-481439273-line-29)">▁▁▁▁▁▁▁▁▁▁▁▁▁▁▁▁▁▁▁▁▁▁▁▁▁▁▁▁▁▁▁▁▁▁▁▁▁▁▁▁▁▁▁▁▁▁▁▁▁▁▁▁▁▁▁▁▁▁▁▁▁▁▁▁▁▁▁▁▁▁▁▁▁▁▁▁▁▁▁▁▁▁▁▁▁▁▁▁▁▁▁▁▁▁▁▁▁▁</text><text class="terminal-481439273-r17" x="1207.8" y="727.6" textLength="12.2" clip-path="url(#terminal-481439273-line-29)">▎</text><text class="terminal-481439273-r1" x="1220" y="727.6" textLength="12.2" clip-path="url(#terminal-481439273-line-29)">
</text><text class="terminal-481439273-r1" x="1220" y="752" textLength="12.2" clip-path="url(#terminal-481439273-line-30)">
</text><text class="terminal-481439273-r18" x="0" y="776.4" textLength="61" clip-path="url(#terminal-481439273-line-31)">&#160;esc&#160;</text><text class="terminal-481439273-r5" x="61" y="776.4" textLength="61" clip-path="url(#terminal-481439273-line-31)">Back&#160;</text><text class="terminal-481439273-r19" x="1073.6" y="776.4" textLength="12.2" clip-path="url(#terminal-481439273-line-31)">▏</text><text class="terminal-481439273-r18" x="1085.8" y="776.4" textLength="24.4" clip-path="url(#terminal-481439273-line-31)">^p</text><text class="terminal-481439273-r5" x="1110.2" y="776.4" textLength="97.6" clip-path="url(#terminal-481439273-line-31)">&#160;palette</text>
    </g>
    </g>
</svg>
