<svg class="rich-terminal" viewBox="0 0 1238 977.1999999999999" xmlns="http://www.w3.org/2000/svg">
    <!-- Generated with Rich https://www.textualize.io -->
    <style>

    @font-face {
        font-family: "Fira Code";
        src: local("FiraCode-Regular"),
                url("https://cdnjs.cloudflare.com/ajax/libs/firacode/6.2.0/woff2/FiraCode-Regular.woff2") format("woff2"),
                url("https://cdnjs.cloudflare.com/ajax/libs/firacode/6.2.0/woff/FiraCode-Regular.woff") format("woff");
        font-style: normal;
        font-weight: 400;
    }
    @font-face {
        font-family: "Fira Code";
        src: local("FiraCode-Bold"),
                url("https://cdnjs.cloudflare.com/ajax/libs/firacode/6.2.0/woff2/FiraCode-Bold.woff2") format("woff2"),
                url("https://cdnjs.cloudflare.com/ajax/libs/firacode/6.2.0/woff/FiraCode-Bold.woff") format("woff");
        font-style: bold;
        font-weight: 700;
    }

    .terminal-502426217-matrix {
        font-family: Fira Code, monospace;
        font-size: 20px;
        line-height: 24.4px;
        font-variant-east-asian: full-width;
    }

    .terminal-502426217-title {
        font-size: 18px;
        font-weight: bold;
        font-family: arial;
    }

    .terminal-502426217-r1 { fill: #c5c8c6 }
.terminal-502426217-r2 { fill: #ffaa00;font-weight: bold }
.terminal-502426217-r3 { fill: #33ff33;font-weight: bold }
.terminal-502426217-r4 { fill: #2ab12a;font-weight: bold }
.terminal-502426217-r5 { fill: #e0e0e0 }
.terminal-502426217-r6 { fill: #0a0a0a }
.terminal-502426217-r7 { fill: #33ff33 }
.terminal-502426217-r8 { fill: #121212 }
.terminal-502426217-r9 { fill: #797979 }
.terminal-502426217-r10 { fill: #333333 }
.terminal-502426217-r11 { fill: #979797;font-weight: bold }
.terminal-502426217-r12 { fill: #979797 }
.terminal-502426217-r13 { fill: #7ae998 }
.terminal-502426217-r14 { fill: #ffcf56 }
.terminal-502426217-r15 { fill: #0a180e;font-weight: bold }
.terminal-502426217-r16 { fill: #211505;font-weight: bold }
.terminal-502426217-r17 { fill: #008139 }
.terminal-502426217-r18 { fill: #b86b00 }
.terminal-502426217-r19 { fill: #1e1e1e }
.terminal-502426217-r20 { fill: #0f0f0f }
.terminal-502426217-r21 { fill: #3e3e3e;font-weight: bold }
.terminal-502426217-r22 { fill: #ffa62b;font-weight: bold }
.terminal-502426217-r23 { fill: #495259 }
    </style>

    <defs>
    <clipPath id="terminal-502426217-clip-terminal">
      <rect x="0" y="0" width="1219.0" height="926.1999999999999" />
    </clipPath>
    <clipPath id="terminal-502426217-line-0">
    <rect x="0" y="1.5" width="1220" height="24.65"/>
            </clipPath>
<clipPath id="terminal-502426217-line-1">
    <rect x="0" y="25.9" width="1220" height="24.65"/>
            </clipPath>
<clipPath id="terminal-502426217-line-2">
    <rect x="0" y="50.3" width="1220" height="24.65"/>
            </clipPath>
<clipPath id="terminal-502426217-line-3">
    <rect x="0" y="74.7" width="1220" height="24.65"/>
            </clipPath>
<clipPath id="terminal-502426217-line-4">
    <rect x="0" y="99.1" width="1220" height="24.65"/>
            </clipPath>
<clipPath id="terminal-502426217-line-5">
    <rect x="0" y="123.5" width="1220" height="24.65"/>
            </clipPath>
<clipPath id="terminal-502426217-line-6">
    <rect x="0" y="147.9" width="1220" height="24.65"/>
            </clipPath>
<clipPath id="terminal-502426217-line-7">
    <rect x="0" y="172.3" width="1220" height="24.65"/>
            </clipPath>
<clipPath id="terminal-502426217-line-8">
    <rect x="0" y="196.7" width="1220" height="24.65"/>
            </clipPath>
<clipPath id="terminal-502426217-line-9">
    <rect x="0" y="221.1" width="1220" height="24.65"/>
            </clipPath>
<clipPath id="terminal-502426217-line-10">
    <rect x="0" y="245.5" width="1220" height="24.65"/>
            </clipPath>
<clipPath id="terminal-502426217-line-11">
    <rect x="0" y="269.9" width="1220" height="24.65"/>
            </clipPath>
<clipPath id="terminal-502426217-line-12">
    <rect x="0" y="294.3" width="1220" height="24.65"/>
            </clipPath>
<clipPath id="terminal-502426217-line-13">
    <rect x="0" y="318.7" width="1220" height="24.65"/>
            </clipPath>
<clipPath id="terminal-502426217-line-14">
    <rect x="0" y="343.1" width="1220" height="24.65"/>
            </clipPath>
<clipPath id="terminal-502426217-line-15">
    <rect x="0" y="367.5" width="1220" height="24.65"/>
            </clipPath>
<clipPath id="terminal-502426217-line-16">
    <rect x="0" y="391.9" width="1220" height="24.65"/>
            </clipPath>
<clipPath id="terminal-502426217-line-17">
    <rect x="0" y="416.3" width="1220" height="24.65"/>
            </clipPath>
<clipPath id="terminal-502426217-line-18">
    <rect x="0" y="440.7" width="1220" height="24.65"/>
            </clipPath>
<clipPath id="terminal-502426217-line-19">
    <rect x="0" y="465.1" width="1220" height="24.65"/>
            </clipPath>
<clipPath id="terminal-502426217-line-20">
    <rect x="0" y="489.5" width="1220" height="24.65"/>
            </clipPath>
<clipPath id="terminal-502426217-line-21">
    <rect x="0" y="513.9" width="1220" height="24.65"/>
            </clipPath>
<clipPath id="terminal-502426217-line-22">
    <rect x="0" y="538.3" width="1220" height="24.65"/>
            </clipPath>
<clipPath id="terminal-502426217-line-23">
    <rect x="0" y="562.7" width="1220" height="24.65"/>
            </clipPath>
<clipPath id="terminal-502426217-line-24">
    <rect x="0" y="587.1" width="1220" height="24.65"/>
            </clipPath>
<clipPath id="terminal-502426217-line-25">
    <rect x="0" y="611.5" width="1220" height="24.65"/>
            </clipPath>
<clipPath id="terminal-502426217-line-26">
    <rect x="0" y="635.9" width="1220" height="24.65"/>
            </clipPath>
<clipPath id="terminal-502426217-line-27">
    <rect x="0" y="660.3" width="1220" height="24.65"/>
            </clipPath>
<clipPath id="terminal-502426217-line-28">
    <rect x="0" y="684.7" width="1220" height="24.65"/>
            </clipPath>
<clipPath id="terminal-502426217-line-29">
    <rect x="0" y="709.1" width="1220" height="24.65"/>
            </clipPath>
<clipPath id="terminal-502426217-line-30">
    <rect x="0" y="733.5" width="1220" height="24.65"/>
            </clipPath>
<clipPath id="terminal-502426217-line-31">
    <rect x="0" y="757.9" width="1220" height="24.65"/>
            </clipPath>
<clipPath id="terminal-502426217-line-32">
    <rect x="0" y="782.3" width="1220" height="24.65"/>
            </clipPath>
<clipPath id="terminal-502426217-line-33">
    <rect x="0" y="806.7" width="1220" height="24.65"/>
            </clipPath>
<clipPath id="terminal-502426217-line-34">
    <rect x="0" y="831.1" width="1220" height="24.65"/>
            </clipPath>
<clipPath id="terminal-502426217-line-35">
    <rect x="0" y="855.5" width="1220" height="24.65"/>
            </clipPath>
<clipPath id="terminal-502426217-line-36">
    <rect x="0" y="879.9" width="1220" height="24.65"/>
            </clipPath>
    </defs>

    <rect fill="#292929" stroke="rgba(255,255,255,0.35)" stroke-width="1" x="1" y="1" width="1236" height="975.2" rx="8"/><text class="terminal-502426217-title" fill="#c5c8c6" text-anchor="middle" x="618" y="27">mavica-tools</text>
            <g transform="translate(26,22)">
            <circle cx="0" cy="0" r="7" fill="#ff5f57"/>
            <circle cx="22" cy="0" r="7" fill="#febc2e"/>
            <circle cx="44" cy="0" r="7" fill="#28c840"/>
            </g>
        
    <g transform="translate(9, 41)" clip-path="url(#terminal-502426217-clip-terminal)">
    <rect fill="#1a1a1a" x="0" y="1.5" width="12.2" height="24.65" shape-rendering="crispEdges"/><rect fill="#1a1a1a" x="12.2" y="1.5" width="85.4" height="24.65" shape-rendering="crispEdges"/><rect fill="#1a1a1a" x="97.6" y="1.5" width="85.4" height="24.65" shape-rendering="crispEdges"/><rect fill="#1a1a1a" x="183" y="1.5" width="24.4" height="24.65" shape-rendering="crispEdges"/><rect fill="#1a1a1a" x="207.4" y="1.5" width="573.4" height="24.65" shape-rendering="crispEdges"/><rect fill="#1a1a1a" x="780.8" y="1.5" width="317.2" height="24.65" shape-rendering="crispEdges"/><rect fill="#1a1a1a" x="1098" y="1.5" width="109.8" height="24.65" shape-rendering="crispEdges"/><rect fill="#1a1a1a" x="1207.8" y="1.5" width="12.2" height="24.65" shape-rendering="crispEdges"/><rect fill="#0a0a0a" x="0" y="25.9" width="683.2" height="24.65" shape-rendering="crispEdges"/><rect fill="#0a0a0a" x="683.2" y="25.9" width="536.8" height="24.65" shape-rendering="crispEdges"/><rect fill="#0a0a0a" x="0" y="50.3" width="805.2" height="24.65" shape-rendering="crispEdges"/><rect fill="#0a0a0a" x="805.2" y="50.3" width="414.8" height="24.65" shape-rendering="crispEdges"/><rect fill="#0a0a0a" x="0" y="74.7" width="0" height="24.65" shape-rendering="crispEdges"/><rect fill="#0a0a0a" x="0" y="74.7" width="1220" height="24.65" shape-rendering="crispEdges"/><rect fill="#33ff33" x="0" y="99.1" width="12.2" height="24.65" shape-rendering="crispEdges"/><rect fill="#272727" x="12.2" y="99.1" width="1183.4" height="24.65" shape-rendering="crispEdges"/><rect fill="#0a0a0a" x="1195.6" y="99.1" width="12.2" height="24.65" shape-rendering="crispEdges"/><rect fill="#0a0a0a" x="1207.8" y="99.1" width="12.2" height="24.65" shape-rendering="crispEdges"/><rect fill="#33ff33" x="0" y="123.5" width="12.2" height="24.65" shape-rendering="crispEdges"/><rect fill="#272727" x="12.2" y="123.5" width="24.4" height="24.65" shape-rendering="crispEdges"/><rect fill="#e0e0e0" x="36.6" y="123.5" width="12.2" height="24.65" shape-rendering="crispEdges"/><rect fill="#272727" x="48.8" y="123.5" width="329.4" height="24.65" shape-rendering="crispEdges"/><rect fill="#272727" x="378.2" y="123.5" width="793" height="24.65" shape-rendering="crispEdges"/><rect fill="#272727" x="1171.2" y="123.5" width="24.4" height="24.65" shape-rendering="crispEdges"/><rect fill="#0a0a0a" x="1195.6" y="123.5" width="12.2" height="24.65" shape-rendering="crispEdges"/><rect fill="#0a0a0a" x="1207.8" y="123.5" width="12.2" height="24.65" shape-rendering="crispEdges"/><rect fill="#33ff33" x="0" y="147.9" width="12.2" height="24.65" shape-rendering="crispEdges"/><rect fill="#272727" x="12.2" y="147.9" width="1183.4" height="24.65" shape-rendering="crispEdges"/><rect fill="#0a0a0a" x="1195.6" y="147.9" width="12.2" height="24.65" shape-rendering="crispEdges"/><rect fill="#0a0a0a" x="1207.8" y="147.9" width="12.2" height="24.65" shape-rendering="crispEdges"/><rect fill="#0a0a0a" x="0" y="172.3" width="1220" height="24.65" shape-rendering="crispEdges"/><rect fill="#333333" x="0" y="196.7" width="12.2" height="24.65" shape-rendering="crispEdges"/><rect fill="#1e1e1e" x="12.2" y="196.7" width="1183.4" height="24.65" shape-rendering="crispEdges"/><rect fill="#0a0a0a" x="1195.6" y="196.7" width="12.2" height="24.65" shape-rendering="crispEdges"/><rect fill="#0a0a0a" x="1207.8" y="196.7" width="12.2" height="24.65" shape-rendering="crispEdges"/><rect fill="#333333" x="0" y="221.1" width="12.2" height="24.65" shape-rendering="crispEdges"/><rect fill="#1e1e1e" x="12.2" y="221.1" width="24.4" height="24.65" shape-rendering="crispEdges"/><rect fill="#1e1e1e" x="36.6" y="221.1" width="97.6" height="24.65" shape-rendering="crispEdges"/><rect fill="#1e1e1e" x="134.2" y="221.1" width="1037" height="24.65" shape-rendering="crispEdges"/><rect fill="#1e1e1e" x="1171.2" y="221.1" width="24.4" height="24.65" shape-rendering="crispEdges"/><rect fill="#0a0a0a" x="1195.6" y="221.1" width="12.2" height="24.65" shape-rendering="crispEdges"/><rect fill="#0a0a0a" x="1207.8" y="221.1" width="12.2" height="24.65" shape-rendering="crispEdges"/><rect fill="#333333" x="0" y="245.5" width="12.2" height="24.65" shape-rendering="crispEdges"/><rect fill="#1e1e1e" x="12.2" y="245.5" width="1183.4" height="24.65" shape-rendering="crispEdges"/><rect fill="#0a0a0a" x="1195.6" y="245.5" width="12.2" height="24.65" shape-rendering="crispEdges"/><rect fill="#0a0a0a" x="1207.8" y="245.5" width="12.2" height="24.65" shape-rendering="crispEdges"/><rect fill="#0a0a0a" x="0" y="269.9" width="1220" height="24.65" shape-rendering="crispEdges"/><rect fill="#0a0a0a" x="0" y="294.3" width="24.4" height="24.65" shape-rendering="crispEdges"/><rect fill="#0a0a0a" x="24.4" y="294.3" width="134.2" height="24.65" shape-rendering="crispEdges"/><rect fill="#0a0a0a" x="158.6" y="294.3" width="634.4" height="24.65" shape-rendering="crispEdges"/><rect fill="#0a0a0a" x="793" y="294.3" width="427" height="24.65" shape-rendering="crispEdges"/><rect fill="#0a0a0a" x="0" y="318.7" width="24.4" height="24.65" shape-rendering="crispEdges"/><rect fill="#0a0a0a" x="24.4" y="318.7" width="122" height="24.65" shape-rendering="crispEdges"/><rect fill="#0a0a0a" x="146.4" y="318.7" width="878.4" height="24.65" shape-rendering="crispEdges"/><rect fill="#0a0a0a" x="1024.8" y="318.7" width="195.2" height="24.65" shape-rendering="crispEdges"/><rect fill="#0a0a0a" x="0" y="343.1" width="0" height="24.65" shape-rendering="crispEdges"/><rect fill="#0a0a0a" x="0" y="343.1" width="1220" height="24.65" shape-rendering="crispEdges"/><rect fill="#0a0a0a" x="0" y="367.5" width="12.2" height="24.65" shape-rendering="crispEdges"/><rect fill="#4ebf71" x="12.2" y="367.5" width="280.6" height="24.65" shape-rendering="crispEdges"/><rect fill="#0a0a0a" x="292.8" y="367.5" width="12.2" height="24.65" shape-rendering="crispEdges"/><rect fill="#fea62b" x="305" y="367.5" width="268.4" height="24.65" shape-rendering="crispEdges"/><rect fill="#0a0a0a" x="573.4" y="367.5" width="646.6" height="24.65" shape-rendering="crispEdges"/><rect fill="#0a0a0a" x="0" y="391.9" width="12.2" height="24.65" shape-rendering="crispEdges"/><rect fill="#4ebf71" x="12.2" y="391.9" width="280.6" height="24.65" shape-rendering="crispEdges"/><rect fill="#0a0a0a" x="292.8" y="391.9" width="12.2" height="24.65" shape-rendering="crispEdges"/><rect fill="#fea62b" x="305" y="391.9" width="268.4" height="24.65" shape-rendering="crispEdges"/><rect fill="#0a0a0a" x="573.4" y="391.9" width="646.6" height="24.65" shape-rendering="crispEdges"/><rect fill="#0a0a0a" x="0" y="416.3" width="12.2" height="24.65" shape-rendering="crispEdges"/><rect fill="#4ebf71" x="12.2" y="416.3" width="280.6" height="24.65" shape-rendering="crispEdges"/><rect fill="#0a0a0a" x="292.8" y="416.3" width="12.2" height="24.65" shape-rendering="crispEdges"/><rect fill="#fea62b" x="305" y="416.3" width="268.4" height="24.65" shape-rendering="crispEdges"/><rect fill="#0a0a0a" x="573.4" y="416.3" width="646.6" height="24.65" shape-rendering="crispEdges"/><rect fill="#0a0a0a" x="0" y="440.7" width="1220" height="24.65" shape-rendering="crispEdges"/><rect fill="#0a0a0a" x="0" y="465.1" width="12.2" height="24.65" shape-rendering="crispEdges"/><rect fill="#0a0a0a" x="12.2" y="465.1" width="390.4" height="24.65" shape-rendering="crispEdges"/><rect fill="#0a0a0a" x="402.6" y="465.1" width="36.6" height="24.65" shape-rendering="crispEdges"/><rect fill="#0a0a0a" x="439.2" y="465.1" width="24.4" height="24.65" shape-rendering="crispEdges"/><rect fill="#0a0a0a" x="463.6" y="465.1" width="756.4" height="24.65" shape-rendering="crispEdges"/><rect fill="#0a0a0a" x="0" y="489.5" width="0" height="24.65" shape-rendering="crispEdges"/><rect fill="#0a0a0a" x="0" y="489.5" width="1220" height="24.65" shape-rendering="crispEdges"/><rect fill="#0a0a0a" x="0" y="513.9" width="12.2" height="24.65" shape-rendering="crispEdges"/><rect fill="#0d0d0d" x="12.2" y="513.9" width="268.4" height="24.65" shape-rendering="crispEdges"/><rect fill="#0a0a0a" x="280.6" y="513.9" width="12.2" height="24.65" shape-rendering="crispEdges"/><rect fill="#0d0d0d" x="292.8" y="513.9" width="268.4" height="24.65" shape-rendering="crispEdges"/><rect fill="#0a0a0a" x="561.2" y="513.9" width="658.8" height="24.65" shape-rendering="crispEdges"/><rect fill="#0a0a0a" x="0" y="538.3" width="12.2" height="24.65" shape-rendering="crispEdges"/><rect fill="#0d0d0d" x="12.2" y="538.3" width="268.4" height="24.65" shape-rendering="crispEdges"/><rect fill="#0a0a0a" x="280.6" y="538.3" width="12.2" height="24.65" shape-rendering="crispEdges"/><rect fill="#0d0d0d" x="292.8" y="538.3" width="268.4" height="24.65" shape-rendering="crispEdges"/><rect fill="#0a0a0a" x="561.2" y="538.3" width="658.8" height="24.65" shape-rendering="crispEdges"/><rect fill="#0a0a0a" x="0" y="562.7" width="12.2" height="24.65" shape-rendering="crispEdges"/><rect fill="#0d0d0d" x="12.2" y="562.7" width="268.4" height="24.65" shape-rendering="crispEdges"/><rect fill="#0a0a0a" x="280.6" y="562.7" width="12.2" height="24.65" shape-rendering="crispEdges"/><rect fill="#0d0d0d" x="292.8" y="562.7" width="268.4" height="24.65" shape-rendering="crispEdges"/><rect fill="#0a0a0a" x="561.2" y="562.7" width="658.8" height="24.65" shape-rendering="crispEdges"/><rect fill="#0a0a0a" x="0" y="587.1" width="1220" height="24.65" shape-rendering="crispEdges"/><rect fill="#333333" x="0" y="611.5" width="12.2" height="24.65" shape-rendering="crispEdges"/><rect fill="#0a0a0a" x="12.2" y="611.5" width="1195.6" height="24.65" shape-rendering="crispEdges"/><rect fill="#0a0a0a" x="1207.8" y="611.5" width="12.2" height="24.65" shape-rendering="crispEdges"/><rect fill="#333333" x="0" y="635.9" width="12.2" height="24.65" shape-rendering="crispEdges"/><rect fill="#0a0a0a" x="12.2" y="635.9" width="1195.6" height="24.65" shape-rendering="crispEdges"/><rect fill="#0a0a0a" x="1207.8" y="635.9" width="12.2" height="24.65" shape-rendering="crispEdges"/><rect fill="#0a0a0a" x="0" y="660.3" width="1220" height="24.65" shape-rendering="crispEdges"/><rect fill="#0a0a0a" x="0" y="684.7" width="1220" height="24.65" shape-rendering="crispEdges"/><rect fill="#0a0a0a" x="0" y="709.1" width="1220" height="24.65" shape-rendering="crispEdges"/><rect fill="#0a0a0a" x="0" y="733.5" width="1220" height="24.65" shape-rendering="crispEdges"/><rect fill="#0a0a0a" x="0" y="757.9" width="1220" height="24.65" shape-rendering="crispEdges"/><rect fill="#0a0a0a" x="0" y="782.3" width="1220" height="24.65" shape-rendering="crispEdges"/><rect fill="#0a0a0a" x="0" y="806.7" width="1220" height="24.65" shape-rendering="crispEdges"/><rect fill="#0a0a0a" x="0" y="831.1" width="1220" height="24.65" shape-rendering="crispEdges"/><rect fill="#0a0a0a" x="0" y="855.5" width="1220" height="24.65" shape-rendering="crispEdges"/><rect fill="#0a0a0a" x="0" y="879.9" width="1220" height="24.65" shape-rendering="crispEdges"/><rect fill="#242f38" x="0" y="904.3" width="61" height="24.65" shape-rendering="crispEdges"/><rect fill="#242f38" x="61" y="904.3" width="61" height="24.65" shape-rendering="crispEdges"/><rect fill="#242f38" x="122" y="904.3" width="951.6" height="24.65" shape-rendering="crispEdges"/><rect fill="#242f38" x="1073.6" y="904.3" width="12.2" height="24.65" shape-rendering="crispEdges"/><rect fill="#242f38" x="1085.8" y="904.3" width="24.4" height="24.65" shape-rendering="crispEdges"/><rect fill="#242f38" x="1110.2" y="904.3" width="97.6" height="24.65" shape-rendering="crispEdges"/><rect fill="#242f38" x="1207.8" y="904.3" width="12.2" height="24.65" shape-rendering="crispEdges"/>
    <g class="terminal-502426217-matrix">
    <text class="terminal-502426217-r2" x="12.2" y="20" textLength="85.4" clip-path="url(#terminal-502426217-line-0)">Batch&#160;R</text><text class="terminal-502426217-r2" x="97.6" y="20" textLength="85.4" clip-path="url(#terminal-502426217-line-0)">ecovery</text><text class="terminal-502426217-r4" x="207.4" y="20" textLength="573.4" clip-path="url(#terminal-502426217-line-0)">Full&#160;pipeline:&#160;merge&#160;&gt;&#160;extract&#160;&gt;&#160;check&#160;&gt;&#160;repair</text><text class="terminal-502426217-r1" x="1220" y="20" textLength="12.2" clip-path="url(#terminal-502426217-line-0)">
</text><text class="terminal-502426217-r5" x="0" y="44.4" textLength="683.2" clip-path="url(#terminal-502426217-line-1)">&#160;&#160;Point&#160;this&#160;at&#160;a&#160;directory&#160;containing&#160;disk&#160;image&#160;passes</text><text class="terminal-502426217-r1" x="1220" y="44.4" textLength="12.2" clip-path="url(#terminal-502426217-line-1)">
</text><text class="terminal-502426217-r5" x="0" y="68.8" textLength="805.2" clip-path="url(#terminal-502426217-line-2)">&#160;&#160;(pass_01.img,&#160;pass_02.img,&#160;...)&#160;or&#160;select&#160;individual&#160;.img&#160;files.</text><text class="terminal-502426217-r1" x="1220" y="68.8" textLength="12.2" clip-path="url(#terminal-502426217-line-2)">
</text><text class="terminal-502426217-r1" x="1220" y="93.2" textLength="12.2" clip-path="url(#terminal-502426217-line-3)">
</text><text class="terminal-502426217-r6" x="0" y="117.6" textLength="12.2" clip-path="url(#terminal-502426217-line-4)">▊</text><text class="terminal-502426217-r7" x="12.2" y="117.6" textLength="1183.4" clip-path="url(#terminal-502426217-line-4)">▔▔▔▔▔▔▔▔▔▔▔▔▔▔▔▔▔▔▔▔▔▔▔▔▔▔▔▔▔▔▔▔▔▔▔▔▔▔▔▔▔▔▔▔▔▔▔▔▔▔▔▔▔▔▔▔▔▔▔▔▔▔▔▔▔▔▔▔▔▔▔▔▔▔▔▔▔▔▔▔▔▔▔▔▔▔▔▔▔▔▔▔▔▔▔▔▔</text><text class="terminal-502426217-r7" x="1195.6" y="117.6" textLength="12.2" clip-path="url(#terminal-502426217-line-4)">▎</text><text class="terminal-502426217-r1" x="1220" y="117.6" textLength="12.2" clip-path="url(#terminal-502426217-line-4)">
</text><text class="terminal-502426217-r6" x="0" y="142" textLength="12.2" clip-path="url(#terminal-502426217-line-5)">▊</text><text class="terminal-502426217-r8" x="36.6" y="142" textLength="12.2" clip-path="url(#terminal-502426217-line-5)">D</text><text class="terminal-502426217-r9" x="48.8" y="142" textLength="329.4" clip-path="url(#terminal-502426217-line-5)">irectory&#160;with&#160;.img&#160;files...</text><text class="terminal-502426217-r7" x="1195.6" y="142" textLength="12.2" clip-path="url(#terminal-502426217-line-5)">▎</text><text class="terminal-502426217-r1" x="1220" y="142" textLength="12.2" clip-path="url(#terminal-502426217-line-5)">
</text><text class="terminal-502426217-r6" x="0" y="166.4" textLength="12.2" clip-path="url(#terminal-502426217-line-6)">▊</text><text class="terminal-502426217-r7" x="12.2" y="166.4" textLength="1183.4" clip-path="url(#terminal-502426217-line-6)">▁▁▁▁▁▁▁▁▁▁▁▁▁▁▁▁▁▁▁▁▁▁▁▁▁▁▁▁▁▁▁▁▁▁▁▁▁▁▁▁▁▁▁▁▁▁▁▁▁▁▁▁▁▁▁▁▁▁▁▁▁▁▁▁▁▁▁▁▁▁▁▁▁▁▁▁▁▁▁▁▁▁▁▁▁▁▁▁▁▁▁▁▁▁▁▁▁</text><text class="terminal-502426217-r7" x="1195.6" y="166.4" textLength="12.2" clip-path="url(#terminal-502426217-line-6)">▎</text><text class="terminal-502426217-r1" x="1220" y="166.4" textLength="12.2" clip-path="url(#terminal-502426217-line-6)">
</text><text class="terminal-502426217-r1" x="1220" y="190.8" textLength="12.2" clip-path="url(#terminal-502426217-line-7)">
</text><text class="terminal-502426217-r6" x="0" y="215.2" textLength="12.2" clip-path="url(#terminal-502426217-line-8)">▊</text><text class="terminal-502426217-r10" x="12.2" y="215.2" textLength="1183.4" clip-path="url(#terminal-502426217-line-8)">▔▔▔▔▔▔▔▔▔▔▔▔▔▔▔▔▔▔▔▔▔▔▔▔▔▔▔▔▔▔▔▔▔▔▔▔▔▔▔▔▔▔▔▔▔▔▔▔▔▔▔▔▔▔▔▔▔▔▔▔▔▔▔▔▔▔▔▔▔▔▔▔▔▔▔▔▔▔▔▔▔▔▔▔▔▔▔▔▔▔▔▔▔▔▔▔▔</text><text class="terminal-502426217-r10" x="1195.6" y="215.2" textLength="12.2" clip-path="url(#terminal-502426217-line-8)">▎</text><text class="terminal-502426217-r1" x="1220" y="215.2" textLength="12.2" clip-path="url(#terminal-502426217-line-8)">
</text><text class="terminal-502426217-r6" x="0" y="239.6" textLength="12.2" clip-path="url(#terminal-502426217-line-9)">▊</text><text class="terminal-502426217-r5" x="36.6" y="239.6" textLength="97.6" clip-path="url(#terminal-502426217-line-9)">recovery</text><text class="terminal-502426217-r10" x="1195.6" y="239.6" textLength="12.2" clip-path="url(#terminal-502426217-line-9)">▎</text><text class="terminal-502426217-r1" x="1220" y="239.6" textLength="12.2" clip-path="url(#terminal-502426217-line-9)">
</text><text class="terminal-502426217-r6" x="0" y="264" textLength="12.2" clip-path="url(#terminal-502426217-line-10)">▊</text><text class="terminal-502426217-r10" x="12.2" y="264" textLength="1183.4" clip-path="url(#terminal-502426217-line-10)">▁▁▁▁▁▁▁▁▁▁▁▁▁▁▁▁▁▁▁▁▁▁▁▁▁▁▁▁▁▁▁▁▁▁▁▁▁▁▁▁▁▁▁▁▁▁▁▁▁▁▁▁▁▁▁▁▁▁▁▁▁▁▁▁▁▁▁▁▁▁▁▁▁▁▁▁▁▁▁▁▁▁▁▁▁▁▁▁▁▁▁▁▁▁▁▁▁</text><text class="terminal-502426217-r10" x="1195.6" y="264" textLength="12.2" clip-path="url(#terminal-502426217-line-10)">▎</text><text class="terminal-502426217-r1" x="1220" y="264" textLength="12.2" clip-path="url(#terminal-502426217-line-10)">
</text><text class="terminal-502426217-r1" x="1220" y="288.4" textLength="12.2" clip-path="url(#terminal-502426217-line-11)">
</text><text class="terminal-502426217-r11" x="24.4" y="312.8" textLength="134.2" clip-path="url(#terminal-502426217-line-12)">FAT12&#160;first</text><text class="terminal-502426217-r12" x="158.6" y="312.8" textLength="634.4" clip-path="url(#terminal-502426217-line-12)">&#160;—&#160;recovers&#160;original&#160;Mavica&#160;filenames&#160;(MVC-001.JPG).</text><text class="terminal-502426217-r1" x="1220" y="312.8" textLength="12.2" clip-path="url(#terminal-502426217-line-12)">
</text><text class="terminal-502426217-r11" x="24.4" y="337.2" textLength="122" clip-path="url(#terminal-502426217-line-13)">Carve&#160;only</text><text class="terminal-502426217-r12" x="146.4" y="337.2" textLength="878.4" clip-path="url(#terminal-502426217-line-13)">&#160;—&#160;scans&#160;raw&#160;data&#160;for&#160;JPEGs.&#160;Use&#160;if&#160;FAT12&#160;fails&#160;or&#160;disk&#160;is&#160;very&#160;damaged.</text><text class="terminal-502426217-r1" x="1220" y="337.2" textLength="12.2" clip-path="url(#terminal-502426217-line-13)">
</text><text class="terminal-502426217-r1" x="1220" y="361.6" textLength="12.2" clip-path="url(#terminal-502426217-line-14)">
</text><text class="terminal-502426217-r13" x="12.2" y="386" textLength="280.6" clip-path="url(#terminal-502426217-line-15)">▔▔▔▔▔▔▔▔▔▔▔▔▔▔▔▔▔▔▔▔▔▔▔</text><text class="terminal-502426217-r14" x="305" y="386" textLength="268.4" clip-path="url(#terminal-502426217-line-15)">▔▔▔▔▔▔▔▔▔▔▔▔▔▔▔▔▔▔▔▔▔▔</text><text class="terminal-502426217-r1" x="1220" y="386" textLength="12.2" clip-path="url(#terminal-502426217-line-15)">
</text><text class="terminal-502426217-r15" x="12.2" y="410.4" textLength="280.6" clip-path="url(#terminal-502426217-line-16)">&#160;Recover&#160;(FAT12&#160;first)&#160;</text><text class="terminal-502426217-r16" x="305" y="410.4" textLength="268.4" clip-path="url(#terminal-502426217-line-16)">&#160;Recover&#160;(carve&#160;only)&#160;</text><text class="terminal-502426217-r1" x="1220" y="410.4" textLength="12.2" clip-path="url(#terminal-502426217-line-16)">
</text><text class="terminal-502426217-r17" x="12.2" y="434.8" textLength="280.6" clip-path="url(#terminal-502426217-line-17)">▁▁▁▁▁▁▁▁▁▁▁▁▁▁▁▁▁▁▁▁▁▁▁</text><text class="terminal-502426217-r18" x="305" y="434.8" textLength="268.4" clip-path="url(#terminal-502426217-line-17)">▁▁▁▁▁▁▁▁▁▁▁▁▁▁▁▁▁▁▁▁▁▁</text><text class="terminal-502426217-r1" x="1220" y="434.8" textLength="12.2" clip-path="url(#terminal-502426217-line-17)">
</text><text class="terminal-502426217-r1" x="1220" y="459.2" textLength="12.2" clip-path="url(#terminal-502426217-line-18)">
</text><text class="terminal-502426217-r19" x="12.2" y="483.6" textLength="390.4" clip-path="url(#terminal-502426217-line-19)">━━━━━━━━━━━━━━━━━━━━━━━━━━━━━━━━</text><text class="terminal-502426217-r5" x="439.2" y="483.6" textLength="24.4" clip-path="url(#terminal-502426217-line-19)">0%</text><text class="terminal-502426217-r1" x="1220" y="483.6" textLength="12.2" clip-path="url(#terminal-502426217-line-19)">
</text><text class="terminal-502426217-r1" x="1220" y="508" textLength="12.2" clip-path="url(#terminal-502426217-line-20)">
</text><text class="terminal-502426217-r20" x="12.2" y="532.4" textLength="268.4" clip-path="url(#terminal-502426217-line-21)">▔▔▔▔▔▔▔▔▔▔▔▔▔▔▔▔▔▔▔▔▔▔</text><text class="terminal-502426217-r20" x="292.8" y="532.4" textLength="268.4" clip-path="url(#terminal-502426217-line-21)">▔▔▔▔▔▔▔▔▔▔▔▔▔▔▔▔▔▔▔▔▔▔</text><text class="terminal-502426217-r1" x="1220" y="532.4" textLength="12.2" clip-path="url(#terminal-502426217-line-21)">
</text><text class="terminal-502426217-r21" x="12.2" y="556.8" textLength="268.4" clip-path="url(#terminal-502426217-line-22)">&#160;Next:&#160;Add&#160;Photo&#160;Info&#160;</text><text class="terminal-502426217-r21" x="292.8" y="556.8" textLength="268.4" clip-path="url(#terminal-502426217-line-22)">&#160;Next:&#160;Export&#160;&amp;&#160;Share&#160;</text><text class="terminal-502426217-r1" x="1220" y="556.8" textLength="12.2" clip-path="url(#terminal-502426217-line-22)">
</text><text class="terminal-502426217-r6" x="12.2" y="581.2" textLength="268.4" clip-path="url(#terminal-502426217-line-23)">▁▁▁▁▁▁▁▁▁▁▁▁▁▁▁▁▁▁▁▁▁▁</text><text class="terminal-502426217-r6" x="292.8" y="581.2" textLength="268.4" clip-path="url(#terminal-502426217-line-23)">▁▁▁▁▁▁▁▁▁▁▁▁▁▁▁▁▁▁▁▁▁▁</text><text class="terminal-502426217-r1" x="1220" y="581.2" textLength="12.2" clip-path="url(#terminal-502426217-line-23)">
</text><text class="terminal-502426217-r1" x="1220" y="605.6" textLength="12.2" clip-path="url(#terminal-502426217-line-24)">
</text><text class="terminal-502426217-r6" x="0" y="630" textLength="12.2" clip-path="url(#terminal-502426217-line-25)">▊</text><text class="terminal-502426217-r10" x="12.2" y="630" textLength="1195.6" clip-path="url(#terminal-502426217-line-25)">▔▔▔▔▔▔▔▔▔▔▔▔▔▔▔▔▔▔▔▔▔▔▔▔▔▔▔▔▔▔▔▔▔▔▔▔▔▔▔▔▔▔▔▔▔▔▔▔▔▔▔▔▔▔▔▔▔▔▔▔▔▔▔▔▔▔▔▔▔▔▔▔▔▔▔▔▔▔▔▔▔▔▔▔▔▔▔▔▔▔▔▔▔▔▔▔▔▔</text><text class="terminal-502426217-r10" x="1207.8" y="630" textLength="12.2" clip-path="url(#terminal-502426217-line-25)">▎</text><text class="terminal-502426217-r1" x="1220" y="630" textLength="12.2" clip-path="url(#terminal-502426217-line-25)">
</text><text class="terminal-502426217-r6" x="0" y="654.4" textLength="12.2" clip-path="url(#terminal-502426217-line-26)">▊</text><text class="terminal-502426217-r10" x="12.2" y="654.4" textLength="1195.6" clip-path="url(#terminal-502426217-line-26)">▁▁▁▁▁▁▁▁▁▁▁▁▁▁▁▁▁▁▁▁▁▁▁▁▁▁▁▁▁▁▁▁▁▁▁▁▁▁▁▁▁▁▁▁▁▁▁▁▁▁▁▁▁▁▁▁▁▁▁▁▁▁▁▁▁▁▁▁▁▁▁▁▁▁▁▁▁▁▁▁▁▁▁▁▁▁▁▁▁▁▁▁▁▁▁▁▁▁</text><text class="terminal-502426217-r10" x="1207.8" y="654.4" textLength="12.2" clip-path="url(#terminal-502426217-line-26)">▎</text><text class="terminal-502426217-r1" x="1220" y="654.4" textLength="12.2" clip-path="url(#terminal-502426217-line-26)">
</text><text class="terminal-502426217-r1" x="1220" y="678.8" textLength="12.2" clip-path="url(#terminal-502426217-line-27)">
</text><text class="terminal-502426217-r1" x="1220" y="703.2" textLength="12.2" clip-path="url(#terminal-502426217-line-28)">
</text><text class="terminal-502426217-r1" x="1220" y="727.6" textLength="12.2" clip-path="url(#terminal-502426217-line-29)">
</text><text class="terminal-502426217-r1" x="1220" y="752" textLength="12.2" clip-path="url(#terminal-502426217-line-30)">
</text><text class="terminal-502426217-r1" x="1220" y="776.4" textLength="12.2" clip-path="url(#terminal-502426217-line-31)">
</text><text class="terminal-502426217-r1" x="1220" y="800.8" textLength="12.2" clip-path="url(#terminal-502426217-line-32)">
</text><text class="terminal-502426217-r1" x="1220" y="825.2" textLength="12.2" clip-path="url(#terminal-502426217-line-33)">
</text><text class="terminal-502426217-r1" x="1220" y="849.6" textLength="12.2" clip-path="url(#terminal-502426217-line-34)">
</text><text class="terminal-502426217-r1" x="1220" y="874" textLength="12.2" clip-path="url(#terminal-502426217-line-35)">
</text><text class="terminal-502426217-r1" x="1220" y="898.4" textLength="12.2" clip-path="url(#terminal-502426217-line-36)">
</text><text class="terminal-502426217-r22" x="0" y="922.8" textLength="61" clip-path="url(#terminal-502426217-line-37)">&#160;esc&#160;</text><text class="terminal-502426217-r5" x="61" y="922.8" textLength="61" clip-path="url(#terminal-502426217-line-37)">Back&#160;</text><text class="terminal-502426217-r23" x="1073.6" y="922.8" textLength="12.2" clip-path="url(#terminal-502426217-line-37)">▏</text><text class="terminal-502426217-r22" x="1085.8" y="922.8" textLength="24.4" clip-path="url(#terminal-502426217-line-37)">^p</text><text class="terminal-502426217-r5" x="1110.2" y="922.8" textLength="97.6" clip-path="url(#terminal-502426217-line-37)">&#160;palette</text>
    </g>
    </g>
</svg>
