<svg class="rich-terminal" viewBox="0 0 1482 928.4" xmlns="http://www.w3.org/2000/svg">
    <!-- Generated with Rich https://www.textualize.io -->
    <style>

    @font-face {
        font-family: "Fira Code";
        src: local("FiraCode-Regular"),
                url("https://cdnjs.cloudflare.com/ajax/libs/firacode/6.2.0/woff2/FiraCode-Regular.woff2") format("woff2"),
                url("https://cdnjs.cloudflare.com/ajax/libs/firacode/6.2.0/woff/FiraCode-Regular.woff") format("woff");
        font-style: normal;
        font-weight: 400;
    }
    @font-face {
        font-family: "Fira Code";
        src: local("FiraCode-Bold"),
                url("https://cdnjs.cloudflare.com/ajax/libs/firacode/6.2.0/woff2/FiraCode-Bold.woff2") format("woff2"),
                url("https://cdnjs.cloudflare.com/ajax/libs/firacode/6.2.0/woff/FiraCode-Bold.woff") format("woff");
        font-style: bold;
        font-weight: 700;
    }

    .terminal-525464712-matrix {
        font-family: Fira Code, monospace;
        font-size: 20px;
        line-height: 24.4px;
        font-variant-east-asian: full-width;
    }

    .terminal-525464712-title {
        font-size: 18px;
        font-weight: bold;
        font-family: arial;
    }

    .terminal-525464712-r1 { fill: #c5c8c6 }
.terminal-525464712-r2 { fill: #ffaa00;font-weight: bold }
.terminal-525464712-r3 { fill: #33ff33;font-weight: bold }
.terminal-525464712-r4 { fill: #2ab12a;font-weight: bold }
.terminal-525464712-r5 { fill: #e0e0e0 }
.terminal-525464712-r6 { fill: #e0e0e0;font-weight: bold }
.terminal-525464712-r7 { fill: #121212 }
.terminal-525464712-r8 { fill: #0a180e;font-weight: bold }
.terminal-525464712-r9 { fill: #1a130a;font-weight: bold }
.terminal-525464712-r10 { fill: #0a0a0a }
.terminal-525464712-r11 { fill: #191919 }
.terminal-525464712-r12 { fill: #1e1e1e }
.terminal-525464712-r13 { fill: #33ff33 }
.terminal-525464712-r14 { fill: #fd971f }
.terminal-525464712-r15 { fill: #979797 }
.terminal-525464712-r16 { fill: #333333 }
.terminal-525464712-r17 { fill: #0c150f;font-weight: bold }
.terminal-525464712-r18 { fill: #3e3e3e;font-weight: bold }
.terminal-525464712-r19 { fill: #ffa62b;font-weight: bold }
.terminal-525464712-r20 { fill: #495259 }
    </style>

    <defs>
    <clipPath id="terminal-525464712-clip-terminal">
      <rect x="0" y="0" width="1463.0" height="877.4" />
    </clipPath>
    <clipPath id="terminal-525464712-line-0">
    <rect x="0" y="1.5" width="1464" height="24.65"/>
            </clipPath>
<clipPath id="terminal-525464712-line-1">
    <rect x="0" y="25.9" width="1464" height="24.65"/>
            </clipPath>
<clipPath id="terminal-525464712-line-2">
    <rect x="0" y="50.3" width="1464" height="24.65"/>
            </clipPath>
<clipPath id="terminal-525464712-line-3">
    <rect x="0" y="74.7" width="1464" height="24.65"/>
            </clipPath>
<clipPath id="terminal-525464712-line-4">
    <rect x="0" y="99.1" width="1464" height="24.65"/>
            </clipPath>
<clipPath id="terminal-525464712-line-5">
    <rect x="0" y="123.5" width="1464" height="24.65"/>
            </clipPath>
<clipPath id="terminal-525464712-line-6">
    <rect x="0" y="147.9" width="1464" height="24.65"/>
            </clipPath>
<clipPath id="terminal-525464712-line-7">
    <rect x="0" y="172.3" width="1464" height="24.65"/>
            </clipPath>
<clipPath id="terminal-525464712-line-8">
    <rect x="0" y="196.7" width="1464" height="24.65"/>
            </clipPath>
<clipPath id="terminal-525464712-line-9">
    <rect x="0" y="221.1" width="1464" height="24.65"/>
            </clipPath>
<clipPath id="terminal-525464712-line-10">
    <rect x="0" y="245.5" width="1464" height="24.65"/>
            </clipPath>
<clipPath id="terminal-525464712-line-11">
    <rect x="0" y="269.9" width="1464" height="24.65"/>
            </clipPath>
<clipPath id="terminal-525464712-line-12">
    <rect x="0" y="294.3" width="1464" height="24.65"/>
            </clipPath>
<clipPath id="terminal-525464712-line-13">
    <rect x="0" y="318.7" width="1464" height="24.65"/>
            </clipPath>
<clipPath id="terminal-525464712-line-14">
    <rect x="0" y="343.1" width="1464" height="24.65"/>
            </clipPath>
<clipPath id="terminal-525464712-line-15">
    <rect x="0" y="367.5" width="1464" height="24.65"/>
            </clipPath>
<clipPath id="terminal-525464712-line-16">
    <rect x="0" y="391.9" width="1464" height="24.65"/>
            </clipPath>
<clipPath id="terminal-525464712-line-17">
    <rect x="0" y="416.3" width="1464" height="24.65"/>
            </clipPath>
<clipPath id="terminal-525464712-line-18">
    <rect x="0" y="440.7" width="1464" height="24.65"/>
            </clipPath>
<clipPath id="terminal-525464712-line-19">
    <rect x="0" y="465.1" width="1464" height="24.65"/>
            </clipPath>
<clipPath id="terminal-525464712-line-20">
    <rect x="0" y="489.5" width="1464" height="24.65"/>
            </clipPath>
<clipPath id="terminal-525464712-line-21">
    <rect x="0" y="513.9" width="1464" height="24.65"/>
            </clipPath>
<clipPath id="terminal-525464712-line-22">
    <rect x="0" y="538.3" width="1464" height="24.65"/>
            </clipPath>
<clipPath id="terminal-525464712-line-23">
    <rect x="0" y="562.7" width="1464" height="24.65"/>
            </clipPath>
<clipPath id="terminal-525464712-line-24">
    <rect x="0" y="587.1" width="1464" height="24.65"/>
            </clipPath>
<clipPath id="terminal-525464712-line-25">
    <rect x="0" y="611.5" width="1464" height="24.65"/>
            </clipPath>
<clipPath id="terminal-525464712-line-26">
    <rect x="0" y="635.9" width="1464" height="24.65"/>
            </clipPath>
<clipPath id="terminal-525464712-line-27">
    <rect x="0" y="660.3" width="1464" height="24.65"/>
            </clipPath>
<clipPath id="terminal-525464712-line-28">
    <rect x="0" y="684.7" width="1464" height="24.65"/>
            </clipPath>
<clipPath id="terminal-525464712-line-29">
    <rect x="0" y="709.1" width="1464" height="24.65"/>
            </clipPath>
<clipPath id="terminal-525464712-line-30">
    <rect x="0" y="733.5" width="1464" height="24.65"/>
            </clipPath>
<clipPath id="terminal-525464712-line-31">
    <rect x="0" y="757.9" width="1464" height="24.65"/>
            </clipPath>
<clipPath id="terminal-525464712-line-32">
    <rect x="0" y="782.3" width="1464" height="24.65"/>
            </clipPath>
<clipPath id="terminal-525464712-line-33">
    <rect x="0" y="806.7" width="1464" height="24.65"/>
            </clipPath>
<clipPath id="terminal-525464712-line-34">
    <rect x="0" y="831.1" width="1464" height="24.65"/>
            </clipPath>
    </defs>

    <rect fill="#292929" stroke="rgba(255,255,255,0.35)" stroke-width="1" x="1" y="1" width="1480" height="926.4" rx="8"/><text class="terminal-525464712-title" fill="#c5c8c6" text-anchor="middle" x="740" y="27">mavica-tools</text>
            <g transform="translate(26,22)">
            <circle cx="0" cy="0" r="7" fill="#ff5f57"/>
            <circle cx="22" cy="0" r="7" fill="#febc2e"/>
            <circle cx="44" cy="0" r="7" fill="#28c840"/>
            </g>
        
    <g transform="translate(9, 41)" clip-path="url(#terminal-525464712-clip-terminal)">
    <rect fill="#1a1a1a" x="0" y="1.5" width="12.2" height="24.65" shape-rendering="crispEdges"/><rect fill="#1a1a1a" x="12.2" y="1.5" width="85.4" height="24.65" shape-rendering="crispEdges"/><rect fill="#1a1a1a" x="97.6" y="1.5" width="85.4" height="24.65" shape-rendering="crispEdges"/><rect fill="#1a1a1a" x="183" y="1.5" width="24.4" height="24.65" shape-rendering="crispEdges"/><rect fill="#1a1a1a" x="207.4" y="1.5" width="561.2" height="24.65" shape-rendering="crispEdges"/><rect fill="#1a1a1a" x="768.6" y="1.5" width="573.4" height="24.65" shape-rendering="crispEdges"/><rect fill="#1a1a1a" x="1342" y="1.5" width="109.8" height="24.65" shape-rendering="crispEdges"/><rect fill="#1a1a1a" x="1451.8" y="1.5" width="12.2" height="24.65" shape-rendering="crispEdges"/><rect fill="#0a0a0a" x="0" y="25.9" width="1464" height="24.65" shape-rendering="crispEdges"/><rect fill="#0a0a0a" x="0" y="50.3" width="24.4" height="24.65" shape-rendering="crispEdges"/><rect fill="#0a0a0a" x="24.4" y="50.3" width="73.2" height="24.65" shape-rendering="crispEdges"/><rect fill="#0a0a0a" x="97.6" y="50.3" width="1366.4" height="24.65" shape-rendering="crispEdges"/><rect fill="#0a0a0a" x="0" y="74.7" width="12.2" height="24.65" shape-rendering="crispEdges"/><rect fill="#143314" x="12.2" y="74.7" width="256.2" height="24.65" shape-rendering="crispEdges"/><rect fill="#e0e0e0" x="268.4" y="74.7" width="12.2" height="24.65" shape-rendering="crispEdges"/><rect fill="#143314" x="280.6" y="74.7" width="1024.8" height="24.65" shape-rendering="crispEdges"/><rect fill="#0a0a0a" x="1305.4" y="74.7" width="12.2" height="24.65" shape-rendering="crispEdges"/><rect fill="#1e1e1e" x="1317.6" y="74.7" width="12.2" height="24.65" shape-rendering="crispEdges"/><rect fill="#1e1e1e" x="1329.8" y="74.7" width="97.6" height="24.65" shape-rendering="crispEdges"/><rect fill="#1e1e1e" x="1427.4" y="74.7" width="12.2" height="24.65" shape-rendering="crispEdges"/><rect fill="#0a0a0a" x="1439.6" y="74.7" width="12.2" height="24.65" shape-rendering="crispEdges"/><rect fill="#0a0a0a" x="1451.8" y="74.7" width="12.2" height="24.65" shape-rendering="crispEdges"/><rect fill="#0a0a0a" x="0" y="99.1" width="1464" height="24.65" shape-rendering="crispEdges"/><rect fill="#0a0a0a" x="0" y="123.5" width="24.4" height="24.65" shape-rendering="crispEdges"/><rect fill="#0a0a0a" x="24.4" y="123.5" width="122" height="24.65" shape-rendering="crispEdges"/><rect fill="#0a0a0a" x="146.4" y="123.5" width="1317.6" height="24.65" shape-rendering="crispEdges"/><rect fill="#0a0a0a" x="0" y="147.9" width="12.2" height="24.65" shape-rendering="crispEdges"/><rect fill="#1a1a1a" x="12.2" y="147.9" width="244" height="24.65" shape-rendering="crispEdges"/><rect fill="#1a1a1a" x="256.2" y="147.9" width="1183.4" height="24.65" shape-rendering="crispEdges"/><rect fill="#0a0a0a" x="1439.6" y="147.9" width="12.2" height="24.65" shape-rendering="crispEdges"/><rect fill="#0a0a0a" x="1451.8" y="147.9" width="12.2" height="24.65" shape-rendering="crispEdges"/><rect fill="#0a0a0a" x="0" y="172.3" width="1464" height="24.65" shape-rendering="crispEdges"/><rect fill="#0a0a0a" x="0" y="196.7" width="12.2" height="24.65" shape-rendering="crispEdges"/><rect fill="#0a0a0a" x="12.2" y="196.7" width="12.2" height="24.65" shape-rendering="crispEdges"/><rect fill="#4ebf71" x="24.4" y="196.7" width="12.2" height="24.65" shape-rendering="crispEdges"/><rect fill="#4ebf71" x="36.6" y="196.7" width="85.4" height="24.65" shape-rendering="crispEdges"/><rect fill="#4ebf71" x="122" y="196.7" width="12.2" height="24.65" shape-rendering="crispEdges"/><rect fill="#4ebf71" x="134.2" y="196.7" width="12.2" height="24.65" shape-rendering="crispEdges"/><rect fill="#0a0a0a" x="146.4" y="196.7" width="12.2" height="24.65" shape-rendering="crispEdges"/><rect fill="#30220f" x="158.6" y="196.7" width="12.2" height="24.65" shape-rendering="crispEdges"/><rect fill="#30220f" x="170.8" y="196.7" width="219.6" height="24.65" shape-rendering="crispEdges"/><rect fill="#30220f" x="390.4" y="196.7" width="12.2" height="24.65" shape-rendering="crispEdges"/><rect fill="#0a0a0a" x="402.6" y="196.7" width="12.2" height="24.65" shape-rendering="crispEdges"/><rect fill="#191919" x="414.8" y="196.7" width="12.2" height="24.65" shape-rendering="crispEdges"/><rect fill="#1e1e1e" x="427" y="196.7" width="97.6" height="24.65" shape-rendering="crispEdges"/><rect fill="#0a0a0a" x="524.6" y="196.7" width="12.2" height="24.65" shape-rendering="crispEdges"/><rect fill="#0a0a0a" x="536.8" y="196.7" width="256.2" height="24.65" shape-rendering="crispEdges"/><rect fill="#0a0a0a" x="793" y="196.7" width="658.8" height="24.65" shape-rendering="crispEdges"/><rect fill="#0a0a0a" x="1451.8" y="196.7" width="12.2" height="24.65" shape-rendering="crispEdges"/><rect fill="#0a0a0a" x="0" y="221.1" width="12.2" height="24.65" shape-rendering="crispEdges"/><rect fill="#0a0a0a" x="12.2" y="221.1" width="402.6" height="24.65" shape-rendering="crispEdges"/><rect fill="#191919" x="414.8" y="221.1" width="12.2" height="24.65" shape-rendering="crispEdges"/><rect fill="#1e1e1e" x="427" y="221.1" width="24.4" height="24.65" shape-rendering="crispEdges"/><rect fill="#242f38" x="451.4" y="221.1" width="12.2" height="24.65" shape-rendering="crispEdges"/><rect fill="#242f38" x="463.6" y="221.1" width="12.2" height="24.65" shape-rendering="crispEdges"/><rect fill="#000f18" x="475.8" y="221.1" width="12.2" height="24.65" shape-rendering="crispEdges"/><rect fill="#000f18" x="488" y="221.1" width="12.2" height="24.65" shape-rendering="crispEdges"/><rect fill="#1e1e1e" x="500.2" y="221.1" width="24.4" height="24.65" shape-rendering="crispEdges"/><rect fill="#0a0a0a" x="524.6" y="221.1" width="12.2" height="24.65" shape-rendering="crispEdges"/><rect fill="#0a0a0a" x="536.8" y="221.1" width="915" height="24.65" shape-rendering="crispEdges"/><rect fill="#0a0a0a" x="1451.8" y="221.1" width="12.2" height="24.65" shape-rendering="crispEdges"/><rect fill="#0a0a0a" x="0" y="245.5" width="12.2" height="24.65" shape-rendering="crispEdges"/><rect fill="#0a0a0a" x="12.2" y="245.5" width="402.6" height="24.65" shape-rendering="crispEdges"/><rect fill="#191919" x="414.8" y="245.5" width="12.2" height="24.65" shape-rendering="crispEdges"/><rect fill="#1e1e1e" x="427" y="245.5" width="97.6" height="24.65" shape-rendering="crispEdges"/><rect fill="#0a0a0a" x="524.6" y="245.5" width="12.2" height="24.65" shape-rendering="crispEdges"/><rect fill="#0a0a0a" x="536.8" y="245.5" width="915" height="24.65" shape-rendering="crispEdges"/><rect fill="#0a0a0a" x="1451.8" y="245.5" width="12.2" height="24.65" shape-rendering="crispEdges"/><rect fill="#0a0a0a" x="0" y="269.9" width="1464" height="24.65" shape-rendering="crispEdges"/><rect fill="#0a0a0a" x="0" y="294.3" width="12.2" height="24.65" shape-rendering="crispEdges"/><rect fill="#0a0a0a" x="12.2" y="294.3" width="390.4" height="24.65" shape-rendering="crispEdges"/><rect fill="#0a0a0a" x="402.6" y="294.3" width="36.6" height="24.65" shape-rendering="crispEdges"/><rect fill="#0a0a0a" x="439.2" y="294.3" width="24.4" height="24.65" shape-rendering="crispEdges"/><rect fill="#0a0a0a" x="463.6" y="294.3" width="12.2" height="24.65" shape-rendering="crispEdges"/><rect fill="#0a0a0a" x="475.8" y="294.3" width="97.6" height="24.65" shape-rendering="crispEdges"/><rect fill="#0a0a0a" x="573.4" y="294.3" width="890.6" height="24.65" shape-rendering="crispEdges"/><rect fill="#0a0a0a" x="0" y="318.7" width="0" height="24.65" shape-rendering="crispEdges"/><rect fill="#0a0a0a" x="0" y="318.7" width="1464" height="24.65" shape-rendering="crispEdges"/><rect fill="#0a0a0a" x="0" y="343.1" width="1464" height="24.65" shape-rendering="crispEdges"/><rect fill="#1a1a1a" x="0" y="367.5" width="122" height="24.65" shape-rendering="crispEdges"/><rect fill="#1a1a1a" x="122" y="367.5" width="158.6" height="24.65" shape-rendering="crispEdges"/><rect fill="#1a1a1a" x="280.6" y="367.5" width="390.4" height="24.65" shape-rendering="crispEdges"/><rect fill="#1a1a1a" x="671" y="367.5" width="97.6" height="24.65" shape-rendering="crispEdges"/><rect fill="#1a1a1a" x="768.6" y="367.5" width="695.4" height="24.65" shape-rendering="crispEdges"/><rect fill="#1a3a1a" x="0" y="391.9" width="122" height="24.65" shape-rendering="crispEdges"/><rect fill="#1a3a1a" x="122" y="391.9" width="158.6" height="24.65" shape-rendering="crispEdges"/><rect fill="#1a3a1a" x="280.6" y="391.9" width="390.4" height="24.65" shape-rendering="crispEdges"/><rect fill="#1a3a1a" x="671" y="391.9" width="97.6" height="24.65" shape-rendering="crispEdges"/><rect fill="#1a3a1a" x="768.6" y="391.9" width="695.4" height="24.65" shape-rendering="crispEdges"/><rect fill="#1e1e1e" x="0" y="416.3" width="12.2" height="24.65" shape-rendering="crispEdges"/><rect fill="#1e1e1e" x="12.2" y="416.3" width="85.4" height="24.65" shape-rendering="crispEdges"/><rect fill="#1e1e1e" x="97.6" y="416.3" width="24.4" height="24.65" shape-rendering="crispEdges"/><rect fill="#1e1e1e" x="122" y="416.3" width="158.6" height="24.65" shape-rendering="crispEdges"/><rect fill="#1e1e1e" x="280.6" y="416.3" width="390.4" height="24.65" shape-rendering="crispEdges"/><rect fill="#1e1e1e" x="671" y="416.3" width="97.6" height="24.65" shape-rendering="crispEdges"/><rect fill="#1e1e1e" x="768.6" y="416.3" width="695.4" height="24.65" shape-rendering="crispEdges"/><rect fill="#0a0a0a" x="0" y="440.7" width="1464" height="24.65" shape-rendering="crispEdges"/><rect fill="#0a0a0a" x="0" y="465.1" width="24.4" height="24.65" shape-rendering="crispEdges"/><rect fill="#0a0a0a" x="24.4" y="465.1" width="695.4" height="24.65" shape-rendering="crispEdges"/><rect fill="#0a0a0a" x="719.8" y="465.1" width="744.2" height="24.65" shape-rendering="crispEdges"/><rect fill="#333333" x="0" y="489.5" width="12.2" height="24.65" shape-rendering="crispEdges"/><rect fill="#0a0a0a" x="12.2" y="489.5" width="695.4" height="24.65" shape-rendering="crispEdges"/><rect fill="#0a0a0a" x="707.6" y="489.5" width="12.2" height="24.65" shape-rendering="crispEdges"/><rect fill="#333333" x="719.8" y="489.5" width="12.2" height="24.65" shape-rendering="crispEdges"/><rect fill="#0a0a0a" x="732" y="489.5" width="695.4" height="24.65" shape-rendering="crispEdges"/><rect fill="#0a0a0a" x="1427.4" y="489.5" width="12.2" height="24.65" shape-rendering="crispEdges"/><rect fill="#0a0a0a" x="1439.6" y="489.5" width="24.4" height="24.65" shape-rendering="crispEdges"/><rect fill="#333333" x="0" y="513.9" width="12.2" height="24.65" shape-rendering="crispEdges"/><rect fill="#0a0a0a" x="12.2" y="513.9" width="12.2" height="24.65" shape-rendering="crispEdges"/><rect fill="#0a0a0a" x="24.4" y="513.9" width="231.8" height="24.65" shape-rendering="crispEdges"/><rect fill="#0a0a0a" x="256.2" y="513.9" width="439.2" height="24.65" shape-rendering="crispEdges"/><rect fill="#0a0a0a" x="695.4" y="513.9" width="12.2" height="24.65" shape-rendering="crispEdges"/><rect fill="#0a0a0a" x="707.6" y="513.9" width="12.2" height="24.65" shape-rendering="crispEdges"/><rect fill="#333333" x="719.8" y="513.9" width="12.2" height="24.65" shape-rendering="crispEdges"/><rect fill="#0a0a0a" x="732" y="513.9" width="12.2" height="24.65" shape-rendering="crispEdges"/><rect fill="#0a0a0a" x="744.2" y="513.9" width="231.8" height="24.65" shape-rendering="crispEdges"/><rect fill="#0a0a0a" x="976" y="513.9" width="439.2" height="24.65" shape-rendering="crispEdges"/><rect fill="#0a0a0a" x="1415.2" y="513.9" width="12.2" height="24.65" shape-rendering="crispEdges"/><rect fill="#0a0a0a" x="1427.4" y="513.9" width="12.2" height="24.65" shape-rendering="crispEdges"/><rect fill="#0a0a0a" x="1439.6" y="513.9" width="24.4" height="24.65" shape-rendering="crispEdges"/><rect fill="#333333" x="0" y="538.3" width="12.2" height="24.65" shape-rendering="crispEdges"/><rect fill="#0a0a0a" x="12.2" y="538.3" width="12.2" height="24.65" shape-rendering="crispEdges"/><rect fill="#0a0a0a" x="24.4" y="538.3" width="671" height="24.65" shape-rendering="crispEdges"/><rect fill="#0a0a0a" x="695.4" y="538.3" width="12.2" height="24.65" shape-rendering="crispEdges"/><rect fill="#0a0a0a" x="707.6" y="538.3" width="12.2" height="24.65" shape-rendering="crispEdges"/><rect fill="#333333" x="719.8" y="538.3" width="12.2" height="24.65" shape-rendering="crispEdges"/><rect fill="#0a0a0a" x="732" y="538.3" width="12.2" height="24.65" shape-rendering="crispEdges"/><rect fill="#0a0a0a" x="744.2" y="538.3" width="671" height="24.65" shape-rendering="crispEdges"/><rect fill="#0a0a0a" x="1415.2" y="538.3" width="12.2" height="24.65" shape-rendering="crispEdges"/><rect fill="#0a0a0a" x="1427.4" y="538.3" width="12.2" height="24.65" shape-rendering="crispEdges"/><rect fill="#0a0a0a" x="1439.6" y="538.3" width="24.4" height="24.65" shape-rendering="crispEdges"/><rect fill="#333333" x="0" y="562.7" width="12.2" height="24.65" shape-rendering="crispEdges"/><rect fill="#0a0a0a" x="12.2" y="562.7" width="12.2" height="24.65" shape-rendering="crispEdges"/><rect fill="#0a0a0a" x="24.4" y="562.7" width="671" height="24.65" shape-rendering="crispEdges"/><rect fill="#0a0a0a" x="695.4" y="562.7" width="12.2" height="24.65" shape-rendering="crispEdges"/><rect fill="#0a0a0a" x="707.6" y="562.7" width="12.2" height="24.65" shape-rendering="crispEdges"/><rect fill="#333333" x="719.8" y="562.7" width="12.2" height="24.65" shape-rendering="crispEdges"/><rect fill="#0a0a0a" x="732" y="562.7" width="12.2" height="24.65" shape-rendering="crispEdges"/><rect fill="#0a0a0a" x="744.2" y="562.7" width="671" height="24.65" shape-rendering="crispEdges"/><rect fill="#0a0a0a" x="1415.2" y="562.7" width="12.2" height="24.65" shape-rendering="crispEdges"/><rect fill="#0a0a0a" x="1427.4" y="562.7" width="12.2" height="24.65" shape-rendering="crispEdges"/><rect fill="#0a0a0a" x="1439.6" y="562.7" width="24.4" height="24.65" shape-rendering="crispEdges"/><rect fill="#333333" x="0" y="587.1" width="12.2" height="24.65" shape-rendering="crispEdges"/><rect fill="#0a0a0a" x="12.2" y="587.1" width="12.2" height="24.65" shape-rendering="crispEdges"/><rect fill="#0a0a0a" x="24.4" y="587.1" width="671" height="24.65" shape-rendering="crispEdges"/><rect fill="#0a0a0a" x="695.4" y="587.1" width="12.2" height="24.65" shape-rendering="crispEdges"/><rect fill="#0a0a0a" x="707.6" y="587.1" width="12.2" height="24.65" shape-rendering="crispEdges"/><rect fill="#333333" x="719.8" y="587.1" width="12.2" height="24.65" shape-rendering="crispEdges"/><rect fill="#0a0a0a" x="732" y="587.1" width="12.2" height="24.65" shape-rendering="crispEdges"/><rect fill="#0a0a0a" x="744.2" y="587.1" width="671" height="24.65" shape-rendering="crispEdges"/><rect fill="#0a0a0a" x="1415.2" y="587.1" width="12.2" height="24.65" shape-rendering="crispEdges"/><rect fill="#0a0a0a" x="1427.4" y="587.1" width="12.2" height="24.65" shape-rendering="crispEdges"/><rect fill="#0a0a0a" x="1439.6" y="587.1" width="24.4" height="24.65" shape-rendering="crispEdges"/><rect fill="#333333" x="0" y="611.5" width="12.2" height="24.65" shape-rendering="crispEdges"/><rect fill="#0a0a0a" x="12.2" y="611.5" width="12.2" height="24.65" shape-rendering="crispEdges"/><rect fill="#0a0a0a" x="24.4" y="611.5" width="671" height="24.65" shape-rendering="crispEdges"/><rect fill="#0a0a0a" x="695.4" y="611.5" width="12.2" height="24.65" shape-rendering="crispEdges"/><rect fill="#0a0a0a" x="707.6" y="611.5" width="12.2" height="24.65" shape-rendering="crispEdges"/><rect fill="#333333" x="719.8" y="611.5" width="12.2" height="24.65" shape-rendering="crispEdges"/><rect fill="#0a0a0a" x="732" y="611.5" width="12.2" height="24.65" shape-rendering="crispEdges"/><rect fill="#0a0a0a" x="744.2" y="611.5" width="671" height="24.65" shape-rendering="crispEdges"/><rect fill="#0a0a0a" x="1415.2" y="611.5" width="12.2" height="24.65" shape-rendering="crispEdges"/><rect fill="#0a0a0a" x="1427.4" y="611.5" width="12.2" height="24.65" shape-rendering="crispEdges"/><rect fill="#0a0a0a" x="1439.6" y="611.5" width="24.4" height="24.65" shape-rendering="crispEdges"/><rect fill="#333333" x="0" y="635.9" width="12.2" height="24.65" shape-rendering="crispEdges"/><rect fill="#0a0a0a" x="12.2" y="635.9" width="12.2" height="24.65" shape-rendering="crispEdges"/><rect fill="#0a0a0a" x="24.4" y="635.9" width="671" height="24.65" shape-rendering="crispEdges"/><rect fill="#0a0a0a" x="695.4" y="635.9" width="12.2" height="24.65" shape-rendering="crispEdges"/><rect fill="#0a0a0a" x="707.6" y="635.9" width="12.2" height="24.65" shape-rendering="crispEdges"/><rect fill="#333333" x="719.8" y="635.9" width="12.2" height="24.65" shape-rendering="crispEdges"/><rect fill="#0a0a0a" x="732" y="635.9" width="12.2" height="24.65" shape-rendering="crispEdges"/><rect fill="#0a0a0a" x="744.2" y="635.9" width="671" height="24.65" shape-rendering="crispEdges"/><rect fill="#0a0a0a" x="1415.2" y="635.9" width="12.2" height="24.65" shape-rendering="crispEdges"/><rect fill="#0a0a0a" x="1427.4" y="635.9" width="12.2" height="24.65" shape-rendering="crispEdges"/><rect fill="#0a0a0a" x="1439.6" y="635.9" width="24.4" height="24.65" shape-rendering="crispEdges"/><rect fill="#333333" x="0" y="660.3" width="12.2" height="24.65" shape-rendering="crispEdges"/><rect fill="#0a0a0a" x="12.2" y="660.3" width="695.4" height="24.65" shape-rendering="crispEdges"/><rect fill="#0a0a0a" x="707.6" y="660.3" width="12.2" height="24.65" shape-rendering="crispEdges"/><rect fill="#333333" x="719.8" y="660.3" width="12.2" height="24.65" shape-rendering="crispEdges"/><rect fill="#0a0a0a" x="732" y="660.3" width="695.4" height="24.65" shape-rendering="crispEdges"/><rect fill="#0a0a0a" x="1427.4" y="660.3" width="12.2" height="24.65" shape-rendering="crispEdges"/><rect fill="#0a0a0a" x="1439.6" y="660.3" width="24.4" height="24.65" shape-rendering="crispEdges"/><rect fill="#0a0a0a" x="0" y="684.7" width="1439.6" height="24.65" shape-rendering="crispEdges"/><rect fill="#0a0a0a" x="1439.6" y="684.7" width="24.4" height="24.65" shape-rendering="crispEdges"/><rect fill="#0a0a0a" x="0" y="709.1" width="1439.6" height="24.65" shape-rendering="crispEdges"/><rect fill="#0a0a0a" x="1439.6" y="709.1" width="24.4" height="24.65" shape-rendering="crispEdges"/><rect fill="#0a0a0a" x="0" y="733.5" width="1439.6" height="24.65" shape-rendering="crispEdges"/><rect fill="#0a0a0a" x="1439.6" y="733.5" width="24.4" height="24.65" shape-rendering="crispEdges"/><rect fill="#0a0a0a" x="0" y="757.9" width="1439.6" height="24.65" shape-rendering="crispEdges"/><rect fill="#0a0a0a" x="1439.6" y="757.9" width="24.4" height="24.65" shape-rendering="crispEdges"/><rect fill="#0a0a0a" x="0" y="782.3" width="1439.6" height="24.65" shape-rendering="crispEdges"/><rect fill="#0a0a0a" x="1439.6" y="782.3" width="24.4" height="24.65" shape-rendering="crispEdges"/><rect fill="#0a0a0a" x="0" y="806.7" width="12.2" height="24.65" shape-rendering="crispEdges"/><rect fill="#0a0a0a" x="12.2" y="806.7" width="12.2" height="24.65" shape-rendering="crispEdges"/><rect fill="#14261a" x="24.4" y="806.7" width="12.2" height="24.65" shape-rendering="crispEdges"/><rect fill="#14261a" x="36.6" y="806.7" width="219.6" height="24.65" shape-rendering="crispEdges"/><rect fill="#14261a" x="256.2" y="806.7" width="12.2" height="24.65" shape-rendering="crispEdges"/><rect fill="#0a0a0a" x="268.4" y="806.7" width="12.2" height="24.65" shape-rendering="crispEdges"/><rect fill="#0d0d0d" x="280.6" y="806.7" width="12.2" height="24.65" shape-rendering="crispEdges"/><rect fill="#0d0d0d" x="292.8" y="806.7" width="158.6" height="24.65" shape-rendering="crispEdges"/><rect fill="#0d0d0d" x="451.4" y="806.7" width="12.2" height="24.65" shape-rendering="crispEdges"/><rect fill="#0a0a0a" x="463.6" y="806.7" width="988.2" height="24.65" shape-rendering="crispEdges"/><rect fill="#0a0a0a" x="1451.8" y="806.7" width="12.2" height="24.65" shape-rendering="crispEdges"/><rect fill="#0a0a0a" x="0" y="831.1" width="1464" height="24.65" shape-rendering="crispEdges"/><rect fill="#242f38" x="0" y="855.5" width="61" height="24.65" shape-rendering="crispEdges"/><rect fill="#242f38" x="61" y="855.5" width="61" height="24.65" shape-rendering="crispEdges"/><rect fill="#242f38" x="122" y="855.5" width="1195.6" height="24.65" shape-rendering="crispEdges"/><rect fill="#242f38" x="1317.6" y="855.5" width="12.2" height="24.65" shape-rendering="crispEdges"/><rect fill="#242f38" x="1329.8" y="855.5" width="24.4" height="24.65" shape-rendering="crispEdges"/><rect fill="#242f38" x="1354.2" y="855.5" width="97.6" height="24.65" shape-rendering="crispEdges"/><rect fill="#242f38" x="1451.8" y="855.5" width="12.2" height="24.65" shape-rendering="crispEdges"/>
    <g class="terminal-525464712-matrix">
    <text class="terminal-525464712-r2" x="12.2" y="20" textLength="85.4" clip-path="url(#terminal-525464712-line-0)">Check&#160;&amp;</text><text class="terminal-525464712-r2" x="97.6" y="20" textLength="85.4" clip-path="url(#terminal-525464712-line-0)">&#160;Repair</text><text class="terminal-525464712-r4" x="207.4" y="20" textLength="561.2" clip-path="url(#terminal-525464712-line-0)">Scan&#160;photos&#160;for&#160;damage,&#160;then&#160;fix&#160;what&#x27;s&#160;broken</text><text class="terminal-525464712-r1" x="1464" y="20" textLength="12.2" clip-path="url(#terminal-525464712-line-0)">
</text><text class="terminal-525464712-r1" x="1464" y="44.4" textLength="12.2" clip-path="url(#terminal-525464712-line-1)">
</text><text class="terminal-525464712-r6" x="24.4" y="68.8" textLength="73.2" clip-path="url(#terminal-525464712-line-2)">Source</text><text class="terminal-525464712-r1" x="1464" y="68.8" textLength="12.2" clip-path="url(#terminal-525464712-line-2)">
</text><text class="terminal-525464712-r5" x="12.2" y="93.2" textLength="256.2" clip-path="url(#terminal-525464712-line-3)">mavica_out/extracted/</text><text class="terminal-525464712-r6" x="1329.8" y="93.2" textLength="97.6" clip-path="url(#terminal-525464712-line-3)">&#160;Browse&#160;</text><text class="terminal-525464712-r1" x="1464" y="93.2" textLength="12.2" clip-path="url(#terminal-525464712-line-3)">
</text><text class="terminal-525464712-r1" x="1464" y="117.6" textLength="12.2" clip-path="url(#terminal-525464712-line-4)">
</text><text class="terminal-525464712-r6" x="24.4" y="142" textLength="122" clip-path="url(#terminal-525464712-line-5)">Output&#160;Dir</text><text class="terminal-525464712-r1" x="1464" y="142" textLength="12.2" clip-path="url(#terminal-525464712-line-5)">
</text><text class="terminal-525464712-r5" x="12.2" y="166.4" textLength="244" clip-path="url(#terminal-525464712-line-6)">mavica_out/repaired/</text><text class="terminal-525464712-r1" x="1464" y="166.4" textLength="12.2" clip-path="url(#terminal-525464712-line-6)">
</text><text class="terminal-525464712-r1" x="1464" y="190.8" textLength="12.2" clip-path="url(#terminal-525464712-line-7)">
</text><text class="terminal-525464712-r8" x="36.6" y="215.2" textLength="85.4" clip-path="url(#terminal-525464712-line-8)">&#160;Check&#160;</text><text class="terminal-525464712-r9" x="170.8" y="215.2" textLength="219.6" clip-path="url(#terminal-525464712-line-8)">&#160;Repair&#160;Bad&#160;Files&#160;</text><text class="terminal-525464712-r10" x="414.8" y="215.2" textLength="12.2" clip-path="url(#terminal-525464712-line-8)">▊</text><text class="terminal-525464712-r11" x="427" y="215.2" textLength="97.6" clip-path="url(#terminal-525464712-line-8)">▔▔▔▔▔▔▔▔</text><text class="terminal-525464712-r11" x="524.6" y="215.2" textLength="12.2" clip-path="url(#terminal-525464712-line-8)">▎</text><text class="terminal-525464712-r5" x="536.8" y="215.2" textLength="256.2" clip-path="url(#terminal-525464712-line-8)">&#160;&#160;Use&#160;.411&#160;thumbnails</text><text class="terminal-525464712-r1" x="1464" y="215.2" textLength="12.2" clip-path="url(#terminal-525464712-line-8)">
</text><text class="terminal-525464712-r10" x="414.8" y="239.6" textLength="12.2" clip-path="url(#terminal-525464712-line-9)">▊</text><text class="terminal-525464712-r11" x="524.6" y="239.6" textLength="12.2" clip-path="url(#terminal-525464712-line-9)">▎</text><text class="terminal-525464712-r1" x="1464" y="239.6" textLength="12.2" clip-path="url(#terminal-525464712-line-9)">
</text><text class="terminal-525464712-r10" x="414.8" y="264" textLength="12.2" clip-path="url(#terminal-525464712-line-10)">▊</text><text class="terminal-525464712-r11" x="427" y="264" textLength="97.6" clip-path="url(#terminal-525464712-line-10)">▁▁▁▁▁▁▁▁</text><text class="terminal-525464712-r11" x="524.6" y="264" textLength="12.2" clip-path="url(#terminal-525464712-line-10)">▎</text><text class="terminal-525464712-r1" x="1464" y="264" textLength="12.2" clip-path="url(#terminal-525464712-line-10)">
</text><text class="terminal-525464712-r1" x="1464" y="288.4" textLength="12.2" clip-path="url(#terminal-525464712-line-11)">
</text><text class="terminal-525464712-r12" x="12.2" y="312.8" textLength="390.4" clip-path="url(#terminal-525464712-line-12)">━━━━━━━━━━━━━━━━━━━━━━━━━━━━━━━━</text><text class="terminal-525464712-r5" x="439.2" y="312.8" textLength="24.4" clip-path="url(#terminal-525464712-line-12)">0%</text><text class="terminal-525464712-r5" x="475.8" y="312.8" textLength="97.6" clip-path="url(#terminal-525464712-line-12)">--:--:--</text><text class="terminal-525464712-r1" x="1464" y="312.8" textLength="12.2" clip-path="url(#terminal-525464712-line-12)">
</text><text class="terminal-525464712-r1" x="1464" y="337.2" textLength="12.2" clip-path="url(#terminal-525464712-line-13)">
</text><text class="terminal-525464712-r1" x="1464" y="361.6" textLength="12.2" clip-path="url(#terminal-525464712-line-14)">
</text><text class="terminal-525464712-r2" x="0" y="386" textLength="122" clip-path="url(#terminal-525464712-line-15)">&#160;Status&#160;&#160;&#160;</text><text class="terminal-525464712-r2" x="122" y="386" textLength="158.6" clip-path="url(#terminal-525464712-line-15)">&#160;Filename&#160;&#160;&#160;&#160;</text><text class="terminal-525464712-r2" x="280.6" y="386" textLength="390.4" clip-path="url(#terminal-525464712-line-15)">&#160;Size&#160;&#160;&#160;&#160;&#160;&#160;&#160;&#160;&#160;&#160;&#160;&#160;&#160;&#160;&#160;&#160;&#160;&#160;&#160;&#160;&#160;&#160;&#160;&#160;&#160;&#160;&#160;</text><text class="terminal-525464712-r2" x="671" y="386" textLength="97.6" clip-path="url(#terminal-525464712-line-15)">&#160;Issues&#160;</text><text class="terminal-525464712-r1" x="1464" y="386" textLength="12.2" clip-path="url(#terminal-525464712-line-15)">
</text><text class="terminal-525464712-r13" x="0" y="410.4" textLength="122" clip-path="url(#terminal-525464712-line-16)">&#160;REPAIRED&#160;</text><text class="terminal-525464712-r13" x="122" y="410.4" textLength="158.6" clip-path="url(#terminal-525464712-line-16)">&#160;MVC-003.JPG&#160;</text><text class="terminal-525464712-r13" x="280.6" y="410.4" textLength="390.4" clip-path="url(#terminal-525464712-line-16)">&#160;Pillow&#160;truncation&#160;tolerance&#160;&#160;&#160;&#160;</text><text class="terminal-525464712-r1" x="1464" y="410.4" textLength="12.2" clip-path="url(#terminal-525464712-line-16)">
</text><text class="terminal-525464712-r14" x="12.2" y="434.8" textLength="85.4" clip-path="url(#terminal-525464712-line-17)">PARTIAL</text><text class="terminal-525464712-r5" x="122" y="434.8" textLength="158.6" clip-path="url(#terminal-525464712-line-17)">&#160;MVC-005.JPG&#160;</text><text class="terminal-525464712-r5" x="280.6" y="434.8" textLength="390.4" clip-path="url(#terminal-525464712-line-17)">&#160;Truncated&#160;before&#160;zero-byte&#160;run&#160;</text><text class="terminal-525464712-r1" x="1464" y="434.8" textLength="12.2" clip-path="url(#terminal-525464712-line-17)">
</text><text class="terminal-525464712-r1" x="1464" y="459.2" textLength="12.2" clip-path="url(#terminal-525464712-line-18)">
</text><text class="terminal-525464712-r15" x="24.4" y="483.6" textLength="695.4" clip-path="url(#terminal-525464712-line-19)">Select&#160;a&#160;row&#160;to&#160;preview&#160;original&#160;vs&#160;repaired&#160;side-by-side</text><text class="terminal-525464712-r1" x="1464" y="483.6" textLength="12.2" clip-path="url(#terminal-525464712-line-19)">
</text><text class="terminal-525464712-r10" x="0" y="508" textLength="12.2" clip-path="url(#terminal-525464712-line-20)">▊</text><text class="terminal-525464712-r16" x="12.2" y="508" textLength="695.4" clip-path="url(#terminal-525464712-line-20)">▔▔▔▔▔▔▔▔▔▔▔▔▔▔▔▔▔▔▔▔▔▔▔▔▔▔▔▔▔▔▔▔▔▔▔▔▔▔▔▔▔▔▔▔▔▔▔▔▔▔▔▔▔▔▔▔▔</text><text class="terminal-525464712-r16" x="707.6" y="508" textLength="12.2" clip-path="url(#terminal-525464712-line-20)">▎</text><text class="terminal-525464712-r10" x="719.8" y="508" textLength="12.2" clip-path="url(#terminal-525464712-line-20)">▊</text><text class="terminal-525464712-r16" x="732" y="508" textLength="695.4" clip-path="url(#terminal-525464712-line-20)">▔▔▔▔▔▔▔▔▔▔▔▔▔▔▔▔▔▔▔▔▔▔▔▔▔▔▔▔▔▔▔▔▔▔▔▔▔▔▔▔▔▔▔▔▔▔▔▔▔▔▔▔▔▔▔▔▔</text><text class="terminal-525464712-r16" x="1427.4" y="508" textLength="12.2" clip-path="url(#terminal-525464712-line-20)">▎</text><text class="terminal-525464712-r1" x="1464" y="508" textLength="12.2" clip-path="url(#terminal-525464712-line-20)">
</text><text class="terminal-525464712-r10" x="0" y="532.4" textLength="12.2" clip-path="url(#terminal-525464712-line-21)">▊</text><text class="terminal-525464712-r15" x="24.4" y="532.4" textLength="231.8" clip-path="url(#terminal-525464712-line-21)">&#160;&#160;No&#160;image&#160;selected</text><text class="terminal-525464712-r16" x="707.6" y="532.4" textLength="12.2" clip-path="url(#terminal-525464712-line-21)">▎</text><text class="terminal-525464712-r10" x="719.8" y="532.4" textLength="12.2" clip-path="url(#terminal-525464712-line-21)">▊</text><text class="terminal-525464712-r15" x="744.2" y="532.4" textLength="231.8" clip-path="url(#terminal-525464712-line-21)">&#160;&#160;No&#160;image&#160;selected</text><text class="terminal-525464712-r16" x="1427.4" y="532.4" textLength="12.2" clip-path="url(#terminal-525464712-line-21)">▎</text><text class="terminal-525464712-r1" x="1464" y="532.4" textLength="12.2" clip-path="url(#terminal-525464712-line-21)">
</text><text class="terminal-525464712-r10" x="0" y="556.8" textLength="12.2" clip-path="url(#terminal-525464712-line-22)">▊</text><text class="terminal-525464712-r16" x="707.6" y="556.8" textLength="12.2" clip-path="url(#terminal-525464712-line-22)">▎</text><text class="terminal-525464712-r10" x="719.8" y="556.8" textLength="12.2" clip-path="url(#terminal-525464712-line-22)">▊</text><text class="terminal-525464712-r16" x="1427.4" y="556.8" textLength="12.2" clip-path="url(#terminal-525464712-line-22)">▎</text><text class="terminal-525464712-r1" x="1464" y="556.8" textLength="12.2" clip-path="url(#terminal-525464712-line-22)">
</text><text class="terminal-525464712-r10" x="0" y="581.2" textLength="12.2" clip-path="url(#terminal-525464712-line-23)">▊</text><text class="terminal-525464712-r16" x="707.6" y="581.2" textLength="12.2" clip-path="url(#terminal-525464712-line-23)">▎</text><text class="terminal-525464712-r10" x="719.8" y="581.2" textLength="12.2" clip-path="url(#terminal-525464712-line-23)">▊</text><text class="terminal-525464712-r16" x="1427.4" y="581.2" textLength="12.2" clip-path="url(#terminal-525464712-line-23)">▎</text><text class="terminal-525464712-r1" x="1464" y="581.2" textLength="12.2" clip-path="url(#terminal-525464712-line-23)">
</text><text class="terminal-525464712-r10" x="0" y="605.6" textLength="12.2" clip-path="url(#terminal-525464712-line-24)">▊</text><text class="terminal-525464712-r16" x="707.6" y="605.6" textLength="12.2" clip-path="url(#terminal-525464712-line-24)">▎</text><text class="terminal-525464712-r10" x="719.8" y="605.6" textLength="12.2" clip-path="url(#terminal-525464712-line-24)">▊</text><text class="terminal-525464712-r16" x="1427.4" y="605.6" textLength="12.2" clip-path="url(#terminal-525464712-line-24)">▎</text><text class="terminal-525464712-r1" x="1464" y="605.6" textLength="12.2" clip-path="url(#terminal-525464712-line-24)">
</text><text class="terminal-525464712-r10" x="0" y="630" textLength="12.2" clip-path="url(#terminal-525464712-line-25)">▊</text><text class="terminal-525464712-r16" x="707.6" y="630" textLength="12.2" clip-path="url(#terminal-525464712-line-25)">▎</text><text class="terminal-525464712-r10" x="719.8" y="630" textLength="12.2" clip-path="url(#terminal-525464712-line-25)">▊</text><text class="terminal-525464712-r16" x="1427.4" y="630" textLength="12.2" clip-path="url(#terminal-525464712-line-25)">▎</text><text class="terminal-525464712-r1" x="1464" y="630" textLength="12.2" clip-path="url(#terminal-525464712-line-25)">
</text><text class="terminal-525464712-r10" x="0" y="654.4" textLength="12.2" clip-path="url(#terminal-525464712-line-26)">▊</text><text class="terminal-525464712-r16" x="707.6" y="654.4" textLength="12.2" clip-path="url(#terminal-525464712-line-26)">▎</text><text class="terminal-525464712-r10" x="719.8" y="654.4" textLength="12.2" clip-path="url(#terminal-525464712-line-26)">▊</text><text class="terminal-525464712-r16" x="1427.4" y="654.4" textLength="12.2" clip-path="url(#terminal-525464712-line-26)">▎</text><text class="terminal-525464712-r1" x="1464" y="654.4" textLength="12.2" clip-path="url(#terminal-525464712-line-26)">
</text><text class="terminal-525464712-r10" x="0" y="678.8" textLength="12.2" clip-path="url(#terminal-525464712-line-27)">▊</text><text class="terminal-525464712-r16" x="12.2" y="678.8" textLength="695.4" clip-path="url(#terminal-525464712-line-27)">▁▁▁▁▁▁▁▁▁▁▁▁▁▁▁▁▁▁▁▁▁▁▁▁▁▁▁▁▁▁▁▁▁▁▁▁▁▁▁▁▁▁▁▁▁▁▁▁▁▁▁▁▁▁▁▁▁</text><text class="terminal-525464712-r16" x="707.6" y="678.8" textLength="12.2" clip-path="url(#terminal-525464712-line-27)">▎</text><text class="terminal-525464712-r10" x="719.8" y="678.8" textLength="12.2" clip-path="url(#terminal-525464712-line-27)">▊</text><text class="terminal-525464712-r16" x="732" y="678.8" textLength="695.4" clip-path="url(#terminal-525464712-line-27)">▁▁▁▁▁▁▁▁▁▁▁▁▁▁▁▁▁▁▁▁▁▁▁▁▁▁▁▁▁▁▁▁▁▁▁▁▁▁▁▁▁▁▁▁▁▁▁▁▁▁▁▁▁▁▁▁▁</text><text class="terminal-525464712-r16" x="1427.4" y="678.8" textLength="12.2" clip-path="url(#terminal-525464712-line-27)">▎</text><text class="terminal-525464712-r1" x="1464" y="678.8" textLength="12.2" clip-path="url(#terminal-525464712-line-27)">
</text><text class="terminal-525464712-r1" x="1464" y="703.2" textLength="12.2" clip-path="url(#terminal-525464712-line-28)">
</text><text class="terminal-525464712-r1" x="1464" y="727.6" textLength="12.2" clip-path="url(#terminal-525464712-line-29)">
</text><text class="terminal-525464712-r1" x="1464" y="752" textLength="12.2" clip-path="url(#terminal-525464712-line-30)">
</text><text class="terminal-525464712-r1" x="1464" y="776.4" textLength="12.2" clip-path="url(#terminal-525464712-line-31)">
</text><text class="terminal-525464712-r1" x="1464" y="800.8" textLength="12.2" clip-path="url(#terminal-525464712-line-32)">
</text><text class="terminal-525464712-r17" x="36.6" y="825.2" textLength="219.6" clip-path="url(#terminal-525464712-line-33)">&#160;Next:&#160;Tag&#160;Photos&#160;</text><text class="terminal-525464712-r18" x="292.8" y="825.2" textLength="158.6" clip-path="url(#terminal-525464712-line-33)">&#160;Open&#160;Folder&#160;</text><text class="terminal-525464712-r1" x="1464" y="825.2" textLength="12.2" clip-path="url(#terminal-525464712-line-33)">
</text><text class="terminal-525464712-r1" x="1464" y="849.6" textLength="12.2" clip-path="url(#terminal-525464712-line-34)">
</text><text class="terminal-525464712-r19" x="0" y="874" textLength="61" clip-path="url(#terminal-525464712-line-35)">&#160;esc&#160;</text><text class="terminal-525464712-r5" x="61" y="874" textLength="61" clip-path="url(#terminal-525464712-line-35)">Back&#160;</text><text class="terminal-525464712-r20" x="1317.6" y="874" textLength="12.2" clip-path="url(#terminal-525464712-line-35)">▏</text><text class="terminal-525464712-r19" x="1329.8" y="874" textLength="24.4" clip-path="url(#terminal-525464712-line-35)">^p</text><text class="terminal-525464712-r5" x="1354.2" y="874" textLength="97.6" clip-path="url(#terminal-525464712-line-35)">&#160;palette</text>
    </g>
    </g>
</svg>
