<svg class="rich-terminal" viewBox="0 0 1482 928.4" xmlns="http://www.w3.org/2000/svg">
    <!-- Generated with Rich https://www.textualize.io -->
    <style>

    @font-face {
        font-family: "Fira Code";
        src: local("FiraCode-Regular"),
                url("https://cdnjs.cloudflare.com/ajax/libs/firacode/6.2.0/woff2/FiraCode-Regular.woff2") format("woff2"),
                url("https://cdnjs.cloudflare.com/ajax/libs/firacode/6.2.0/woff/FiraCode-Regular.woff") format("woff");
        font-style: normal;
        font-weight: 400;
    }
    @font-face {
        font-family: "Fira Code";
        src: local("FiraCode-Bold"),
                url("https://cdnjs.cloudflare.com/ajax/libs/firacode/6.2.0/woff2/FiraCode-Bold.woff2") format("woff2"),
                url("https://cdnjs.cloudflare.com/ajax/libs/firacode/6.2.0/woff/FiraCode-Bold.woff") format("woff");
        font-style: bold;
        font-weight: 700;
    }

    .terminal-1148695502-matrix {
        font-family: Fira Code, monospace;
        font-size: 20px;
        line-height: 24.4px;
        font-variant-east-asian: full-width;
    }

    .terminal-1148695502-title {
        font-size: 18px;
        font-weight: bold;
        font-family: arial;
    }

    .terminal-1148695502-r1 { fill: #c5c8c6 }
.terminal-1148695502-r2 { fill: #ffaa00;font-weight: bold }
.terminal-1148695502-r3 { fill: #33ff33;font-weight: bold }
.terminal-1148695502-r4 { fill: #2ab12a;font-weight: bold }
.terminal-1148695502-r5 { fill: #e0e0e0 }
.terminal-1148695502-r6 { fill: #979797 }
.terminal-1148695502-r7 { fill: #e0e0e0;font-weight: bold }
.terminal-1148695502-r8 { fill: #121212 }
.terminal-1148695502-r9 { fill: #0a180e;font-weight: bold }
.terminal-1148695502-r10 { fill: #ffaa00 }
.terminal-1148695502-r11 { fill: #33ff33 }
.terminal-1148695502-r12 { fill: #98e024 }
.terminal-1148695502-r13 { fill: #fd971f }
.terminal-1148695502-r14 { fill: #f4005f }
.terminal-1148695502-r15 { fill: #717171 }
.terminal-1148695502-r16 { fill: #211505;font-weight: bold }
.terminal-1148695502-r17 { fill: #f5e5e9;font-weight: bold }
.terminal-1148695502-r18 { fill: #ff0000 }
.terminal-1148695502-r19 { fill: #ffff00 }
.terminal-1148695502-r20 { fill: #ffa62b;font-weight: bold }
.terminal-1148695502-r21 { fill: #495259 }
    </style>

    <defs>
    <clipPath id="terminal-1148695502-clip-terminal">
      <rect x="0" y="0" width="1463.0" height="877.4" />
    </clipPath>
    <clipPath id="terminal-1148695502-line-0">
    <rect x="0" y="1.5" width="1464" height="24.65"/>
            </clipPath>
<clipPath id="terminal-1148695502-line-1">
    <rect x="0" y="25.9" width="1464" height="24.65"/>
            </clipPath>
<clipPath id="terminal-1148695502-line-2">
    <rect x="0" y="50.3" width="1464" height="24.65"/>
            </clipPath>
<clipPath id="terminal-1148695502-line-3">
    <rect x="0" y="74.7" width="1464" height="24.65"/>
            </clipPath>
<clipPath id="terminal-1148695502-line-4">
    <rect x="0" y="99.1" width="1464" height="24.65"/>
            </clipPath>
<clipPath id="terminal-1148695502-line-5">
    <rect x="0" y="123.5" width="1464" height="24.65"/>
            </clipPath>
<clipPath id="terminal-1148695502-line-6">
    <rect x="0" y="147.9" width="1464" height="24.65"/>
            </clipPath>
<clipPath id="terminal-1148695502-line-7">
    <rect x="0" y="172.3" width="1464" height="24.65"/>
            </clipPath>
<clipPath id="terminal-1148695502-line-8">
    <rect x="0" y="196.7" width="1464" height="24.65"/>
            </clipPath>
<clipPath id="terminal-1148695502-line-9">
    <rect x="0" y="221.1" width="1464" height="24.65"/>
            </clipPath>
<clipPath id="terminal-1148695502-line-10">
    <rect x="0" y="245.5" width="1464" height="24.65"/>
            </clipPath>
<clipPath id="terminal-1148695502-line-11">
    <rect x="0" y="269.9" width="1464" height="24.65"/>
            </clipPath>
<clipPath id="terminal-1148695502-line-12">
    <rect x="0" y="294.3" width="1464" height="24.65"/>
            </clipPath>
<clipPath id="terminal-1148695502-line-13">
    <rect x="0" y="318.7" width="1464" height="24.65"/>
            </clipPath>
<clipPath id="terminal-1148695502-line-14">
    <rect x="0" y="343.1" width="1464" height="24.65"/>
            </clipPath>
<clipPath id="terminal-1148695502-line-15">
    <rect x="0" y="367.5" width="1464" height="24.65"/>
            </clipPath>
<clipPath id="terminal-1148695502-line-16">
    <rect x="0" y="391.9" width="1464" height="24.65"/>
            </clipPath>
<clipPath id="terminal-1148695502-line-17">
    <rect x="0" y="416.3" width="1464" height="24.65"/>
            </clipPath>
<clipPath id="terminal-1148695502-line-18">
    <rect x="0" y="440.7" width="1464" height="24.65"/>
            </clipPath>
<clipPath id="terminal-1148695502-line-19">
    <rect x="0" y="465.1" width="1464" height="24.65"/>
            </clipPath>
<clipPath id="terminal-1148695502-line-20">
    <rect x="0" y="489.5" width="1464" height="24.65"/>
            </clipPath>
<clipPath id="terminal-1148695502-line-21">
    <rect x="0" y="513.9" width="1464" height="24.65"/>
            </clipPath>
<clipPath id="terminal-1148695502-line-22">
    <rect x="0" y="538.3" width="1464" height="24.65"/>
            </clipPath>
<clipPath id="terminal-1148695502-line-23">
    <rect x="0" y="562.7" width="1464" height="24.65"/>
            </clipPath>
<clipPath id="terminal-1148695502-line-24">
    <rect x="0" y="587.1" width="1464" height="24.65"/>
            </clipPath>
<clipPath id="terminal-1148695502-line-25">
    <rect x="0" y="611.5" width="1464" height="24.65"/>
            </clipPath>
<clipPath id="terminal-1148695502-line-26">
    <rect x="0" y="635.9" width="1464" height="24.65"/>
            </clipPath>
<clipPath id="terminal-1148695502-line-27">
    <rect x="0" y="660.3" width="1464" height="24.65"/>
            </clipPath>
<clipPath id="terminal-1148695502-line-28">
    <rect x="0" y="684.7" width="1464" height="24.65"/>
            </clipPath>
<clipPath id="terminal-1148695502-line-29">
    <rect x="0" y="709.1" width="1464" height="24.65"/>
            </clipPath>
<clipPath id="terminal-1148695502-line-30">
    <rect x="0" y="733.5" width="1464" height="24.65"/>
            </clipPath>
<clipPath id="terminal-1148695502-line-31">
    <rect x="0" y="757.9" width="1464" height="24.65"/>
            </clipPath>
<clipPath id="terminal-1148695502-line-32">
    <rect x="0" y="782.3" width="1464" height="24.65"/>
            </clipPath>
<clipPath id="terminal-1148695502-line-33">
    <rect x="0" y="806.7" width="1464" height="24.65"/>
            </clipPath>
<clipPath id="terminal-1148695502-line-34">
    <rect x="0" y="831.1" width="1464" height="24.65"/>
            </clipPath>
    </defs>

    <rect fill="#292929" stroke="rgba(255,255,255,0.35)" stroke-width="1" x="1" y="1" width="1480" height="926.4" rx="8"/><text class="terminal-1148695502-title" fill="#c5c8c6" text-anchor="middle" x="740" y="27">mavica-tools</text>
            <g transform="translate(26,22)">
            <circle cx="0" cy="0" r="7" fill="#ff5f57"/>
            <circle cx="22" cy="0" r="7" fill="#febc2e"/>
            <circle cx="44" cy="0" r="7" fill="#28c840"/>
            </g>
        
    <g transform="translate(9, 41)" clip-path="url(#terminal-1148695502-clip-terminal)">
    <rect fill="#1a1a1a" x="0" y="1.5" width="12.2" height="24.65" shape-rendering="crispEdges"/><rect fill="#1a1a1a" x="12.2" y="1.5" width="85.4" height="24.65" shape-rendering="crispEdges"/><rect fill="#1a1a1a" x="97.6" y="1.5" width="183" height="24.65" shape-rendering="crispEdges"/><rect fill="#1a1a1a" x="280.6" y="1.5" width="24.4" height="24.65" shape-rendering="crispEdges"/><rect fill="#1a1a1a" x="305" y="1.5" width="451.4" height="24.65" shape-rendering="crispEdges"/><rect fill="#1a1a1a" x="756.4" y="1.5" width="585.6" height="24.65" shape-rendering="crispEdges"/><rect fill="#1a1a1a" x="1342" y="1.5" width="109.8" height="24.65" shape-rendering="crispEdges"/><rect fill="#1a1a1a" x="1451.8" y="1.5" width="12.2" height="24.65" shape-rendering="crispEdges"/><rect fill="#0a0a0a" x="0" y="25.9" width="1464" height="24.65" shape-rendering="crispEdges"/><rect fill="#0a0a0a" x="0" y="50.3" width="24.4" height="24.65" shape-rendering="crispEdges"/><rect fill="#0a0a0a" x="24.4" y="50.3" width="585.6" height="24.65" shape-rendering="crispEdges"/><rect fill="#0a0a0a" x="610" y="50.3" width="854" height="24.65" shape-rendering="crispEdges"/><rect fill="#0a0a0a" x="0" y="74.7" width="0" height="24.65" shape-rendering="crispEdges"/><rect fill="#0a0a0a" x="0" y="74.7" width="1464" height="24.65" shape-rendering="crispEdges"/><rect fill="#0a0a0a" x="0" y="99.1" width="24.4" height="24.65" shape-rendering="crispEdges"/><rect fill="#0a0a0a" x="24.4" y="99.1" width="85.4" height="24.65" shape-rendering="crispEdges"/><rect fill="#0a0a0a" x="109.8" y="99.1" width="1354.2" height="24.65" shape-rendering="crispEdges"/><rect fill="#0a0a0a" x="0" y="123.5" width="12.2" height="24.65" shape-rendering="crispEdges"/><rect fill="#143314" x="12.2" y="123.5" width="183" height="24.65" shape-rendering="crispEdges"/><rect fill="#e0e0e0" x="195.2" y="123.5" width="12.2" height="24.65" shape-rendering="crispEdges"/><rect fill="#143314" x="207.4" y="123.5" width="1232.2" height="24.65" shape-rendering="crispEdges"/><rect fill="#0a0a0a" x="1439.6" y="123.5" width="12.2" height="24.65" shape-rendering="crispEdges"/><rect fill="#0a0a0a" x="1451.8" y="123.5" width="12.2" height="24.65" shape-rendering="crispEdges"/><rect fill="#0a0a0a" x="0" y="147.9" width="1464" height="24.65" shape-rendering="crispEdges"/><rect fill="#0a0a0a" x="0" y="172.3" width="24.4" height="24.65" shape-rendering="crispEdges"/><rect fill="#0a0a0a" x="24.4" y="172.3" width="61" height="24.65" shape-rendering="crispEdges"/><rect fill="#0a0a0a" x="85.4" y="172.3" width="1378.6" height="24.65" shape-rendering="crispEdges"/><rect fill="#0a0a0a" x="0" y="196.7" width="12.2" height="24.65" shape-rendering="crispEdges"/><rect fill="#1a1a1a" x="12.2" y="196.7" width="402.6" height="24.65" shape-rendering="crispEdges"/><rect fill="#1a1a1a" x="414.8" y="196.7" width="1024.8" height="24.65" shape-rendering="crispEdges"/><rect fill="#0a0a0a" x="1439.6" y="196.7" width="12.2" height="24.65" shape-rendering="crispEdges"/><rect fill="#0a0a0a" x="1451.8" y="196.7" width="12.2" height="24.65" shape-rendering="crispEdges"/><rect fill="#0a0a0a" x="0" y="221.1" width="1464" height="24.65" shape-rendering="crispEdges"/><rect fill="#0a0a0a" x="0" y="245.5" width="12.2" height="24.65" shape-rendering="crispEdges"/><rect fill="#0a0a0a" x="12.2" y="245.5" width="12.2" height="24.65" shape-rendering="crispEdges"/><rect fill="#4ebf71" x="24.4" y="245.5" width="12.2" height="24.65" shape-rendering="crispEdges"/><rect fill="#4ebf71" x="36.6" y="245.5" width="207.4" height="24.65" shape-rendering="crispEdges"/><rect fill="#4ebf71" x="244" y="245.5" width="12.2" height="24.65" shape-rendering="crispEdges"/><rect fill="#0a0a0a" x="256.2" y="245.5" width="12.2" height="24.65" shape-rendering="crispEdges"/><rect fill="#1e1e1e" x="268.4" y="245.5" width="12.2" height="24.65" shape-rendering="crispEdges"/><rect fill="#1e1e1e" x="280.6" y="245.5" width="146.4" height="24.65" shape-rendering="crispEdges"/><rect fill="#1e1e1e" x="427" y="245.5" width="12.2" height="24.65" shape-rendering="crispEdges"/><rect fill="#0a0a0a" x="439.2" y="245.5" width="1012.6" height="24.65" shape-rendering="crispEdges"/><rect fill="#0a0a0a" x="1451.8" y="245.5" width="12.2" height="24.65" shape-rendering="crispEdges"/><rect fill="#0a0a0a" x="0" y="269.9" width="1464" height="24.65" shape-rendering="crispEdges"/><rect fill="#1a1a1a" x="0" y="294.3" width="73.2" height="24.65" shape-rendering="crispEdges"/><rect fill="#1a1a1a" x="73.2" y="294.3" width="170.8" height="24.65" shape-rendering="crispEdges"/><rect fill="#1a1a1a" x="244" y="294.3" width="122" height="24.65" shape-rendering="crispEdges"/><rect fill="#1a1a1a" x="366" y="294.3" width="134.2" height="24.65" shape-rendering="crispEdges"/><rect fill="#1b1b1b" x="500.2" y="294.3" width="963.8" height="24.65" shape-rendering="crispEdges"/><rect fill="#1a3a1a" x="0" y="318.7" width="12.2" height="24.65" shape-rendering="crispEdges"/><rect fill="#1a3a1a" x="12.2" y="318.7" width="36.6" height="24.65" shape-rendering="crispEdges"/><rect fill="#1a3a1a" x="48.8" y="318.7" width="24.4" height="24.65" shape-rendering="crispEdges"/><rect fill="#1e1e1e" x="73.2" y="318.7" width="12.2" height="24.65" shape-rendering="crispEdges"/><rect fill="#1e1e1e" x="85.4" y="318.7" width="24.4" height="24.65" shape-rendering="crispEdges"/><rect fill="#1e1e1e" x="109.8" y="318.7" width="134.2" height="24.65" shape-rendering="crispEdges"/><rect fill="#1e1e1e" x="244" y="318.7" width="12.2" height="24.65" shape-rendering="crispEdges"/><rect fill="#1e1e1e" x="256.2" y="318.7" width="24.4" height="24.65" shape-rendering="crispEdges"/><rect fill="#1e1e1e" x="280.6" y="318.7" width="85.4" height="24.65" shape-rendering="crispEdges"/><rect fill="#1e1e1e" x="366" y="318.7" width="12.2" height="24.65" shape-rendering="crispEdges"/><rect fill="#1e1e1e" x="378.2" y="318.7" width="85.4" height="24.65" shape-rendering="crispEdges"/><rect fill="#1e1e1e" x="463.6" y="318.7" width="36.6" height="24.65" shape-rendering="crispEdges"/><rect fill="#1e1e1e" x="500.2" y="318.7" width="963.8" height="24.65" shape-rendering="crispEdges"/><rect fill="#1e1e1e" x="0" y="343.1" width="12.2" height="24.65" shape-rendering="crispEdges"/><rect fill="#1e1e1e" x="12.2" y="343.1" width="48.8" height="24.65" shape-rendering="crispEdges"/><rect fill="#1e1e1e" x="61" y="343.1" width="12.2" height="24.65" shape-rendering="crispEdges"/><rect fill="#1e1e1e" x="73.2" y="343.1" width="12.2" height="24.65" shape-rendering="crispEdges"/><rect fill="#1e1e1e" x="85.4" y="343.1" width="24.4" height="24.65" shape-rendering="crispEdges"/><rect fill="#1e1e1e" x="109.8" y="343.1" width="134.2" height="24.65" shape-rendering="crispEdges"/><rect fill="#1e1e1e" x="244" y="343.1" width="12.2" height="24.65" shape-rendering="crispEdges"/><rect fill="#1e1e1e" x="256.2" y="343.1" width="48.8" height="24.65" shape-rendering="crispEdges"/><rect fill="#1e1e1e" x="305" y="343.1" width="61" height="24.65" shape-rendering="crispEdges"/><rect fill="#1e1e1e" x="366" y="343.1" width="12.2" height="24.65" shape-rendering="crispEdges"/><rect fill="#1e1e1e" x="378.2" y="343.1" width="24.4" height="24.65" shape-rendering="crispEdges"/><rect fill="#1e1e1e" x="402.6" y="343.1" width="97.6" height="24.65" shape-rendering="crispEdges"/><rect fill="#1e1e1e" x="500.2" y="343.1" width="963.8" height="24.65" shape-rendering="crispEdges"/><rect fill="#1e1e1e" x="0" y="367.5" width="12.2" height="24.65" shape-rendering="crispEdges"/><rect fill="#1e1e1e" x="12.2" y="367.5" width="48.8" height="24.65" shape-rendering="crispEdges"/><rect fill="#1e1e1e" x="61" y="367.5" width="12.2" height="24.65" shape-rendering="crispEdges"/><rect fill="#1e1e1e" x="73.2" y="367.5" width="12.2" height="24.65" shape-rendering="crispEdges"/><rect fill="#1e1e1e" x="85.4" y="367.5" width="85.4" height="24.65" shape-rendering="crispEdges"/><rect fill="#1e1e1e" x="170.8" y="367.5" width="73.2" height="24.65" shape-rendering="crispEdges"/><rect fill="#1e1e1e" x="244" y="367.5" width="12.2" height="24.65" shape-rendering="crispEdges"/><rect fill="#1e1e1e" x="256.2" y="367.5" width="24.4" height="24.65" shape-rendering="crispEdges"/><rect fill="#1e1e1e" x="280.6" y="367.5" width="85.4" height="24.65" shape-rendering="crispEdges"/><rect fill="#1e1e1e" x="366" y="367.5" width="134.2" height="24.65" shape-rendering="crispEdges"/><rect fill="#1e1e1e" x="500.2" y="367.5" width="963.8" height="24.65" shape-rendering="crispEdges"/><rect fill="#0a0a0a" x="0" y="391.9" width="1464" height="24.65" shape-rendering="crispEdges"/><rect fill="#0a0a0a" x="0" y="416.3" width="0" height="24.65" shape-rendering="crispEdges"/><rect fill="#0a0a0a" x="0" y="416.3" width="1464" height="24.65" shape-rendering="crispEdges"/><rect fill="#0a0a0a" x="0" y="440.7" width="24.4" height="24.65" shape-rendering="crispEdges"/><rect fill="#0a0a0a" x="24.4" y="440.7" width="158.6" height="24.65" shape-rendering="crispEdges"/><rect fill="#0a0a0a" x="183" y="440.7" width="1281" height="24.65" shape-rendering="crispEdges"/><rect fill="#0a0a0a" x="0" y="465.1" width="12.2" height="24.65" shape-rendering="crispEdges"/><rect fill="#1a1a1a" x="12.2" y="465.1" width="134.2" height="24.65" shape-rendering="crispEdges"/><rect fill="#1a1a1a" x="146.4" y="465.1" width="573.4" height="24.65" shape-rendering="crispEdges"/><rect fill="#0a0a0a" x="719.8" y="465.1" width="12.2" height="24.65" shape-rendering="crispEdges"/><rect fill="#1a1a1a" x="732" y="465.1" width="122" height="24.65" shape-rendering="crispEdges"/><rect fill="#1a1a1a" x="854" y="465.1" width="585.6" height="24.65" shape-rendering="crispEdges"/><rect fill="#0a0a0a" x="1439.6" y="465.1" width="12.2" height="24.65" shape-rendering="crispEdges"/><rect fill="#0a0a0a" x="1451.8" y="465.1" width="12.2" height="24.65" shape-rendering="crispEdges"/><rect fill="#0a0a0a" x="0" y="489.5" width="1464" height="24.65" shape-rendering="crispEdges"/><rect fill="#0a0a0a" x="0" y="513.9" width="24.4" height="24.65" shape-rendering="crispEdges"/><rect fill="#0a0a0a" x="24.4" y="513.9" width="988.2" height="24.65" shape-rendering="crispEdges"/><rect fill="#0a0a0a" x="1012.6" y="513.9" width="451.4" height="24.65" shape-rendering="crispEdges"/><rect fill="#0a0a0a" x="0" y="538.3" width="12.2" height="24.65" shape-rendering="crispEdges"/><rect fill="#0a0a0a" x="12.2" y="538.3" width="12.2" height="24.65" shape-rendering="crispEdges"/><rect fill="#4ebf71" x="24.4" y="538.3" width="12.2" height="24.65" shape-rendering="crispEdges"/><rect fill="#4ebf71" x="36.6" y="538.3" width="24.4" height="24.65" shape-rendering="crispEdges"/><rect fill="#4ebf71" x="61" y="538.3" width="48.8" height="24.65" shape-rendering="crispEdges"/><rect fill="#4ebf71" x="109.8" y="538.3" width="24.4" height="24.65" shape-rendering="crispEdges"/><rect fill="#4ebf71" x="134.2" y="538.3" width="12.2" height="24.65" shape-rendering="crispEdges"/><rect fill="#0a0a0a" x="146.4" y="538.3" width="12.2" height="24.65" shape-rendering="crispEdges"/><rect fill="#fea62b" x="158.6" y="538.3" width="12.2" height="24.65" shape-rendering="crispEdges"/><rect fill="#fea62b" x="170.8" y="538.3" width="109.8" height="24.65" shape-rendering="crispEdges"/><rect fill="#fea62b" x="280.6" y="538.3" width="12.2" height="24.65" shape-rendering="crispEdges"/><rect fill="#0a0a0a" x="292.8" y="538.3" width="12.2" height="24.65" shape-rendering="crispEdges"/><rect fill="#b93c5b" x="305" y="538.3" width="12.2" height="24.65" shape-rendering="crispEdges"/><rect fill="#b93c5b" x="317.2" y="538.3" width="12.2" height="24.65" shape-rendering="crispEdges"/><rect fill="#b93c5b" x="329.4" y="538.3" width="73.2" height="24.65" shape-rendering="crispEdges"/><rect fill="#b93c5b" x="402.6" y="538.3" width="12.2" height="24.65" shape-rendering="crispEdges"/><rect fill="#b93c5b" x="414.8" y="538.3" width="12.2" height="24.65" shape-rendering="crispEdges"/><rect fill="#0a0a0a" x="427" y="538.3" width="1024.8" height="24.65" shape-rendering="crispEdges"/><rect fill="#0a0a0a" x="1451.8" y="538.3" width="12.2" height="24.65" shape-rendering="crispEdges"/><rect fill="#0a0a0a" x="0" y="562.7" width="1464" height="24.65" shape-rendering="crispEdges"/><rect fill="#0a0a0a" x="0" y="587.1" width="109.8" height="24.65" shape-rendering="crispEdges"/><rect fill="#0a0a0a" x="109.8" y="587.1" width="207.4" height="24.65" shape-rendering="crispEdges"/><rect fill="#0a0a0a" x="317.2" y="587.1" width="1146.8" height="24.65" shape-rendering="crispEdges"/><rect fill="#0a0a0a" x="0" y="611.5" width="24.4" height="24.65" shape-rendering="crispEdges"/><rect fill="#0a0a0a" x="24.4" y="611.5" width="183" height="24.65" shape-rendering="crispEdges"/><rect fill="#0a0a0a" x="207.4" y="611.5" width="695.4" height="24.65" shape-rendering="crispEdges"/><rect fill="#0a0a0a" x="902.8" y="611.5" width="561.2" height="24.65" shape-rendering="crispEdges"/><rect fill="#0a0a0a" x="0" y="635.9" width="24.4" height="24.65" shape-rendering="crispEdges"/><rect fill="#0a0a0a" x="24.4" y="635.9" width="183" height="24.65" shape-rendering="crispEdges"/><rect fill="#0a0a0a" x="207.4" y="635.9" width="439.2" height="24.65" shape-rendering="crispEdges"/><rect fill="#0a0a0a" x="646.6" y="635.9" width="817.4" height="24.65" shape-rendering="crispEdges"/><rect fill="#0a0a0a" x="0" y="660.3" width="414.8" height="24.65" shape-rendering="crispEdges"/><rect fill="#0a0a0a" x="414.8" y="660.3" width="1024.8" height="24.65" shape-rendering="crispEdges"/><rect fill="#000000" x="1439.6" y="660.3" width="24.4" height="24.65" shape-rendering="crispEdges"/><rect fill="#0a0a0a" x="0" y="684.7" width="1464" height="24.65" shape-rendering="crispEdges"/><rect fill="#0a0a0a" x="0" y="709.1" width="1464" height="24.65" shape-rendering="crispEdges"/><rect fill="#0a0a0a" x="0" y="733.5" width="1464" height="24.65" shape-rendering="crispEdges"/><rect fill="#0a0a0a" x="0" y="757.9" width="1464" height="24.65" shape-rendering="crispEdges"/><rect fill="#0a0a0a" x="0" y="782.3" width="1464" height="24.65" shape-rendering="crispEdges"/><rect fill="#0a0a0a" x="0" y="806.7" width="1464" height="24.65" shape-rendering="crispEdges"/><rect fill="#0a0a0a" x="0" y="831.1" width="1464" height="24.65" shape-rendering="crispEdges"/><rect fill="#242f38" x="0" y="855.5" width="61" height="24.65" shape-rendering="crispEdges"/><rect fill="#242f38" x="61" y="855.5" width="61" height="24.65" shape-rendering="crispEdges"/><rect fill="#242f38" x="122" y="855.5" width="1195.6" height="24.65" shape-rendering="crispEdges"/><rect fill="#242f38" x="1317.6" y="855.5" width="12.2" height="24.65" shape-rendering="crispEdges"/><rect fill="#242f38" x="1329.8" y="855.5" width="24.4" height="24.65" shape-rendering="crispEdges"/><rect fill="#242f38" x="1354.2" y="855.5" width="97.6" height="24.65" shape-rendering="crispEdges"/><rect fill="#242f38" x="1451.8" y="855.5" width="12.2" height="24.65" shape-rendering="crispEdges"/>
    <g class="terminal-1148695502-matrix">
    <text class="terminal-1148695502-r2" x="12.2" y="20" textLength="85.4" clip-path="url(#terminal-1148695502-line-0)">Cross-C</text><text class="terminal-1148695502-r2" x="97.6" y="20" textLength="183" clip-path="url(#terminal-1148695502-line-0)">amera&#160;Swap&#160;Test</text><text class="terminal-1148695502-r4" x="305" y="20" textLength="451.4" clip-path="url(#terminal-1148695502-line-0)">Isolate&#160;faulty&#160;camera,&#160;disk,&#160;or&#160;drive</text><text class="terminal-1148695502-r1" x="1464" y="20" textLength="12.2" clip-path="url(#terminal-1148695502-line-0)">
</text><text class="terminal-1148695502-r1" x="1464" y="44.4" textLength="12.2" clip-path="url(#terminal-1148695502-line-1)">
</text><text class="terminal-1148695502-r6" x="24.4" y="68.8" textLength="585.6" clip-path="url(#terminal-1148695502-line-2)">Test&#160;each&#160;camera+disk&#160;combo&#160;to&#160;find&#160;the&#160;culprit.</text><text class="terminal-1148695502-r1" x="1464" y="68.8" textLength="12.2" clip-path="url(#terminal-1148695502-line-2)">
</text><text class="terminal-1148695502-r1" x="1464" y="93.2" textLength="12.2" clip-path="url(#terminal-1148695502-line-3)">
</text><text class="terminal-1148695502-r7" x="24.4" y="117.6" textLength="85.4" clip-path="url(#terminal-1148695502-line-4)">Cameras</text><text class="terminal-1148695502-r1" x="1464" y="117.6" textLength="12.2" clip-path="url(#terminal-1148695502-line-4)">
</text><text class="terminal-1148695502-r5" x="12.2" y="142" textLength="183" clip-path="url(#terminal-1148695502-line-5)">FD7,&#160;FD73,&#160;FD88</text><text class="terminal-1148695502-r1" x="1464" y="142" textLength="12.2" clip-path="url(#terminal-1148695502-line-5)">
</text><text class="terminal-1148695502-r1" x="1464" y="166.4" textLength="12.2" clip-path="url(#terminal-1148695502-line-6)">
</text><text class="terminal-1148695502-r7" x="24.4" y="190.8" textLength="61" clip-path="url(#terminal-1148695502-line-7)">Disks</text><text class="terminal-1148695502-r1" x="1464" y="190.8" textLength="12.2" clip-path="url(#terminal-1148695502-line-7)">
</text><text class="terminal-1148695502-r5" x="12.2" y="215.2" textLength="402.6" clip-path="url(#terminal-1148695502-line-8)">Maxell&#160;MF2HD,&#160;Sony&#160;2HD,&#160;TDK&#160;MF2HD</text><text class="terminal-1148695502-r1" x="1464" y="215.2" textLength="12.2" clip-path="url(#terminal-1148695502-line-8)">
</text><text class="terminal-1148695502-r1" x="1464" y="239.6" textLength="12.2" clip-path="url(#terminal-1148695502-line-9)">
</text><text class="terminal-1148695502-r9" x="36.6" y="264" textLength="207.4" clip-path="url(#terminal-1148695502-line-10)">&#160;Setup&#160;/&#160;Refresh&#160;</text><text class="terminal-1148695502-r7" x="280.6" y="264" textLength="146.4" clip-path="url(#terminal-1148695502-line-10)">&#160;Load&#160;Saved&#160;</text><text class="terminal-1148695502-r1" x="1464" y="264" textLength="12.2" clip-path="url(#terminal-1148695502-line-10)">
</text><text class="terminal-1148695502-r1" x="1464" y="288.4" textLength="12.2" clip-path="url(#terminal-1148695502-line-11)">
</text><text class="terminal-1148695502-r2" x="73.2" y="312.8" textLength="170.8" clip-path="url(#terminal-1148695502-line-12)">&#160;Maxell&#160;MF2HD&#160;</text><text class="terminal-1148695502-r2" x="244" y="312.8" textLength="122" clip-path="url(#terminal-1148695502-line-12)">&#160;Sony&#160;2HD&#160;</text><text class="terminal-1148695502-r2" x="366" y="312.8" textLength="134.2" clip-path="url(#terminal-1148695502-line-12)">&#160;TDK&#160;MF2HD&#160;</text><text class="terminal-1148695502-r1" x="1464" y="312.8" textLength="12.2" clip-path="url(#terminal-1148695502-line-12)">
</text><text class="terminal-1148695502-r3" x="12.2" y="337.2" textLength="36.6" clip-path="url(#terminal-1148695502-line-13)">FD7</text><text class="terminal-1148695502-r12" x="85.4" y="337.2" textLength="24.4" clip-path="url(#terminal-1148695502-line-13)">OK</text><text class="terminal-1148695502-r12" x="256.2" y="337.2" textLength="24.4" clip-path="url(#terminal-1148695502-line-13)">OK</text><text class="terminal-1148695502-r13" x="378.2" y="337.2" textLength="85.4" clip-path="url(#terminal-1148695502-line-13)">PARTIAL</text><text class="terminal-1148695502-r1" x="1464" y="337.2" textLength="12.2" clip-path="url(#terminal-1148695502-line-13)">
</text><text class="terminal-1148695502-r7" x="12.2" y="361.6" textLength="48.8" clip-path="url(#terminal-1148695502-line-14)">FD73</text><text class="terminal-1148695502-r12" x="85.4" y="361.6" textLength="24.4" clip-path="url(#terminal-1148695502-line-14)">OK</text><text class="terminal-1148695502-r14" x="256.2" y="361.6" textLength="48.8" clip-path="url(#terminal-1148695502-line-14)">FAIL</text><text class="terminal-1148695502-r12" x="378.2" y="361.6" textLength="24.4" clip-path="url(#terminal-1148695502-line-14)">OK</text><text class="terminal-1148695502-r1" x="1464" y="361.6" textLength="12.2" clip-path="url(#terminal-1148695502-line-14)">
</text><text class="terminal-1148695502-r7" x="12.2" y="386" textLength="48.8" clip-path="url(#terminal-1148695502-line-15)">FD88</text><text class="terminal-1148695502-r13" x="85.4" y="386" textLength="85.4" clip-path="url(#terminal-1148695502-line-15)">PARTIAL</text><text class="terminal-1148695502-r12" x="256.2" y="386" textLength="24.4" clip-path="url(#terminal-1148695502-line-15)">OK</text><text class="terminal-1148695502-r1" x="1464" y="386" textLength="12.2" clip-path="url(#terminal-1148695502-line-15)">
</text><text class="terminal-1148695502-r1" x="1464" y="410.4" textLength="12.2" clip-path="url(#terminal-1148695502-line-16)">
</text><text class="terminal-1148695502-r1" x="1464" y="434.8" textLength="12.2" clip-path="url(#terminal-1148695502-line-17)">
</text><text class="terminal-1148695502-r2" x="24.4" y="459.2" textLength="158.6" clip-path="url(#terminal-1148695502-line-18)">Log&#160;a&#160;result:</text><text class="terminal-1148695502-r1" x="1464" y="459.2" textLength="12.2" clip-path="url(#terminal-1148695502-line-18)">
</text><text class="terminal-1148695502-r15" x="12.2" y="483.6" textLength="134.2" clip-path="url(#terminal-1148695502-line-19)">Camera&#160;name</text><text class="terminal-1148695502-r15" x="732" y="483.6" textLength="122" clip-path="url(#terminal-1148695502-line-19)">Disk&#160;label</text><text class="terminal-1148695502-r1" x="1464" y="483.6" textLength="12.2" clip-path="url(#terminal-1148695502-line-19)">
</text><text class="terminal-1148695502-r1" x="1464" y="508" textLength="12.2" clip-path="url(#terminal-1148695502-line-20)">
</text><text class="terminal-1148695502-r6" x="24.4" y="532.4" textLength="988.2" clip-path="url(#terminal-1148695502-line-21)">OK&#160;=&#160;all&#160;photos&#160;transferred&#160;&#160;|&#160;&#160;Partial&#160;=&#160;some&#160;corrupt&#160;&#160;|&#160;&#160;Fail&#160;=&#160;can&#x27;t&#160;read&#160;disk</text><text class="terminal-1148695502-r1" x="1464" y="532.4" textLength="12.2" clip-path="url(#terminal-1148695502-line-21)">
</text><text class="terminal-1148695502-r9" x="61" y="556.8" textLength="48.8" clip-path="url(#terminal-1148695502-line-22)">&#160;OK&#160;</text><text class="terminal-1148695502-r16" x="170.8" y="556.8" textLength="109.8" clip-path="url(#terminal-1148695502-line-22)">&#160;Partial&#160;</text><text class="terminal-1148695502-r17" x="329.4" y="556.8" textLength="73.2" clip-path="url(#terminal-1148695502-line-22)">&#160;Fail&#160;</text><text class="terminal-1148695502-r1" x="1464" y="556.8" textLength="12.2" clip-path="url(#terminal-1148695502-line-22)">
</text><text class="terminal-1148695502-r1" x="1464" y="581.2" textLength="12.2" clip-path="url(#terminal-1148695502-line-23)">
</text><text class="terminal-1148695502-r7" x="0" y="605.6" textLength="109.8" clip-path="url(#terminal-1148695502-line-24)">Analysis:</text><text class="terminal-1148695502-r5" x="109.8" y="605.6" textLength="207.4" clip-path="url(#terminal-1148695502-line-24)">&#160;8/9&#160;tested&#160;(89%)</text><text class="terminal-1148695502-r1" x="1464" y="605.6" textLength="12.2" clip-path="url(#terminal-1148695502-line-24)">
</text><text class="terminal-1148695502-r18" x="24.4" y="630" textLength="183" clip-path="url(#terminal-1148695502-line-25)">Sony&#160;2HD&#160;+&#160;FD73</text><text class="terminal-1148695502-r5" x="207.4" y="630" textLength="695.4" clip-path="url(#terminal-1148695502-line-25)">:&#160;fails&#160;consistently&#160;→&#160;likely&#160;disk/camera&#160;incompatibility</text><text class="terminal-1148695502-r1" x="1464" y="630" textLength="12.2" clip-path="url(#terminal-1148695502-line-25)">
</text><text class="terminal-1148695502-r19" x="24.4" y="654.4" textLength="183" clip-path="url(#terminal-1148695502-line-26)">TDK&#160;MF2HD&#160;+&#160;FD7</text><text class="terminal-1148695502-r5" x="207.4" y="654.4" textLength="439.2" clip-path="url(#terminal-1148695502-line-26)">:&#160;partial&#160;reads&#160;→&#160;try&#160;cleaning&#160;heads</text><text class="terminal-1148695502-r1" x="1464" y="654.4" textLength="12.2" clip-path="url(#terminal-1148695502-line-26)">
</text><text class="terminal-1148695502-r5" x="0" y="678.8" textLength="414.8" clip-path="url(#terminal-1148695502-line-27)">Matrix&#160;loaded:&#160;3&#160;cameras&#160;×&#160;3&#160;disks</text><text class="terminal-1148695502-r1" x="1464" y="678.8" textLength="12.2" clip-path="url(#terminal-1148695502-line-27)">
</text><text class="terminal-1148695502-r1" x="1464" y="703.2" textLength="12.2" clip-path="url(#terminal-1148695502-line-28)">
</text><text class="terminal-1148695502-r1" x="1464" y="727.6" textLength="12.2" clip-path="url(#terminal-1148695502-line-29)">
</text><text class="terminal-1148695502-r1" x="1464" y="752" textLength="12.2" clip-path="url(#terminal-1148695502-line-30)">
</text><text class="terminal-1148695502-r1" x="1464" y="776.4" textLength="12.2" clip-path="url(#terminal-1148695502-line-31)">
</text><text class="terminal-1148695502-r1" x="1464" y="800.8" textLength="12.2" clip-path="url(#terminal-1148695502-line-32)">
</text><text class="terminal-1148695502-r1" x="1464" y="825.2" textLength="12.2" clip-path="url(#terminal-1148695502-line-33)">
</text><text class="terminal-1148695502-r1" x="1464" y="849.6" textLength="12.2" clip-path="url(#terminal-1148695502-line-34)">
</text><text class="terminal-1148695502-r20" x="0" y="874" textLength="61" clip-path="url(#terminal-1148695502-line-35)">&#160;esc&#160;</text><text class="terminal-1148695502-r5" x="61" y="874" textLength="61" clip-path="url(#terminal-1148695502-line-35)">Back&#160;</text><text class="terminal-1148695502-r21" x="1317.6" y="874" textLength="12.2" clip-path="url(#terminal-1148695502-line-35)">▏</text><text class="terminal-1148695502-r20" x="1329.8" y="874" textLength="24.4" clip-path="url(#terminal-1148695502-line-35)">^p</text><text class="terminal-1148695502-r5" x="1354.2" y="874" textLength="97.6" clip-path="url(#terminal-1148695502-line-35)">&#160;palette</text>
    </g>
    </g>
</svg>
