<svg class="rich-terminal" viewBox="0 0 1482 928.4" xmlns="http://www.w3.org/2000/svg">
    <!-- Generated with Rich https://www.textualize.io -->
    <style>

    @font-face {
        font-family: "Fira Code";
        src: local("FiraCode-Regular"),
                url("https://cdnjs.cloudflare.com/ajax/libs/firacode/6.2.0/woff2/FiraCode-Regular.woff2") format("woff2"),
                url("https://cdnjs.cloudflare.com/ajax/libs/firacode/6.2.0/woff/FiraCode-Regular.woff") format("woff");
        font-style: normal;
        font-weight: 400;
    }
    @font-face {
        font-family: "Fira Code";
        src: local("FiraCode-Bold"),
                url("https://cdnjs.cloudflare.com/ajax/libs/firacode/6.2.0/woff2/FiraCode-Bold.woff2") format("woff2"),
                url("https://cdnjs.cloudflare.com/ajax/libs/firacode/6.2.0/woff/FiraCode-Bold.woff") format("woff");
        font-style: bold;
        font-weight: 700;
    }

    .terminal-254558944-matrix {
        font-family: Fira Code, monospace;
        font-size: 20px;
        line-height: 24.4px;
        font-variant-east-asian: full-width;
    }

    .terminal-254558944-title {
        font-size: 18px;
        font-weight: bold;
        font-family: arial;
    }

    .terminal-254558944-r1 { fill: #c5c8c6 }
.terminal-254558944-r2 { fill: #ffaa00;font-weight: bold }
.terminal-254558944-r3 { fill: #33ff33;font-weight: bold }
.terminal-254558944-r4 { fill: #2ab12a;font-weight: bold }
.terminal-254558944-r5 { fill: #e0e0e0 }
.terminal-254558944-r6 { fill: #e0e0e0;font-weight: bold }
.terminal-254558944-r7 { fill: #272727;font-weight: bold }
.terminal-254558944-r8 { fill: #1a130a;font-weight: bold }
.terminal-254558944-r9 { fill: #3e3e3e;font-weight: bold }
.terminal-254558944-r10 { fill: #0c150f;font-weight: bold }
.terminal-254558944-r11 { fill: #ffa62b;font-weight: bold }
.terminal-254558944-r12 { fill: #495259 }
    </style>

    <defs>
    <clipPath id="terminal-254558944-clip-terminal">
      <rect x="0" y="0" width="1463.0" height="877.4" />
    </clipPath>
    <clipPath id="terminal-254558944-line-0">
    <rect x="0" y="1.5" width="1464" height="24.65"/>
            </clipPath>
<clipPath id="terminal-254558944-line-1">
    <rect x="0" y="25.9" width="1464" height="24.65"/>
            </clipPath>
<clipPath id="terminal-254558944-line-2">
    <rect x="0" y="50.3" width="1464" height="24.65"/>
            </clipPath>
<clipPath id="terminal-254558944-line-3">
    <rect x="0" y="74.7" width="1464" height="24.65"/>
            </clipPath>
<clipPath id="terminal-254558944-line-4">
    <rect x="0" y="99.1" width="1464" height="24.65"/>
            </clipPath>
<clipPath id="terminal-254558944-line-5">
    <rect x="0" y="123.5" width="1464" height="24.65"/>
            </clipPath>
<clipPath id="terminal-254558944-line-6">
    <rect x="0" y="147.9" width="1464" height="24.65"/>
            </clipPath>
<clipPath id="terminal-254558944-line-7">
    <rect x="0" y="172.3" width="1464" height="24.65"/>
            </clipPath>
<clipPath id="terminal-254558944-line-8">
    <rect x="0" y="196.7" width="1464" height="24.65"/>
            </clipPath>
<clipPath id="terminal-254558944-line-9">
    <rect x="0" y="221.1" width="1464" height="24.65"/>
            </clipPath>
<clipPath id="terminal-254558944-line-10">
    <rect x="0" y="245.5" width="1464" height="24.65"/>
            </clipPath>
<clipPath id="terminal-254558944-line-11">
    <rect x="0" y="269.9" width="1464" height="24.65"/>
            </clipPath>
<clipPath id="terminal-254558944-line-12">
    <rect x="0" y="294.3" width="1464" height="24.65"/>
            </clipPath>
<clipPath id="terminal-254558944-line-13">
    <rect x="0" y="318.7" width="1464" height="24.65"/>
            </clipPath>
<clipPath id="terminal-254558944-line-14">
    <rect x="0" y="343.1" width="1464" height="24.65"/>
            </clipPath>
<clipPath id="terminal-254558944-line-15">
    <rect x="0" y="367.5" width="1464" height="24.65"/>
            </clipPath>
<clipPath id="terminal-254558944-line-16">
    <rect x="0" y="391.9" width="1464" height="24.65"/>
            </clipPath>
<clipPath id="terminal-254558944-line-17">
    <rect x="0" y="416.3" width="1464" height="24.65"/>
            </clipPath>
<clipPath id="terminal-254558944-line-18">
    <rect x="0" y="440.7" width="1464" height="24.65"/>
            </clipPath>
<clipPath id="terminal-254558944-line-19">
    <rect x="0" y="465.1" width="1464" height="24.65"/>
            </clipPath>
<clipPath id="terminal-254558944-line-20">
    <rect x="0" y="489.5" width="1464" height="24.65"/>
            </clipPath>
<clipPath id="terminal-254558944-line-21">
    <rect x="0" y="513.9" width="1464" height="24.65"/>
            </clipPath>
<clipPath id="terminal-254558944-line-22">
    <rect x="0" y="538.3" width="1464" height="24.65"/>
            </clipPath>
<clipPath id="terminal-254558944-line-23">
    <rect x="0" y="562.7" width="1464" height="24.65"/>
            </clipPath>
<clipPath id="terminal-254558944-line-24">
    <rect x="0" y="587.1" width="1464" height="24.65"/>
            </clipPath>
<clipPath id="terminal-254558944-line-25">
    <rect x="0" y="611.5" width="1464" height="24.65"/>
            </clipPath>
<clipPath id="terminal-254558944-line-26">
    <rect x="0" y="635.9" width="1464" height="24.65"/>
            </clipPath>
<clipPath id="terminal-254558944-line-27">
    <rect x="0" y="660.3" width="1464" height="24.65"/>
            </clipPath>
<clipPath id="terminal-254558944-line-28">
    <rect x="0" y="684.7" width="1464" height="24.65"/>
            </clipPath>
<clipPath id="terminal-254558944-line-29">
    <rect x="0" y="709.1" width="1464" height="24.65"/>
            </clipPath>
<clipPath id="terminal-254558944-line-30">
    <rect x="0" y="733.5" width="1464" height="24.65"/>
            </clipPath>
<clipPath id="terminal-254558944-line-31">
    <rect x="0" y="757.9" width="1464" height="24.65"/>
            </clipPath>
<clipPath id="terminal-254558944-line-32">
    <rect x="0" y="782.3" width="1464" height="24.65"/>
            </clipPath>
<clipPath id="terminal-254558944-line-33">
    <rect x="0" y="806.7" width="1464" height="24.65"/>
            </clipPath>
<clipPath id="terminal-254558944-line-34">
    <rect x="0" y="831.1" width="1464" height="24.65"/>
            </clipPath>
    </defs>

    <rect fill="#292929" stroke="rgba(255,255,255,0.35)" stroke-width="1" x="1" y="1" width="1480" height="926.4" rx="8"/><text class="terminal-254558944-title" fill="#c5c8c6" text-anchor="middle" x="740" y="27">mavica-tools</text>
            <g transform="translate(26,22)">
            <circle cx="0" cy="0" r="7" fill="#ff5f57"/>
            <circle cx="22" cy="0" r="7" fill="#febc2e"/>
            <circle cx="44" cy="0" r="7" fill="#28c840"/>
            </g>
        
    <g transform="translate(9, 41)" clip-path="url(#terminal-254558944-clip-terminal)">
    <rect fill="#1a1a1a" x="0" y="1.5" width="12.2" height="24.65" shape-rendering="crispEdges"/><rect fill="#1a1a1a" x="12.2" y="1.5" width="85.4" height="24.65" shape-rendering="crispEdges"/><rect fill="#1a1a1a" x="97.6" y="1.5" width="183" height="24.65" shape-rendering="crispEdges"/><rect fill="#1a1a1a" x="280.6" y="1.5" width="24.4" height="24.65" shape-rendering="crispEdges"/><rect fill="#1a1a1a" x="305" y="1.5" width="536.8" height="24.65" shape-rendering="crispEdges"/><rect fill="#1a1a1a" x="841.8" y="1.5" width="500.2" height="24.65" shape-rendering="crispEdges"/><rect fill="#1a1a1a" x="1342" y="1.5" width="109.8" height="24.65" shape-rendering="crispEdges"/><rect fill="#1a1a1a" x="1451.8" y="1.5" width="12.2" height="24.65" shape-rendering="crispEdges"/><rect fill="#0a0a0a" x="0" y="25.9" width="1464" height="24.65" shape-rendering="crispEdges"/><rect fill="#0a0a0a" x="0" y="50.3" width="0" height="24.65" shape-rendering="crispEdges"/><rect fill="#0a0a0a" x="0" y="50.3" width="1464" height="24.65" shape-rendering="crispEdges"/><rect fill="#0a0a0a" x="0" y="74.7" width="24.4" height="24.65" shape-rendering="crispEdges"/><rect fill="#0a0a0a" x="24.4" y="74.7" width="561.2" height="24.65" shape-rendering="crispEdges"/><rect fill="#0a0a0a" x="585.6" y="74.7" width="878.4" height="24.65" shape-rendering="crispEdges"/><rect fill="#0a0a0a" x="0" y="99.1" width="414.8" height="24.65" shape-rendering="crispEdges"/><rect fill="#0a0a0a" x="414.8" y="99.1" width="1049.2" height="24.65" shape-rendering="crispEdges"/><rect fill="#0a0a0a" x="0" y="123.5" width="0" height="24.65" shape-rendering="crispEdges"/><rect fill="#0a0a0a" x="0" y="123.5" width="1464" height="24.65" shape-rendering="crispEdges"/><rect fill="#0a0a0a" x="0" y="147.9" width="12.2" height="24.65" shape-rendering="crispEdges"/><rect fill="#1e1e1e" x="12.2" y="147.9" width="12.2" height="24.65" shape-rendering="crispEdges"/><rect fill="#1e1e1e" x="24.4" y="147.9" width="439.2" height="24.65" shape-rendering="crispEdges"/><rect fill="#1e1e1e" x="463.6" y="147.9" width="12.2" height="24.65" shape-rendering="crispEdges"/><rect fill="#0a0a0a" x="475.8" y="147.9" width="963.8" height="24.65" shape-rendering="crispEdges"/><rect fill="#0a0a0a" x="1439.6" y="147.9" width="24.4" height="24.65" shape-rendering="crispEdges"/><rect fill="#0a0a0a" x="0" y="172.3" width="12.2" height="24.65" shape-rendering="crispEdges"/><rect fill="#1e1e1e" x="12.2" y="172.3" width="12.2" height="24.65" shape-rendering="crispEdges"/><rect fill="#1e1e1e" x="24.4" y="172.3" width="488" height="24.65" shape-rendering="crispEdges"/><rect fill="#1e1e1e" x="512.4" y="172.3" width="12.2" height="24.65" shape-rendering="crispEdges"/><rect fill="#0a0a0a" x="524.6" y="172.3" width="915" height="24.65" shape-rendering="crispEdges"/><rect fill="#0a0a0a" x="1439.6" y="172.3" width="24.4" height="24.65" shape-rendering="crispEdges"/><rect fill="#0a0a0a" x="0" y="196.7" width="12.2" height="24.65" shape-rendering="crispEdges"/><rect fill="#1e1e1e" x="12.2" y="196.7" width="12.2" height="24.65" shape-rendering="crispEdges"/><rect fill="#1e1e1e" x="24.4" y="196.7" width="439.2" height="24.65" shape-rendering="crispEdges"/><rect fill="#1e1e1e" x="463.6" y="196.7" width="12.2" height="24.65" shape-rendering="crispEdges"/><rect fill="#0a0a0a" x="475.8" y="196.7" width="963.8" height="24.65" shape-rendering="crispEdges"/><rect fill="#0a0a0a" x="1439.6" y="196.7" width="24.4" height="24.65" shape-rendering="crispEdges"/><rect fill="#0a0a0a" x="0" y="221.1" width="1439.6" height="24.65" shape-rendering="crispEdges"/><rect fill="#0a0a0a" x="1439.6" y="221.1" width="24.4" height="24.65" shape-rendering="crispEdges"/><rect fill="#0a0a0a" x="0" y="245.5" width="1439.6" height="24.65" shape-rendering="crispEdges"/><rect fill="#0a0a0a" x="1439.6" y="245.5" width="24.4" height="24.65" shape-rendering="crispEdges"/><rect fill="#0a0a0a" x="0" y="269.9" width="1439.6" height="24.65" shape-rendering="crispEdges"/><rect fill="#0a0a0a" x="1439.6" y="269.9" width="24.4" height="24.65" shape-rendering="crispEdges"/><rect fill="#0a0a0a" x="0" y="294.3" width="1439.6" height="24.65" shape-rendering="crispEdges"/><rect fill="#0a0a0a" x="1439.6" y="294.3" width="24.4" height="24.65" shape-rendering="crispEdges"/><rect fill="#0a0a0a" x="0" y="318.7" width="1439.6" height="24.65" shape-rendering="crispEdges"/><rect fill="#0a0a0a" x="1439.6" y="318.7" width="24.4" height="24.65" shape-rendering="crispEdges"/><rect fill="#0a0a0a" x="0" y="343.1" width="1439.6" height="24.65" shape-rendering="crispEdges"/><rect fill="#0a0a0a" x="1439.6" y="343.1" width="24.4" height="24.65" shape-rendering="crispEdges"/><rect fill="#0a0a0a" x="0" y="367.5" width="1439.6" height="24.65" shape-rendering="crispEdges"/><rect fill="#0a0a0a" x="1439.6" y="367.5" width="24.4" height="24.65" shape-rendering="crispEdges"/><rect fill="#0a0a0a" x="0" y="391.9" width="1439.6" height="24.65" shape-rendering="crispEdges"/><rect fill="#0a0a0a" x="1439.6" y="391.9" width="24.4" height="24.65" shape-rendering="crispEdges"/><rect fill="#0a0a0a" x="0" y="416.3" width="1439.6" height="24.65" shape-rendering="crispEdges"/><rect fill="#0a0a0a" x="1439.6" y="416.3" width="24.4" height="24.65" shape-rendering="crispEdges"/><rect fill="#0a0a0a" x="0" y="440.7" width="1439.6" height="24.65" shape-rendering="crispEdges"/><rect fill="#0a0a0a" x="1439.6" y="440.7" width="24.4" height="24.65" shape-rendering="crispEdges"/><rect fill="#0a0a0a" x="0" y="465.1" width="1439.6" height="24.65" shape-rendering="crispEdges"/><rect fill="#0a0a0a" x="1439.6" y="465.1" width="24.4" height="24.65" shape-rendering="crispEdges"/><rect fill="#0a0a0a" x="0" y="489.5" width="1439.6" height="24.65" shape-rendering="crispEdges"/><rect fill="#0a0a0a" x="1439.6" y="489.5" width="24.4" height="24.65" shape-rendering="crispEdges"/><rect fill="#0a0a0a" x="0" y="513.9" width="1439.6" height="24.65" shape-rendering="crispEdges"/><rect fill="#0a0a0a" x="1439.6" y="513.9" width="24.4" height="24.65" shape-rendering="crispEdges"/><rect fill="#0a0a0a" x="0" y="538.3" width="1439.6" height="24.65" shape-rendering="crispEdges"/><rect fill="#0a0a0a" x="1439.6" y="538.3" width="24.4" height="24.65" shape-rendering="crispEdges"/><rect fill="#0a0a0a" x="0" y="562.7" width="1439.6" height="24.65" shape-rendering="crispEdges"/><rect fill="#0a0a0a" x="1439.6" y="562.7" width="24.4" height="24.65" shape-rendering="crispEdges"/><rect fill="#0a0a0a" x="0" y="587.1" width="1439.6" height="24.65" shape-rendering="crispEdges"/><rect fill="#0a0a0a" x="1439.6" y="587.1" width="24.4" height="24.65" shape-rendering="crispEdges"/><rect fill="#0a0a0a" x="0" y="611.5" width="1439.6" height="24.65" shape-rendering="crispEdges"/><rect fill="#0a0a0a" x="1439.6" y="611.5" width="24.4" height="24.65" shape-rendering="crispEdges"/><rect fill="#0a0a0a" x="0" y="635.9" width="1439.6" height="24.65" shape-rendering="crispEdges"/><rect fill="#0a0a0a" x="1439.6" y="635.9" width="24.4" height="24.65" shape-rendering="crispEdges"/><rect fill="#0a0a0a" x="0" y="660.3" width="1439.6" height="24.65" shape-rendering="crispEdges"/><rect fill="#0a0a0a" x="1439.6" y="660.3" width="24.4" height="24.65" shape-rendering="crispEdges"/><rect fill="#0a0a0a" x="0" y="684.7" width="1439.6" height="24.65" shape-rendering="crispEdges"/><rect fill="#0a0a0a" x="1439.6" y="684.7" width="24.4" height="24.65" shape-rendering="crispEdges"/><rect fill="#0a0a0a" x="0" y="709.1" width="1439.6" height="24.65" shape-rendering="crispEdges"/><rect fill="#0a0a0a" x="1439.6" y="709.1" width="24.4" height="24.65" shape-rendering="crispEdges"/><rect fill="#0a0a0a" x="0" y="733.5" width="1439.6" height="24.65" shape-rendering="crispEdges"/><rect fill="#0a0a0a" x="1439.6" y="733.5" width="24.4" height="24.65" shape-rendering="crispEdges"/><rect fill="#0a0a0a" x="0" y="757.9" width="1439.6" height="24.65" shape-rendering="crispEdges"/><rect fill="#0a0a0a" x="1439.6" y="757.9" width="24.4" height="24.65" shape-rendering="crispEdges"/><rect fill="#0a0a0a" x="0" y="782.3" width="0" height="24.65" shape-rendering="crispEdges"/><rect fill="#0a0a0a" x="0" y="782.3" width="1464" height="24.65" shape-rendering="crispEdges"/><rect fill="#0a0a0a" x="0" y="806.7" width="12.2" height="24.65" shape-rendering="crispEdges"/><rect fill="#0a0a0a" x="12.2" y="806.7" width="12.2" height="24.65" shape-rendering="crispEdges"/><rect fill="#272727" x="24.4" y="806.7" width="12.2" height="24.65" shape-rendering="crispEdges"/><rect fill="#e0e0e0" x="36.6" y="806.7" width="146.4" height="24.65" shape-rendering="crispEdges"/><rect fill="#272727" x="183" y="806.7" width="12.2" height="24.65" shape-rendering="crispEdges"/><rect fill="#0a0a0a" x="195.2" y="806.7" width="12.2" height="24.65" shape-rendering="crispEdges"/><rect fill="#30220f" x="207.4" y="806.7" width="12.2" height="24.65" shape-rendering="crispEdges"/><rect fill="#30220f" x="219.6" y="806.7" width="292.8" height="24.65" shape-rendering="crispEdges"/><rect fill="#30220f" x="512.4" y="806.7" width="12.2" height="24.65" shape-rendering="crispEdges"/><rect fill="#0a0a0a" x="524.6" y="806.7" width="12.2" height="24.65" shape-rendering="crispEdges"/><rect fill="#0d0d0d" x="536.8" y="806.7" width="12.2" height="24.65" shape-rendering="crispEdges"/><rect fill="#0d0d0d" x="549" y="806.7" width="195.2" height="24.65" shape-rendering="crispEdges"/><rect fill="#0d0d0d" x="744.2" y="806.7" width="12.2" height="24.65" shape-rendering="crispEdges"/><rect fill="#0a0a0a" x="756.4" y="806.7" width="12.2" height="24.65" shape-rendering="crispEdges"/><rect fill="#14261a" x="768.6" y="806.7" width="12.2" height="24.65" shape-rendering="crispEdges"/><rect fill="#14261a" x="780.8" y="806.7" width="268.4" height="24.65" shape-rendering="crispEdges"/><rect fill="#14261a" x="1049.2" y="806.7" width="12.2" height="24.65" shape-rendering="crispEdges"/><rect fill="#0a0a0a" x="1061.4" y="806.7" width="390.4" height="24.65" shape-rendering="crispEdges"/><rect fill="#0a0a0a" x="1451.8" y="806.7" width="12.2" height="24.65" shape-rendering="crispEdges"/><rect fill="#0a0a0a" x="0" y="831.1" width="1464" height="24.65" shape-rendering="crispEdges"/><rect fill="#242f38" x="0" y="855.5" width="61" height="24.65" shape-rendering="crispEdges"/><rect fill="#242f38" x="61" y="855.5" width="61" height="24.65" shape-rendering="crispEdges"/><rect fill="#242f38" x="122" y="855.5" width="36.6" height="24.65" shape-rendering="crispEdges"/><rect fill="#242f38" x="158.6" y="855.5" width="61" height="24.65" shape-rendering="crispEdges"/><rect fill="#242f38" x="219.6" y="855.5" width="36.6" height="24.65" shape-rendering="crispEdges"/><rect fill="#242f38" x="256.2" y="855.5" width="61" height="24.65" shape-rendering="crispEdges"/><rect fill="#242f38" x="317.2" y="855.5" width="36.6" height="24.65" shape-rendering="crispEdges"/><rect fill="#242f38" x="353.8" y="855.5" width="61" height="24.65" shape-rendering="crispEdges"/><rect fill="#242f38" x="414.8" y="855.5" width="902.8" height="24.65" shape-rendering="crispEdges"/><rect fill="#242f38" x="1317.6" y="855.5" width="12.2" height="24.65" shape-rendering="crispEdges"/><rect fill="#242f38" x="1329.8" y="855.5" width="24.4" height="24.65" shape-rendering="crispEdges"/><rect fill="#242f38" x="1354.2" y="855.5" width="97.6" height="24.65" shape-rendering="crispEdges"/><rect fill="#242f38" x="1451.8" y="855.5" width="12.2" height="24.65" shape-rendering="crispEdges"/>
    <g class="terminal-254558944-matrix">
    <text class="terminal-254558944-r2" x="12.2" y="20" textLength="85.4" clip-path="url(#terminal-254558944-line-0)">Trouble</text><text class="terminal-254558944-r2" x="97.6" y="20" textLength="183" clip-path="url(#terminal-254558944-line-0)">shooting&#160;Wizard</text><text class="terminal-254558944-r4" x="305" y="20" textLength="536.8" clip-path="url(#terminal-254558944-line-0)">Find&#160;out&#160;what&#x27;s&#160;wrong&#160;with&#160;your&#160;floppy&#160;setup</text><text class="terminal-254558944-r1" x="1464" y="20" textLength="12.2" clip-path="url(#terminal-254558944-line-0)">
</text><text class="terminal-254558944-r1" x="1464" y="44.4" textLength="12.2" clip-path="url(#terminal-254558944-line-1)">
</text><text class="terminal-254558944-r1" x="1464" y="68.8" textLength="12.2" clip-path="url(#terminal-254558944-line-2)">
</text><text class="terminal-254558944-r6" x="24.4" y="93.2" textLength="561.2" clip-path="url(#terminal-254558944-line-3)">Do&#160;your&#160;Mavica&#160;photos&#160;show&#160;on&#160;the&#160;camera&#x27;s&#160;LCD</text><text class="terminal-254558944-r1" x="1464" y="93.2" textLength="12.2" clip-path="url(#terminal-254558944-line-3)">
</text><text class="terminal-254558944-r6" x="0" y="117.6" textLength="414.8" clip-path="url(#terminal-254558944-line-4)">&#160;&#160;but&#160;fail&#160;to&#160;transfer&#160;to&#160;your&#160;PC?</text><text class="terminal-254558944-r1" x="1464" y="117.6" textLength="12.2" clip-path="url(#terminal-254558944-line-4)">
</text><text class="terminal-254558944-r1" x="1464" y="142" textLength="12.2" clip-path="url(#terminal-254558944-line-5)">
</text><text class="terminal-254558944-r6" x="24.4" y="166.4" textLength="439.2" clip-path="url(#terminal-254558944-line-6)">&#160;Yes&#160;—&#160;shows&#160;on&#160;camera,&#160;fails&#160;on&#160;PC&#160;</text><text class="terminal-254558944-r1" x="1464" y="166.4" textLength="12.2" clip-path="url(#terminal-254558944-line-6)">
</text><text class="terminal-254558944-r6" x="24.4" y="190.8" textLength="488" clip-path="url(#terminal-254558944-line-7)">&#160;No&#160;—&#160;photos&#160;look&#160;bad&#160;on&#160;the&#160;camera&#160;too&#160;</text><text class="terminal-254558944-r1" x="1464" y="190.8" textLength="12.2" clip-path="url(#terminal-254558944-line-7)">
</text><text class="terminal-254558944-r6" x="24.4" y="215.2" textLength="439.2" clip-path="url(#terminal-254558944-line-8)">&#160;Not&#160;sure&#160;—&#160;I&#160;can&#x27;t&#160;check&#160;on&#160;camera&#160;</text><text class="terminal-254558944-r1" x="1464" y="215.2" textLength="12.2" clip-path="url(#terminal-254558944-line-8)">
</text><text class="terminal-254558944-r1" x="1464" y="239.6" textLength="12.2" clip-path="url(#terminal-254558944-line-9)">
</text><text class="terminal-254558944-r1" x="1464" y="264" textLength="12.2" clip-path="url(#terminal-254558944-line-10)">
</text><text class="terminal-254558944-r1" x="1464" y="288.4" textLength="12.2" clip-path="url(#terminal-254558944-line-11)">
</text><text class="terminal-254558944-r1" x="1464" y="312.8" textLength="12.2" clip-path="url(#terminal-254558944-line-12)">
</text><text class="terminal-254558944-r1" x="1464" y="337.2" textLength="12.2" clip-path="url(#terminal-254558944-line-13)">
</text><text class="terminal-254558944-r1" x="1464" y="361.6" textLength="12.2" clip-path="url(#terminal-254558944-line-14)">
</text><text class="terminal-254558944-r1" x="1464" y="386" textLength="12.2" clip-path="url(#terminal-254558944-line-15)">
</text><text class="terminal-254558944-r1" x="1464" y="410.4" textLength="12.2" clip-path="url(#terminal-254558944-line-16)">
</text><text class="terminal-254558944-r1" x="1464" y="434.8" textLength="12.2" clip-path="url(#terminal-254558944-line-17)">
</text><text class="terminal-254558944-r1" x="1464" y="459.2" textLength="12.2" clip-path="url(#terminal-254558944-line-18)">
</text><text class="terminal-254558944-r1" x="1464" y="483.6" textLength="12.2" clip-path="url(#terminal-254558944-line-19)">
</text><text class="terminal-254558944-r1" x="1464" y="508" textLength="12.2" clip-path="url(#terminal-254558944-line-20)">
</text><text class="terminal-254558944-r1" x="1464" y="532.4" textLength="12.2" clip-path="url(#terminal-254558944-line-21)">
</text><text class="terminal-254558944-r1" x="1464" y="556.8" textLength="12.2" clip-path="url(#terminal-254558944-line-22)">
</text><text class="terminal-254558944-r1" x="1464" y="581.2" textLength="12.2" clip-path="url(#terminal-254558944-line-23)">
</text><text class="terminal-254558944-r1" x="1464" y="605.6" textLength="12.2" clip-path="url(#terminal-254558944-line-24)">
</text><text class="terminal-254558944-r1" x="1464" y="630" textLength="12.2" clip-path="url(#terminal-254558944-line-25)">
</text><text class="terminal-254558944-r1" x="1464" y="654.4" textLength="12.2" clip-path="url(#terminal-254558944-line-26)">
</text><text class="terminal-254558944-r1" x="1464" y="678.8" textLength="12.2" clip-path="url(#terminal-254558944-line-27)">
</text><text class="terminal-254558944-r1" x="1464" y="703.2" textLength="12.2" clip-path="url(#terminal-254558944-line-28)">
</text><text class="terminal-254558944-r1" x="1464" y="727.6" textLength="12.2" clip-path="url(#terminal-254558944-line-29)">
</text><text class="terminal-254558944-r1" x="1464" y="752" textLength="12.2" clip-path="url(#terminal-254558944-line-30)">
</text><text class="terminal-254558944-r1" x="1464" y="776.4" textLength="12.2" clip-path="url(#terminal-254558944-line-31)">
</text><text class="terminal-254558944-r1" x="1464" y="800.8" textLength="12.2" clip-path="url(#terminal-254558944-line-32)">
</text><text class="terminal-254558944-r7" x="36.6" y="825.2" textLength="146.4" clip-path="url(#terminal-254558944-line-33)">&#160;Start&#160;Over&#160;</text><text class="terminal-254558944-r8" x="219.6" y="825.2" textLength="292.8" clip-path="url(#terminal-254558944-line-33)">&#160;Re-test&#160;After&#160;Cleaning&#160;</text><text class="terminal-254558944-r9" x="549" y="825.2" textLength="195.2" clip-path="url(#terminal-254558944-line-33)">&#160;Open&#160;Swap&#160;Test&#160;</text><text class="terminal-254558944-r10" x="780.8" y="825.2" textLength="268.4" clip-path="url(#terminal-254558944-line-33)">&#160;Open&#160;Multi-Pass&#160;Read&#160;</text><text class="terminal-254558944-r1" x="1464" y="825.2" textLength="12.2" clip-path="url(#terminal-254558944-line-33)">
</text><text class="terminal-254558944-r1" x="1464" y="849.6" textLength="12.2" clip-path="url(#terminal-254558944-line-34)">
</text><text class="terminal-254558944-r11" x="0" y="874" textLength="61" clip-path="url(#terminal-254558944-line-35)">&#160;esc&#160;</text><text class="terminal-254558944-r5" x="61" y="874" textLength="61" clip-path="url(#terminal-254558944-line-35)">Back&#160;</text><text class="terminal-254558944-r11" x="122" y="874" textLength="36.6" clip-path="url(#terminal-254558944-line-35)">&#160;q&#160;</text><text class="terminal-254558944-r5" x="158.6" y="874" textLength="61" clip-path="url(#terminal-254558944-line-35)">Quit&#160;</text><text class="terminal-254558944-r11" x="219.6" y="874" textLength="36.6" clip-path="url(#terminal-254558944-line-35)">&#160;h&#160;</text><text class="terminal-254558944-r5" x="256.2" y="874" textLength="61" clip-path="url(#terminal-254558944-line-35)">Home&#160;</text><text class="terminal-254558944-r11" x="317.2" y="874" textLength="36.6" clip-path="url(#terminal-254558944-line-35)">&#160;?&#160;</text><text class="terminal-254558944-r5" x="353.8" y="874" textLength="61" clip-path="url(#terminal-254558944-line-35)">Help&#160;</text><text class="terminal-254558944-r12" x="1317.6" y="874" textLength="12.2" clip-path="url(#terminal-254558944-line-35)">▏</text><text class="terminal-254558944-r11" x="1329.8" y="874" textLength="24.4" clip-path="url(#terminal-254558944-line-35)">^p</text><text class="terminal-254558944-r5" x="1354.2" y="874" textLength="97.6" clip-path="url(#terminal-254558944-line-35)">&#160;palette</text>
    </g>
    </g>
</svg>
