<svg class="rich-terminal" viewBox="0 0 1238 977.1999999999999" xmlns="http://www.w3.org/2000/svg">
    <!-- Generated with Rich https://www.textualize.io -->
    <style>

    @font-face {
        font-family: "Fira Code";
        src: local("FiraCode-Regular"),
                url("https://cdnjs.cloudflare.com/ajax/libs/firacode/6.2.0/woff2/FiraCode-Regular.woff2") format("woff2"),
                url("https://cdnjs.cloudflare.com/ajax/libs/firacode/6.2.0/woff/FiraCode-Regular.woff") format("woff");
        font-style: normal;
        font-weight: 400;
    }
    @font-face {
        font-family: "Fira Code";
        src: local("FiraCode-Bold"),
                url("https://cdnjs.cloudflare.com/ajax/libs/firacode/6.2.0/woff2/FiraCode-Bold.woff2") format("woff2"),
                url("https://cdnjs.cloudflare.com/ajax/libs/firacode/6.2.0/woff/FiraCode-Bold.woff") format("woff");
        font-style: bold;
        font-weight: 700;
    }

    .terminal-3866900902-matrix {
        font-family: Fira Code, monospace;
        font-size: 20px;
        line-height: 24.4px;
        font-variant-east-asian: full-width;
    }

    .terminal-3866900902-title {
        font-size: 18px;
        font-weight: bold;
        font-family: arial;
    }

    .terminal-3866900902-r1 { fill: #c5c8c6 }
.terminal-3866900902-r2 { fill: #ffaa00;font-weight: bold }
.terminal-3866900902-r3 { fill: #33ff33;font-weight: bold }
.terminal-3866900902-r4 { fill: #2ab12a;font-weight: bold }
.terminal-3866900902-r5 { fill: #e0e0e0 }
.terminal-3866900902-r6 { fill: #e0e0e0;font-weight: bold }
.terminal-3866900902-r7 { fill: #0a0a0a }
.terminal-3866900902-r8 { fill: #33ff33 }
.terminal-3866900902-r9 { fill: #121212 }
.terminal-3866900902-r10 { fill: #7ae998 }
.terminal-3866900902-r11 { fill: #0f0f0f }
.terminal-3866900902-r12 { fill: #0a180e;font-weight: bold }
.terminal-3866900902-r13 { fill: #3e3e3e;font-weight: bold }
.terminal-3866900902-r14 { fill: #008139 }
.terminal-3866900902-r15 { fill: #333333 }
.terminal-3866900902-r16 { fill: #ffa62b;font-weight: bold }
.terminal-3866900902-r17 { fill: #495259 }
    </style>

    <defs>
    <clipPath id="terminal-3866900902-clip-terminal">
      <rect x="0" y="0" width="1219.0" height="926.1999999999999" />
    </clipPath>
    <clipPath id="terminal-3866900902-line-0">
    <rect x="0" y="1.5" width="1220" height="24.65"/>
            </clipPath>
<clipPath id="terminal-3866900902-line-1">
    <rect x="0" y="25.9" width="1220" height="24.65"/>
            </clipPath>
<clipPath id="terminal-3866900902-line-2">
    <rect x="0" y="50.3" width="1220" height="24.65"/>
            </clipPath>
<clipPath id="terminal-3866900902-line-3">
    <rect x="0" y="74.7" width="1220" height="24.65"/>
            </clipPath>
<clipPath id="terminal-3866900902-line-4">
    <rect x="0" y="99.1" width="1220" height="24.65"/>
            </clipPath>
<clipPath id="terminal-3866900902-line-5">
    <rect x="0" y="123.5" width="1220" height="24.65"/>
            </clipPath>
<clipPath id="terminal-3866900902-line-6">
    <rect x="0" y="147.9" width="1220" height="24.65"/>
            </clipPath>
<clipPath id="terminal-3866900902-line-7">
    <rect x="0" y="172.3" width="1220" height="24.65"/>
            </clipPath>
<clipPath id="terminal-3866900902-line-8">
    <rect x="0" y="196.7" width="1220" height="24.65"/>
            </clipPath>
<clipPath id="terminal-3866900902-line-9">
    <rect x="0" y="221.1" width="1220" height="24.65"/>
            </clipPath>
<clipPath id="terminal-3866900902-line-10">
    <rect x="0" y="245.5" width="1220" height="24.65"/>
            </clipPath>
<clipPath id="terminal-3866900902-line-11">
    <rect x="0" y="269.9" width="1220" height="24.65"/>
            </clipPath>
<clipPath id="terminal-3866900902-line-12">
    <rect x="0" y="294.3" width="1220" height="24.65"/>
            </clipPath>
<clipPath id="terminal-3866900902-line-13">
    <rect x="0" y="318.7" width="1220" height="24.65"/>
            </clipPath>
<clipPath id="terminal-3866900902-line-14">
    <rect x="0" y="343.1" width="1220" height="24.65"/>
            </clipPath>
<clipPath id="terminal-3866900902-line-15">
    <rect x="0" y="367.5" width="1220" height="24.65"/>
            </clipPath>
<clipPath id="terminal-3866900902-line-16">
    <rect x="0" y="391.9" width="1220" height="24.65"/>
            </clipPath>
<clipPath id="terminal-3866900902-line-17">
    <rect x="0" y="416.3" width="1220" height="24.65"/>
            </clipPath>
<clipPath id="terminal-3866900902-line-18">
    <rect x="0" y="440.7" width="1220" height="24.65"/>
            </clipPath>
<clipPath id="terminal-3866900902-line-19">
    <rect x="0" y="465.1" width="1220" height="24.65"/>
            </clipPath>
<clipPath id="terminal-3866900902-line-20">
    <rect x="0" y="489.5" width="1220" height="24.65"/>
            </clipPath>
<clipPath id="terminal-3866900902-line-21">
    <rect x="0" y="513.9" width="1220" height="24.65"/>
            </clipPath>
<clipPath id="terminal-3866900902-line-22">
    <rect x="0" y="538.3" width="1220" height="24.65"/>
            </clipPath>
<clipPath id="terminal-3866900902-line-23">
    <rect x="0" y="562.7" width="1220" height="24.65"/>
            </clipPath>
<clipPath id="terminal-3866900902-line-24">
    <rect x="0" y="587.1" width="1220" height="24.65"/>
            </clipPath>
<clipPath id="terminal-3866900902-line-25">
    <rect x="0" y="611.5" width="1220" height="24.65"/>
            </clipPath>
<clipPath id="terminal-3866900902-line-26">
    <rect x="0" y="635.9" width="1220" height="24.65"/>
            </clipPath>
<clipPath id="terminal-3866900902-line-27">
    <rect x="0" y="660.3" width="1220" height="24.65"/>
            </clipPath>
<clipPath id="terminal-3866900902-line-28">
    <rect x="0" y="684.7" width="1220" height="24.65"/>
            </clipPath>
<clipPath id="terminal-3866900902-line-29">
    <rect x="0" y="709.1" width="1220" height="24.65"/>
            </clipPath>
<clipPath id="terminal-3866900902-line-30">
    <rect x="0" y="733.5" width="1220" height="24.65"/>
            </clipPath>
<clipPath id="terminal-3866900902-line-31">
    <rect x="0" y="757.9" width="1220" height="24.65"/>
            </clipPath>
<clipPath id="terminal-3866900902-line-32">
    <rect x="0" y="782.3" width="1220" height="24.65"/>
            </clipPath>
<clipPath id="terminal-3866900902-line-33">
    <rect x="0" y="806.7" width="1220" height="24.65"/>
            </clipPath>
<clipPath id="terminal-3866900902-line-34">
    <rect x="0" y="831.1" width="1220" height="24.65"/>
            </clipPath>
<clipPath id="terminal-3866900902-line-35">
    <rect x="0" y="855.5" width="1220" height="24.65"/>
            </clipPath>
<clipPath id="terminal-3866900902-line-36">
    <rect x="0" y="879.9" width="1220" height="24.65"/>
            </clipPath>
    </defs>

    <rect fill="#292929" stroke="rgba(255,255,255,0.35)" stroke-width="1" x="1" y="1" width="1236" height="975.2" rx="8"/><text class="terminal-3866900902-title" fill="#c5c8c6" text-anchor="middle" x="618" y="27">mavica-tools</text>
            <g transform="translate(26,22)">
            <circle cx="0" cy="0" r="7" fill="#ff5f57"/>
            <circle cx="22" cy="0" r="7" fill="#febc2e"/>
            <circle cx="44" cy="0" r="7" fill="#28c840"/>
            </g>
        
    <g transform="translate(9, 41)" clip-path="url(#terminal-3866900902-clip-terminal)">
    <rect fill="#1a1a1a" x="0" y="1.5" width="12.2" height="24.65" shape-rendering="crispEdges"/><rect fill="#1a1a1a" x="12.2" y="1.5" width="85.4" height="24.65" shape-rendering="crispEdges"/><rect fill="#1a1a1a" x="97.6" y="1.5" width="207.4" height="24.65" shape-rendering="crispEdges"/><rect fill="#1a1a1a" x="305" y="1.5" width="24.4" height="24.65" shape-rendering="crispEdges"/><rect fill="#1a1a1a" x="329.4" y="1.5" width="329.4" height="24.65" shape-rendering="crispEdges"/><rect fill="#1a1a1a" x="658.8" y="1.5" width="439.2" height="24.65" shape-rendering="crispEdges"/><rect fill="#1a1a1a" x="1098" y="1.5" width="109.8" height="24.65" shape-rendering="crispEdges"/><rect fill="#1a1a1a" x="1207.8" y="1.5" width="12.2" height="24.65" shape-rendering="crispEdges"/><rect fill="#0a0a0a" x="0" y="25.9" width="24.4" height="24.65" shape-rendering="crispEdges"/><rect fill="#0a0a0a" x="24.4" y="25.9" width="73.2" height="24.65" shape-rendering="crispEdges"/><rect fill="#0a0a0a" x="97.6" y="25.9" width="341.6" height="24.65" shape-rendering="crispEdges"/><rect fill="#0a0a0a" x="439.2" y="25.9" width="780.8" height="24.65" shape-rendering="crispEdges"/><rect fill="#0a0a0a" x="0" y="50.3" width="0" height="24.65" shape-rendering="crispEdges"/><rect fill="#0a0a0a" x="0" y="50.3" width="1220" height="24.65" shape-rendering="crispEdges"/><rect fill="#0a0a0a" x="0" y="74.7" width="744.2" height="24.65" shape-rendering="crispEdges"/><rect fill="#0a0a0a" x="744.2" y="74.7" width="475.8" height="24.65" shape-rendering="crispEdges"/><rect fill="#0a0a0a" x="0" y="99.1" width="536.8" height="24.65" shape-rendering="crispEdges"/><rect fill="#0a0a0a" x="536.8" y="99.1" width="683.2" height="24.65" shape-rendering="crispEdges"/><rect fill="#0a0a0a" x="0" y="123.5" width="0" height="24.65" shape-rendering="crispEdges"/><rect fill="#0a0a0a" x="0" y="123.5" width="1220" height="24.65" shape-rendering="crispEdges"/><rect fill="#0a0a0a" x="0" y="147.9" width="1220" height="24.65" shape-rendering="crispEdges"/><rect fill="#0a0a0a" x="0" y="172.3" width="24.4" height="24.65" shape-rendering="crispEdges"/><rect fill="#0a0a0a" x="24.4" y="172.3" width="195.2" height="24.65" shape-rendering="crispEdges"/><rect fill="#0a0a0a" x="219.6" y="172.3" width="1000.4" height="24.65" shape-rendering="crispEdges"/><rect fill="#33ff33" x="0" y="196.7" width="12.2" height="24.65" shape-rendering="crispEdges"/><rect fill="#272727" x="12.2" y="196.7" width="1183.4" height="24.65" shape-rendering="crispEdges"/><rect fill="#0a0a0a" x="1195.6" y="196.7" width="12.2" height="24.65" shape-rendering="crispEdges"/><rect fill="#0a0a0a" x="1207.8" y="196.7" width="12.2" height="24.65" shape-rendering="crispEdges"/><rect fill="#33ff33" x="0" y="221.1" width="12.2" height="24.65" shape-rendering="crispEdges"/><rect fill="#272727" x="12.2" y="221.1" width="24.4" height="24.65" shape-rendering="crispEdges"/><rect fill="#2d4e74" x="36.6" y="221.1" width="97.6" height="24.65" shape-rendering="crispEdges"/><rect fill="#e0e0e0" x="134.2" y="221.1" width="12.2" height="24.65" shape-rendering="crispEdges"/><rect fill="#272727" x="146.4" y="221.1" width="1024.8" height="24.65" shape-rendering="crispEdges"/><rect fill="#272727" x="1171.2" y="221.1" width="24.4" height="24.65" shape-rendering="crispEdges"/><rect fill="#0a0a0a" x="1195.6" y="221.1" width="12.2" height="24.65" shape-rendering="crispEdges"/><rect fill="#0a0a0a" x="1207.8" y="221.1" width="12.2" height="24.65" shape-rendering="crispEdges"/><rect fill="#33ff33" x="0" y="245.5" width="12.2" height="24.65" shape-rendering="crispEdges"/><rect fill="#272727" x="12.2" y="245.5" width="1183.4" height="24.65" shape-rendering="crispEdges"/><rect fill="#0a0a0a" x="1195.6" y="245.5" width="12.2" height="24.65" shape-rendering="crispEdges"/><rect fill="#0a0a0a" x="1207.8" y="245.5" width="12.2" height="24.65" shape-rendering="crispEdges"/><rect fill="#0a0a0a" x="0" y="269.9" width="1220" height="24.65" shape-rendering="crispEdges"/><rect fill="#0a0a0a" x="0" y="294.3" width="0" height="24.65" shape-rendering="crispEdges"/><rect fill="#0a0a0a" x="0" y="294.3" width="1220" height="24.65" shape-rendering="crispEdges"/><rect fill="#0a0a0a" x="0" y="318.7" width="24.4" height="24.65" shape-rendering="crispEdges"/><rect fill="#0a0a0a" x="24.4" y="318.7" width="195.2" height="24.65" shape-rendering="crispEdges"/><rect fill="#0a0a0a" x="219.6" y="318.7" width="1000.4" height="24.65" shape-rendering="crispEdges"/><rect fill="#0a0a0a" x="0" y="343.1" width="12.2" height="24.65" shape-rendering="crispEdges"/><rect fill="#4ebf71" x="12.2" y="343.1" width="195.2" height="24.65" shape-rendering="crispEdges"/><rect fill="#0a0a0a" x="207.4" y="343.1" width="12.2" height="24.65" shape-rendering="crispEdges"/><rect fill="#4ebf71" x="219.6" y="343.1" width="146.4" height="24.65" shape-rendering="crispEdges"/><rect fill="#0a0a0a" x="366" y="343.1" width="12.2" height="24.65" shape-rendering="crispEdges"/><rect fill="#0d0d0d" x="378.2" y="343.1" width="122" height="24.65" shape-rendering="crispEdges"/><rect fill="#0a0a0a" x="500.2" y="343.1" width="12.2" height="24.65" shape-rendering="crispEdges"/><rect fill="#0d0d0d" x="512.4" y="343.1" width="134.2" height="24.65" shape-rendering="crispEdges"/><rect fill="#0a0a0a" x="646.6" y="343.1" width="573.4" height="24.65" shape-rendering="crispEdges"/><rect fill="#0a0a0a" x="0" y="367.5" width="12.2" height="24.65" shape-rendering="crispEdges"/><rect fill="#4ebf71" x="12.2" y="367.5" width="195.2" height="24.65" shape-rendering="crispEdges"/><rect fill="#0a0a0a" x="207.4" y="367.5" width="12.2" height="24.65" shape-rendering="crispEdges"/><rect fill="#4ebf71" x="219.6" y="367.5" width="146.4" height="24.65" shape-rendering="crispEdges"/><rect fill="#0a0a0a" x="366" y="367.5" width="12.2" height="24.65" shape-rendering="crispEdges"/><rect fill="#0d0d0d" x="378.2" y="367.5" width="122" height="24.65" shape-rendering="crispEdges"/><rect fill="#0a0a0a" x="500.2" y="367.5" width="12.2" height="24.65" shape-rendering="crispEdges"/><rect fill="#0d0d0d" x="512.4" y="367.5" width="134.2" height="24.65" shape-rendering="crispEdges"/><rect fill="#0a0a0a" x="646.6" y="367.5" width="573.4" height="24.65" shape-rendering="crispEdges"/><rect fill="#0a0a0a" x="0" y="391.9" width="12.2" height="24.65" shape-rendering="crispEdges"/><rect fill="#4ebf71" x="12.2" y="391.9" width="195.2" height="24.65" shape-rendering="crispEdges"/><rect fill="#0a0a0a" x="207.4" y="391.9" width="12.2" height="24.65" shape-rendering="crispEdges"/><rect fill="#4ebf71" x="219.6" y="391.9" width="146.4" height="24.65" shape-rendering="crispEdges"/><rect fill="#0a0a0a" x="366" y="391.9" width="12.2" height="24.65" shape-rendering="crispEdges"/><rect fill="#0d0d0d" x="378.2" y="391.9" width="122" height="24.65" shape-rendering="crispEdges"/><rect fill="#0a0a0a" x="500.2" y="391.9" width="12.2" height="24.65" shape-rendering="crispEdges"/><rect fill="#0d0d0d" x="512.4" y="391.9" width="134.2" height="24.65" shape-rendering="crispEdges"/><rect fill="#0a0a0a" x="646.6" y="391.9" width="573.4" height="24.65" shape-rendering="crispEdges"/><rect fill="#0a0a0a" x="0" y="416.3" width="1220" height="24.65" shape-rendering="crispEdges"/><rect fill="#0a0a0a" x="0" y="440.7" width="0" height="24.65" shape-rendering="crispEdges"/><rect fill="#0a0a0a" x="0" y="440.7" width="1220" height="24.65" shape-rendering="crispEdges"/><rect fill="#0a0a0a" x="0" y="465.1" width="24.4" height="24.65" shape-rendering="crispEdges"/><rect fill="#0a0a0a" x="24.4" y="465.1" width="280.6" height="24.65" shape-rendering="crispEdges"/><rect fill="#0a0a0a" x="305" y="465.1" width="915" height="24.65" shape-rendering="crispEdges"/><rect fill="#0a0a0a" x="0" y="489.5" width="12.2" height="24.65" shape-rendering="crispEdges"/><rect fill="#0d0d0d" x="12.2" y="489.5" width="158.6" height="24.65" shape-rendering="crispEdges"/><rect fill="#0a0a0a" x="170.8" y="489.5" width="12.2" height="24.65" shape-rendering="crispEdges"/><rect fill="#0d0d0d" x="183" y="489.5" width="146.4" height="24.65" shape-rendering="crispEdges"/><rect fill="#0a0a0a" x="329.4" y="489.5" width="12.2" height="24.65" shape-rendering="crispEdges"/><rect fill="#0d0d0d" x="341.6" y="489.5" width="134.2" height="24.65" shape-rendering="crispEdges"/><rect fill="#0a0a0a" x="475.8" y="489.5" width="12.2" height="24.65" shape-rendering="crispEdges"/><rect fill="#0d0d0d" x="488" y="489.5" width="134.2" height="24.65" shape-rendering="crispEdges"/><rect fill="#0a0a0a" x="622.2" y="489.5" width="597.8" height="24.65" shape-rendering="crispEdges"/><rect fill="#0a0a0a" x="0" y="513.9" width="12.2" height="24.65" shape-rendering="crispEdges"/><rect fill="#0d0d0d" x="12.2" y="513.9" width="158.6" height="24.65" shape-rendering="crispEdges"/><rect fill="#0a0a0a" x="170.8" y="513.9" width="12.2" height="24.65" shape-rendering="crispEdges"/><rect fill="#0d0d0d" x="183" y="513.9" width="146.4" height="24.65" shape-rendering="crispEdges"/><rect fill="#0a0a0a" x="329.4" y="513.9" width="12.2" height="24.65" shape-rendering="crispEdges"/><rect fill="#0d0d0d" x="341.6" y="513.9" width="134.2" height="24.65" shape-rendering="crispEdges"/><rect fill="#0a0a0a" x="475.8" y="513.9" width="12.2" height="24.65" shape-rendering="crispEdges"/><rect fill="#0d0d0d" x="488" y="513.9" width="134.2" height="24.65" shape-rendering="crispEdges"/><rect fill="#0a0a0a" x="622.2" y="513.9" width="597.8" height="24.65" shape-rendering="crispEdges"/><rect fill="#0a0a0a" x="0" y="538.3" width="12.2" height="24.65" shape-rendering="crispEdges"/><rect fill="#0d0d0d" x="12.2" y="538.3" width="158.6" height="24.65" shape-rendering="crispEdges"/><rect fill="#0a0a0a" x="170.8" y="538.3" width="12.2" height="24.65" shape-rendering="crispEdges"/><rect fill="#0d0d0d" x="183" y="538.3" width="146.4" height="24.65" shape-rendering="crispEdges"/><rect fill="#0a0a0a" x="329.4" y="538.3" width="12.2" height="24.65" shape-rendering="crispEdges"/><rect fill="#0d0d0d" x="341.6" y="538.3" width="134.2" height="24.65" shape-rendering="crispEdges"/><rect fill="#0a0a0a" x="475.8" y="538.3" width="12.2" height="24.65" shape-rendering="crispEdges"/><rect fill="#0d0d0d" x="488" y="538.3" width="134.2" height="24.65" shape-rendering="crispEdges"/><rect fill="#0a0a0a" x="622.2" y="538.3" width="597.8" height="24.65" shape-rendering="crispEdges"/><rect fill="#0a0a0a" x="0" y="562.7" width="1220" height="24.65" shape-rendering="crispEdges"/><rect fill="#0a0a0a" x="0" y="587.1" width="0" height="24.65" shape-rendering="crispEdges"/><rect fill="#0a0a0a" x="0" y="587.1" width="1220" height="24.65" shape-rendering="crispEdges"/><rect fill="#0a0a0a" x="0" y="611.5" width="1220" height="24.65" shape-rendering="crispEdges"/><rect fill="#333333" x="0" y="635.9" width="12.2" height="24.65" shape-rendering="crispEdges"/><rect fill="#0a0a0a" x="12.2" y="635.9" width="1195.6" height="24.65" shape-rendering="crispEdges"/><rect fill="#0a0a0a" x="1207.8" y="635.9" width="12.2" height="24.65" shape-rendering="crispEdges"/><rect fill="#333333" x="0" y="660.3" width="12.2" height="24.65" shape-rendering="crispEdges"/><rect fill="#0a0a0a" x="12.2" y="660.3" width="1195.6" height="24.65" shape-rendering="crispEdges"/><rect fill="#0a0a0a" x="1207.8" y="660.3" width="12.2" height="24.65" shape-rendering="crispEdges"/><rect fill="#0a0a0a" x="0" y="684.7" width="1220" height="24.65" shape-rendering="crispEdges"/><rect fill="#0a0a0a" x="0" y="709.1" width="1220" height="24.65" shape-rendering="crispEdges"/><rect fill="#0a0a0a" x="0" y="733.5" width="1220" height="24.65" shape-rendering="crispEdges"/><rect fill="#0a0a0a" x="0" y="757.9" width="1220" height="24.65" shape-rendering="crispEdges"/><rect fill="#0a0a0a" x="0" y="782.3" width="1220" height="24.65" shape-rendering="crispEdges"/><rect fill="#0a0a0a" x="0" y="806.7" width="1220" height="24.65" shape-rendering="crispEdges"/><rect fill="#0a0a0a" x="0" y="831.1" width="1220" height="24.65" shape-rendering="crispEdges"/><rect fill="#0a0a0a" x="0" y="855.5" width="1220" height="24.65" shape-rendering="crispEdges"/><rect fill="#0a0a0a" x="0" y="879.9" width="1220" height="24.65" shape-rendering="crispEdges"/><rect fill="#242f38" x="0" y="904.3" width="61" height="24.65" shape-rendering="crispEdges"/><rect fill="#242f38" x="61" y="904.3" width="61" height="24.65" shape-rendering="crispEdges"/><rect fill="#242f38" x="122" y="904.3" width="951.6" height="24.65" shape-rendering="crispEdges"/><rect fill="#242f38" x="1073.6" y="904.3" width="12.2" height="24.65" shape-rendering="crispEdges"/><rect fill="#242f38" x="1085.8" y="904.3" width="24.4" height="24.65" shape-rendering="crispEdges"/><rect fill="#242f38" x="1110.2" y="904.3" width="97.6" height="24.65" shape-rendering="crispEdges"/><rect fill="#242f38" x="1207.8" y="904.3" width="12.2" height="24.65" shape-rendering="crispEdges"/>
    <g class="terminal-3866900902-matrix">
    <text class="terminal-3866900902-r2" x="12.2" y="20" textLength="85.4" clip-path="url(#terminal-3866900902-line-0)">Guided&#160;</text><text class="terminal-3866900902-r2" x="97.6" y="20" textLength="207.4" clip-path="url(#terminal-3866900902-line-0)">Recovery&#160;Workflow</text><text class="terminal-3866900902-r4" x="329.4" y="20" textLength="329.4" clip-path="url(#terminal-3866900902-line-0)">Follow&#160;these&#160;steps&#160;in&#160;order</text><text class="terminal-3866900902-r1" x="1220" y="20" textLength="12.2" clip-path="url(#terminal-3866900902-line-0)">
</text><text class="terminal-3866900902-r6" x="24.4" y="44.4" textLength="73.2" clip-path="url(#terminal-3866900902-line-1)">Step&#160;1</text><text class="terminal-3866900902-r5" x="97.6" y="44.4" textLength="341.6" clip-path="url(#terminal-3866900902-line-1)">&#160;&gt;&#160;2&#160;&gt;&#160;3&#160;&gt;&#160;4&#160;&gt;&#160;5&#160;&gt;&#160;6&#160;&gt;&#160;7&#160;&gt;&#160;8</text><text class="terminal-3866900902-r1" x="1220" y="44.4" textLength="12.2" clip-path="url(#terminal-3866900902-line-1)">
</text><text class="terminal-3866900902-r1" x="1220" y="68.8" textLength="12.2" clip-path="url(#terminal-3866900902-line-2)">
</text><text class="terminal-3866900902-r5" x="0" y="93.2" textLength="744.2" clip-path="url(#terminal-3866900902-line-3)">&#160;&#160;Complete&#160;each&#160;step&#160;in&#160;order.&#160;Paths&#160;auto-fill&#160;between&#160;steps.</text><text class="terminal-3866900902-r1" x="1220" y="93.2" textLength="12.2" clip-path="url(#terminal-3866900902-line-3)">
</text><text class="terminal-3866900902-r5" x="0" y="117.6" textLength="536.8" clip-path="url(#terminal-3866900902-line-4)">&#160;&#160;Steps&#160;6&#160;(GPS)&#160;and&#160;8&#160;(Report)&#160;are&#160;optional.</text><text class="terminal-3866900902-r1" x="1220" y="117.6" textLength="12.2" clip-path="url(#terminal-3866900902-line-4)">
</text><text class="terminal-3866900902-r1" x="1220" y="142" textLength="12.2" clip-path="url(#terminal-3866900902-line-5)">
</text><text class="terminal-3866900902-r1" x="1220" y="166.4" textLength="12.2" clip-path="url(#terminal-3866900902-line-6)">
</text><text class="terminal-3866900902-r2" x="24.4" y="190.8" textLength="195.2" clip-path="url(#terminal-3866900902-line-7)">Output&#160;Directory</text><text class="terminal-3866900902-r1" x="1220" y="190.8" textLength="12.2" clip-path="url(#terminal-3866900902-line-7)">
</text><text class="terminal-3866900902-r7" x="0" y="215.2" textLength="12.2" clip-path="url(#terminal-3866900902-line-8)">▊</text><text class="terminal-3866900902-r8" x="12.2" y="215.2" textLength="1183.4" clip-path="url(#terminal-3866900902-line-8)">▔▔▔▔▔▔▔▔▔▔▔▔▔▔▔▔▔▔▔▔▔▔▔▔▔▔▔▔▔▔▔▔▔▔▔▔▔▔▔▔▔▔▔▔▔▔▔▔▔▔▔▔▔▔▔▔▔▔▔▔▔▔▔▔▔▔▔▔▔▔▔▔▔▔▔▔▔▔▔▔▔▔▔▔▔▔▔▔▔▔▔▔▔▔▔▔▔</text><text class="terminal-3866900902-r8" x="1195.6" y="215.2" textLength="12.2" clip-path="url(#terminal-3866900902-line-8)">▎</text><text class="terminal-3866900902-r1" x="1220" y="215.2" textLength="12.2" clip-path="url(#terminal-3866900902-line-8)">
</text><text class="terminal-3866900902-r7" x="0" y="239.6" textLength="12.2" clip-path="url(#terminal-3866900902-line-9)">▊</text><text class="terminal-3866900902-r5" x="36.6" y="239.6" textLength="97.6" clip-path="url(#terminal-3866900902-line-9)">recovery</text><text class="terminal-3866900902-r8" x="1195.6" y="239.6" textLength="12.2" clip-path="url(#terminal-3866900902-line-9)">▎</text><text class="terminal-3866900902-r1" x="1220" y="239.6" textLength="12.2" clip-path="url(#terminal-3866900902-line-9)">
</text><text class="terminal-3866900902-r7" x="0" y="264" textLength="12.2" clip-path="url(#terminal-3866900902-line-10)">▊</text><text class="terminal-3866900902-r8" x="12.2" y="264" textLength="1183.4" clip-path="url(#terminal-3866900902-line-10)">▁▁▁▁▁▁▁▁▁▁▁▁▁▁▁▁▁▁▁▁▁▁▁▁▁▁▁▁▁▁▁▁▁▁▁▁▁▁▁▁▁▁▁▁▁▁▁▁▁▁▁▁▁▁▁▁▁▁▁▁▁▁▁▁▁▁▁▁▁▁▁▁▁▁▁▁▁▁▁▁▁▁▁▁▁▁▁▁▁▁▁▁▁▁▁▁▁</text><text class="terminal-3866900902-r8" x="1195.6" y="264" textLength="12.2" clip-path="url(#terminal-3866900902-line-10)">▎</text><text class="terminal-3866900902-r1" x="1220" y="264" textLength="12.2" clip-path="url(#terminal-3866900902-line-10)">
</text><text class="terminal-3866900902-r1" x="1220" y="288.4" textLength="12.2" clip-path="url(#terminal-3866900902-line-11)">
</text><text class="terminal-3866900902-r1" x="1220" y="312.8" textLength="12.2" clip-path="url(#terminal-3866900902-line-12)">
</text><text class="terminal-3866900902-r3" x="24.4" y="337.2" textLength="195.2" clip-path="url(#terminal-3866900902-line-13)">---&#160;Recovery&#160;---</text><text class="terminal-3866900902-r1" x="1220" y="337.2" textLength="12.2" clip-path="url(#terminal-3866900902-line-13)">
</text><text class="terminal-3866900902-r10" x="12.2" y="361.6" textLength="195.2" clip-path="url(#terminal-3866900902-line-14)">▔▔▔▔▔▔▔▔▔▔▔▔▔▔▔▔</text><text class="terminal-3866900902-r10" x="219.6" y="361.6" textLength="146.4" clip-path="url(#terminal-3866900902-line-14)">▔▔▔▔▔▔▔▔▔▔▔▔</text><text class="terminal-3866900902-r11" x="378.2" y="361.6" textLength="122" clip-path="url(#terminal-3866900902-line-14)">▔▔▔▔▔▔▔▔▔▔</text><text class="terminal-3866900902-r11" x="512.4" y="361.6" textLength="134.2" clip-path="url(#terminal-3866900902-line-14)">▔▔▔▔▔▔▔▔▔▔▔</text><text class="terminal-3866900902-r1" x="1220" y="361.6" textLength="12.2" clip-path="url(#terminal-3866900902-line-14)">
</text><text class="terminal-3866900902-r12" x="12.2" y="386" textLength="195.2" clip-path="url(#terminal-3866900902-line-15)">&#160;1.&#160;Read&#160;Floppy&#160;</text><text class="terminal-3866900902-r12" x="219.6" y="386" textLength="146.4" clip-path="url(#terminal-3866900902-line-15)">&#160;2.&#160;Extract&#160;</text><text class="terminal-3866900902-r13" x="378.2" y="386" textLength="122" clip-path="url(#terminal-3866900902-line-15)">&#160;3.&#160;Check&#160;</text><text class="terminal-3866900902-r13" x="512.4" y="386" textLength="134.2" clip-path="url(#terminal-3866900902-line-15)">&#160;4.&#160;Repair&#160;</text><text class="terminal-3866900902-r1" x="1220" y="386" textLength="12.2" clip-path="url(#terminal-3866900902-line-15)">
</text><text class="terminal-3866900902-r14" x="12.2" y="410.4" textLength="195.2" clip-path="url(#terminal-3866900902-line-16)">▁▁▁▁▁▁▁▁▁▁▁▁▁▁▁▁</text><text class="terminal-3866900902-r14" x="219.6" y="410.4" textLength="146.4" clip-path="url(#terminal-3866900902-line-16)">▁▁▁▁▁▁▁▁▁▁▁▁</text><text class="terminal-3866900902-r7" x="378.2" y="410.4" textLength="122" clip-path="url(#terminal-3866900902-line-16)">▁▁▁▁▁▁▁▁▁▁</text><text class="terminal-3866900902-r7" x="512.4" y="410.4" textLength="134.2" clip-path="url(#terminal-3866900902-line-16)">▁▁▁▁▁▁▁▁▁▁▁</text><text class="terminal-3866900902-r1" x="1220" y="410.4" textLength="12.2" clip-path="url(#terminal-3866900902-line-16)">
</text><text class="terminal-3866900902-r1" x="1220" y="434.8" textLength="12.2" clip-path="url(#terminal-3866900902-line-17)">
</text><text class="terminal-3866900902-r1" x="1220" y="459.2" textLength="12.2" clip-path="url(#terminal-3866900902-line-18)">
</text><text class="terminal-3866900902-r3" x="24.4" y="483.6" textLength="280.6" clip-path="url(#terminal-3866900902-line-19)">---&#160;Post-Processing&#160;---</text><text class="terminal-3866900902-r1" x="1220" y="483.6" textLength="12.2" clip-path="url(#terminal-3866900902-line-19)">
</text><text class="terminal-3866900902-r11" x="12.2" y="508" textLength="158.6" clip-path="url(#terminal-3866900902-line-20)">▔▔▔▔▔▔▔▔▔▔▔▔▔</text><text class="terminal-3866900902-r11" x="183" y="508" textLength="146.4" clip-path="url(#terminal-3866900902-line-20)">▔▔▔▔▔▔▔▔▔▔▔▔</text><text class="terminal-3866900902-r11" x="341.6" y="508" textLength="134.2" clip-path="url(#terminal-3866900902-line-20)">▔▔▔▔▔▔▔▔▔▔▔</text><text class="terminal-3866900902-r11" x="488" y="508" textLength="134.2" clip-path="url(#terminal-3866900902-line-20)">▔▔▔▔▔▔▔▔▔▔▔</text><text class="terminal-3866900902-r1" x="1220" y="508" textLength="12.2" clip-path="url(#terminal-3866900902-line-20)">
</text><text class="terminal-3866900902-r13" x="12.2" y="532.4" textLength="158.6" clip-path="url(#terminal-3866900902-line-21)">&#160;5.&#160;Add&#160;Info&#160;</text><text class="terminal-3866900902-r13" x="183" y="532.4" textLength="146.4" clip-path="url(#terminal-3866900902-line-21)">&#160;6.&#160;Add&#160;GPS&#160;</text><text class="terminal-3866900902-r13" x="341.6" y="532.4" textLength="134.2" clip-path="url(#terminal-3866900902-line-21)">&#160;7.&#160;Export&#160;</text><text class="terminal-3866900902-r13" x="488" y="532.4" textLength="134.2" clip-path="url(#terminal-3866900902-line-21)">&#160;8.&#160;Report&#160;</text><text class="terminal-3866900902-r1" x="1220" y="532.4" textLength="12.2" clip-path="url(#terminal-3866900902-line-21)">
</text><text class="terminal-3866900902-r7" x="12.2" y="556.8" textLength="158.6" clip-path="url(#terminal-3866900902-line-22)">▁▁▁▁▁▁▁▁▁▁▁▁▁</text><text class="terminal-3866900902-r7" x="183" y="556.8" textLength="146.4" clip-path="url(#terminal-3866900902-line-22)">▁▁▁▁▁▁▁▁▁▁▁▁</text><text class="terminal-3866900902-r7" x="341.6" y="556.8" textLength="134.2" clip-path="url(#terminal-3866900902-line-22)">▁▁▁▁▁▁▁▁▁▁▁</text><text class="terminal-3866900902-r7" x="488" y="556.8" textLength="134.2" clip-path="url(#terminal-3866900902-line-22)">▁▁▁▁▁▁▁▁▁▁▁</text><text class="terminal-3866900902-r1" x="1220" y="556.8" textLength="12.2" clip-path="url(#terminal-3866900902-line-22)">
</text><text class="terminal-3866900902-r1" x="1220" y="581.2" textLength="12.2" clip-path="url(#terminal-3866900902-line-23)">
</text><text class="terminal-3866900902-r1" x="1220" y="605.6" textLength="12.2" clip-path="url(#terminal-3866900902-line-24)">
</text><text class="terminal-3866900902-r1" x="1220" y="630" textLength="12.2" clip-path="url(#terminal-3866900902-line-25)">
</text><text class="terminal-3866900902-r7" x="0" y="654.4" textLength="12.2" clip-path="url(#terminal-3866900902-line-26)">▊</text><text class="terminal-3866900902-r15" x="12.2" y="654.4" textLength="1195.6" clip-path="url(#terminal-3866900902-line-26)">▔▔▔▔▔▔▔▔▔▔▔▔▔▔▔▔▔▔▔▔▔▔▔▔▔▔▔▔▔▔▔▔▔▔▔▔▔▔▔▔▔▔▔▔▔▔▔▔▔▔▔▔▔▔▔▔▔▔▔▔▔▔▔▔▔▔▔▔▔▔▔▔▔▔▔▔▔▔▔▔▔▔▔▔▔▔▔▔▔▔▔▔▔▔▔▔▔▔</text><text class="terminal-3866900902-r15" x="1207.8" y="654.4" textLength="12.2" clip-path="url(#terminal-3866900902-line-26)">▎</text><text class="terminal-3866900902-r1" x="1220" y="654.4" textLength="12.2" clip-path="url(#terminal-3866900902-line-26)">
</text><text class="terminal-3866900902-r7" x="0" y="678.8" textLength="12.2" clip-path="url(#terminal-3866900902-line-27)">▊</text><text class="terminal-3866900902-r15" x="12.2" y="678.8" textLength="1195.6" clip-path="url(#terminal-3866900902-line-27)">▁▁▁▁▁▁▁▁▁▁▁▁▁▁▁▁▁▁▁▁▁▁▁▁▁▁▁▁▁▁▁▁▁▁▁▁▁▁▁▁▁▁▁▁▁▁▁▁▁▁▁▁▁▁▁▁▁▁▁▁▁▁▁▁▁▁▁▁▁▁▁▁▁▁▁▁▁▁▁▁▁▁▁▁▁▁▁▁▁▁▁▁▁▁▁▁▁▁</text><text class="terminal-3866900902-r15" x="1207.8" y="678.8" textLength="12.2" clip-path="url(#terminal-3866900902-line-27)">▎</text><text class="terminal-3866900902-r1" x="1220" y="678.8" textLength="12.2" clip-path="url(#terminal-3866900902-line-27)">
</text><text class="terminal-3866900902-r1" x="1220" y="703.2" textLength="12.2" clip-path="url(#terminal-3866900902-line-28)">
</text><text class="terminal-3866900902-r1" x="1220" y="727.6" textLength="12.2" clip-path="url(#terminal-3866900902-line-29)">
</text><text class="terminal-3866900902-r1" x="1220" y="752" textLength="12.2" clip-path="url(#terminal-3866900902-line-30)">
</text><text class="terminal-3866900902-r1" x="1220" y="776.4" textLength="12.2" clip-path="url(#terminal-3866900902-line-31)">
</text><text class="terminal-3866900902-r1" x="1220" y="800.8" textLength="12.2" clip-path="url(#terminal-3866900902-line-32)">
</text><text class="terminal-3866900902-r1" x="1220" y="825.2" textLength="12.2" clip-path="url(#terminal-3866900902-line-33)">
</text><text class="terminal-3866900902-r1" x="1220" y="849.6" textLength="12.2" clip-path="url(#terminal-3866900902-line-34)">
</text><text class="terminal-3866900902-r1" x="1220" y="874" textLength="12.2" clip-path="url(#terminal-3866900902-line-35)">
</text><text class="terminal-3866900902-r1" x="1220" y="898.4" textLength="12.2" clip-path="url(#terminal-3866900902-line-36)">
</text><text class="terminal-3866900902-r16" x="0" y="922.8" textLength="61" clip-path="url(#terminal-3866900902-line-37)">&#160;esc&#160;</text><text class="terminal-3866900902-r5" x="61" y="922.8" textLength="61" clip-path="url(#terminal-3866900902-line-37)">Back&#160;</text><text class="terminal-3866900902-r17" x="1073.6" y="922.8" textLength="12.2" clip-path="url(#terminal-3866900902-line-37)">▏</text><text class="terminal-3866900902-r16" x="1085.8" y="922.8" textLength="24.4" clip-path="url(#terminal-3866900902-line-37)">^p</text><text class="terminal-3866900902-r5" x="1110.2" y="922.8" textLength="97.6" clip-path="url(#terminal-3866900902-line-37)">&#160;palette</text>
    </g>
    </g>
</svg>
