<svg class="rich-terminal" viewBox="0 0 1238 830.8" xmlns="http://www.w3.org/2000/svg">
    <!-- Generated with Rich https://www.textualize.io -->
    <style>

    @font-face {
        font-family: "Fira Code";
        src: local("FiraCode-Regular"),
                url("https://cdnjs.cloudflare.com/ajax/libs/firacode/6.2.0/woff2/FiraCode-Regular.woff2") format("woff2"),
                url("https://cdnjs.cloudflare.com/ajax/libs/firacode/6.2.0/woff/FiraCode-Regular.woff") format("woff");
        font-style: normal;
        font-weight: 400;
    }
    @font-face {
        font-family: "Fira Code";
        src: local("FiraCode-Bold"),
                url("https://cdnjs.cloudflare.com/ajax/libs/firacode/6.2.0/woff2/FiraCode-Bold.woff2") format("woff2"),
                url("https://cdnjs.cloudflare.com/ajax/libs/firacode/6.2.0/woff/FiraCode-Bold.woff") format("woff");
        font-style: bold;
        font-weight: 700;
    }

    .terminal-1389250656-matrix {
        font-family: Fira Code, monospace;
        font-size: 20px;
        line-height: 24.4px;
        font-variant-east-asian: full-width;
    }

    .terminal-1389250656-title {
        font-size: 18px;
        font-weight: bold;
        font-family: arial;
    }

    .terminal-1389250656-r1 { fill: #c5c8c6 }
.terminal-1389250656-r2 { fill: #ffaa00;font-weight: bold }
.terminal-1389250656-r3 { fill: #e0e0e0 }
.terminal-1389250656-r4 { fill: #e0e0e0;font-weight: bold }
.terminal-1389250656-r5 { fill: #7ae998 }
.terminal-1389250656-r6 { fill: #2d2d2d }
.terminal-1389250656-r7 { fill: #55c076;font-weight: bold }
.terminal-1389250656-r8 { fill: #008139 }
.terminal-1389250656-r9 { fill: #0d0d0d }
.terminal-1389250656-r10 { fill: #0a0a0a }
.terminal-1389250656-r11 { fill: #333333 }
.terminal-1389250656-r12 { fill: #ffa62b;font-weight: bold }
.terminal-1389250656-r13 { fill: #495259 }
    </style>

    <defs>
    <clipPath id="terminal-1389250656-clip-terminal">
      <rect x="0" y="0" width="1219.0" height="779.8" />
    </clipPath>
    <clipPath id="terminal-1389250656-line-0">
    <rect x="0" y="1.5" width="1220" height="24.65"/>
            </clipPath>
<clipPath id="terminal-1389250656-line-1">
    <rect x="0" y="25.9" width="1220" height="24.65"/>
            </clipPath>
<clipPath id="terminal-1389250656-line-2">
    <rect x="0" y="50.3" width="1220" height="24.65"/>
            </clipPath>
<clipPath id="terminal-1389250656-line-3">
    <rect x="0" y="74.7" width="1220" height="24.65"/>
            </clipPath>
<clipPath id="terminal-1389250656-line-4">
    <rect x="0" y="99.1" width="1220" height="24.65"/>
            </clipPath>
<clipPath id="terminal-1389250656-line-5">
    <rect x="0" y="123.5" width="1220" height="24.65"/>
            </clipPath>
<clipPath id="terminal-1389250656-line-6">
    <rect x="0" y="147.9" width="1220" height="24.65"/>
            </clipPath>
<clipPath id="terminal-1389250656-line-7">
    <rect x="0" y="172.3" width="1220" height="24.65"/>
            </clipPath>
<clipPath id="terminal-1389250656-line-8">
    <rect x="0" y="196.7" width="1220" height="24.65"/>
            </clipPath>
<clipPath id="terminal-1389250656-line-9">
    <rect x="0" y="221.1" width="1220" height="24.65"/>
            </clipPath>
<clipPath id="terminal-1389250656-line-10">
    <rect x="0" y="245.5" width="1220" height="24.65"/>
            </clipPath>
<clipPath id="terminal-1389250656-line-11">
    <rect x="0" y="269.9" width="1220" height="24.65"/>
            </clipPath>
<clipPath id="terminal-1389250656-line-12">
    <rect x="0" y="294.3" width="1220" height="24.65"/>
            </clipPath>
<clipPath id="terminal-1389250656-line-13">
    <rect x="0" y="318.7" width="1220" height="24.65"/>
            </clipPath>
<clipPath id="terminal-1389250656-line-14">
    <rect x="0" y="343.1" width="1220" height="24.65"/>
            </clipPath>
<clipPath id="terminal-1389250656-line-15">
    <rect x="0" y="367.5" width="1220" height="24.65"/>
            </clipPath>
<clipPath id="terminal-1389250656-line-16">
    <rect x="0" y="391.9" width="1220" height="24.65"/>
            </clipPath>
<clipPath id="terminal-1389250656-line-17">
    <rect x="0" y="416.3" width="1220" height="24.65"/>
            </clipPath>
<clipPath id="terminal-1389250656-line-18">
    <rect x="0" y="440.7" width="1220" height="24.65"/>
            </clipPath>
<clipPath id="terminal-1389250656-line-19">
    <rect x="0" y="465.1" width="1220" height="24.65"/>
            </clipPath>
<clipPath id="terminal-1389250656-line-20">
    <rect x="0" y="489.5" width="1220" height="24.65"/>
            </clipPath>
<clipPath id="terminal-1389250656-line-21">
    <rect x="0" y="513.9" width="1220" height="24.65"/>
            </clipPath>
<clipPath id="terminal-1389250656-line-22">
    <rect x="0" y="538.3" width="1220" height="24.65"/>
            </clipPath>
<clipPath id="terminal-1389250656-line-23">
    <rect x="0" y="562.7" width="1220" height="24.65"/>
            </clipPath>
<clipPath id="terminal-1389250656-line-24">
    <rect x="0" y="587.1" width="1220" height="24.65"/>
            </clipPath>
<clipPath id="terminal-1389250656-line-25">
    <rect x="0" y="611.5" width="1220" height="24.65"/>
            </clipPath>
<clipPath id="terminal-1389250656-line-26">
    <rect x="0" y="635.9" width="1220" height="24.65"/>
            </clipPath>
<clipPath id="terminal-1389250656-line-27">
    <rect x="0" y="660.3" width="1220" height="24.65"/>
            </clipPath>
<clipPath id="terminal-1389250656-line-28">
    <rect x="0" y="684.7" width="1220" height="24.65"/>
            </clipPath>
<clipPath id="terminal-1389250656-line-29">
    <rect x="0" y="709.1" width="1220" height="24.65"/>
            </clipPath>
<clipPath id="terminal-1389250656-line-30">
    <rect x="0" y="733.5" width="1220" height="24.65"/>
            </clipPath>
    </defs>

    <rect fill="#292929" stroke="rgba(255,255,255,0.35)" stroke-width="1" x="1" y="1" width="1236" height="828.8" rx="8"/><text class="terminal-1389250656-title" fill="#c5c8c6" text-anchor="middle" x="618" y="27">mavica-tools</text>
            <g transform="translate(26,22)">
            <circle cx="0" cy="0" r="7" fill="#ff5f57"/>
            <circle cx="22" cy="0" r="7" fill="#febc2e"/>
            <circle cx="44" cy="0" r="7" fill="#28c840"/>
            </g>
        
    <g transform="translate(9, 41)" clip-path="url(#terminal-1389250656-clip-terminal)">
    <rect fill="#1a1a1a" x="0" y="1.5" width="12.2" height="24.65" shape-rendering="crispEdges"/><rect fill="#1a1a1a" x="12.2" y="1.5" width="85.4" height="24.65" shape-rendering="crispEdges"/><rect fill="#1a1a1a" x="97.6" y="1.5" width="207.4" height="24.65" shape-rendering="crispEdges"/><rect fill="#1a1a1a" x="305" y="1.5" width="793" height="24.65" shape-rendering="crispEdges"/><rect fill="#1a1a1a" x="1098" y="1.5" width="109.8" height="24.65" shape-rendering="crispEdges"/><rect fill="#1a1a1a" x="1207.8" y="1.5" width="12.2" height="24.65" shape-rendering="crispEdges"/><rect fill="#0a0a0a" x="0" y="25.9" width="24.4" height="24.65" shape-rendering="crispEdges"/><rect fill="#0a0a0a" x="24.4" y="25.9" width="36.6" height="24.65" shape-rendering="crispEdges"/><rect fill="#0a0a0a" x="61" y="25.9" width="231.8" height="24.65" shape-rendering="crispEdges"/><rect fill="#0a0a0a" x="292.8" y="25.9" width="36.6" height="24.65" shape-rendering="crispEdges"/><rect fill="#0a0a0a" x="329.4" y="25.9" width="170.8" height="24.65" shape-rendering="crispEdges"/><rect fill="#0a0a0a" x="500.2" y="25.9" width="36.6" height="24.65" shape-rendering="crispEdges"/><rect fill="#0a0a0a" x="536.8" y="25.9" width="170.8" height="24.65" shape-rendering="crispEdges"/><rect fill="#0a0a0a" x="707.6" y="25.9" width="36.6" height="24.65" shape-rendering="crispEdges"/><rect fill="#0a0a0a" x="744.2" y="25.9" width="85.4" height="24.65" shape-rendering="crispEdges"/><rect fill="#0a0a0a" x="829.6" y="25.9" width="390.4" height="24.65" shape-rendering="crispEdges"/><rect fill="#0a0a0a" x="0" y="50.3" width="0" height="24.65" shape-rendering="crispEdges"/><rect fill="#0a0a0a" x="0" y="50.3" width="1220" height="24.65" shape-rendering="crispEdges"/><rect fill="#0a0a0a" x="0" y="74.7" width="24.4" height="24.65" shape-rendering="crispEdges"/><rect fill="#0a0a0a" x="24.4" y="74.7" width="195.2" height="24.65" shape-rendering="crispEdges"/><rect fill="#0a0a0a" x="219.6" y="74.7" width="658.8" height="24.65" shape-rendering="crispEdges"/><rect fill="#0a0a0a" x="878.4" y="74.7" width="341.6" height="24.65" shape-rendering="crispEdges"/><rect fill="#0a0a0a" x="0" y="99.1" width="0" height="24.65" shape-rendering="crispEdges"/><rect fill="#0a0a0a" x="0" y="99.1" width="1220" height="24.65" shape-rendering="crispEdges"/><rect fill="#0a0a0a" x="0" y="123.5" width="744.2" height="24.65" shape-rendering="crispEdges"/><rect fill="#0a0a0a" x="744.2" y="123.5" width="475.8" height="24.65" shape-rendering="crispEdges"/><rect fill="#0a0a0a" x="0" y="147.9" width="561.2" height="24.65" shape-rendering="crispEdges"/><rect fill="#0a0a0a" x="561.2" y="147.9" width="658.8" height="24.65" shape-rendering="crispEdges"/><rect fill="#0a0a0a" x="0" y="172.3" width="0" height="24.65" shape-rendering="crispEdges"/><rect fill="#0a0a0a" x="0" y="172.3" width="1220" height="24.65" shape-rendering="crispEdges"/><rect fill="#0a0a0a" x="0" y="196.7" width="12.2" height="24.65" shape-rendering="crispEdges"/><rect fill="#55c076" x="12.2" y="196.7" width="231.8" height="24.65" shape-rendering="crispEdges"/><rect fill="#0a0a0a" x="244" y="196.7" width="12.2" height="24.65" shape-rendering="crispEdges"/><rect fill="#1e1e1e" x="256.2" y="196.7" width="195.2" height="24.65" shape-rendering="crispEdges"/><rect fill="#0a0a0a" x="451.4" y="196.7" width="12.2" height="24.65" shape-rendering="crispEdges"/><rect fill="#1e1e1e" x="463.6" y="196.7" width="195.2" height="24.65" shape-rendering="crispEdges"/><rect fill="#0a0a0a" x="658.8" y="196.7" width="12.2" height="24.65" shape-rendering="crispEdges"/><rect fill="#1e1e1e" x="671" y="196.7" width="195.2" height="24.65" shape-rendering="crispEdges"/><rect fill="#0a0a0a" x="866.2" y="196.7" width="353.8" height="24.65" shape-rendering="crispEdges"/><rect fill="#0a0a0a" x="0" y="221.1" width="12.2" height="24.65" shape-rendering="crispEdges"/><rect fill="#0b180f" x="12.2" y="221.1" width="231.8" height="24.65" shape-rendering="crispEdges"/><rect fill="#0a0a0a" x="244" y="221.1" width="12.2" height="24.65" shape-rendering="crispEdges"/><rect fill="#1e1e1e" x="256.2" y="221.1" width="195.2" height="24.65" shape-rendering="crispEdges"/><rect fill="#0a0a0a" x="451.4" y="221.1" width="12.2" height="24.65" shape-rendering="crispEdges"/><rect fill="#1e1e1e" x="463.6" y="221.1" width="195.2" height="24.65" shape-rendering="crispEdges"/><rect fill="#0a0a0a" x="658.8" y="221.1" width="12.2" height="24.65" shape-rendering="crispEdges"/><rect fill="#1e1e1e" x="671" y="221.1" width="24.4" height="24.65" shape-rendering="crispEdges"/><rect fill="#1e1e1e" x="695.4" y="221.1" width="134.2" height="24.65" shape-rendering="crispEdges"/><rect fill="#1e1e1e" x="829.6" y="221.1" width="36.6" height="24.65" shape-rendering="crispEdges"/><rect fill="#0a0a0a" x="866.2" y="221.1" width="353.8" height="24.65" shape-rendering="crispEdges"/><rect fill="#0a0a0a" x="0" y="245.5" width="12.2" height="24.65" shape-rendering="crispEdges"/><rect fill="#55c076" x="12.2" y="245.5" width="231.8" height="24.65" shape-rendering="crispEdges"/><rect fill="#0a0a0a" x="244" y="245.5" width="12.2" height="24.65" shape-rendering="crispEdges"/><rect fill="#1e1e1e" x="256.2" y="245.5" width="195.2" height="24.65" shape-rendering="crispEdges"/><rect fill="#0a0a0a" x="451.4" y="245.5" width="12.2" height="24.65" shape-rendering="crispEdges"/><rect fill="#1e1e1e" x="463.6" y="245.5" width="195.2" height="24.65" shape-rendering="crispEdges"/><rect fill="#0a0a0a" x="658.8" y="245.5" width="12.2" height="24.65" shape-rendering="crispEdges"/><rect fill="#1e1e1e" x="671" y="245.5" width="195.2" height="24.65" shape-rendering="crispEdges"/><rect fill="#0a0a0a" x="866.2" y="245.5" width="353.8" height="24.65" shape-rendering="crispEdges"/><rect fill="#0a0a0a" x="0" y="269.9" width="1220" height="24.65" shape-rendering="crispEdges"/><rect fill="#0a0a0a" x="0" y="294.3" width="1220" height="24.65" shape-rendering="crispEdges"/><rect fill="#0a0a0a" x="0" y="318.7" width="1220" height="24.65" shape-rendering="crispEdges"/><rect fill="#0a0a0a" x="0" y="343.1" width="1220" height="24.65" shape-rendering="crispEdges"/><rect fill="#0a0a0a" x="0" y="367.5" width="1220" height="24.65" shape-rendering="crispEdges"/><rect fill="#0a0a0a" x="0" y="391.9" width="0" height="24.65" shape-rendering="crispEdges"/><rect fill="#0a0a0a" x="0" y="391.9" width="1220" height="24.65" shape-rendering="crispEdges"/><rect fill="#0a0a0a" x="0" y="416.3" width="24.4" height="24.65" shape-rendering="crispEdges"/><rect fill="#0a0a0a" x="24.4" y="416.3" width="207.4" height="24.65" shape-rendering="crispEdges"/><rect fill="#0a0a0a" x="231.8" y="416.3" width="988.2" height="24.65" shape-rendering="crispEdges"/><rect fill="#333333" x="0" y="440.7" width="12.2" height="24.65" shape-rendering="crispEdges"/><rect fill="#1e1e1e" x="12.2" y="440.7" width="1183.4" height="24.65" shape-rendering="crispEdges"/><rect fill="#0a0a0a" x="1195.6" y="440.7" width="12.2" height="24.65" shape-rendering="crispEdges"/><rect fill="#0a0a0a" x="1207.8" y="440.7" width="12.2" height="24.65" shape-rendering="crispEdges"/><rect fill="#333333" x="0" y="465.1" width="12.2" height="24.65" shape-rendering="crispEdges"/><rect fill="#1e1e1e" x="12.2" y="465.1" width="24.4" height="24.65" shape-rendering="crispEdges"/><rect fill="#1e1e1e" x="36.6" y="465.1" width="97.6" height="24.65" shape-rendering="crispEdges"/><rect fill="#1e1e1e" x="134.2" y="465.1" width="1037" height="24.65" shape-rendering="crispEdges"/><rect fill="#1e1e1e" x="1171.2" y="465.1" width="24.4" height="24.65" shape-rendering="crispEdges"/><rect fill="#0a0a0a" x="1195.6" y="465.1" width="12.2" height="24.65" shape-rendering="crispEdges"/><rect fill="#0a0a0a" x="1207.8" y="465.1" width="12.2" height="24.65" shape-rendering="crispEdges"/><rect fill="#333333" x="0" y="489.5" width="12.2" height="24.65" shape-rendering="crispEdges"/><rect fill="#1e1e1e" x="12.2" y="489.5" width="1183.4" height="24.65" shape-rendering="crispEdges"/><rect fill="#0a0a0a" x="1195.6" y="489.5" width="12.2" height="24.65" shape-rendering="crispEdges"/><rect fill="#0a0a0a" x="1207.8" y="489.5" width="12.2" height="24.65" shape-rendering="crispEdges"/><rect fill="#0a0a0a" x="0" y="513.9" width="1220" height="24.65" shape-rendering="crispEdges"/><rect fill="#0a0a0a" x="0" y="538.3" width="1220" height="24.65" shape-rendering="crispEdges"/><rect fill="#0a0a0a" x="0" y="562.7" width="1220" height="24.65" shape-rendering="crispEdges"/><rect fill="#0a0a0a" x="0" y="587.1" width="1220" height="24.65" shape-rendering="crispEdges"/><rect fill="#0a0a0a" x="0" y="611.5" width="1220" height="24.65" shape-rendering="crispEdges"/><rect fill="#0a0a0a" x="0" y="635.9" width="0" height="24.65" shape-rendering="crispEdges"/><rect fill="#0a0a0a" x="0" y="635.9" width="1220" height="24.65" shape-rendering="crispEdges"/><rect fill="#0a0a0a" x="0" y="660.3" width="1220" height="24.65" shape-rendering="crispEdges"/><rect fill="#333333" x="0" y="684.7" width="12.2" height="24.65" shape-rendering="crispEdges"/><rect fill="#0a0a0a" x="12.2" y="684.7" width="1195.6" height="24.65" shape-rendering="crispEdges"/><rect fill="#0a0a0a" x="1207.8" y="684.7" width="12.2" height="24.65" shape-rendering="crispEdges"/><rect fill="#333333" x="0" y="709.1" width="12.2" height="24.65" shape-rendering="crispEdges"/><rect fill="#0a0a0a" x="12.2" y="709.1" width="1195.6" height="24.65" shape-rendering="crispEdges"/><rect fill="#0a0a0a" x="1207.8" y="709.1" width="12.2" height="24.65" shape-rendering="crispEdges"/><rect fill="#0a0a0a" x="0" y="733.5" width="1220" height="24.65" shape-rendering="crispEdges"/><rect fill="#242f38" x="0" y="757.9" width="61" height="24.65" shape-rendering="crispEdges"/><rect fill="#242f38" x="61" y="757.9" width="61" height="24.65" shape-rendering="crispEdges"/><rect fill="#242f38" x="122" y="757.9" width="36.6" height="24.65" shape-rendering="crispEdges"/><rect fill="#242f38" x="158.6" y="757.9" width="61" height="24.65" shape-rendering="crispEdges"/><rect fill="#242f38" x="219.6" y="757.9" width="36.6" height="24.65" shape-rendering="crispEdges"/><rect fill="#242f38" x="256.2" y="757.9" width="61" height="24.65" shape-rendering="crispEdges"/><rect fill="#242f38" x="317.2" y="757.9" width="36.6" height="24.65" shape-rendering="crispEdges"/><rect fill="#242f38" x="353.8" y="757.9" width="61" height="24.65" shape-rendering="crispEdges"/><rect fill="#242f38" x="414.8" y="757.9" width="658.8" height="24.65" shape-rendering="crispEdges"/><rect fill="#242f38" x="1073.6" y="757.9" width="12.2" height="24.65" shape-rendering="crispEdges"/><rect fill="#242f38" x="1085.8" y="757.9" width="24.4" height="24.65" shape-rendering="crispEdges"/><rect fill="#242f38" x="1110.2" y="757.9" width="97.6" height="24.65" shape-rendering="crispEdges"/><rect fill="#242f38" x="1207.8" y="757.9" width="12.2" height="24.65" shape-rendering="crispEdges"/>
    <g class="terminal-1389250656-matrix">
    <text class="terminal-1389250656-r2" x="12.2" y="20" textLength="85.4" clip-path="url(#terminal-1389250656-line-0)">Guided&#160;</text><text class="terminal-1389250656-r2" x="97.6" y="20" textLength="207.4" clip-path="url(#terminal-1389250656-line-0)">Recovery&#160;Workflow</text><text class="terminal-1389250656-r1" x="1220" y="20" textLength="12.2" clip-path="url(#terminal-1389250656-line-0)">
</text><text class="terminal-1389250656-r2" x="24.4" y="44.4" textLength="36.6" clip-path="url(#terminal-1389250656-line-1)">[1]</text><text class="terminal-1389250656-r3" x="61" y="44.4" textLength="231.8" clip-path="url(#terminal-1389250656-line-1)">&#160;Image&#160;the&#160;Floppy&#160;&#160;</text><text class="terminal-1389250656-r2" x="292.8" y="44.4" textLength="36.6" clip-path="url(#terminal-1389250656-line-1)">[2]</text><text class="terminal-1389250656-r3" x="329.4" y="44.4" textLength="170.8" clip-path="url(#terminal-1389250656-line-1)">&#160;Carve&#160;JPEGs&#160;&#160;</text><text class="terminal-1389250656-r2" x="500.2" y="44.4" textLength="36.6" clip-path="url(#terminal-1389250656-line-1)">[3]</text><text class="terminal-1389250656-r3" x="536.8" y="44.4" textLength="170.8" clip-path="url(#terminal-1389250656-line-1)">&#160;Check&#160;Files&#160;&#160;</text><text class="terminal-1389250656-r2" x="707.6" y="44.4" textLength="36.6" clip-path="url(#terminal-1389250656-line-1)">[4]</text><text class="terminal-1389250656-r3" x="744.2" y="44.4" textLength="85.4" clip-path="url(#terminal-1389250656-line-1)">&#160;Repair</text><text class="terminal-1389250656-r1" x="1220" y="44.4" textLength="12.2" clip-path="url(#terminal-1389250656-line-1)">
</text><text class="terminal-1389250656-r1" x="1220" y="68.8" textLength="12.2" clip-path="url(#terminal-1389250656-line-2)">
</text><text class="terminal-1389250656-r4" x="24.4" y="93.2" textLength="195.2" clip-path="url(#terminal-1389250656-line-3)">Image&#160;the&#160;Floppy</text><text class="terminal-1389250656-r3" x="219.6" y="93.2" textLength="658.8" clip-path="url(#terminal-1389250656-line-3)">:&#160;Run&#160;a&#160;multi-pass&#160;read&#160;to&#160;capture&#160;data&#160;from&#160;the&#160;disk.</text><text class="terminal-1389250656-r1" x="1220" y="93.2" textLength="12.2" clip-path="url(#terminal-1389250656-line-3)">
</text><text class="terminal-1389250656-r1" x="1220" y="117.6" textLength="12.2" clip-path="url(#terminal-1389250656-line-4)">
</text><text class="terminal-1389250656-r3" x="0" y="142" textLength="744.2" clip-path="url(#terminal-1389250656-line-5)">&#160;&#160;This&#160;workflow&#160;guides&#160;you&#160;through&#160;the&#160;full&#160;recovery&#160;process.</text><text class="terminal-1389250656-r1" x="1220" y="142" textLength="12.2" clip-path="url(#terminal-1389250656-line-5)">
</text><text class="terminal-1389250656-r3" x="0" y="166.4" textLength="561.2" clip-path="url(#terminal-1389250656-line-6)">&#160;&#160;Each&#160;step&#160;feeds&#160;into&#160;the&#160;next&#160;automatically.</text><text class="terminal-1389250656-r1" x="1220" y="166.4" textLength="12.2" clip-path="url(#terminal-1389250656-line-6)">
</text><text class="terminal-1389250656-r1" x="1220" y="190.8" textLength="12.2" clip-path="url(#terminal-1389250656-line-7)">
</text><text class="terminal-1389250656-r5" x="12.2" y="215.2" textLength="231.8" clip-path="url(#terminal-1389250656-line-8)">▔▔▔▔▔▔▔▔▔▔▔▔▔▔▔▔▔▔▔</text><text class="terminal-1389250656-r6" x="256.2" y="215.2" textLength="195.2" clip-path="url(#terminal-1389250656-line-8)">▔▔▔▔▔▔▔▔▔▔▔▔▔▔▔▔</text><text class="terminal-1389250656-r6" x="463.6" y="215.2" textLength="195.2" clip-path="url(#terminal-1389250656-line-8)">▔▔▔▔▔▔▔▔▔▔▔▔▔▔▔▔</text><text class="terminal-1389250656-r6" x="671" y="215.2" textLength="195.2" clip-path="url(#terminal-1389250656-line-8)">▔▔▔▔▔▔▔▔▔▔▔▔▔▔▔▔</text><text class="terminal-1389250656-r1" x="1220" y="215.2" textLength="12.2" clip-path="url(#terminal-1389250656-line-8)">
</text><text class="terminal-1389250656-r7" x="12.2" y="239.6" textLength="231.8" clip-path="url(#terminal-1389250656-line-9)">&#160;1.&#160;Multipass&#160;Read&#160;</text><text class="terminal-1389250656-r4" x="256.2" y="239.6" textLength="195.2" clip-path="url(#terminal-1389250656-line-9)">&#160;2.&#160;Carve&#160;JPEGs&#160;</text><text class="terminal-1389250656-r4" x="463.6" y="239.6" textLength="195.2" clip-path="url(#terminal-1389250656-line-9)">&#160;3.&#160;Check&#160;Files&#160;</text><text class="terminal-1389250656-r4" x="695.4" y="239.6" textLength="134.2" clip-path="url(#terminal-1389250656-line-9)">&#160;4.&#160;Repair&#160;</text><text class="terminal-1389250656-r1" x="1220" y="239.6" textLength="12.2" clip-path="url(#terminal-1389250656-line-9)">
</text><text class="terminal-1389250656-r8" x="12.2" y="264" textLength="231.8" clip-path="url(#terminal-1389250656-line-10)">▁▁▁▁▁▁▁▁▁▁▁▁▁▁▁▁▁▁▁</text><text class="terminal-1389250656-r9" x="256.2" y="264" textLength="195.2" clip-path="url(#terminal-1389250656-line-10)">▁▁▁▁▁▁▁▁▁▁▁▁▁▁▁▁</text><text class="terminal-1389250656-r9" x="463.6" y="264" textLength="195.2" clip-path="url(#terminal-1389250656-line-10)">▁▁▁▁▁▁▁▁▁▁▁▁▁▁▁▁</text><text class="terminal-1389250656-r9" x="671" y="264" textLength="195.2" clip-path="url(#terminal-1389250656-line-10)">▁▁▁▁▁▁▁▁▁▁▁▁▁▁▁▁</text><text class="terminal-1389250656-r1" x="1220" y="264" textLength="12.2" clip-path="url(#terminal-1389250656-line-10)">
</text><text class="terminal-1389250656-r1" x="1220" y="288.4" textLength="12.2" clip-path="url(#terminal-1389250656-line-11)">
</text><text class="terminal-1389250656-r1" x="1220" y="312.8" textLength="12.2" clip-path="url(#terminal-1389250656-line-12)">
</text><text class="terminal-1389250656-r1" x="1220" y="337.2" textLength="12.2" clip-path="url(#terminal-1389250656-line-13)">
</text><text class="terminal-1389250656-r1" x="1220" y="361.6" textLength="12.2" clip-path="url(#terminal-1389250656-line-14)">
</text><text class="terminal-1389250656-r1" x="1220" y="386" textLength="12.2" clip-path="url(#terminal-1389250656-line-15)">
</text><text class="terminal-1389250656-r1" x="1220" y="410.4" textLength="12.2" clip-path="url(#terminal-1389250656-line-16)">
</text><text class="terminal-1389250656-r2" x="24.4" y="434.8" textLength="207.4" clip-path="url(#terminal-1389250656-line-17)">Working&#160;Directory</text><text class="terminal-1389250656-r1" x="1220" y="434.8" textLength="12.2" clip-path="url(#terminal-1389250656-line-17)">
</text><text class="terminal-1389250656-r10" x="0" y="459.2" textLength="12.2" clip-path="url(#terminal-1389250656-line-18)">▊</text><text class="terminal-1389250656-r11" x="12.2" y="459.2" textLength="1183.4" clip-path="url(#terminal-1389250656-line-18)">▔▔▔▔▔▔▔▔▔▔▔▔▔▔▔▔▔▔▔▔▔▔▔▔▔▔▔▔▔▔▔▔▔▔▔▔▔▔▔▔▔▔▔▔▔▔▔▔▔▔▔▔▔▔▔▔▔▔▔▔▔▔▔▔▔▔▔▔▔▔▔▔▔▔▔▔▔▔▔▔▔▔▔▔▔▔▔▔▔▔▔▔▔▔▔▔▔</text><text class="terminal-1389250656-r11" x="1195.6" y="459.2" textLength="12.2" clip-path="url(#terminal-1389250656-line-18)">▎</text><text class="terminal-1389250656-r1" x="1220" y="459.2" textLength="12.2" clip-path="url(#terminal-1389250656-line-18)">
</text><text class="terminal-1389250656-r10" x="0" y="483.6" textLength="12.2" clip-path="url(#terminal-1389250656-line-19)">▊</text><text class="terminal-1389250656-r3" x="36.6" y="483.6" textLength="97.6" clip-path="url(#terminal-1389250656-line-19)">recovery</text><text class="terminal-1389250656-r11" x="1195.6" y="483.6" textLength="12.2" clip-path="url(#terminal-1389250656-line-19)">▎</text><text class="terminal-1389250656-r1" x="1220" y="483.6" textLength="12.2" clip-path="url(#terminal-1389250656-line-19)">
</text><text class="terminal-1389250656-r10" x="0" y="508" textLength="12.2" clip-path="url(#terminal-1389250656-line-20)">▊</text><text class="terminal-1389250656-r11" x="12.2" y="508" textLength="1183.4" clip-path="url(#terminal-1389250656-line-20)">▁▁▁▁▁▁▁▁▁▁▁▁▁▁▁▁▁▁▁▁▁▁▁▁▁▁▁▁▁▁▁▁▁▁▁▁▁▁▁▁▁▁▁▁▁▁▁▁▁▁▁▁▁▁▁▁▁▁▁▁▁▁▁▁▁▁▁▁▁▁▁▁▁▁▁▁▁▁▁▁▁▁▁▁▁▁▁▁▁▁▁▁▁▁▁▁▁</text><text class="terminal-1389250656-r11" x="1195.6" y="508" textLength="12.2" clip-path="url(#terminal-1389250656-line-20)">▎</text><text class="terminal-1389250656-r1" x="1220" y="508" textLength="12.2" clip-path="url(#terminal-1389250656-line-20)">
</text><text class="terminal-1389250656-r1" x="1220" y="532.4" textLength="12.2" clip-path="url(#terminal-1389250656-line-21)">
</text><text class="terminal-1389250656-r1" x="1220" y="556.8" textLength="12.2" clip-path="url(#terminal-1389250656-line-22)">
</text><text class="terminal-1389250656-r1" x="1220" y="581.2" textLength="12.2" clip-path="url(#terminal-1389250656-line-23)">
</text><text class="terminal-1389250656-r1" x="1220" y="605.6" textLength="12.2" clip-path="url(#terminal-1389250656-line-24)">
</text><text class="terminal-1389250656-r1" x="1220" y="630" textLength="12.2" clip-path="url(#terminal-1389250656-line-25)">
</text><text class="terminal-1389250656-r1" x="1220" y="654.4" textLength="12.2" clip-path="url(#terminal-1389250656-line-26)">
</text><text class="terminal-1389250656-r1" x="1220" y="678.8" textLength="12.2" clip-path="url(#terminal-1389250656-line-27)">
</text><text class="terminal-1389250656-r10" x="0" y="703.2" textLength="12.2" clip-path="url(#terminal-1389250656-line-28)">▊</text><text class="terminal-1389250656-r11" x="12.2" y="703.2" textLength="1195.6" clip-path="url(#terminal-1389250656-line-28)">▔▔▔▔▔▔▔▔▔▔▔▔▔▔▔▔▔▔▔▔▔▔▔▔▔▔▔▔▔▔▔▔▔▔▔▔▔▔▔▔▔▔▔▔▔▔▔▔▔▔▔▔▔▔▔▔▔▔▔▔▔▔▔▔▔▔▔▔▔▔▔▔▔▔▔▔▔▔▔▔▔▔▔▔▔▔▔▔▔▔▔▔▔▔▔▔▔▔</text><text class="terminal-1389250656-r11" x="1207.8" y="703.2" textLength="12.2" clip-path="url(#terminal-1389250656-line-28)">▎</text><text class="terminal-1389250656-r1" x="1220" y="703.2" textLength="12.2" clip-path="url(#terminal-1389250656-line-28)">
</text><text class="terminal-1389250656-r10" x="0" y="727.6" textLength="12.2" clip-path="url(#terminal-1389250656-line-29)">▊</text><text class="terminal-1389250656-r11" x="12.2" y="727.6" textLength="1195.6" clip-path="url(#terminal-1389250656-line-29)">▁▁▁▁▁▁▁▁▁▁▁▁▁▁▁▁▁▁▁▁▁▁▁▁▁▁▁▁▁▁▁▁▁▁▁▁▁▁▁▁▁▁▁▁▁▁▁▁▁▁▁▁▁▁▁▁▁▁▁▁▁▁▁▁▁▁▁▁▁▁▁▁▁▁▁▁▁▁▁▁▁▁▁▁▁▁▁▁▁▁▁▁▁▁▁▁▁▁</text><text class="terminal-1389250656-r11" x="1207.8" y="727.6" textLength="12.2" clip-path="url(#terminal-1389250656-line-29)">▎</text><text class="terminal-1389250656-r1" x="1220" y="727.6" textLength="12.2" clip-path="url(#terminal-1389250656-line-29)">
</text><text class="terminal-1389250656-r1" x="1220" y="752" textLength="12.2" clip-path="url(#terminal-1389250656-line-30)">
</text><text class="terminal-1389250656-r12" x="0" y="776.4" textLength="61" clip-path="url(#terminal-1389250656-line-31)">&#160;esc&#160;</text><text class="terminal-1389250656-r3" x="61" y="776.4" textLength="61" clip-path="url(#terminal-1389250656-line-31)">Back&#160;</text><text class="terminal-1389250656-r12" x="122" y="776.4" textLength="36.6" clip-path="url(#terminal-1389250656-line-31)">&#160;q&#160;</text><text class="terminal-1389250656-r3" x="158.6" y="776.4" textLength="61" clip-path="url(#terminal-1389250656-line-31)">Quit&#160;</text><text class="terminal-1389250656-r12" x="219.6" y="776.4" textLength="36.6" clip-path="url(#terminal-1389250656-line-31)">&#160;h&#160;</text><text class="terminal-1389250656-r3" x="256.2" y="776.4" textLength="61" clip-path="url(#terminal-1389250656-line-31)">Home&#160;</text><text class="terminal-1389250656-r12" x="317.2" y="776.4" textLength="36.6" clip-path="url(#terminal-1389250656-line-31)">&#160;?&#160;</text><text class="terminal-1389250656-r3" x="353.8" y="776.4" textLength="61" clip-path="url(#terminal-1389250656-line-31)">Help&#160;</text><text class="terminal-1389250656-r13" x="1073.6" y="776.4" textLength="12.2" clip-path="url(#terminal-1389250656-line-31)">▏</text><text class="terminal-1389250656-r12" x="1085.8" y="776.4" textLength="24.4" clip-path="url(#terminal-1389250656-line-31)">^p</text><text class="terminal-1389250656-r3" x="1110.2" y="776.4" textLength="97.6" clip-path="url(#terminal-1389250656-line-31)">&#160;palette</text>
    </g>
    </g>
</svg>
